<?xml version="1.0" encoding="UTF-8" standalone="no"?>
<svg width="243.769mm" height="122.061mm"
 viewBox="0 0 691 346"
 xmlns="http://www.w3.org/2000/svg" xmlns:xlink="http://www.w3.org/1999/xlink" version="1.2" baseProfile="tiny">
<title>Exported image from Sonic Visualiser</title>
<desc>Generated with Qt</desc>
<defs>
</defs>
<g fill="none" stroke="black" stroke-width="1" fill-rule="evenodd" stroke-linecap="square" stroke-linejoin="bevel" >

<g fill="#ffffff" fill-opacity="1" stroke="#ffffff" stroke-opacity="1" stroke-width="1" stroke-linecap="square" stroke-linejoin="bevel" transform="matrix(1,0,0,1,0,0)"
font-family="Segoe UI" font-size="9" font-weight="400" font-style="normal" 
>
<rect x="0" y="0" width="684" height="346"/>
</g>

<g fill="none" stroke="#000000" stroke-opacity="1" stroke-width="1" stroke-linecap="square" stroke-linejoin="bevel" transform="matrix(1,0,0,1,0,0)"
font-family="Segoe UI" font-size="9" font-weight="400" font-style="normal" 
>
</g>

<g fill="none" stroke="#0000c0" stroke-opacity="1" stroke-width="1" stroke-linecap="square" stroke-linejoin="bevel" transform="matrix(1,0,0,1,0,0)"
font-family="Segoe UI" font-size="9" font-weight="400" font-style="normal" 
>
<polyline fill="none" vector-effect="non-scaling-stroke" points="0,173.5 684,173.5 " />
</g>

<g fill="none" stroke="#000080" stroke-opacity="1" stroke-width="1" stroke-linecap="square" stroke-linejoin="bevel" transform="matrix(1,0,0,1,0,0)"
font-family="Segoe UI" font-size="9" font-weight="400" font-style="normal" 
>
<path vector-effect="non-scaling-stroke" fill-rule="evenodd" d="M0.5,172.984 L0.5,173.021 M0.5,173.003 L1.5,173 L2.5,173 L3.5,172.997 L4.5,173 L5.5,173 L6.5,173 L7.5,173 L8.5,173 L9.5,173 L10.5,173 L11.5,173.003 L12.5,173 L13.5,172.997 L14.5,172.997 L15.5,173 L16.5,173 L17.5,173 L18.5,173 L19.5,173.003 L20.5,173 L21.5,173 L22.5,173 L23.5,173 L24.5,173 L25.5,172.997 L26.5,173 L27.5,173 L28.5,173 L29.5,173 L30.5,172.997 L31.5,173 L32.5,173 L33.5,173 L34.5,173 L35.5,173 L36.5,173.003 L37.5,173.003 L38.5,173.003 L39.5,173.011 L40.5,172.987 L41.5,173.003 L42.5,172.997 L43.5,173.005 L44.5,172.997 L45.5,173 L46.5,173 L47.5,173.013 L48.5,172.997 L49.5,173.011 L50.5,173.011 L51.5,172.984 L52.5,172.995 L53.5,173.005 L54.5,172.984 L55.5,173.013 M56.5,172.192 L56.5,173.66 M57.5,170.455 L57.5,176.046 M58.5,163.122 L58.5,184.483 M59.5,155.614 L59.5,192.629 M60.5,156.296 L60.5,188.226 M61.5,150.52 L61.5,204.793 M62.5,149.232 L62.5,202.143 M63.5,145.23 L63.5,191.468 M64.5,151.322 L64.5,186.516 M65.5,152.082 L65.5,198.722 M66.5,157.278 L66.5,201.515 M67.5,144.021 L67.5,193.68 M68.5,149.485 L68.5,194.609 M69.5,147.938 L69.5,195.169 M70.5,150.509 L70.5,194.863 M71.5,159.505 L71.5,193.654 M72.5,157.584 L72.5,185.386 M73.5,158.898 L73.5,198.199 M74.5,149.337 L74.5,190.855 M75.5,154.316 L75.5,190.47 M76.5,153.096 L76.5,186.59 M77.5,156.053 L77.5,185.138 M78.5,158.782 L78.5,184.921 M79.5,159.395 L79.5,197.787 M80.5,156.369 L80.5,199.614 M81.5,159.067 L81.5,181.373 M82.5,159.775 L82.5,181.78 M83.5,158.022 L83.5,190.644 M84.5,162.209 L84.5,185.365 M85.5,162.251 L85.5,188.485 M86.5,166.728 L86.5,184.314 M87.5,162.451 L87.5,181.643 M88.5,158.919 L88.5,179.953 M89.5,163.835 L89.5,189.272 M90.5,162.071 L90.5,187.667 M91.5,162.272 L91.5,189.868 M92.5,164.13 L92.5,178.422 M93.5,163.074 L93.5,183.248 M94.5,163.94 L94.5,180.08 M95.5,165.213 L95.5,181.505 M96.5,162.847 L96.5,185.845 M97.5,168.972 L97.5,179.298 M98.5,166.965 L98.5,177.709 M99.5,167.319 L99.5,181.078 M100.5,164.711 L100.5,181.437 M101.5,168.449 L101.5,178.264 M102.5,165.973 L102.5,178.491 M103.5,163.924 L103.5,180.339 M104.5,165.957 L104.5,176.168 M105.5,166.29 L105.5,181.231 M106.5,167.002 L106.5,179.647 M107.5,166.781 L107.5,179.383 M108.5,165.329 L108.5,181.321 M109.5,167.752 L109.5,177.593 M110.5,169.125 L110.5,177.804 M111.5,167.61 L111.5,176.875 M112.5,168.375 L112.5,177.266 M113.5,165.83 L113.5,179.826 M114.5,168.46 L114.5,176.104 M115.5,167.926 L115.5,177.139 M116.5,169.452 L116.5,177.577 M117.5,167.858 L117.5,176.221 M118.5,168.079 L118.5,179.098 M119.5,168.18 L119.5,178.945 M120.5,169.23 L120.5,178.807 M121.5,167.288 L121.5,177.725 M122.5,167.52 L122.5,178.396 M123.5,168.761 L123.5,177.831 M124.5,170.107 L124.5,178.116 M125.5,169.98 L125.5,175.703 M126.5,168.829 L126.5,175.846 M127.5,169.151 L127.5,178.818 M128.5,169.637 L128.5,175.756 M129.5,170.17 L129.5,177.071 M130.5,169.896 L130.5,176.738 M131.5,167.826 L131.5,175.788 M132.5,169.431 L132.5,176.807 M133.5,170.74 L133.5,176.939 M134.5,170.561 L134.5,175.603 M135.5,169.072 L135.5,176.368 M136.5,169.283 L136.5,175.481 M137.5,170.239 L137.5,176.215 M138.5,169.922 L138.5,175.661 M139.5,169.853 L139.5,175.825 M140.5,171.469 L140.5,174.99 M141.5,170.582 L141.5,175.45 M142.5,171.316 L142.5,175.814 M143.5,171.036 L143.5,175.439 M144.5,170.783 L144.5,175.128 M145.5,170.645 L145.5,174.014 M146.5,170.767 L146.5,175.349 M147.5,170.893 L147.5,174.748 M148.5,171.231 L148.5,174.721 M149.5,171.912 L149.5,174.51 M150.5,171.538 L150.5,174.832 M151.5,171.105 L151.5,174.436 M152.5,171.448 L152.5,174.637 M153.5,171.337 L153.5,174.003 M154.5,171.638 L154.5,174.23 M155.5,171.691 L155.5,174.996 M156.5,171.765 L156.5,174.267 M157.5,172.081 L157.5,173.987 M158.5,172.029 L158.5,174.003 M159.5,171.802 L159.5,174.668 M160.5,171.997 L160.5,173.993 M161.5,171.96 L161.5,173.987 M162.5,172.219 L162.5,174.357 M163.5,172.044 L163.5,173.676 M164.5,172.256 L164.5,173.924 M165.5,171.812 L165.5,173.876 M166.5,172.588 L166.5,173.924 M167.5,171.949 L167.5,173.734 M168.5,172.393 L168.5,173.597 M169.5,172.208 L169.5,173.861 M170.5,172.282 L170.5,173.802 M171.5,172.134 L171.5,173.517 M171.5,172.826 L172.5,172.963 L173.5,173.087 M174.5,172.329 L174.5,173.412 M174.5,172.871 L175.5,172.945 L176.5,173.005 L177.5,173.055 L178.5,173.026 L179.5,173.037 L180.5,173.018 L181.5,173.021 L182.5,172.987 L183.5,172.945 L184.5,173.058 L185.5,172.987 L186.5,173.029 L187.5,173.008 L188.5,173.034 L189.5,172.995 L190.5,172.979 L191.5,172.923 L192.5,172.997 L193.5,173 L194.5,173.016 L195.5,172.992 L196.5,172.979 L197.5,172.987 L198.5,173.042 L199.5,172.995 L200.5,172.979 L201.5,173.021 L202.5,173.034 L203.5,172.982 L204.5,173.013 L205.5,172.989 L206.5,173.016 L207.5,173.003 L208.5,173.026 L209.5,173.003 L210.5,173.005 L211.5,172.995 L212.5,172.971 L213.5,173.008 L214.5,173.016 L215.5,172.984 L216.5,172.997 L217.5,172.995 L218.5,173.005 L219.5,173 L220.5,173.003 L221.5,173.003 L222.5,173 L223.5,173.003 L224.5,172.997 L225.5,173 L226.5,173 L227.5,173.103 M228.5,171.363 L228.5,209.783 M229.5,162.789 L229.5,196.373 M230.5,117.248 L230.5,215.178 M231.5,126.614 L231.5,192.397 M232.5,151.027 L232.5,237.4 M233.5,162.763 L233.5,230.721 M234.5,199.466 L234.5,229.776 M235.5,156.512 L235.5,204.155 M236.5,130.125 L236.5,161.77 M237.5,130.853 L237.5,137.347 M238.5,131.244 L238.5,140.082 M239.5,140.388 L239.5,196.061 M239.5,168.225 L240.5,218.818 L240.5,202.148 L240.5,235.489 L240.5,218.818 M241.5,210.838 L241.5,230.932 M242.5,165.952 L242.5,217.301 M243.5,134.76 L243.5,193.511 M244.5,127.496 L244.5,139.522 M245.5,128.372 L245.5,154.543 M245.5,141.457 L246.5,175.716 L246.5,155.63 L246.5,195.802 L246.5,175.716 M247.5,177.166 L247.5,226.535 M248.5,181.431 L248.5,225.822 M249.5,179.753 L249.5,215.205 M250.5,147.6 L250.5,186.79 M251.5,129.549 L251.5,159.743 M252.5,134.143 L252.5,161.501 M253.5,133.557 L253.5,150.932 M254.5,145.969 L254.5,187.466 M255.5,185.333 L255.5,229.444 M256.5,189.213 L256.5,224.322 M257.5,172.155 L257.5,210.532 M258.5,133.25 L258.5,176.426 M259.5,130.162 L259.5,152.88 M260.5,129.702 L260.5,171.828 M261.5,145.483 L261.5,192.872 M262.5,176.664 L262.5,206.852 M263.5,178.855 L263.5,211.161 M264.5,186.41 L264.5,206.773 M265.5,154.933 L265.5,188.247 M266.5,142.827 L266.5,165.572 M267.5,138.54 L267.5,158.898 M268.5,144.242 L268.5,164.642 M269.5,149.818 L269.5,188.717 M270.5,174.235 L270.5,220.516 M271.5,190.312 L271.5,216.255 M272.5,161.454 L272.5,196.035 M273.5,157.425 L273.5,183.184 M274.5,146.898 L274.5,168.37 M275.5,142.849 L275.5,163.946 M276.5,150.842 L276.5,178.876 M277.5,169.758 L277.5,193.368 M278.5,171.453 L278.5,196.351 M279.5,178.327 L279.5,200.939 M280.5,170.571 L280.5,205.205 M281.5,150.171 L281.5,182.276 M282.5,143.477 L282.5,165.556 M283.5,143.767 L283.5,169.362 M284.5,155.387 L284.5,182.039 M285.5,160.994 L285.5,185.755 M286.5,170.714 L286.5,197.207 M287.5,174.88 L287.5,197.613 M288.5,168.713 L288.5,193.522 M289.5,165.91 L289.5,179.705 M290.5,155.783 L290.5,174.975 M291.5,153.635 L291.5,169.141 M292.5,158.101 L292.5,172.224 M293.5,167.034 L293.5,188.105 M294.5,168.866 L294.5,192.027 M295.5,180.006 L295.5,194.952 M296.5,169.146 L296.5,191.019 M297.5,157.573 L297.5,182.186 M298.5,151.924 L298.5,168.94 M299.5,150.192 L299.5,175.466 M300.5,163.201 L300.5,179.779 M301.5,169.473 L301.5,186.531 M302.5,172.826 L302.5,184.557 M303.5,166.981 L303.5,187.471 M304.5,171.701 L304.5,187.339 M305.5,169.077 L305.5,181.252 M306.5,160.778 L306.5,177.482 M307.5,160.07 L307.5,168.565 M308.5,160.039 L308.5,171.321 M309.5,160.619 L309.5,184.113 M310.5,170.497 L310.5,187.176 M311.5,173.718 L311.5,189.868 M312.5,173.37 L312.5,182.957 M313.5,165.778 L313.5,183.96 M314.5,161.67 L314.5,173.311 M315.5,160.382 L315.5,169.98 M316.5,164.405 L316.5,176.284 M317.5,170.223 L317.5,182.239 M318.5,168.085 L318.5,179.071 M319.5,171.812 L319.5,179.145 M320.5,173.333 L320.5,181.542 M321.5,171.627 L321.5,182.535 M322.5,168.021 L322.5,178.749 M323.5,159.981 L323.5,171.553 M324.5,162.415 L324.5,172.483 M325.5,163.349 L325.5,178.269 M326.5,170.952 L326.5,182.646 M327.5,173.053 L327.5,183.105 M328.5,171.068 L328.5,180.671 M329.5,167.536 L329.5,180.555 M330.5,167.963 L330.5,175.022 M331.5,166.527 L331.5,174.674 M332.5,163.534 L332.5,174.336 M333.5,168.306 L333.5,174.679 M334.5,172.192 L334.5,179.499 M335.5,170.571 L335.5,179.43 M336.5,169.848 L336.5,182.44 M337.5,169.97 L337.5,179.071 M338.5,168.512 L338.5,177.144 M339.5,167.863 L339.5,172.694 M340.5,164.225 L340.5,174.146 M341.5,168.233 L341.5,174.452 M342.5,170.682 L342.5,177.329 M343.5,170.661 L343.5,179.019 M344.5,170.598 L344.5,178.776 M345.5,171.648 L345.5,177.018 M346.5,170.334 L346.5,176.569 M347.5,168.396 L347.5,176.516 M348.5,168.787 L348.5,173.206 M349.5,166.992 L349.5,173.739 M350.5,170.096 L350.5,175.418 M351.5,171.126 L351.5,178.913 M352.5,172.345 L352.5,178.496 M353.5,170.376 L353.5,177.335 M354.5,168.792 L354.5,175.085 M355.5,169.331 L355.5,172.794 M356.5,167.747 L356.5,175.091 M357.5,170.888 L357.5,175.36 M358.5,170.593 L358.5,179.145 M359.5,171.268 L359.5,177.181 M360.5,170.418 L360.5,175.228 M361.5,171.448 L361.5,175.571 M362.5,171.633 L362.5,175.291 M363.5,172.219 L363.5,176.358 M364.5,170.629 L364.5,174.721 M365.5,168.676 L365.5,174.082 M366.5,169.394 L366.5,173.438 M367.5,171.084 L367.5,174.843 M368.5,173.269 L368.5,176.395 M369.5,172.657 L369.5,177.044 M370.5,171.348 L370.5,175.487 M371.5,170.001 L371.5,174.568 M372.5,171.342 L372.5,174.204 M373.5,169.943 L373.5,174.695 M374.5,171.67 L374.5,173.961 M375.5,172.208 L375.5,174.177 M376.5,172.208 L376.5,174.61 M377.5,172.609 L377.5,174.198 M378.5,172.256 L378.5,174.542 M379.5,172.203 L379.5,173.644 M380.5,171.479 L380.5,173.766 M381.5,172.43 L381.5,173.781 M382.5,172.05 L382.5,173.892 M383.5,171.342 L383.5,174.447 M384.5,172.351 L384.5,173.702 M385.5,172.641 L385.5,174.267 M385.5,173.454 L386.5,173.356 L387.5,173.222 L388.5,173.05 M389.5,172.44 L389.5,173.766 M389.5,173.103 L390.5,172.686 L391.5,172.736 L392.5,173.095 L393.5,173.193 L394.5,173.106 L395.5,173.079 L396.5,172.984 L397.5,172.982 L398.5,172.976 M399.5,153.365 L399.5,189.166 M400.5,129.549 L400.5,204.64 M401.5,102.17 L401.5,250.9 M402.5,117.079 L402.5,189.203 M403.5,118.816 L403.5,173.56 M404.5,111.858 L404.5,164.521 M405.5,126.239 L405.5,185.681 M406.5,149.48 L406.5,221.213 M407.5,168.924 L407.5,240.182 M408.5,195.961 L408.5,247.457 M409.5,191.045 L409.5,245.14 M410.5,169.146 L410.5,220.426 M411.5,158.523 L411.5,206.488 M412.5,119.56 L412.5,178.57 M413.5,102.022 L413.5,138.694 M414.5,93.7541 L414.5,131.376 M415.5,106.953 L415.5,136.619 M416.5,114.202 L416.5,166.934 M417.5,146.608 L417.5,176.812 M418.5,164.838 L418.5,204.054 M419.5,187.598 L419.5,230.067 M420.5,208.88 L420.5,246.085 M421.5,224.898 L421.5,251.966 M422.5,218.473 L422.5,253.888 M423.5,194.303 L423.5,237.949 M424.5,183.031 L424.5,217.348 M425.5,157.795 L425.5,192.323 M426.5,143.582 L426.5,179.304 M427.5,125.21 L427.5,155.467 M428.5,121.91 L428.5,137.685 M429.5,118.351 L429.5,134.961 M430.5,117.971 L430.5,141.191 M431.5,126.947 L431.5,141.977 M432.5,135.98 L432.5,164.695 M433.5,151.512 L433.5,173.37 M434.5,166.327 L434.5,180.645 M435.5,173.861 L435.5,191.431 M436.5,179.436 L436.5,205.981 M437.5,190.877 L437.5,205.828 M438.5,187.144 L438.5,210.601 M439.5,185.312 L439.5,212.137 M440.5,191.938 L440.5,209.619 M441.5,195.581 L441.5,210.062 M442.5,194.562 L442.5,211.197 M443.5,195.94 L443.5,216.239 M444.5,186.722 L444.5,206.303 M445.5,180.154 L445.5,196.605 M446.5,164.489 L446.5,192.613 M447.5,154.009 L447.5,171.722 M448.5,140.277 L448.5,163.935 M449.5,134.707 L449.5,148.851 M450.5,122.823 L450.5,140.256 M451.5,118.695 L451.5,133.356 M452.5,121.065 L452.5,132.828 M453.5,125.917 L453.5,141.687 M454.5,136.038 L454.5,153.033 M455.5,151.185 L455.5,170.371 M456.5,164.87 L456.5,185.032 M457.5,180.497 L457.5,199.319 M458.5,194.16 L458.5,206.652 M459.5,202.391 L459.5,211.625 M460.5,202.18 L460.5,212.042 M461.5,198.004 L461.5,209.73 M462.5,188.86 L462.5,200.997 M463.5,184.055 L463.5,195.739 M464.5,173.781 L464.5,187.878 M465.5,163.745 L465.5,176.875 M466.5,157.425 L466.5,169.098 M467.5,156.808 L467.5,164.88 M468.5,154.263 L468.5,163.486 M469.5,155.403 L469.5,163.956 M470.5,156.618 L470.5,167.662 M471.5,161.211 L471.5,170.022 M472.5,164.611 L472.5,170.846 M473.5,167.298 L473.5,174.051 M474.5,168.845 L474.5,177.197 M475.5,171.516 L475.5,176.96 M476.5,171.791 L476.5,178.797 M477.5,172.029 L477.5,177.028 M478.5,170.825 L478.5,177.144 M479.5,169.563 L479.5,174.758 M480.5,167.335 L480.5,174.99 M481.5,169.373 L481.5,173.438 M482.5,169.933 L482.5,175.941 M483.5,169.684 L483.5,175.666 M484.5,170.001 L484.5,175.196 M485.5,171.912 L485.5,176.891 M486.5,172.736 L486.5,177.271 M487.5,174.014 L487.5,177.994 M488.5,174.019 L488.5,177.408 M489.5,173.106 L489.5,177.535 M490.5,172.066 L490.5,176.537 M491.5,173.127 L491.5,175.566 M492.5,172.509 L492.5,175.592 M493.5,172.187 L493.5,175.318 M494.5,171.469 L494.5,175.001 M495.5,171.274 L495.5,174.135 M496.5,170.719 L496.5,174.051 M497.5,171.168 L497.5,173.797 M498.5,170.519 L498.5,173.407 M499.5,170.038 L499.5,172.562 M500.5,169.917 L500.5,172.081 M501.5,170.08 L501.5,172.287 M502.5,169.853 L502.5,172.087 M503.5,170.16 L503.5,172.345 M504.5,170.366 L504.5,172.414 M505.5,171.216 L505.5,173.148 M506.5,171.353 L506.5,173.903 M507.5,172.308 L507.5,174.103 M508.5,172.541 L508.5,174.821 M509.5,173.164 L509.5,174.652 M510.5,173.158 L510.5,174.975 M511.5,173.433 L511.5,174.679 M512.5,173.201 L512.5,174.515 M513.5,173.417 L513.5,174.631 M514.5,173.19 L514.5,174.494 M515.5,172.752 L515.5,174.109 M516.5,172.857 L516.5,173.861 M516.5,173.359 L517.5,173.058 L518.5,173.082 L519.5,173.032 L520.5,172.95 L521.5,173.055 L522.5,173.071 L523.5,173.103 L524.5,173.074 L525.5,173.14 L526.5,172.963 L527.5,172.926 L528.5,173.003 L529.5,173.005 L530.5,172.987 L531.5,173.026 L532.5,173.016 L533.5,173.079 L534.5,173.011 L535.5,173.026 L536.5,173.008 L537.5,173.026 L538.5,172.997 L539.5,173.021 L540.5,172.984 L541.5,172.974 L542.5,172.95 L543.5,172.952 L544.5,172.984 L545.5,173.029 L546.5,172.979 L547.5,172.945 L548.5,172.934 L549.5,172.995 L550.5,172.945 L551.5,172.984 L552.5,172.995 L553.5,172.966 L554.5,172.96 L555.5,172.952 L556.5,172.982 L557.5,172.968 L558.5,172.955 L559.5,172.966 L560.5,172.958 L561.5,172.963 L562.5,172.968 L563.5,172.966 L564.5,172.958 L565.5,172.96 L566.5,172.96 L567.5,172.958 L568.5,172.96 L569.5,172.96 L570.5,172.958 L571.5,172.958 L572.5,172.96 L573.5,172.96 L574.5,172.958 L575.5,172.96 L576.5,172.96 L577.5,172.96 L578.5,172.963 L579.5,172.963 L580.5,172.96 L581.5,172.963 L582.5,172.96 L583.5,172.96 L584.5,172.96 L585.5,172.96 L586.5,172.96 L587.5,172.96 L588.5,172.96 L589.5,172.966 L590.5,172.963 L591.5,172.966 L592.5,172.96 L593.5,172.963 L594.5,172.968 L595.5,172.968 L596.5,172.968 L597.5,172.966 L598.5,172.966 L599.5,172.963 L600.5,172.968 L601.5,172.966 L602.5,172.971 L603.5,172.968 L604.5,172.968 L605.5,172.974 L606.5,172.974 L607.5,172.974 L608.5,172.974 L609.5,172.974 L610.5,172.971 L611.5,172.974 L612.5,172.976 L613.5,172.979 L614.5,172.976 L615.5,172.976 L616.5,172.974 L617.5,172.976 L618.5,172.974 L619.5,172.979 L620.5,172.982 L621.5,172.979 L622.5,172.979 L623.5,172.982 L624.5,172.982 L625.5,172.979 L626.5,172.984 L627.5,172.982 L628.5,172.987 L629.5,172.979 L630.5,172.979 L631.5,172.987 L632.5,172.987 L633.5,172.987 L634.5,172.984 L635.5,172.992 L636.5,172.987 L637.5,172.989 L638.5,172.992 L639.5,172.989 L640.5,172.992 L641.5,172.989 L642.5,172.992 L643.5,172.992 L644.5,172.995 L645.5,172.997 L646.5,172.995 L647.5,172.995 L648.5,172.992 L649.5,172.995 L650.5,172.995 L651.5,173.003 L652.5,173 L653.5,172.997 L654.5,173 L655.5,172.997 L656.5,173 L657.5,172.995 L658.5,172.997 L659.5,172.997 L660.5,173.005 L661.5,173 L662.5,173.003 L663.5,173.005 L664.5,173.003 L665.5,173.003 L666.5,173.003 L667.5,173.005 L668.5,173.005 L669.5,173.003 L670.5,173.005 L671.5,173.008 L672.5,173.011 L673.5,173.008 L674.5,173.008 L675.5,173.008 L676.5,173.005 L677.5,173.008 L678.5,173.013 L679.5,173.008 L680.5,173.013 L681.5,173.013 L682.5,173.011 L683.5,173.011 L684.5,173.005"/>
</g>

<g fill="none" stroke="#0000c0" stroke-opacity="1" stroke-width="1" stroke-linecap="square" stroke-linejoin="bevel" transform="matrix(1,0,0,1,0,0)"
font-family="Segoe UI" font-size="9" font-weight="400" font-style="normal" 
>
<path vector-effect="non-scaling-stroke" fill-rule="evenodd" d="M57.5,174.607 L57.5,171.455 M58.5,178.143 L58.5,167.857 M59.5,180.518 L59.5,165.482 M60.5,178.687 L60.5,167.313 M61.5,184.523 L61.5,161.477 M62.5,185.58 L62.5,160.42 M63.5,183.325 L63.5,162.675 M64.5,181.599 L64.5,164.401 M65.5,181.106 L65.5,164.894 M66.5,182.449 L66.5,163.551 M67.5,181.692 L67.5,164.308 M68.5,182.555 L68.5,163.445 M69.5,183.4 L69.5,162.6 M70.5,181.319 L70.5,164.681 M71.5,181.402 L71.5,164.598 M72.5,178.926 L72.5,167.074 M73.5,181.141 L73.5,164.859 M74.5,181.26 L74.5,164.74 M75.5,181.251 L75.5,164.749 M76.5,179.906 L76.5,166.094 M77.5,179.083 L77.5,166.917 M78.5,179.7 L78.5,166.3 M79.5,179.599 L79.5,166.401 M80.5,180.136 L80.5,165.864 M81.5,178.461 L81.5,167.539 M82.5,178.812 L82.5,167.188 M83.5,180.277 L83.5,165.723 M84.5,178.667 L84.5,167.333 M85.5,178.467 L85.5,167.533 M86.5,176.674 L86.5,169.326 M87.5,177.383 L87.5,168.617 M88.5,176.712 L88.5,169.288 M89.5,179.567 L89.5,166.433 M90.5,178.816 L90.5,167.184 M91.5,177.889 L91.5,168.111 M92.5,176.52 L92.5,169.48 M93.5,177.493 L93.5,168.507 M94.5,176.18 L94.5,169.82 M95.5,177.797 L95.5,168.203 M96.5,178.339 L96.5,167.661 M97.5,175.984 L97.5,170.016 M98.5,175.709 L98.5,170.291 M99.5,176.135 L99.5,169.865 M100.5,176.38 L100.5,169.62 M101.5,175.998 L101.5,170.002 M102.5,176.341 L102.5,169.659 M103.5,176.373 L103.5,169.627 M104.5,175.168 L104.5,170.818 M105.5,176.169 L105.5,169.831 M106.5,176.233 L106.5,169.767 M107.5,175.731 L107.5,170.269 M108.5,176.448 L108.5,169.552 M109.5,175.784 L109.5,170.216 M110.5,175.387 L110.5,170.613 M111.5,175.225 L111.5,170.775 M112.5,175.752 L112.5,170.248 M113.5,175.665 L113.5,170.335 M114.5,174.914 L114.5,171.086 M115.5,174.902 L115.5,171.098 M116.5,175.192 L116.5,170.808 M117.5,175.221 L117.5,170.685 M118.5,175.526 L118.5,170.474 M119.5,175.039 L119.5,170.961 M120.5,175.481 L120.5,170.519 M121.5,175.244 L121.5,170.756 M122.5,175.632 L122.5,170.368 M123.5,175.122 L123.5,170.878 M124.5,175.299 L124.5,171.107 M125.5,174.703 L125.5,171.181 M126.5,174.806 L126.5,171.194 M127.5,175.219 L127.5,170.781 M128.5,174.754 L128.5,171.246 M129.5,175.008 L129.5,171.17 M130.5,175.02 L130.5,170.98 M131.5,174.788 L131.5,171.137 M132.5,174.546 L132.5,171.454 M133.5,174.744 L133.5,171.74 M134.5,174.603 L134.5,171.561 M135.5,174.799 L135.5,171.201 M136.5,174.472 L136.5,171.528 M137.5,174.873 L137.5,171.239 M138.5,174.529 L138.5,171.471 M139.5,174.256 L139.5,171.744 M140.5,173.99 L140.5,172.469 M141.5,174.427 L141.5,171.582 M142.5,174.357 L142.5,172.316 M143.5,174.361 L143.5,172.036 M144.5,174.128 L144.5,171.783 M145.5,173.014 L145.5,171.926 M146.5,174.349 L146.5,171.767 M147.5,173.748 L147.5,171.893 M148.5,173.721 L148.5,172.231 M150.5,173.832 L150.5,172.538 M151.5,173.436 L151.5,172.105 M152.5,173.637 L152.5,172.448 M155.5,173.968 L155.5,172.691 M228.5,179.445 L228.5,172.363 M229.5,186.129 L229.5,163.789 M230.5,203.584 L230.5,142.416 M231.5,191.397 L231.5,146.49 M232.5,193.852 L232.5,152.148 M233.5,197.066 L233.5,163.763 M234.5,215.836 L234.5,200.466 M235.5,185.43 L235.5,160.57 M236.5,160.77 L236.5,145.6 M237.5,136.347 L237.5,132.254 M238.5,139.082 L238.5,134.725 M239.5,189.67 L239.5,156.33 M240.5,219.46 L240.5,203.148 M241.5,224.269 L241.5,211.838 M242.5,199.676 L242.5,166.952 M243.5,190.025 L243.5,155.975 M244.5,138.522 L244.5,129.449 M245.5,153.543 L245.5,134.821 M246.5,182.646 L246.5,163.354 M247.5,198.86 L247.5,178.166 M248.5,207.262 L248.5,182.431 M249.5,198.063 L249.5,180.753 M250.5,183.289 L250.5,162.711 M251.5,158.743 L251.5,145.884 M252.5,160.501 L252.5,147.495 M253.5,149.932 L253.5,142.73 M254.5,185.291 L254.5,160.709 M255.5,211.438 L255.5,186.333 M256.5,209.179 L256.5,190.213 M257.5,183.257 L257.5,173.155 M258.5,175.426 L258.5,155.692 M259.5,151.88 L259.5,136.959 M260.5,170.828 L260.5,147.809 M261.5,181.692 L261.5,164.308 M262.5,192.301 L262.5,177.664 M263.5,194.863 L263.5,179.855 M264.5,195.677 L264.5,187.41 M265.5,181.883 L265.5,164.117 M266.5,164.572 L266.5,153.15 M267.5,157.898 L267.5,150.373 M268.5,163.642 L268.5,153.685 M269.5,183.459 L269.5,162.541 M270.5,196.383 L270.5,175.235 M271.5,202.307 L271.5,191.312 M272.5,184.959 L272.5,162.454 M273.5,181.143 L273.5,164.857 M274.5,167.37 L274.5,156.744 M275.5,162.946 L275.5,153.846 M276.5,177.876 L276.5,160.815 M277.5,180.105 L277.5,170.758 M278.5,183.071 L278.5,172.453 M279.5,191.84 L279.5,179.327 M280.5,187.999 L280.5,171.571 M281.5,180.503 L281.5,165.497 M282.5,164.556 L282.5,156.216 M283.5,168.362 L283.5,155.275 M284.5,181.039 L284.5,164.288 M285.5,179.375 L285.5,166.625 M286.5,186.589 L286.5,171.714 M287.5,186.92 L287.5,175.88 M288.5,180.52 L288.5,169.713 M289.5,176.559 L289.5,169.441 M290.5,173.975 L290.5,162.386 M291.5,168.141 L291.5,160.469 M292.5,171.224 L292.5,164.431 M293.5,176.594 L293.5,169.406 M294.5,182.046 L294.5,169.866 M295.5,187.963 L295.5,181.006 M296.5,181.835 L296.5,170.146 M297.5,178.504 L297.5,167.496 M298.5,167.94 L298.5,161.161 M299.5,174.466 L299.5,161.597 M300.5,178.2 L300.5,167.8 M301.5,176.891 L301.5,170.473 M302.5,178.877 L302.5,173.826 M303.5,180.089 L303.5,167.981 M304.5,180.07 L304.5,172.701 M305.5,177.151 L305.5,170.077 M306.5,176.482 L306.5,167.212 M307.5,167.565 L307.5,163.773 M308.5,170.321 L308.5,165.135 M309.5,177.726 L309.5,168.274 M310.5,179.38 L310.5,171.497 M311.5,183.668 L311.5,174.718 M312.5,178.617 L312.5,174.37 M313.5,176.569 L313.5,169.431 M314.5,172.311 L314.5,166.804 M315.5,168.98 L315.5,165.286 M316.5,175.284 L316.5,167.769 M317.5,175.948 L317.5,171.223 M318.5,176.806 L318.5,169.194 M319.5,176.107 L319.5,172.812 M320.5,177.078 L320.5,174.333 M321.5,177.54 L321.5,172.627 M322.5,175.843 L322.5,170.157 M323.5,170.553 L323.5,167.343 M324.5,171.483 L324.5,166.782 M325.5,176.889 L325.5,169.111 M326.5,175.914 L326.5,171.952 M327.5,178.57 L327.5,174.053 M328.5,177.756 L328.5,172.068 M329.5,176.076 L329.5,169.924 M330.5,174.022 L330.5,170.893 M331.5,173.674 L331.5,168.905 M332.5,173.336 L332.5,168.223 M333.5,173.679 L333.5,170.527 M334.5,175.451 L334.5,173.192 M335.5,176.464 L335.5,171.571 M336.5,176.233 L336.5,170.848 M337.5,176.455 L337.5,170.97 M338.5,175.214 L338.5,170.786 M339.5,171.694 L339.5,170.262 M340.5,173.146 L340.5,169.553 M341.5,173.452 L341.5,171.049 M342.5,174.961 L342.5,171.682 M343.5,175.544 L343.5,171.661 M344.5,176.125 L344.5,171.598 M345.5,175.235 L345.5,172.648 M346.5,174.866 L346.5,171.334 M347.5,175.081 L347.5,170.919 M348.5,172.206 L348.5,170.231 M349.5,172.739 L349.5,169.506 M350.5,174.418 L350.5,171.229 M351.5,175.961 L351.5,172.126 M352.5,176.598 L352.5,173.345 M353.5,175.289 L353.5,171.376 M354.5,174.085 L354.5,170.755 M355.5,171.794 L355.5,170.51 M356.5,174.091 L356.5,171.141 M357.5,174.26 L357.5,171.888 M358.5,174.779 L358.5,171.593 M359.5,174.461 L359.5,172.268 M360.5,174.228 L360.5,171.704 M361.5,174.19 L361.5,172.448 M362.5,174.291 L362.5,172.633 M363.5,174.393 L363.5,173.219 M364.5,173.721 L364.5,171.629 M365.5,173.082 L365.5,171.032 M366.5,172.438 L366.5,170.81 M367.5,173.843 L367.5,172.084 M369.5,175.172 L369.5,173.657 M370.5,174.477 L370.5,172.348 M371.5,173.568 L371.5,171.398 M373.5,173.695 L373.5,171.745 M383.5,173.447 L383.5,172.342 M399.5,177.779 L399.5,168.221 M400.5,185.4 L400.5,160.6 M401.5,200.723 L401.5,145.277 M402.5,188.203 L402.5,157.526 M403.5,172.56 L403.5,136.084 M404.5,163.521 L404.5,140.943 M405.5,184.681 L405.5,151.437 M406.5,191.316 L406.5,154.684 M407.5,210.739 L407.5,169.924 M408.5,223.589 L408.5,196.961 M409.5,217.34 L409.5,192.045 M410.5,194.193 L410.5,170.146 M411.5,181.568 L411.5,164.432 M412.5,177.57 L412.5,153.026 M413.5,137.694 L413.5,120.381 M414.5,130.376 L414.5,113.233 M415.5,135.619 L415.5,118.182 M416.5,165.934 L416.5,132.835 M417.5,175.812 L417.5,158.091 M418.5,186.509 L418.5,165.838 M419.5,211.73 L419.5,188.598 M420.5,228.421 L420.5,209.88 M421.5,240.298 L421.5,225.898 M422.5,239.2 L422.5,219.473 M423.5,218.085 L423.5,195.303 M424.5,198.203 L424.5,184.031 M425.5,180.813 L425.5,165.187 M426.5,178.304 L426.5,157.2 M427.5,154.467 L427.5,139.621 M428.5,136.685 L428.5,128.811 M429.5,133.961 L429.5,125.715 M430.5,140.191 L430.5,128.889 M431.5,140.977 L431.5,133.103 M432.5,163.695 L432.5,148.088 M433.5,172.37 L433.5,159.605 M434.5,177.559 L434.5,168.441 M435.5,182.985 L435.5,174.861 M436.5,192.362 L436.5,180.436 M437.5,196.736 L437.5,191.877 M438.5,198.712 L438.5,188.144 M439.5,199.042 L439.5,186.312 M440.5,200.629 L440.5,192.938 M441.5,202.646 L441.5,196.581 M442.5,203.248 L442.5,195.562 M443.5,204.801 L443.5,196.94 M444.5,197.485 L444.5,187.722 M445.5,189.65 L445.5,181.154 M446.5,179.968 L446.5,166.032 M447.5,170.722 L447.5,163.742 M448.5,162.935 L448.5,152.036 M449.5,147.851 L449.5,139.845 M450.5,139.256 L450.5,131.763 M451.5,132.356 L451.5,125.97 M452.5,131.828 L452.5,126.347 M453.5,140.687 L453.5,134.128 M454.5,152.033 L454.5,145.176 M455.5,169.371 L455.5,160.056 M456.5,179.4 L456.5,166.6 M457.5,190.759 L457.5,181.497 M458.5,201.632 L458.5,195.16 M459.5,206.836 L459.5,203.391 M460.5,207.121 L460.5,203.18 M461.5,204.267 L461.5,199.004 M462.5,196.722 L462.5,189.86 M463.5,189.25 L463.5,185.055 M464.5,180.22 L464.5,174.781 M465.5,175.875 L465.5,169.41 M466.5,168.098 L466.5,163.553 M467.5,163.88 L467.5,159.862 M468.5,162.486 L468.5,157.92 M469.5,162.956 L469.5,158.622 M470.5,166.662 L470.5,161.521 M471.5,169.022 L471.5,163.771 M472.5,169.846 L472.5,167.108 M473.5,173.051 L473.5,170.298 M474.5,174.943 L474.5,171.057 M475.5,175.459 L475.5,172.516 M476.5,176.145 L476.5,172.791 M477.5,175.236 L477.5,173.029 M478.5,174.671 L478.5,171.825 M479.5,173.758 L479.5,171.64 M480.5,173.99 L480.5,170.856 M481.5,172.438 L481.5,170.975 M482.5,174.941 L482.5,170.933 M483.5,174.666 L483.5,171.069 M484.5,174.196 L484.5,171.586 M485.5,174.995 L485.5,172.912 M486.5,175.668 L486.5,173.736 M488.5,176.344 L488.5,175.019 M489.5,175.798 L489.5,174.106 M490.5,175.371 L490.5,173.066 M492.5,174.592 L492.5,173.509 M493.5,174.212 L493.5,173.187 M494.5,174.001 L494.5,172.469 M496.5,173.051 L496.5,171.734"/>
</g>

<g fill="none" stroke="#000080" stroke-opacity="1" stroke-width="1" stroke-linecap="square" stroke-linejoin="bevel" transform="matrix(1,0,0,1,0,0)"
font-family="Segoe UI" font-size="9" font-weight="400" font-style="normal" 
>
</g>

<g fill="none" stroke="#000000" stroke-opacity="1" stroke-width="1" stroke-linecap="square" stroke-linejoin="bevel" transform="matrix(1,0,0,1,0,0)"
font-family="Segoe UI" font-size="9" font-weight="400" font-style="normal" 
>
</g>

<g fill="#ffffff" fill-opacity="1" stroke="#ffffff" stroke-opacity="1" stroke-width="1" stroke-linecap="square" stroke-linejoin="bevel" transform="matrix(1,0,0,1,0,0)"
font-family="Segoe UI" font-size="9" font-weight="400" font-style="normal" 
>
<rect x="684" y="0" width="684" height="346"/>
</g>

<g fill="none" stroke="#000000" stroke-opacity="1" stroke-width="1" stroke-linecap="square" stroke-linejoin="bevel" transform="matrix(1,0,0,1,0,0)"
font-family="Segoe UI" font-size="9" font-weight="400" font-style="normal" 
>
</g>

<g fill="none" stroke="#0000c0" stroke-opacity="1" stroke-width="1" stroke-linecap="square" stroke-linejoin="bevel" transform="matrix(1,0,0,1,684,0)"
font-family="Segoe UI" font-size="9" font-weight="400" font-style="normal" 
>
<polyline fill="none" vector-effect="non-scaling-stroke" points="0,173.5 684,173.5 " />
</g>

<g fill="none" stroke="#000080" stroke-opacity="1" stroke-width="1" stroke-linecap="square" stroke-linejoin="bevel" transform="matrix(1,0,0,1,684,0)"
font-family="Segoe UI" font-size="9" font-weight="400" font-style="normal" 
>
<path vector-effect="non-scaling-stroke" fill-rule="evenodd" d="M0.5,172.979 L0.5,173.032 M0.5,173.005 L1.5,173.013 L2.5,173.013 L3.5,173.013 L4.5,173.011 L5.5,173.008 L6.5,173.011 L7.5,173.008"/>
</g>

<g fill="none" stroke="#000000" stroke-opacity="1" stroke-width="1" stroke-linecap="square" stroke-linejoin="bevel" transform="matrix(1,0,0,1,0,0)"
font-family="Segoe UI" font-size="9" font-weight="400" font-style="normal" 
>
</g>
</g>
</svg>
