<?xml version="1.0" encoding="UTF-8" standalone="no"?>
<svg width="243.769mm" height="122.061mm"
 viewBox="0 0 691 346"
 xmlns="http://www.w3.org/2000/svg" xmlns:xlink="http://www.w3.org/1999/xlink" version="1.2" baseProfile="tiny">
<title>Exported image from Sonic Visualiser</title>
<desc>Generated with Qt</desc>
<defs>
</defs>
<g fill="none" stroke="black" stroke-width="1" fill-rule="evenodd" stroke-linecap="square" stroke-linejoin="bevel" >

<g fill="#ffffff" fill-opacity="1" stroke="#ffffff" stroke-opacity="1" stroke-width="1" stroke-linecap="square" stroke-linejoin="bevel" transform="matrix(1,0,0,1,0,0)"
font-family="Segoe UI" font-size="9" font-weight="400" font-style="normal" 
>
<rect x="0" y="0" width="684" height="346"/>
</g>

<g fill="none" stroke="#000000" stroke-opacity="1" stroke-width="1" stroke-linecap="square" stroke-linejoin="bevel" transform="matrix(1,0,0,1,0,0)"
font-family="Segoe UI" font-size="9" font-weight="400" font-style="normal" 
>
</g>

<g fill="none" stroke="#0000c0" stroke-opacity="1" stroke-width="1" stroke-linecap="square" stroke-linejoin="bevel" transform="matrix(1,0,0,1,0,0)"
font-family="Segoe UI" font-size="9" font-weight="400" font-style="normal" 
>
<polyline fill="none" vector-effect="non-scaling-stroke" points="0,173.5 684,173.5 " />
</g>

<g fill="none" stroke="#000080" stroke-opacity="1" stroke-width="1" stroke-linecap="square" stroke-linejoin="bevel" transform="matrix(1,0,0,1,0,0)"
font-family="Segoe UI" font-size="9" font-weight="400" font-style="normal" 
>
<path vector-effect="non-scaling-stroke" fill-rule="evenodd" d="M0.5,172.984 L0.5,173.021 M0.5,173.003 L1.5,173 L2.5,173 L3.5,172.997 L4.5,173 L5.5,173 L6.5,173 L7.5,173 L8.5,173 L9.5,173 L10.5,173 L11.5,173.003 L12.5,173 L13.5,172.997 L14.5,172.997 L15.5,173 L16.5,173 L17.5,173 L18.5,173 L19.5,173.003 L20.5,173 L21.5,173 L22.5,173 L23.5,173 L24.5,173 L25.5,172.997 L26.5,173 L27.5,173 L28.5,173 L29.5,173 L30.5,172.997 L31.5,173 L32.5,173.003 L33.5,173 L34.5,172.997 L35.5,172.997 L36.5,172.989 L37.5,173 L38.5,172.987 L39.5,173.011 L40.5,173.005 L41.5,173 L42.5,172.987 L43.5,172.989 L44.5,173.005 L45.5,172.995 L46.5,173.011 L47.5,173 L48.5,172.984 L49.5,172.995 L50.5,173.018 L51.5,172.982 L52.5,172.997 L53.5,172.987 L54.5,173.05 L55.5,173.04 M56.5,172.139 L56.5,173.612 M57.5,170.471 L57.5,176.067 M58.5,163.18 L58.5,184.462 M59.5,155.62 L59.5,192.624 M60.5,156.317 L60.5,188.184 M61.5,150.414 L61.5,204.704 M62.5,149.205 L62.5,202.117 M63.5,145.182 L63.5,191.362 M64.5,151.248 L64.5,186.436 M65.5,152.019 L65.5,198.69 M66.5,157.241 L66.5,201.504 M67.5,144.068 L67.5,193.706 M68.5,149.406 L68.5,194.678 M69.5,147.875 L69.5,195.237 M70.5,150.53 L70.5,194.947 M71.5,159.458 L71.5,193.632 M72.5,157.563 L72.5,185.354 M73.5,158.883 L73.5,198.189 M74.5,149.369 L74.5,190.845 M75.5,154.247 L75.5,190.496 M76.5,153.07 L76.5,186.568 M77.5,156.069 L77.5,185.106 M78.5,158.714 L78.5,184.863 M79.5,159.458 L79.5,197.735 M80.5,156.28 L80.5,199.641 M81.5,159.046 L81.5,181.321 M82.5,159.78 L82.5,181.79 M83.5,158.006 L83.5,190.692 M84.5,162.188 L84.5,185.338 M85.5,162.188 L85.5,188.453 M86.5,166.723 L86.5,184.335 M87.5,162.457 L87.5,181.648 M88.5,158.919 L88.5,179.943 M89.5,163.798 L89.5,189.298 M90.5,161.982 L90.5,187.582 M91.5,162.193 L91.5,189.773 M92.5,164.12 L92.5,178.406 M93.5,163.064 L93.5,183.205 M94.5,163.914 L94.5,179.98 M95.5,165.128 L95.5,181.463 M96.5,162.821 L96.5,185.866 M97.5,168.903 L97.5,179.293 M98.5,166.997 L98.5,177.683 M99.5,167.298 L99.5,181.104 M100.5,164.616 L100.5,181.453 M101.5,168.38 L101.5,178.206 M102.5,165.883 L102.5,178.491 M103.5,163.888 L103.5,180.376 M104.5,165.989 L104.5,176.178 M105.5,166.253 L105.5,181.194 M106.5,167.013 L106.5,179.636 M107.5,166.775 L107.5,179.383 M108.5,165.339 L108.5,181.31 M109.5,167.747 L109.5,177.562 M110.5,169.151 L110.5,177.81 M111.5,167.594 L111.5,176.88 M112.5,168.407 L112.5,177.261 M113.5,165.836 L113.5,179.816 M114.5,168.454 L114.5,176.089 M115.5,167.911 L115.5,177.134 M116.5,169.463 L116.5,177.583 M117.5,167.852 L117.5,176.199 M118.5,168.101 L118.5,179.103 M119.5,168.18 L119.5,178.934 M120.5,169.23 L120.5,178.797 M121.5,167.282 L121.5,177.725 M122.5,167.525 L122.5,178.412 M123.5,168.761 L123.5,177.82 M124.5,170.091 L124.5,178.111 M125.5,169.98 L125.5,175.703 M126.5,168.824 L126.5,175.851 M127.5,169.146 L127.5,178.818 M128.5,169.642 L128.5,175.761 M129.5,170.17 L129.5,177.071 M130.5,169.896 L130.5,176.738 M131.5,167.826 L131.5,175.788 M132.5,169.431 L132.5,176.807 M133.5,170.74 L133.5,176.939 M134.5,170.561 L134.5,175.603 M135.5,169.072 L135.5,176.368 M136.5,169.283 L136.5,175.481 M137.5,170.239 L137.5,176.215 M138.5,169.922 L138.5,175.661 M139.5,169.853 L139.5,175.825 M140.5,171.469 L140.5,174.99 M141.5,170.582 L141.5,175.45 M142.5,171.316 L142.5,175.814 M143.5,171.036 L143.5,175.439 M144.5,170.783 L144.5,175.128 M145.5,170.645 L145.5,174.014 M146.5,170.767 L146.5,175.349 M147.5,170.893 L147.5,174.748 M148.5,171.231 L148.5,174.721 M149.5,171.912 L149.5,174.51 M150.5,171.538 L150.5,174.832 M151.5,171.105 L151.5,174.436 M152.5,171.448 L152.5,174.637 M153.5,171.337 L153.5,174.003 M154.5,171.638 L154.5,174.23 M155.5,171.691 L155.5,174.996 M156.5,171.765 L156.5,174.267 M157.5,172.081 L157.5,173.987 M158.5,172.029 L158.5,174.003 M159.5,171.802 L159.5,174.668 M160.5,171.997 L160.5,173.993 M161.5,171.96 L161.5,173.987 M162.5,172.219 L162.5,174.357 M163.5,172.044 L163.5,173.676 M164.5,172.256 L164.5,173.924 M165.5,171.812 L165.5,173.876 M166.5,172.588 L166.5,173.924 M167.5,171.949 L167.5,173.734 M168.5,172.393 L168.5,173.597 M169.5,172.208 L169.5,173.861 M170.5,172.282 L170.5,173.802 M171.5,172.134 L171.5,173.517 M171.5,172.826 L172.5,172.963 L173.5,173.087 M174.5,172.329 L174.5,173.412 M174.5,172.871 L175.5,172.945 L176.5,173.005 L177.5,173.055 L178.5,173.026 L179.5,173.037 L180.5,173.018 L181.5,173.021 L182.5,172.987 L183.5,172.945 L184.5,173.058 L185.5,172.987 L186.5,173.029 L187.5,173.008 L188.5,173.034 L189.5,172.995 L190.5,172.979 L191.5,172.923 L192.5,172.997 L193.5,173 L194.5,173.011 L195.5,172.992 L196.5,172.974 L197.5,172.982 L198.5,173.045 L199.5,172.995 L200.5,172.984 L201.5,173.024 L202.5,173.037 L203.5,172.974 L204.5,173.011 L205.5,172.987 L206.5,173.013 L207.5,173.003 L208.5,173.024 L209.5,173.008 L210.5,173.008 L211.5,172.992 L212.5,172.976 L213.5,173 L214.5,173.008 L215.5,172.982 L216.5,173 L217.5,173 L218.5,173.005 L219.5,173 L220.5,172.997 L221.5,173 L222.5,173 L223.5,173.003 L224.5,172.997 L225.5,172.997 L226.5,173.018 M227.5,172.335 L227.5,173.892 M228.5,148.434 L228.5,216.572 M229.5,165.387 L229.5,216.012 M230.5,121.002 L230.5,201.525 M231.5,106.985 L231.5,188.099 M232.5,135.125 L232.5,273.095 M233.5,157.937 L233.5,245.076 M234.5,188.928 L234.5,245.921 M235.5,152.853 L235.5,218.911 M236.5,115.564 L236.5,170.503 M237.5,114.276 L237.5,156.544 M238.5,110.2 L238.5,157.668 M239.5,133.625 L239.5,205.057 M240.5,191.009 L240.5,244.765 M241.5,188.39 L241.5,252.04 M242.5,165.545 L242.5,219.903 M243.5,131.476 L243.5,202.682 M244.5,114.619 L244.5,150.208 M245.5,116.593 L245.5,161.274 M246.5,148.334 L246.5,204.461 M247.5,181.426 L247.5,239.638 M248.5,181.817 L248.5,227.168 M249.5,173.808 L249.5,216.445 M250.5,148.397 L250.5,186.463 M251.5,115.369 L251.5,180.043 M252.5,122.971 L252.5,165.735 M253.5,133.836 L253.5,154.738 M254.5,136.112 L254.5,197.091 M255.5,174.183 L255.5,236.328 M256.5,185.597 L256.5,229.57 M257.5,168.233 L257.5,218.061 M258.5,133.319 L258.5,179.019 M259.5,127.026 L259.5,160.751 M260.5,126.266 L260.5,172.43 M261.5,151.359 L261.5,198.152 M262.5,172.414 L262.5,207.929 M263.5,173.85 L263.5,208.288 M264.5,186.384 L264.5,207.813 M265.5,146.222 L265.5,194.213 M266.5,137.083 L266.5,163.428 M267.5,139.665 L267.5,166.86 M268.5,135.352 L268.5,170.529 M269.5,145.441 L269.5,187.936 M270.5,174.478 L270.5,217.839 M271.5,187.799 L271.5,220.014 M272.5,158.74 L272.5,195.581 M273.5,154.506 L273.5,181.907 M274.5,146.94 L274.5,168.85 M275.5,141.038 L275.5,167.145 M276.5,147.912 L276.5,179.811 M277.5,168.607 L277.5,194.673 M278.5,170.909 L278.5,199.92 M279.5,183.1 L279.5,205.216 M280.5,168.491 L280.5,205.411 M281.5,145.494 L281.5,182.693 M282.5,138.583 L282.5,170.218 M283.5,143.931 L283.5,175.096 M284.5,155.076 L284.5,182.076 M285.5,160.662 L285.5,185.861 M286.5,169.479 L286.5,196.668 M287.5,170.872 L287.5,194.746 M288.5,166.036 L288.5,191.605 M289.5,163.043 L289.5,182.514 M290.5,157.515 L290.5,174.267 M291.5,152.758 L291.5,172.118 M292.5,158.83 L292.5,176.991 M293.5,167.562 L293.5,190.201 M294.5,168.623 L294.5,195.501 M295.5,176.875 L295.5,200.306 M296.5,167.567 L296.5,192.376 M297.5,158.851 L297.5,180.719 M298.5,151.66 L298.5,169.447 M299.5,147.215 L299.5,175.202 M300.5,163.961 L300.5,180.328 M301.5,168.227 L301.5,190.94 M302.5,173.153 L302.5,187.952 M303.5,166.311 L303.5,186.611 M304.5,171.553 L304.5,189.631 M305.5,168.254 L305.5,181.009 M306.5,157.969 L306.5,176.178 M307.5,159.88 L307.5,170.487 M308.5,156.655 L308.5,173.412 M309.5,158.714 L309.5,184.451 M310.5,170.571 L310.5,188.163 M311.5,174.103 L311.5,189.451 M312.5,171.353 L312.5,183.369 M313.5,166.797 L313.5,180.756 M314.5,160.34 L314.5,174.6 M315.5,159.511 L315.5,171.036 M316.5,163.016 L316.5,177.234 M317.5,170.175 L317.5,179.932 M318.5,169.552 L318.5,180.08 M319.5,171.67 L319.5,178.718 M320.5,173.063 L320.5,182.039 M321.5,170.571 L321.5,183.95 M322.5,166.49 L322.5,178.707 M323.5,159.685 L323.5,173.301 M324.5,162.652 L324.5,173.074 M325.5,164.305 L325.5,177.899 M326.5,171.105 L326.5,182.292 M327.5,172.562 L327.5,182.593 M328.5,170.376 L328.5,180.75 M329.5,166.976 L329.5,181.373 M330.5,167.947 L330.5,175.239 M331.5,166.342 L331.5,175.851 M332.5,163.249 L332.5,174.082 M333.5,168.259 L333.5,174.547 M334.5,172.53 L334.5,179.087 M335.5,169.985 L335.5,179.874 M336.5,169.7 L336.5,181.658 M337.5,170.756 L337.5,179.04 M338.5,168.333 L338.5,177.144 M339.5,167.451 L339.5,172.984 M340.5,164.701 L340.5,173.818 M341.5,168.697 L341.5,174.61 M342.5,170.825 L342.5,177.847 M343.5,171.078 L343.5,178.813 M344.5,170.35 L344.5,179.167 M345.5,171.886 L345.5,177.356 M346.5,170.492 L346.5,176.791 M347.5,168.264 L347.5,176.632 M348.5,168.264 L348.5,173.591 M349.5,166.575 L349.5,173.507 M350.5,170.265 L350.5,175.207 M351.5,171.136 L351.5,178.718 M352.5,172.229 L352.5,178.998 M353.5,170.445 L353.5,177.403 M354.5,168.634 L354.5,175.328 M355.5,169.288 L355.5,172.9 M356.5,167.631 L356.5,174.948 M357.5,171.136 L357.5,175.323 M358.5,170.672 L358.5,178.707 M359.5,171.469 L359.5,176.87 M360.5,170.165 L360.5,175.344 M361.5,171.596 L361.5,175.619 M362.5,171.717 L362.5,175.26 M363.5,172.15 L363.5,176.358 M364.5,170.793 L364.5,174.784 M365.5,168.623 L365.5,174.262 M366.5,169.568 L366.5,173.443 M367.5,171.136 L367.5,174.916 M368.5,173.385 L368.5,176.421 M369.5,172.636 L369.5,177.176 M370.5,171.379 L370.5,175.423 M371.5,170.038 L371.5,174.552 M372.5,171.237 L372.5,174.293 M373.5,169.89 L373.5,174.631 M374.5,171.68 L374.5,173.998 M375.5,172.171 L375.5,174.23 M376.5,172.293 L376.5,174.605 M377.5,172.63 L377.5,174.23 M378.5,172.34 L378.5,174.51 M379.5,172.171 L379.5,173.676 M380.5,171.611 L380.5,173.802 M381.5,172.504 L381.5,173.766 M382.5,172.018 L382.5,173.892 M383.5,171.326 L383.5,174.415 M384.5,172.372 L384.5,173.734 M385.5,172.71 L385.5,174.267 M385.5,173.488 L386.5,173.343 L387.5,173.214 L388.5,173.063 M389.5,172.393 L389.5,173.792 M390.5,172.187 L390.5,173.19 M390.5,172.689 L391.5,172.741 L392.5,173.077 L393.5,173.245 L394.5,173.116 L395.5,173.048 L396.5,172.979 L397.5,172.958 L398.5,173.003 M399.5,153.423 L399.5,189.15 M400.5,129.528 L400.5,204.524 M401.5,102.017 L401.5,250.915 M402.5,116.667 L402.5,188.86 M403.5,118.827 L403.5,173.729 M404.5,111.367 L404.5,164.627 M405.5,125.806 L405.5,185.798 M406.5,149.601 L406.5,221.577 M407.5,169.056 L407.5,240.161 M408.5,196.087 L408.5,247.072 M409.5,190.998 L409.5,244.944 M410.5,169.595 L410.5,220.162 M411.5,158.893 L411.5,206.451 M412.5,119.634 L412.5,178.697 M413.5,102.307 L413.5,138.525 M414.5,93.4584 L414.5,131.809 M415.5,106.726 L415.5,136.249 M416.5,114.038 L416.5,166.95 M417.5,146.724 L417.5,176.743 M418.5,164.632 L418.5,204.223 M419.5,187.561 L419.5,230.119 M420.5,208.822 L420.5,246.153 M421.5,224.882 L421.5,251.882 M422.5,218.457 L422.5,253.898 M423.5,194.303 L423.5,238.002 M424.5,183.026 L424.5,217.327 M425.5,157.8 L425.5,192.318 M426.5,143.588 L426.5,179.298 M427.5,125.21 L427.5,155.461 M428.5,121.889 L428.5,137.675 M429.5,118.341 L429.5,134.961 M430.5,117.987 L430.5,141.185 M431.5,126.936 L431.5,141.983 M432.5,135.975 L432.5,164.701 M433.5,151.502 L433.5,173.364 M434.5,166.337 L434.5,180.639 M435.5,173.866 L435.5,191.426 M436.5,179.436 L436.5,205.981 M437.5,190.887 L437.5,205.818 M438.5,187.144 L438.5,210.601 M439.5,185.301 L439.5,212.153 M440.5,191.938 L440.5,209.624 M441.5,195.581 L441.5,210.057 M442.5,194.556 L442.5,211.192 M443.5,195.94 L443.5,216.229 M444.5,186.722 L444.5,206.314 M445.5,180.159 L445.5,196.605 M446.5,164.5 L446.5,192.619 M447.5,154.004 L447.5,171.701 M448.5,140.272 L448.5,163.924 M449.5,134.707 L449.5,148.851 M450.5,122.823 L450.5,140.256 M451.5,118.7 L451.5,133.361 M452.5,121.081 L452.5,132.839 M453.5,125.928 L453.5,141.676 M454.5,136.033 L454.5,153.033 M455.5,151.185 L455.5,170.371 M456.5,164.864 L456.5,185.037 M457.5,180.518 L457.5,199.319 M458.5,194.16 L458.5,206.652 M459.5,202.386 L459.5,211.63 M460.5,202.18 L460.5,212.037 M461.5,198.009 L461.5,209.73 M462.5,188.844 L462.5,201.008 M463.5,184.05 L463.5,195.739 M464.5,173.781 L464.5,187.883 M465.5,163.74 L465.5,176.865 M466.5,157.41 L466.5,169.093 M467.5,156.808 L467.5,164.891 M468.5,154.268 L468.5,163.492 M469.5,155.409 L469.5,163.951 M470.5,156.623 L470.5,167.678 M471.5,161.216 L471.5,170.038 M472.5,164.595 L472.5,170.83 M473.5,167.33 L473.5,174.024 M474.5,168.861 L474.5,177.176 M475.5,171.495 L475.5,176.975 M476.5,171.743 L476.5,178.823 M477.5,172.018 L477.5,177.071 M478.5,170.835 L478.5,177.166 M479.5,169.589 L479.5,174.716 M480.5,167.303 L480.5,174.99 M481.5,169.384 L481.5,173.375 M482.5,169.97 L482.5,175.957 M483.5,169.7 L483.5,175.666 M484.5,170.028 L484.5,175.17 M485.5,171.886 L485.5,176.912 M486.5,172.784 L486.5,177.319 M487.5,173.966 L487.5,177.973 M488.5,174.014 L488.5,177.408 M489.5,173.1 L489.5,177.509 M490.5,172.06 L490.5,176.532 M491.5,173.148 L491.5,175.576 M492.5,172.504 L492.5,175.619 M493.5,172.187 L493.5,175.307 M494.5,171.464 L494.5,175.001 M495.5,171.284 L495.5,174.146 M496.5,170.73 L496.5,174.061 M497.5,171.168 L497.5,173.787 M498.5,170.519 L498.5,173.396 M499.5,170.043 L499.5,172.557 M500.5,169.933 L500.5,172.066 M501.5,170.086 L501.5,172.282 M502.5,169.859 L502.5,172.081 M503.5,170.175 L503.5,172.34 M504.5,170.355 L504.5,172.414 M505.5,171.221 L505.5,173.143 M506.5,171.369 L506.5,173.908 M507.5,172.303 L507.5,174.114 M508.5,172.541 L508.5,174.811 M509.5,173.164 L509.5,174.652 M510.5,173.164 L510.5,174.975 M511.5,173.417 L511.5,174.684 M512.5,173.185 L512.5,174.521 M513.5,173.433 L513.5,174.631 M514.5,173.185 L514.5,174.499 M515.5,172.768 L515.5,174.098 M516.5,172.852 L516.5,173.871 M516.5,173.362 L517.5,173.066 L518.5,173.077 L519.5,173.034 L520.5,172.95 L521.5,173.066 L522.5,173.079 L523.5,173.116 L524.5,173.077 L525.5,173.14 L526.5,172.966 L527.5,172.942 L528.5,173 L529.5,173.016 L530.5,172.987 L531.5,173.029 L532.5,173.021 L533.5,173.082 L534.5,173.005 L535.5,173.026 L536.5,173.003 L537.5,173.021 L538.5,172.997 L539.5,173.024 L540.5,172.984 L541.5,172.976 L542.5,172.945 L543.5,172.963 L544.5,172.987 L545.5,173.026 L546.5,172.982 L547.5,172.939 L548.5,172.934 L549.5,172.997 L550.5,172.945 L551.5,172.984 L552.5,172.992 L553.5,172.968 L554.5,172.968 L555.5,172.945 L556.5,172.982 L557.5,172.968 L558.5,172.95 L559.5,172.966 L560.5,172.96 L561.5,172.958 L562.5,172.963 L563.5,172.966 L564.5,172.963 L565.5,172.952 L566.5,172.971 L567.5,172.958 L568.5,172.958 L569.5,172.958 M570.5,167.361 L570.5,176.791 M571.5,156.021 L571.5,192.191 M572.5,152.515 L572.5,196.858 M573.5,148.925 L573.5,198.236 M574.5,154.955 L574.5,190.871 M575.5,149.094 L575.5,201.214 M576.5,154.358 L576.5,203.574 M577.5,145.657 L577.5,194.034 M578.5,151 L578.5,203.906 M579.5,150.013 L579.5,191.246 M580.5,156.702 L580.5,202.001 M581.5,141.603 L581.5,193.923 M582.5,147.711 L582.5,185.671 M583.5,161.649 L583.5,192.751 M584.5,156.612 L584.5,187.804 M585.5,156.396 L585.5,193.231 M586.5,156.005 L586.5,192.735 M587.5,152.151 L587.5,182.836 M588.5,157.879 L588.5,196.51 M589.5,154.184 L589.5,186.838 M590.5,148.709 L590.5,186.252 M591.5,158.164 L591.5,187.096 M592.5,158.349 L592.5,189.842 M593.5,156.639 L593.5,197.983 M594.5,154.289 L594.5,178.691 M595.5,166.77 L595.5,180.94 M596.5,159.479 L596.5,184.842 M597.5,161.939 L597.5,184.256 M598.5,164.162 L598.5,182.044 M599.5,160.767 L599.5,190.09 M600.5,162.599 L600.5,188.226 M601.5,164.009 L601.5,180.133 M602.5,160.625 L602.5,180.296 M603.5,163.687 L603.5,186.046 M604.5,162.098 L604.5,187.181 M605.5,159.421 L605.5,189.741 M606.5,161.797 L606.5,178.38 M607.5,163.956 L607.5,187.249 M608.5,162.029 L608.5,179.885 M609.5,165.001 L609.5,184.245 M610.5,160.171 L610.5,182.303 M611.5,166.833 L611.5,178.575 M612.5,168.196 L612.5,181.917 M613.5,168.518 L613.5,177.847 M614.5,163.724 L614.5,178.158 M615.5,166.427 L615.5,181.711 M616.5,165.07 L616.5,179.193 M617.5,166.306 L617.5,178.58 M618.5,165.133 L618.5,176.58 M619.5,167.911 L619.5,179.325 M620.5,168.903 L620.5,178.623 M621.5,167.177 L621.5,178.443 M622.5,166.807 L622.5,178.639 M623.5,166.094 L623.5,179.504 M624.5,167.446 L624.5,178.322 M625.5,169.706 L625.5,176.727 M626.5,167.409 L626.5,176.294 M627.5,169.473 L627.5,180.83 M628.5,168.528 L628.5,176.506 M629.5,165.598 L629.5,176.928 M630.5,169.019 L630.5,176.68 M631.5,169.098 L631.5,178.454 M632.5,167.647 L632.5,181.769 M633.5,170.286 L633.5,175.988 M634.5,167.831 L634.5,177.313 M635.5,169.394 L635.5,176.194 M636.5,169.341 L636.5,177.936 M637.5,169.167 L637.5,178.433 M638.5,169.125 L638.5,177.868 M639.5,170.028 L639.5,175.93 M640.5,168.618 L640.5,175.064 M641.5,168.185 L641.5,177.398 M642.5,169.299 L642.5,175.265 M643.5,170.408 L643.5,175.186 M644.5,169.415 L644.5,179.214 M645.5,167.768 L645.5,175.825 M646.5,169.69 L646.5,175.883 M647.5,170.862 L647.5,175.904 M648.5,170.107 L648.5,175.788 M649.5,168.359 L649.5,175.518 M650.5,170.028 L650.5,176.279 M651.5,170.434 L651.5,175.993 M652.5,169.991 L652.5,175.84 M653.5,169.7 L653.5,175.012 M654.5,172.013 L654.5,175.165 M655.5,170.888 L655.5,174.864 M656.5,170.909 L656.5,176.669 M657.5,170.27 L657.5,175.038 M658.5,170.719 L658.5,174.204 M659.5,170.878 L659.5,174.484 M660.5,171.511 L660.5,175.55 M661.5,171.258 L661.5,174.927 M662.5,171.464 L662.5,175.154 M663.5,171.701 L663.5,174.214 M664.5,170.677 L664.5,174.447 M665.5,171.522 L665.5,174.425 M666.5,171.184 L666.5,174.056 M667.5,171.316 L667.5,174.705 M668.5,171.527 L668.5,174.093 M669.5,171.791 L669.5,174.594 M670.5,171.928 L670.5,174.235 M671.5,171.685 L671.5,173.845 M672.5,172.176 L672.5,174.262 M673.5,171.648 L673.5,174.209 M674.5,171.949 L674.5,174.151 M675.5,171.986 L675.5,174.051 M676.5,172.361 L676.5,173.802 M677.5,172.377 L677.5,173.855 M678.5,172.034 L678.5,173.607 M679.5,172.034 L679.5,173.707 M680.5,172.234 L680.5,173.929 M681.5,171.765 L681.5,173.56 M682.5,172.377 L682.5,173.465 M683.5,172.451 L683.5,174.008 M684.5,172.551 L684.5,173.85 M684.5,173.201"/>
</g>

<g fill="none" stroke="#0000c0" stroke-opacity="1" stroke-width="1" stroke-linecap="square" stroke-linejoin="bevel" transform="matrix(1,0,0,1,0,0)"
font-family="Segoe UI" font-size="9" font-weight="400" font-style="normal" 
>
<path vector-effect="non-scaling-stroke" fill-rule="evenodd" d="M57.5,174.622 L57.5,171.471 M58.5,178.125 L58.5,167.875 M59.5,180.521 L59.5,165.479 M60.5,178.717 L60.5,167.283 M61.5,184.522 L61.5,161.478 M62.5,185.583 L62.5,160.417 M63.5,183.339 L63.5,162.661 M64.5,181.61 L64.5,164.39 M65.5,181.119 L65.5,164.881 M66.5,182.428 L66.5,163.572 M67.5,181.695 L67.5,164.305 M68.5,182.57 L68.5,163.43 M69.5,183.419 L69.5,162.581 M70.5,181.324 L70.5,164.676 M71.5,181.409 L71.5,164.591 M72.5,178.922 L72.5,167.078 M73.5,181.136 L73.5,164.864 M74.5,181.255 L74.5,164.745 M75.5,181.256 L75.5,164.744 M76.5,179.913 L76.5,166.087 M77.5,179.063 L77.5,166.937 M78.5,179.713 L78.5,166.287 M79.5,179.6 L79.5,166.4 M80.5,180.143 L80.5,165.857 M81.5,178.438 L81.5,167.562 M82.5,178.82 L82.5,167.18 M83.5,180.27 L83.5,165.73 M84.5,178.665 L84.5,167.335 M85.5,178.482 L85.5,167.518 M86.5,176.682 L86.5,169.318 M87.5,177.388 L87.5,168.612 M88.5,176.74 L88.5,169.26 M89.5,179.562 L89.5,166.438 M90.5,178.826 L90.5,167.174 M91.5,177.896 L91.5,168.104 M92.5,176.528 L92.5,169.472 M93.5,177.49 L93.5,168.51 M94.5,176.178 L94.5,169.822 M95.5,177.787 L95.5,168.213 M96.5,178.336 L96.5,167.664 M97.5,175.994 L97.5,170.006 M98.5,175.711 L98.5,170.289 M99.5,176.162 L99.5,169.838 M100.5,176.389 L100.5,169.611 M101.5,176.003 L101.5,169.997 M102.5,176.349 L102.5,169.651 M103.5,176.379 L103.5,169.621 M104.5,175.178 L104.5,170.82 M105.5,176.16 L105.5,169.84 M106.5,176.231 L106.5,169.769 M107.5,175.731 L107.5,170.269 M108.5,176.438 L108.5,169.562 M109.5,175.785 L109.5,170.215 M110.5,175.385 L110.5,170.615 M111.5,175.224 L111.5,170.776 M112.5,175.751 L112.5,170.249 M113.5,175.665 L113.5,170.335 M114.5,174.915 L114.5,171.085 M115.5,174.904 L115.5,171.096 M116.5,175.189 L116.5,170.811 M117.5,175.199 L117.5,170.683 M118.5,175.525 L118.5,170.475 M119.5,175.038 L119.5,170.962 M120.5,175.48 L120.5,170.52 M121.5,175.243 L121.5,170.757 M122.5,175.632 L122.5,170.368 M123.5,175.121 L123.5,170.879 M124.5,175.298 L124.5,171.091 M125.5,174.703 L125.5,171.182 M126.5,174.805 L126.5,171.195 M127.5,175.219 L127.5,170.781 M128.5,174.752 L128.5,171.248 M129.5,175.009 L129.5,171.17 M130.5,175.021 L130.5,170.979 M131.5,174.788 L131.5,171.137 M132.5,174.546 L132.5,171.454 M133.5,174.744 L133.5,171.74 M134.5,174.603 L134.5,171.561 M135.5,174.799 L135.5,171.201 M136.5,174.472 L136.5,171.528 M137.5,174.873 L137.5,171.239 M138.5,174.529 L138.5,171.471 M139.5,174.256 L139.5,171.744 M140.5,173.99 L140.5,172.469 M141.5,174.427 L141.5,171.582 M142.5,174.357 L142.5,172.316 M143.5,174.361 L143.5,172.036 M144.5,174.128 L144.5,171.783 M145.5,173.014 L145.5,171.926 M146.5,174.349 L146.5,171.767 M147.5,173.748 L147.5,171.893 M148.5,173.721 L148.5,172.231 M150.5,173.832 L150.5,172.538 M151.5,173.436 L151.5,172.105 M152.5,173.637 L152.5,172.448 M155.5,173.968 L155.5,172.691 M228.5,184.448 L228.5,161.552 M229.5,189.734 L229.5,166.387 M230.5,198.371 L230.5,147.629 M231.5,187.099 L231.5,142.645 M232.5,200.41 L232.5,145.59 M233.5,200.167 L233.5,158.937 M234.5,217.626 L234.5,189.928 M235.5,186.904 L235.5,159.096 M236.5,169.503 L236.5,141.692 M237.5,155.544 L237.5,136.893 M238.5,156.668 L238.5,134.922 M239.5,191.811 L239.5,154.189 M240.5,219.118 L240.5,192.009 M241.5,225.292 L241.5,189.39 M242.5,197.931 L242.5,166.545 M243.5,193.603 L243.5,152.397 M244.5,149.208 L244.5,128.75 M245.5,160.274 L245.5,134.762 M246.5,185.813 L246.5,160.187 M247.5,199.761 L247.5,182.426 M248.5,207.425 L248.5,182.817 M249.5,198.07 L249.5,174.808 M250.5,182.266 L250.5,163.734 M251.5,179.043 L251.5,146.281 M252.5,164.735 L252.5,145.031 M253.5,153.738 L253.5,142.173 M254.5,187.874 L254.5,158.126 M255.5,212.447 L255.5,175.183 M256.5,207.483 L256.5,186.597 M257.5,184.844 L257.5,169.233 M258.5,178.019 L258.5,155.672 M259.5,159.751 L259.5,136.608 M260.5,171.43 L260.5,145.957 M261.5,180.983 L261.5,165.017 M262.5,192.312 L262.5,173.414 M263.5,194.332 L263.5,174.85 M264.5,196.199 L264.5,187.384 M265.5,182.686 L265.5,163.314 M266.5,162.428 L266.5,153.243 M267.5,165.86 L267.5,149.983 M268.5,169.529 L268.5,154.027 M269.5,183.654 L269.5,162.346 M270.5,196.324 L270.5,175.478 M271.5,201.632 L271.5,188.799 M272.5,185.993 L272.5,160.007 M273.5,180.907 L273.5,164.754 M274.5,167.85 L274.5,157.202 M275.5,166.145 L275.5,153.372 M276.5,178.811 L276.5,160.636 M277.5,180.98 L277.5,169.607 M278.5,183.047 L278.5,171.909 M279.5,192.77 L279.5,184.1 M280.5,187.898 L280.5,169.491 M281.5,180.583 L281.5,165.417 M282.5,169.218 L282.5,156.575 M283.5,174.096 L283.5,154.695 M284.5,181.076 L284.5,163.587 M285.5,179.712 L285.5,166.288 M286.5,186.625 L286.5,170.479 M287.5,187.357 L287.5,171.872 M288.5,181.064 L288.5,167.036 M289.5,176.917 L289.5,169.083 M290.5,173.267 L290.5,162.893 M291.5,171.118 L291.5,160.458 M292.5,175.991 L292.5,164.907 M293.5,176.88 L293.5,169.12 M294.5,181.614 L294.5,169.623 M295.5,187.915 L295.5,177.875 M296.5,182.29 L296.5,168.567 M297.5,178.659 L297.5,167.341 M298.5,168.447 L298.5,161.221 M299.5,174.202 L299.5,161.709 M300.5,178.743 L300.5,167.257 M301.5,177.494 L301.5,169.227 M302.5,179.229 L302.5,174.153 M303.5,179.685 L303.5,167.311 M304.5,180.586 L304.5,172.553 M305.5,177.054 L305.5,169.254 M306.5,175.178 L306.5,167.719 M307.5,169.487 L307.5,163.582 M308.5,172.412 L308.5,165.536 M309.5,178.169 L309.5,167.831 M310.5,179.52 L310.5,171.571 M311.5,183.675 L311.5,175.103 M312.5,178.717 L312.5,172.353 M313.5,176.268 L313.5,169.732 M314.5,173.6 L314.5,166.91 M315.5,170.036 L315.5,165.142 M316.5,176.234 L316.5,167.77 M317.5,176.076 L317.5,171.175 M318.5,176.759 L318.5,170.552 M319.5,176.219 L319.5,172.67 M320.5,177.059 L320.5,174.063 M321.5,177.731 L321.5,171.571 M322.5,176.253 L322.5,169.747 M323.5,172.301 L323.5,167.406 M324.5,172.074 L324.5,166.714 M325.5,176.899 L325.5,168.995 M326.5,176.096 L326.5,172.105 M327.5,178.388 L327.5,173.562 M328.5,177.97 L328.5,171.376 M329.5,175.971 L329.5,170.029 M330.5,174.239 L330.5,170.902 M331.5,174.851 L331.5,168.894 M332.5,173.082 L332.5,168.122 M333.5,173.547 L333.5,170.621 M334.5,175.484 L334.5,173.53 M335.5,176.6 L335.5,170.985 M336.5,176.188 L336.5,170.7 M337.5,176.277 L337.5,171.756 M338.5,175.285 L338.5,170.715 M339.5,171.984 L339.5,170.181 M340.5,172.818 L340.5,169.72 M341.5,173.61 L341.5,171.029 M342.5,174.914 L342.5,171.825 M343.5,175.548 L343.5,172.078 M344.5,176.144 L344.5,171.35 M345.5,175.223 L345.5,172.886 M346.5,174.878 L346.5,171.492 M347.5,175.087 L347.5,170.913 M348.5,172.591 L348.5,170.222 M349.5,172.507 L349.5,169.519 M350.5,174.207 L350.5,171.288 M351.5,175.956 L351.5,172.136 M352.5,176.634 L352.5,173.229 M353.5,175.305 L353.5,171.445 M354.5,174.328 L354.5,170.734 M355.5,171.9 L355.5,170.51 M356.5,173.948 L356.5,171.139 M357.5,174.212 L357.5,172.136 M358.5,174.725 L358.5,171.672 M359.5,174.446 L359.5,172.469 M360.5,174.31 L360.5,171.69 M361.5,174.245 L361.5,172.596 M362.5,174.26 L362.5,172.717 M363.5,174.374 L363.5,173.15 M364.5,173.784 L364.5,171.793 M365.5,173.262 L365.5,171.008 M366.5,172.443 L366.5,170.831 M367.5,173.916 L367.5,172.136 M369.5,175.162 L369.5,173.636 M370.5,174.423 L370.5,172.379 M371.5,173.552 L371.5,171.391 M372.5,173.293 L372.5,172.237 M373.5,173.631 L373.5,171.734 M383.5,173.415 L383.5,172.326 M399.5,177.785 L399.5,168.215 M400.5,185.377 L400.5,160.623 M401.5,200.722 L401.5,145.278 M402.5,187.86 L402.5,157.579 M403.5,172.729 L403.5,136.159 M404.5,163.627 L404.5,140.953 M405.5,184.798 L405.5,151.431 M406.5,191.27 L406.5,154.73 M407.5,210.633 L407.5,170.056 M408.5,223.549 L408.5,197.087 M409.5,217.352 L409.5,191.998 M410.5,194.184 L410.5,170.595 M411.5,181.686 L411.5,164.314 M412.5,177.697 L412.5,153.052 M413.5,137.525 L413.5,120.39 M414.5,130.809 L414.5,113.216 M415.5,135.249 L415.5,118.156 M416.5,165.95 L416.5,132.799 M417.5,175.743 L417.5,158.081 M418.5,186.544 L418.5,165.632 M419.5,211.752 L419.5,188.561 M420.5,228.432 L420.5,209.822 M421.5,240.303 L421.5,225.882 M422.5,239.197 L422.5,219.457 M423.5,218.084 L423.5,195.303 M424.5,198.203 L424.5,184.026 M425.5,180.814 L425.5,165.186 M426.5,178.298 L426.5,157.199 M427.5,154.461 L427.5,139.621 M428.5,136.675 L428.5,128.811 M429.5,133.961 L429.5,125.715 M430.5,140.185 L430.5,128.889 M431.5,140.983 L431.5,133.103 M432.5,163.701 L432.5,148.088 M433.5,172.364 L433.5,159.606 M434.5,177.56 L434.5,168.44 M435.5,182.985 L435.5,174.866 M436.5,192.362 L436.5,180.436 M437.5,196.736 L437.5,191.887 M438.5,198.712 L438.5,188.144 M439.5,199.042 L439.5,186.301 M440.5,200.629 L440.5,192.938 M441.5,202.646 L441.5,196.581 M442.5,203.247 L442.5,195.556 M443.5,204.801 L443.5,196.94 M444.5,197.485 L444.5,187.722 M445.5,189.65 L445.5,181.159 M446.5,179.969 L446.5,166.031 M447.5,170.701 L447.5,163.742 M448.5,162.924 L448.5,152.036 M449.5,147.851 L449.5,139.845 M450.5,139.256 L450.5,131.762 M451.5,132.361 L451.5,125.97 M452.5,131.839 L452.5,126.347 M453.5,140.676 L453.5,134.129 M454.5,152.033 L454.5,145.176 M455.5,169.371 L455.5,160.056 M456.5,179.4 L456.5,166.6 M457.5,190.759 L457.5,181.518 M458.5,201.632 L458.5,195.16 M459.5,206.836 L459.5,203.386 M460.5,207.121 L460.5,203.18 M461.5,204.267 L461.5,199.009 M462.5,196.722 L462.5,189.844 M463.5,189.25 L463.5,185.05 M464.5,180.22 L464.5,174.781 M465.5,175.865 L465.5,169.411 M466.5,168.093 L466.5,163.554 M467.5,163.891 L467.5,159.864 M468.5,162.492 L468.5,157.923 M469.5,162.951 L469.5,158.626 M470.5,166.678 L470.5,161.527 M471.5,169.038 L471.5,163.774 M472.5,169.83 L472.5,167.111 M473.5,173.024 L473.5,170.3 M474.5,174.944 L474.5,171.056 M475.5,175.446 L475.5,172.495 M476.5,176.139 L476.5,172.743 M477.5,175.229 L477.5,173.018 M478.5,174.676 L478.5,171.835 M479.5,173.716 L479.5,171.632 M480.5,173.99 L480.5,170.854 M481.5,172.375 L481.5,170.975 M482.5,174.957 L482.5,170.97 M483.5,174.666 L483.5,171.076 M484.5,174.17 L484.5,171.579 M485.5,175.001 L485.5,172.886 M486.5,175.68 L486.5,173.784 M487.5,175.971 L487.5,174.966 M488.5,176.352 L488.5,175.014 M489.5,175.805 L489.5,174.1 M490.5,175.374 L490.5,173.06 M492.5,174.599 L492.5,173.504 M493.5,174.213 L493.5,173.187 M494.5,174.001 L494.5,172.464 M496.5,173.061 L496.5,171.732 M570.5,173.948 L570.5,172.052 M571.5,179.983 L571.5,166.017 M572.5,181.798 L572.5,164.202 M573.5,183.186 L573.5,162.814 M574.5,179.776 L574.5,166.224 M575.5,181.974 L575.5,164.026 M576.5,183.326 L576.5,162.674 M577.5,183.136 L577.5,162.864 M578.5,183.183 L578.5,162.817 M579.5,182.022 L579.5,163.978 M580.5,181.483 L580.5,164.517 M581.5,183.161 L581.5,162.839 M582.5,183.106 L582.5,162.894 M583.5,180.655 L583.5,165.345 M584.5,179.834 L584.5,166.166 M585.5,180.578 L585.5,165.422 M586.5,179.903 L586.5,166.097 M587.5,178.55 L587.5,167.45 M588.5,180.333 L588.5,165.667 M589.5,180.827 L589.5,165.173 M590.5,180.962 L590.5,165.038 M591.5,180.207 L591.5,165.793 M592.5,179.713 L592.5,166.287 M593.5,181.295 L593.5,164.705 M594.5,177.326 L594.5,168.674 M595.5,176.996 L595.5,169.004 M596.5,178.011 L596.5,167.989 M597.5,178.598 L597.5,167.402 M598.5,177.732 L598.5,168.268 M599.5,178.693 L599.5,167.307 M600.5,178.443 L600.5,167.557 M601.5,176.699 L601.5,169.301 M602.5,176.447 L602.5,169.553 M603.5,178.427 L603.5,167.573 M604.5,178.005 L604.5,167.995 M605.5,178.063 L605.5,167.937 M606.5,176.519 L606.5,169.481 M607.5,177.16 L607.5,168.84 M608.5,177.369 L608.5,168.631 M609.5,177.596 L609.5,168.404 M610.5,177.796 L610.5,168.204 M611.5,176.165 L611.5,169.835 M612.5,176.6 L612.5,169.4 M613.5,175.846 L613.5,170.154 M614.5,176.138 L614.5,169.862 M615.5,176.187 L615.5,169.813 M616.5,176.283 L616.5,169.717 M617.5,175.839 L617.5,170.161 M618.5,175.58 L618.5,170.122 M619.5,175.484 L619.5,170.516 M620.5,175.884 L620.5,170.116 M621.5,176.043 L621.5,169.957 M622.5,175.862 L622.5,170.138 M623.5,175.909 L623.5,170.091 M624.5,175.739 L624.5,170.261 M625.5,174.883 L625.5,171.117 M626.5,175.294 L626.5,170.61 M627.5,175.715 L627.5,170.473 M628.5,175.197 L628.5,170.803 M629.5,175.319 L629.5,170.681 M630.5,174.763 L630.5,171.237 M631.5,175.858 L631.5,170.142 M632.5,175.808 L632.5,170.192 M633.5,174.879 L633.5,171.286 M634.5,175.394 L634.5,170.606 M635.5,174.919 L635.5,171.081 M636.5,175.176 L636.5,170.824 M637.5,175.315 L637.5,170.685 M638.5,175.368 L638.5,170.632 M639.5,174.802 L639.5,171.198 M640.5,174.064 L640.5,170.937 M641.5,175.32 L641.5,170.68 M642.5,174.265 L642.5,171.228 M643.5,174.186 L643.5,171.408 M644.5,175.307 L644.5,170.693 M645.5,174.825 L645.5,171.144 M646.5,174.73 L646.5,171.27 M647.5,174.475 L647.5,171.862 M648.5,174.672 L648.5,171.328 M649.5,174.518 L649.5,171.252 M650.5,174.514 L650.5,171.486 M651.5,174.771 L651.5,171.434 M652.5,174.806 L652.5,171.194 M653.5,174.012 L653.5,171.593 M654.5,174.124 L654.5,173.013 M655.5,173.864 L655.5,171.888 M656.5,174.386 L656.5,171.909 M657.5,174.038 L657.5,171.534 M658.5,173.204 L658.5,171.797 M659.5,173.484 L659.5,171.878 M660.5,174.308 L660.5,172.511 M661.5,173.927 L661.5,172.258 M662.5,174.154 L662.5,172.464 M664.5,173.447 L664.5,171.789 M667.5,173.705 L667.5,172.316"/>
</g>

<g fill="none" stroke="#000080" stroke-opacity="1" stroke-width="1" stroke-linecap="square" stroke-linejoin="bevel" transform="matrix(1,0,0,1,0,0)"
font-family="Segoe UI" font-size="9" font-weight="400" font-style="normal" 
>
</g>

<g fill="none" stroke="#000000" stroke-opacity="1" stroke-width="1" stroke-linecap="square" stroke-linejoin="bevel" transform="matrix(1,0,0,1,0,0)"
font-family="Segoe UI" font-size="9" font-weight="400" font-style="normal" 
>
</g>

<g fill="#ffffff" fill-opacity="1" stroke="#ffffff" stroke-opacity="1" stroke-width="1" stroke-linecap="square" stroke-linejoin="bevel" transform="matrix(1,0,0,1,0,0)"
font-family="Segoe UI" font-size="9" font-weight="400" font-style="normal" 
>
<rect x="684" y="0" width="684" height="346"/>
</g>

<g fill="none" stroke="#000000" stroke-opacity="1" stroke-width="1" stroke-linecap="square" stroke-linejoin="bevel" transform="matrix(1,0,0,1,0,0)"
font-family="Segoe UI" font-size="9" font-weight="400" font-style="normal" 
>
</g>

<g fill="none" stroke="#0000c0" stroke-opacity="1" stroke-width="1" stroke-linecap="square" stroke-linejoin="bevel" transform="matrix(1,0,0,1,684,0)"
font-family="Segoe UI" font-size="9" font-weight="400" font-style="normal" 
>
<polyline fill="none" vector-effect="non-scaling-stroke" points="0,173.5 684,173.5 " />
</g>

<g fill="none" stroke="#000080" stroke-opacity="1" stroke-width="1" stroke-linecap="square" stroke-linejoin="bevel" transform="matrix(1,0,0,1,684,0)"
font-family="Segoe UI" font-size="9" font-weight="400" font-style="normal" 
>
<path vector-effect="non-scaling-stroke" fill-rule="evenodd" d="M0.5,172.551 L0.5,173.85 M0.5,173.201 L1.5,173.003 M2.5,172.066 L2.5,173.385 M3.5,172.393 L3.5,173.586 M4.5,172.319 L4.5,173.586 M4.5,172.952 L5.5,172.913 L6.5,173.143 L7.5,172.842"/>
</g>

<g fill="none" stroke="#000000" stroke-opacity="1" stroke-width="1" stroke-linecap="square" stroke-linejoin="bevel" transform="matrix(1,0,0,1,0,0)"
font-family="Segoe UI" font-size="9" font-weight="400" font-style="normal" 
>
</g>
</g>
</svg>
