<?xml version="1.0" encoding="UTF-8" standalone="no"?>
<svg width="243.769mm" height="122.061mm"
 viewBox="0 0 691 346"
 xmlns="http://www.w3.org/2000/svg" xmlns:xlink="http://www.w3.org/1999/xlink" version="1.2" baseProfile="tiny">
<title>Exported image from Sonic Visualiser</title>
<desc>Generated with Qt</desc>
<defs>
</defs>
<g fill="none" stroke="black" stroke-width="1" fill-rule="evenodd" stroke-linecap="square" stroke-linejoin="bevel" >

<g fill="#ffffff" fill-opacity="1" stroke="#ffffff" stroke-opacity="1" stroke-width="1" stroke-linecap="square" stroke-linejoin="bevel" transform="matrix(1,0,0,1,0,0)"
font-family="Segoe UI" font-size="9" font-weight="400" font-style="normal" 
>
<rect x="0" y="0" width="684" height="346"/>
</g>

<g fill="none" stroke="#000000" stroke-opacity="1" stroke-width="1" stroke-linecap="square" stroke-linejoin="bevel" transform="matrix(1,0,0,1,0,0)"
font-family="Segoe UI" font-size="9" font-weight="400" font-style="normal" 
>
</g>

<g fill="none" stroke="#0000c0" stroke-opacity="1" stroke-width="1" stroke-linecap="square" stroke-linejoin="bevel" transform="matrix(1,0,0,1,0,0)"
font-family="Segoe UI" font-size="9" font-weight="400" font-style="normal" 
>
<polyline fill="none" vector-effect="non-scaling-stroke" points="0,173.5 684,173.5 " />
</g>

<g fill="none" stroke="#000080" stroke-opacity="1" stroke-width="1" stroke-linecap="square" stroke-linejoin="bevel" transform="matrix(1,0,0,1,0,0)"
font-family="Segoe UI" font-size="9" font-weight="400" font-style="normal" 
>
<path vector-effect="non-scaling-stroke" fill-rule="evenodd" d="M0.5,172.984 L0.5,173.021 M0.5,173.003 L1.5,173 L2.5,173 L3.5,172.997 L4.5,173 L5.5,173 L6.5,173 L7.5,173 L8.5,173 L9.5,173 L10.5,173 L11.5,173.003 L12.5,173 L13.5,172.997 L14.5,172.997 L15.5,173 L16.5,173 L17.5,173 L18.5,173 L19.5,173.003 L20.5,173 L21.5,173 L22.5,173 L23.5,173 L24.5,173 L25.5,172.997 L26.5,173 L27.5,173 L28.5,173 L29.5,173 L30.5,172.997 L31.5,173 L32.5,173 L33.5,173 L34.5,173 L35.5,173 L36.5,173.003 L37.5,173 L38.5,173.003 L39.5,173 L40.5,173 L41.5,172.987 L42.5,172.992 L43.5,172.995 L44.5,172.992 L45.5,173.013 L46.5,172.997 L47.5,173.003 L48.5,173.013 L49.5,172.987 L50.5,172.995 L51.5,173.005 L52.5,173.005 L53.5,173.005 L54.5,172.979 L55.5,173.04 L56.5,172.844 M57.5,170.381 L57.5,176.553 M58.5,165.033 L58.5,183.221 M59.5,158.376 L59.5,189.678 M60.5,159.152 L60.5,185.692 M61.5,153.856 L61.5,200.11 M62.5,151.829 L62.5,199.857 M63.5,148.925 L63.5,188.96 M64.5,152.79 L64.5,186.151 M65.5,154.374 L65.5,195.058 M66.5,158.925 L66.5,201.05 M67.5,146.359 L67.5,193.289 M68.5,145.979 L68.5,191.494 M69.5,149.923 L69.5,189.414 M70.5,153.814 L70.5,193.004 M71.5,158.175 L71.5,193.358 M72.5,159.057 L72.5,184.742 M73.5,159.363 L73.5,193.933 M74.5,147.12 L74.5,191.5 M75.5,154.902 L75.5,191.452 M76.5,151.903 L76.5,187.967 M77.5,155.926 L77.5,185.291 M78.5,157.964 L78.5,186.304 M79.5,157.077 L79.5,198.373 M80.5,154.025 L80.5,198.416 M81.5,157.278 L81.5,182.683 M82.5,158.376 L82.5,181.975 M83.5,154.669 L83.5,193.104 M84.5,159.342 L84.5,186.774 M85.5,160.709 L85.5,192.144 M86.5,163.756 L86.5,185.497 M87.5,162.853 L87.5,183.395 M88.5,153.27 L88.5,182.255 M89.5,161.702 L89.5,192.524 M90.5,158.56 L90.5,191.489 M91.5,157.621 L91.5,193.648 M92.5,161.042 L92.5,180.555 M93.5,159.231 L93.5,186.246 M94.5,159.189 L94.5,182.519 M95.5,159.516 L95.5,184.33 M96.5,158.814 L96.5,188.812 M97.5,167.108 L97.5,181.838 M98.5,163.391 L98.5,179.663 M99.5,164.906 L99.5,182.809 M100.5,159.437 L100.5,185.697 M101.5,165.429 L101.5,181.157 M102.5,161 L102.5,181.204 M103.5,156.311 L103.5,183.538 M104.5,160.049 L104.5,178.454 M105.5,160.503 L105.5,186.986 M106.5,162.451 L106.5,184.837 M107.5,162.473 L107.5,183.348 M108.5,159.041 L108.5,187.957 M109.5,163.27 L109.5,181.933 M110.5,165.065 L110.5,181.125 M111.5,161.491 L111.5,180.476 M112.5,161.828 L112.5,181.706 M113.5,157.531 L113.5,187.619 M114.5,162.478 L114.5,180.233 M115.5,160.614 L115.5,182.023 M116.5,164.231 L116.5,183.068 M117.5,159.463 L117.5,181.458 M118.5,160.82 L118.5,189.572 M119.5,160.567 L119.5,187.387 M120.5,164.241 L120.5,188.796 M121.5,158.397 L121.5,185.945 M122.5,158.36 L122.5,187.962 M123.5,161.021 L123.5,186.172 M124.5,164.384 L124.5,187.714 M125.5,163.465 L125.5,180.096 M126.5,160.25 L126.5,180.333 M127.5,159.648 L127.5,189.873 M128.5,162.404 L128.5,181.595 M129.5,163.206 L129.5,188.68 M130.5,162.034 L130.5,186.679 M131.5,154.094 L131.5,183.295 M132.5,159.051 L132.5,189.177 M133.5,163.872 L133.5,187.535 M134.5,162.948 L134.5,182.466 M135.5,155.952 L135.5,187.117 M136.5,156.486 L136.5,184.958 M137.5,159.463 L137.5,187.36 M138.5,159.315 L138.5,185.301 M139.5,158.175 L139.5,186.315 M140.5,165.704 L140.5,183.601 M141.5,159.748 L141.5,187.228 M142.5,163.328 L142.5,190.692 M143.5,163.18 L143.5,185.84 M144.5,160.25 L144.5,186.89 M145.5,157.225 L145.5,178.924 M146.5,158.513 L146.5,187.888 M147.5,158.45 L147.5,184.388 M148.5,159.912 L148.5,187.165 M149.5,164.59 L149.5,184.161 M150.5,161.454 L150.5,187.044 M151.5,157.489 L151.5,184.71 M152.5,160.229 L152.5,186.304 M153.5,159.405 L153.5,182.53 M154.5,160.978 L154.5,183.744 M155.5,160.857 L155.5,192.408 M156.5,160.852 L156.5,185.919 M157.5,163.412 L157.5,183.86 M158.5,162.071 L158.5,184.557 M159.5,159.189 L159.5,191.426 M160.5,161.517 L160.5,185.159 M161.5,160.641 L161.5,185.523 M162.5,162.626 L162.5,192.408 M163.5,160.002 L163.5,182.466 M164.5,162.372 L164.5,185.967 M165.5,155.303 L165.5,186.125 M166.5,166.311 L166.5,188.696 M167.5,157.246 L167.5,184.684 M168.5,163.317 L168.5,183.205 M169.5,159.189 L169.5,189.736 M170.5,159.579 L170.5,190.016 M171.5,157.441 L171.5,182.926 M172.5,163.354 L172.5,182.118 M173.5,164.03 L173.5,186.658 M174.5,158.054 L174.5,183.353 M175.5,163.639 L175.5,178.998 M176.5,160.604 L176.5,186.553 M177.5,161.623 L177.5,190.554 M178.5,161.744 L178.5,187.624 M179.5,164.822 L179.5,183.96 M180.5,163.909 L180.5,183.776 M181.5,166.95 L181.5,181.944 M182.5,161.528 L182.5,186.135 M183.5,165.688 L183.5,176.965 M184.5,163.983 L184.5,188.765 M185.5,160.905 L185.5,184.541 M186.5,164.025 L186.5,185.634 M187.5,158.323 L187.5,192.661 M188.5,165.709 L188.5,184.731 M189.5,161.322 L189.5,185.433 M190.5,160.889 L190.5,183.073 M191.5,158.877 L191.5,180.993 M192.5,160.836 L192.5,184.441 M193.5,162.272 L193.5,185.845 M194.5,162.531 L194.5,186.943 M195.5,165.63 L195.5,178.544 M196.5,159.458 L196.5,183.892 M197.5,161.881 L197.5,183.3 M198.5,167.092 L198.5,184.837 M199.5,165.25 L199.5,181.389 M200.5,163.629 L200.5,181.247 M201.5,166.316 L201.5,183.248 M202.5,163.47 L202.5,190.185 M203.5,159.917 L203.5,181.094 M204.5,164.299 L204.5,182.097 M205.5,163.856 L205.5,181.051 M206.5,164.843 L206.5,184.451 M207.5,166.443 L207.5,181.252 M208.5,165.112 L208.5,187.656 M209.5,165.514 L209.5,182.471 M210.5,167.963 L210.5,179.409 M211.5,166.174 L211.5,179.108 M212.5,159.896 L212.5,182.202 M213.5,164.98 L213.5,181.162 M214.5,167.113 L214.5,183.3 M215.5,161.517 L215.5,181.621 M216.5,160.15 L216.5,184.81 M217.5,167.076 L217.5,180.053 M218.5,165.17 L218.5,186.088 M219.5,162.261 L219.5,185.893 M220.5,160.192 L220.5,181.585 M221.5,157.769 L221.5,185.016 M222.5,163.001 L222.5,184.541 M223.5,166.2 L223.5,177.979 M224.5,166.923 L224.5,181.643 M225.5,163.143 L225.5,178.48 M226.5,160.313 L226.5,186.463 M227.5,162.779 L227.5,193.464 M228.5,152.452 L228.5,193.849 M229.5,155.857 L229.5,199.266 M230.5,144.892 L230.5,201.942 M231.5,145.082 L231.5,185.412 M232.5,146.143 L232.5,208.357 M233.5,157.251 L233.5,195.676 M234.5,147.991 L234.5,203.933 M235.5,144.691 L235.5,189.683 M236.5,153.365 L236.5,185.47 M237.5,155.446 L237.5,198.49 M238.5,144.126 L238.5,198.447 M239.5,152.848 L239.5,194.752 M240.5,159.986 L240.5,192.624 M241.5,141.999 L241.5,199.704 M242.5,155.361 L242.5,190.496 M243.5,157.177 L243.5,190.248 M244.5,159.036 L244.5,194.525 M245.5,158.682 L245.5,197.17 M246.5,150.763 L246.5,188.786 M247.5,159.585 L247.5,186.642 M248.5,161.216 L248.5,184.779 M249.5,157.32 L249.5,189.536 M250.5,158.629 L250.5,183.279 M251.5,158.566 L251.5,199.831 M252.5,154.664 L252.5,184.847 M253.5,160.936 L253.5,181.125 M254.5,161.005 L254.5,189.303 M255.5,162.224 L255.5,186.806 M256.5,162.858 L256.5,184.794 M257.5,167.219 L257.5,184.024 M258.5,165.287 L258.5,183.644 M259.5,161.2 L259.5,181.98 M260.5,164.579 L260.5,183.216 M261.5,159.305 L261.5,188.96 M262.5,166.944 L262.5,182.028 M263.5,165.72 L263.5,181.215 M264.5,166.876 L264.5,177.773 M265.5,158.275 L265.5,183.448 M266.5,167.15 L266.5,180.048 M267.5,160.635 L267.5,184.594 M268.5,164.136 L268.5,184.282 M269.5,167.266 L269.5,183.934 M270.5,168.993 L270.5,180.043 M271.5,166.712 L271.5,181.505 M272.5,168.386 L272.5,183.237 M273.5,163.866 L273.5,179.689 M274.5,167.113 L274.5,181.257 M275.5,165.35 L275.5,180.999 M276.5,166.591 L276.5,177.921 M277.5,166.744 L277.5,183.733 M278.5,167.129 L278.5,179.716 M279.5,166.913 L279.5,181.273 M280.5,165.888 L280.5,177.445 M281.5,166.464 L281.5,179.763 M282.5,168.085 L282.5,178.797 M283.5,168.264 L283.5,178.649 M284.5,166.749 L284.5,179.584 M285.5,168.729 L285.5,176.31 M286.5,167.958 L286.5,177.44 M287.5,169.046 L287.5,176.954 M288.5,168.708 L288.5,177.498 M289.5,168.65 L289.5,178.1 M290.5,169.025 L290.5,178.533 M291.5,168.739 L291.5,178.016 M292.5,167.652 L292.5,179.9 M293.5,167.293 L293.5,177.984 M294.5,168.797 L294.5,177.657 M295.5,168.254 L295.5,178.633 M296.5,167.689 L296.5,176.574 M297.5,170.059 L297.5,176.242 M298.5,168.528 L298.5,176.405 M299.5,170.117 L299.5,178.507 M300.5,169.933 L300.5,177.303 M301.5,169.985 L301.5,177.245 M302.5,169.779 L302.5,176.358 M303.5,169.816 L303.5,175.492 M304.5,171.4 L304.5,176.701 M305.5,169.215 L305.5,175.492 M306.5,170.244 L306.5,176.057 M307.5,169.584 L307.5,176.791 M308.5,168.539 L308.5,176.342 M309.5,170.059 L309.5,175.877 M310.5,170.878 L310.5,175.888 M311.5,171.311 L311.5,175.825 M312.5,170.476 L312.5,175.687 M313.5,169.822 L313.5,175.508 M314.5,170.988 L314.5,175.418 M315.5,171.173 L315.5,175.883 M316.5,171.094 L316.5,174.235 M317.5,170.73 L317.5,175.175 M318.5,170.783 L318.5,174.922 M319.5,171.025 L319.5,175.233 M320.5,171.722 L320.5,174.652 M321.5,171.849 L321.5,174.341 M322.5,171.474 L322.5,174.753 M323.5,171.86 L323.5,174.869 M324.5,171.353 L324.5,174.6 M325.5,171.87 L325.5,174.521 M326.5,171.96 L326.5,174.642 M327.5,171.379 L327.5,174.156 M328.5,172.24 L328.5,173.792 M329.5,171.897 L329.5,173.924 M330.5,172.087 L330.5,174.515 M331.5,172.007 L331.5,174.241 M332.5,172.076 L332.5,173.776 M333.5,171.796 L333.5,173.808 M334.5,171.981 L334.5,174.315 M335.5,172.419 L335.5,173.871 M336.5,172.018 L336.5,173.845 M337.5,171.912 L337.5,174.14 M338.5,172.176 L338.5,173.671 M339.5,172.023 L339.5,173.713 M340.5,172.213 L340.5,173.85 M341.5,172.335 L341.5,173.808 M342.5,172.351 L342.5,173.512 M343.5,172.203 L343.5,173.581 M343.5,172.892 L344.5,173.016 L345.5,172.952 L346.5,172.976 L347.5,172.931 L348.5,172.989 L349.5,172.987 L350.5,173.021 L351.5,173.05 L352.5,173.116 L353.5,173.024 L354.5,172.995 L355.5,172.982 L356.5,172.96 L357.5,173.003 L358.5,172.929 L359.5,172.982 L360.5,173.011 L361.5,173.032 L362.5,172.966 L363.5,173.005 L364.5,172.992 L365.5,172.992 L366.5,173.021 L367.5,172.992 L368.5,173 L369.5,173.008 L370.5,172.995 L371.5,172.968 L372.5,173.018 L373.5,173.029 L374.5,172.974 L375.5,172.968 L376.5,172.971 L377.5,173.005 L378.5,173.016 L379.5,173.005 L380.5,173.026 L381.5,173.011 L382.5,172.987 L383.5,172.974 L384.5,172.995 L385.5,173.013 L386.5,172.987 L387.5,172.982 L388.5,173.003 L389.5,172.992 L390.5,172.997 L391.5,173 L392.5,172.997 L393.5,173.005 L394.5,173 L395.5,173 L396.5,173 L397.5,172.995 L398.5,172.989 M399.5,153.482 L399.5,189.235 M400.5,129.57 L400.5,204.63 M401.5,102.164 L401.5,250.968 M402.5,117.201 L402.5,189.272 M403.5,118.932 L403.5,173.57 M404.5,111.926 L404.5,164.532 M405.5,126.149 L405.5,185.565 M406.5,149.437 L406.5,221.197 M407.5,168.882 L407.5,240.166 M408.5,195.945 L408.5,247.515 M409.5,191.03 L409.5,245.166 M410.5,169.167 L410.5,220.389 M411.5,158.655 L411.5,206.483 M412.5,119.677 L412.5,178.686 M413.5,102.254 L413.5,138.878 M414.5,93.828 L414.5,131.334 M415.5,107.059 L415.5,136.518 M416.5,114.286 L416.5,166.923 M417.5,146.766 L417.5,176.896 M418.5,164.627 L418.5,203.912 M419.5,187.445 L419.5,229.813 M420.5,208.838 L420.5,245.932 M421.5,224.787 L421.5,252.008 M422.5,218.784 L422.5,253.909 M423.5,194.398 L423.5,237.917 M424.5,183.121 L424.5,217.586 M425.5,157.805 L425.5,191.874 M426.5,143.535 L426.5,179.483 M427.5,125.146 L427.5,155.414 M428.5,122.047 L428.5,137.986 M429.5,118.315 L429.5,135.167 M430.5,118.225 L430.5,141.328 M431.5,126.793 L431.5,141.967 M432.5,135.732 L432.5,164.827 M433.5,151.475 L433.5,173.554 M434.5,166.226 L434.5,180.655 M435.5,173.612 L435.5,191.642 M436.5,179.467 L436.5,205.997 M437.5,191.045 L437.5,206.092 M438.5,187.276 L438.5,210.696 M439.5,185.169 L439.5,211.91 M440.5,191.769 L440.5,209.698 M441.5,195.702 L441.5,210.094 M442.5,194.546 L442.5,210.992 M443.5,195.945 L443.5,215.917 M444.5,186.653 L444.5,206.129 M445.5,179.937 L445.5,196.763 M446.5,164.468 L446.5,192.666 M447.5,153.899 L447.5,171.516 M448.5,140.394 L448.5,163.592 M449.5,134.723 L449.5,148.867 M450.5,122.924 L450.5,140.182 M451.5,118.721 L451.5,133.435 M452.5,121.16 L452.5,132.817 M453.5,125.954 L453.5,141.492 M454.5,136.091 L454.5,153.212 M455.5,151.148 L455.5,170.439 M456.5,164.901 L456.5,184.974 M457.5,180.296 L457.5,199.366 M458.5,194.166 L458.5,206.763 M459.5,202.381 L459.5,211.72 M460.5,202.101 L460.5,211.831 M461.5,198.088 L461.5,209.74 M462.5,188.712 L462.5,201.003 M463.5,184.008 L463.5,195.713 M464.5,173.618 L464.5,187.936 M465.5,163.734 L465.5,176.88 M466.5,157.309 L466.5,169.061 M467.5,156.792 L467.5,164.922 M468.5,154.141 L468.5,163.534 M469.5,155.314 L469.5,164.056 M470.5,156.665 L470.5,167.689 M471.5,161.211 L471.5,170.049 M472.5,164.627 L472.5,170.851 M473.5,167.335 L473.5,173.977 M474.5,168.829 L474.5,177.203 M475.5,171.527 L475.5,176.949 M476.5,171.796 L476.5,178.844 M477.5,171.992 L477.5,176.96 M478.5,170.867 L478.5,177.123 M479.5,169.51 L479.5,174.721 M480.5,167.372 L480.5,174.985 M481.5,169.389 L481.5,173.412 M482.5,170.017 L482.5,175.893 M483.5,169.621 L483.5,175.64 M484.5,169.985 L484.5,175.165 M485.5,171.875 L485.5,176.912 M486.5,172.741 L486.5,177.287 M487.5,173.966 L487.5,177.989 M488.5,174.003 L488.5,177.377 M489.5,173.084 L489.5,177.525 M490.5,172.076 L490.5,176.558 M491.5,173.111 L491.5,175.55 M492.5,172.504 L492.5,175.624 M493.5,172.155 L493.5,175.302 M494.5,171.464 L494.5,175.017 M495.5,171.226 L495.5,174.13 M496.5,170.709 L496.5,174.04 M497.5,171.179 L497.5,173.766 M498.5,170.497 L498.5,173.407 M499.5,170.049 L499.5,172.541 M500.5,169.943 L500.5,172.05 M501.5,170.065 L501.5,172.256 M502.5,169.885 L502.5,172.092 M503.5,170.154 L503.5,172.329 M504.5,170.366 L504.5,172.446 M505.5,171.221 L505.5,173.148 M506.5,171.358 L506.5,173.913 M507.5,172.308 L507.5,174.119 M508.5,172.551 L508.5,174.821 M509.5,173.169 L509.5,174.637 M510.5,173.153 L510.5,174.985 M511.5,173.438 L511.5,174.695 M512.5,173.201 L512.5,174.531 M513.5,173.428 L513.5,174.637 M514.5,173.195 L514.5,174.505 M515.5,172.768 L515.5,174.109 M516.5,172.852 L516.5,173.861 M516.5,173.356 L517.5,173.055 L518.5,173.074 L519.5,173.042 L520.5,172.952 L521.5,173.079 L522.5,173.077 L523.5,173.106 L524.5,173.077 L525.5,173.137 L526.5,172.968 L527.5,172.934 L528.5,173 L529.5,173.016 L530.5,172.987 L531.5,173.026 L532.5,173.013 L533.5,173.074 L534.5,173.011 L535.5,173.026 L536.5,173.005 L537.5,173.024 L538.5,172.997 L539.5,173.021 L540.5,172.984 L541.5,172.971 L542.5,172.947 L543.5,172.96 L544.5,172.982 L545.5,173.024 L546.5,172.976 L547.5,172.945 L548.5,172.937 L549.5,172.989 L550.5,172.952 L551.5,172.984 L552.5,172.992 L553.5,172.968 L554.5,172.955 L555.5,172.952 L556.5,172.982 L557.5,172.971 L558.5,172.952 L559.5,172.96 L560.5,172.963 L561.5,172.958 L562.5,172.963 L563.5,172.96 L564.5,172.966 L565.5,172.947 L566.5,172.95 L567.5,172.945 L568.5,172.979 L569.5,172.987 M570.5,166.95 L570.5,175.798 M571.5,151.486 L571.5,214.476 M572.5,169.278 L572.5,212.47 M573.5,110.189 L573.5,220.241 M574.5,107.439 L574.5,187.35 M575.5,146.28 L575.5,270.122 M576.5,159.094 L576.5,248.186 M577.5,178.047 L577.5,247.368 M578.5,151.755 L578.5,198.732 M579.5,108.547 L579.5,165.746 M580.5,120.21 L580.5,156.454 M581.5,104.889 L581.5,162.145 M582.5,136.539 L582.5,216.234 M583.5,198.975 L583.5,252.278 M584.5,196.045 L584.5,250.34 M585.5,161.723 L585.5,214.027 M586.5,129.423 L586.5,194.952 M587.5,110.775 L587.5,146.94 M588.5,116.9 L588.5,170.825 M589.5,138.303 L589.5,211.451 M590.5,179.394 L590.5,239.068 M591.5,185.053 L591.5,234.982 M592.5,164.975 L592.5,211.403 M593.5,143.672 L593.5,182.091 M594.5,115.749 L594.5,181.648 M595.5,122.765 L595.5,164.516 M596.5,133.213 L596.5,165.361 M597.5,142.468 L597.5,199.588 M598.5,194.519 L598.5,233.498 M599.5,174.938 L599.5,230.119 M600.5,163.998 L600.5,197.27 M601.5,122.491 L601.5,173.285 M602.5,124.513 L602.5,166.786 M603.5,126.508 L603.5,167.583 M604.5,162.747 L604.5,195.618 M605.5,174.679 L605.5,207.782 M606.5,171.4 L606.5,205.754 M607.5,173.554 L607.5,212.333 M608.5,152.23 L608.5,202.703 M609.5,134.671 L609.5,165.947 M610.5,134.417 L610.5,163.893 M611.5,142.859 L611.5,176.036 M612.5,148.239 L612.5,197.154 M613.5,177.715 L613.5,217.084 M614.5,189.134 L614.5,217.016 M615.5,164.563 L615.5,191.811 M616.5,155.519 L616.5,179.262 M617.5,141.539 L617.5,173.655 M618.5,145.541 L618.5,166.321 M619.5,151.454 L619.5,183.749 M620.5,168.174 L620.5,192.297 M621.5,170.175 L621.5,198.004 M622.5,180.312 L622.5,205.031 M623.5,170.355 L623.5,207.565 M624.5,154.553 L624.5,179.515 M625.5,139.317 L625.5,171.986 M626.5,145.995 L626.5,172.393 M627.5,154.221 L627.5,180.914 M628.5,164.632 L628.5,188.279 M629.5,168.317 L629.5,198.864 M630.5,173.533 L630.5,195.823 M631.5,169.077 L631.5,192.851 M632.5,160.313 L632.5,178.501 M633.5,152.927 L633.5,171.479 M634.5,148.202 L634.5,171.221 M635.5,159.569 L635.5,177.303 M636.5,165.624 L636.5,190.422 M637.5,164.896 L637.5,190.755 M638.5,178.338 L638.5,199.973 M639.5,168.687 L639.5,193.817 M640.5,156.533 L640.5,178.454 M641.5,152.917 L641.5,171.553 M642.5,155.588 L642.5,173.433 M643.5,160.392 L643.5,182.456 M644.5,164.035 L644.5,185.967 M645.5,170.455 L645.5,188.812 M646.5,166.659 L646.5,188.047 M647.5,172.752 L647.5,185.549 M648.5,168.745 L648.5,180.988 M649.5,159.215 L649.5,177.535 M650.5,160.688 L650.5,169.616 M651.5,157.584 L651.5,174.626 M652.5,156.296 L652.5,181.458 M653.5,172.789 L653.5,191.251 M654.5,172.842 L654.5,189.398 M655.5,171.395 L655.5,182.466 M656.5,164.468 L656.5,179.198 M657.5,158.846 L657.5,176.136 M658.5,159.806 L658.5,169.869 M659.5,162.673 L659.5,177.604 M660.5,170.608 L660.5,180.597 M661.5,170.339 L661.5,181.563 M662.5,169.653 L662.5,178.385 M663.5,173.523 L663.5,183.417 M664.5,169.843 L664.5,185.164 M665.5,167.324 L665.5,179.832 M666.5,159.305 L666.5,172.403 M667.5,161.57 L667.5,174.79 M668.5,164.938 L668.5,177.398 M669.5,172.097 L669.5,181.658 M670.5,175.212 L670.5,183.211 M671.5,169.684 L671.5,181.431 M672.5,167.451 L672.5,181.437 M673.5,165.867 L673.5,175.085 M674.5,164.584 L674.5,174.8 M675.5,164.183 L675.5,173.729 M676.5,168.032 L676.5,176.801 M677.5,172.509 L677.5,180.909 M678.5,170.497 L678.5,180.022 M679.5,171.194 L679.5,181.125 M680.5,170.635 L680.5,179.462 M681.5,168.486 L681.5,177.889 M682.5,167.277 L682.5,174.309 M683.5,165.535 L683.5,173.729 M684.5,168.84 L684.5,174.985 M684.5,171.912"/>
</g>

<g fill="none" stroke="#0000c0" stroke-opacity="1" stroke-width="1" stroke-linecap="square" stroke-linejoin="bevel" transform="matrix(1,0,0,1,0,0)"
font-family="Segoe UI" font-size="9" font-weight="400" font-style="normal" 
>
<path vector-effect="non-scaling-stroke" fill-rule="evenodd" d="M57.5,174.488 L57.5,171.512 M58.5,177.194 L58.5,168.806 M59.5,179.32 L59.5,166.68 M60.5,178.068 L60.5,167.932 M61.5,182.965 L61.5,163.035 M62.5,184.414 L62.5,161.586 M63.5,182.167 L63.5,163.833 M64.5,180.945 L64.5,165.055 M65.5,180.548 L65.5,165.452 M66.5,181.67 L66.5,164.33 M67.5,181.176 L67.5,164.824 M68.5,182.038 L68.5,163.962 M69.5,182.664 L69.5,163.336 M70.5,180.706 L70.5,165.294 M71.5,181.15 L71.5,164.85 M72.5,178.597 L72.5,167.403 M73.5,180.58 L73.5,165.42 M74.5,181.112 L74.5,164.888 M75.5,181.502 L75.5,164.498 M76.5,180.421 L76.5,165.579 M77.5,179.453 L77.5,166.547 M78.5,180.158 L78.5,165.842 M79.5,180.064 L79.5,165.936 M80.5,179.937 L80.5,166.063 M81.5,178.564 L81.5,167.436 M82.5,179.542 L82.5,166.458 M83.5,181.339 L83.5,164.661 M84.5,179.615 L84.5,166.385 M85.5,179.554 L85.5,166.446 M86.5,177.635 L86.5,168.365 M87.5,177.726 L87.5,168.274 M88.5,177.458 L88.5,168.542 M89.5,180.886 L89.5,165.114 M90.5,180.2 L90.5,165.8 M91.5,179.139 L91.5,166.861 M92.5,177.728 L92.5,168.272 M93.5,178.746 L93.5,167.254 M94.5,177.392 L94.5,168.608 M95.5,179.535 L95.5,166.465 M96.5,180.619 L96.5,165.381 M97.5,177.096 L97.5,168.904 M98.5,177.216 L98.5,168.784 M99.5,177.333 L99.5,168.667 M100.5,178.024 L100.5,167.976 M101.5,177.308 L101.5,168.692 M102.5,177.995 L102.5,168.005 M103.5,178.069 L103.5,167.931 M104.5,176.567 L104.5,169.433 M105.5,178.174 L105.5,167.826 M106.5,178.243 L106.5,167.757 M107.5,177.488 L107.5,168.512 M108.5,178.811 L108.5,167.189 M109.5,177.977 L109.5,168.023 M110.5,176.985 L110.5,169.015 M111.5,176.697 L111.5,169.303 M112.5,177.977 L112.5,168.023 M113.5,178.028 L113.5,167.972 M114.5,176.676 L114.5,169.324 M115.5,176.614 L115.5,169.386 M116.5,177.387 L116.5,168.613 M117.5,178.162 L117.5,167.838 M118.5,178.442 L118.5,167.558 M119.5,177.692 L119.5,168.308 M120.5,178.406 L120.5,167.594 M121.5,177.944 L121.5,168.056 M122.5,179.572 L122.5,166.428 M123.5,178.072 L123.5,167.928 M124.5,178.534 L124.5,167.466 M125.5,177.444 L125.5,168.556 M126.5,177.595 L126.5,168.405 M127.5,179.093 L127.5,166.907 M128.5,177.486 L128.5,168.514 M129.5,178.849 L129.5,167.151 M130.5,178.95 L130.5,167.05 M131.5,178.244 L131.5,167.756 M132.5,177.69 L132.5,168.31 M133.5,178.388 L133.5,167.612 M134.5,178.206 L134.5,167.794 M135.5,178.639 L135.5,167.361 M136.5,177.936 L136.5,168.064 M137.5,179.575 L137.5,166.425 M138.5,178.501 L138.5,167.499 M139.5,177.262 L139.5,168.738 M140.5,177.24 L140.5,168.76 M141.5,178.363 L141.5,167.637 M142.5,178.536 L142.5,167.464 M143.5,178.308 L143.5,167.692 M144.5,178.093 L144.5,167.907 M145.5,177.1 L145.5,168.9 M146.5,179.213 L146.5,166.787 M147.5,178.239 L147.5,167.761 M148.5,178.906 L148.5,167.094 M149.5,176.761 L149.5,169.239 M150.5,178.923 L150.5,167.077 M151.5,178.918 L151.5,167.082 M152.5,177.491 L152.5,168.509 M153.5,179.523 L153.5,166.477 M154.5,177.517 L154.5,168.483 M155.5,177.957 L155.5,168.043 M156.5,178.706 L156.5,167.294 M157.5,177.873 L157.5,168.127 M158.5,177.677 L158.5,168.323 M159.5,179.305 L159.5,166.695 M160.5,178.267 L160.5,167.733 M161.5,178.652 L161.5,167.348 M162.5,179.157 L162.5,166.843 M163.5,177.118 L163.5,168.882 M164.5,178.987 L164.5,167.013 M165.5,179.013 L165.5,166.987 M166.5,176.971 L166.5,169.029 M167.5,177.874 L167.5,168.126 M168.5,177.487 L168.5,168.513 M169.5,178.555 L169.5,167.445 M170.5,179.43 L170.5,166.57 M171.5,178.905 L171.5,167.095 M172.5,177.842 L172.5,168.158 M173.5,178.676 L173.5,167.324 M174.5,177.627 L174.5,168.373 M175.5,177.039 L175.5,168.961 M176.5,178.535 L176.5,167.465 M177.5,178.999 L177.5,167.001 M178.5,178.749 L178.5,167.251 M179.5,177.497 L179.5,168.503 M180.5,176.883 L180.5,169.117 M181.5,176.109 L181.5,169.891 M182.5,178.558 L182.5,167.442 M183.5,175.965 L183.5,169.989 M184.5,178.075 L184.5,167.925 M185.5,177.652 L185.5,168.348 M186.5,178.14 L186.5,167.86 M187.5,180.599 L187.5,165.401 M188.5,177.057 L188.5,168.943 M189.5,178.291 L189.5,167.709 M190.5,178.5 L190.5,167.5 M191.5,176.135 L191.5,169.865 M192.5,177.785 L192.5,168.215 M193.5,177.524 L193.5,168.476 M194.5,178.552 L194.5,167.448 M195.5,175.872 L195.5,170.128 M196.5,178.571 L196.5,167.429 M197.5,178.347 L197.5,167.653 M198.5,176.577 L198.5,169.423 M199.5,176.609 L199.5,169.391 M200.5,176.762 L200.5,169.238 M201.5,176.902 L201.5,169.098 M202.5,177.057 L202.5,168.943 M203.5,177.374 L203.5,168.626 M204.5,176.793 L204.5,169.207 M205.5,177.395 L205.5,168.605 M206.5,177.792 L206.5,168.208 M207.5,176.536 L207.5,169.464 M208.5,177.267 L208.5,168.733 M209.5,176.715 L209.5,169.285 M210.5,176.057 L210.5,169.943 M211.5,176.488 L211.5,169.512 M212.5,177.166 L212.5,168.834 M213.5,177.152 L213.5,168.848 M214.5,176.976 L214.5,169.024 M215.5,177.543 L215.5,168.457 M216.5,177.512 L216.5,168.488 M217.5,175.79 L217.5,170.21 M218.5,177.01 L218.5,168.99 M219.5,178.116 L219.5,167.884 M220.5,177.752 L220.5,168.248 M221.5,178.079 L221.5,167.921 M222.5,177.45 L222.5,168.55 M223.5,176.323 L223.5,169.677 M224.5,176.32 L224.5,169.68 M225.5,176.181 L225.5,169.819 M226.5,178.384 L226.5,167.616 M227.5,178.933 L227.5,167.067 M228.5,178.961 L228.5,167.039 M229.5,184.292 L229.5,161.708 M230.5,185.372 L230.5,160.628 M231.5,181.851 L231.5,164.149 M232.5,183.132 L232.5,162.868 M233.5,183.258 L233.5,162.742 M234.5,184.549 L234.5,161.451 M235.5,184.861 L235.5,161.139 M236.5,180.704 L236.5,165.296 M237.5,183.219 L237.5,162.781 M238.5,182.876 L238.5,163.124 M239.5,182.675 L239.5,163.325 M240.5,180.709 L240.5,165.291 M241.5,183.778 L241.5,162.222 M242.5,180.443 L242.5,165.557 M243.5,180.645 L243.5,165.355 M244.5,179.582 L244.5,166.418 M245.5,181.744 L245.5,164.256 M246.5,180.753 L246.5,165.247 M247.5,180.153 L247.5,165.847 M248.5,177.826 L248.5,168.174 M249.5,180.395 L249.5,165.605 M250.5,177.826 L250.5,168.174 M251.5,181.061 L251.5,164.939 M252.5,180.545 L252.5,165.455 M253.5,178.545 L253.5,167.455 M254.5,179.899 L254.5,166.101 M255.5,178.323 L255.5,167.677 M256.5,178.284 L256.5,167.716 M257.5,176.955 L257.5,169.045 M258.5,176.964 L258.5,169.036 M259.5,178.259 L259.5,167.741 M260.5,178.076 L260.5,167.924 M261.5,178.88 L261.5,167.12 M262.5,177.146 L262.5,168.854 M263.5,176.907 L263.5,169.093 M264.5,175.879 L264.5,170.121 M265.5,178.62 L265.5,167.38 M266.5,176.15 L266.5,169.85 M267.5,178.015 L267.5,167.985 M268.5,176.943 L268.5,169.057 M269.5,176.7 L269.5,169.3 M270.5,175.388 L270.5,170.612 M271.5,176.677 L271.5,169.323 M272.5,176.625 L272.5,169.386 M273.5,176.492 L273.5,169.508 M274.5,176.137 L274.5,169.863 M275.5,176.329 L275.5,169.671 M276.5,175.253 L276.5,170.747 M277.5,176.43 L277.5,169.57 M278.5,176.054 L278.5,169.946 M279.5,176.46 L279.5,169.54 M280.5,175.206 L280.5,170.794 M281.5,176.181 L281.5,169.819 M282.5,175.98 L282.5,170.02 M283.5,175.619 L283.5,170.381 M284.5,175.912 L284.5,170.088 M285.5,174.928 L285.5,171.072 M286.5,175.338 L286.5,170.662 M287.5,175.041 L287.5,170.959 M288.5,175.262 L288.5,170.738 M289.5,175.555 L289.5,170.445 M290.5,174.937 L290.5,171.063 M291.5,175.695 L291.5,170.305 M292.5,175.305 L292.5,170.695 M293.5,175.433 L293.5,170.567 M294.5,175.343 L294.5,170.657 M295.5,175.779 L295.5,170.221 M296.5,175.217 L296.5,170.783 M297.5,174.942 L297.5,171.059 M298.5,175.292 L298.5,170.708 M299.5,174.974 L299.5,171.117 M300.5,175.197 L300.5,170.933 M301.5,174.931 L301.5,171.069 M302.5,174.913 L302.5,171.087 M303.5,174.492 L303.5,171.139 M304.5,174.438 L304.5,172.4 M305.5,174.492 L305.5,171.397 M306.5,174.616 L306.5,171.384 M307.5,174.839 L307.5,171.161 M308.5,174.638 L308.5,171.362 M309.5,174.756 L309.5,171.244 M310.5,174.232 L310.5,171.878 M311.5,174.108 L311.5,172.311 M312.5,174.535 L312.5,171.476 M313.5,174.435 L313.5,171.565 M314.5,174.375 L314.5,171.988 M315.5,174.424 L315.5,172.173 M316.5,173.235 L316.5,172.094 M317.5,174.175 L317.5,171.792 M318.5,173.922 L318.5,171.783 M319.5,174.144 L319.5,172.025 M322.5,173.753 L322.5,172.474 M323.5,173.869 L323.5,172.86 M324.5,173.6 L324.5,172.353 M399.5,177.782 L399.5,168.218 M400.5,185.402 L400.5,160.598 M401.5,200.753 L401.5,145.247 M402.5,188.272 L402.5,157.607 M403.5,172.57 L403.5,136.174 M404.5,163.532 L404.5,140.947 M405.5,184.565 L405.5,151.398 M406.5,191.297 L406.5,154.703 M407.5,210.727 L407.5,169.882 M408.5,223.587 L408.5,196.945 M409.5,217.322 L409.5,192.03 M410.5,194.192 L410.5,170.167 M411.5,181.546 L411.5,164.454 M412.5,177.686 L412.5,153.112 M413.5,137.878 L413.5,120.473 M414.5,130.334 L414.5,113.242 M415.5,135.518 L415.5,118.103 M416.5,165.923 L416.5,132.723 M417.5,175.896 L417.5,158.077 M418.5,186.493 L418.5,165.627 M419.5,211.702 L419.5,188.445 M420.5,228.423 L420.5,209.838 M421.5,240.323 L421.5,225.787 M422.5,239.295 L422.5,219.784 M423.5,218.194 L423.5,195.398 M424.5,198.327 L424.5,184.121 M425.5,180.805 L425.5,165.195 M426.5,178.483 L426.5,157.28 M427.5,154.414 L427.5,139.723 M428.5,136.986 L428.5,128.955 M429.5,134.167 L429.5,125.807 M430.5,140.328 L430.5,128.918 M431.5,140.967 L431.5,133.142 M432.5,163.827 L432.5,148.093 M433.5,172.554 L433.5,159.575 M434.5,177.589 L434.5,168.411 M435.5,182.938 L435.5,174.612 M436.5,192.361 L436.5,180.467 M437.5,196.787 L437.5,192.045 M438.5,198.742 L438.5,188.276 M439.5,199.067 L439.5,186.169 M440.5,200.675 L440.5,192.769 M441.5,202.665 L441.5,196.702 M442.5,203.275 L442.5,195.546 M443.5,204.846 L443.5,196.945 M444.5,197.541 L444.5,187.653 M445.5,189.684 L445.5,180.937 M446.5,179.97 L446.5,166.03 M447.5,170.516 L447.5,163.737 M448.5,162.592 L448.5,152.041 M449.5,147.867 L449.5,139.856 M450.5,139.182 L450.5,131.788 M451.5,132.435 L451.5,125.996 M452.5,131.817 L452.5,126.369 M453.5,140.492 L453.5,134.176 M454.5,152.212 L454.5,145.217 M455.5,169.439 L455.5,160.089 M456.5,179.396 L456.5,166.604 M457.5,190.754 L457.5,181.296 M458.5,201.606 L458.5,195.166 M459.5,206.818 L459.5,203.381 M460.5,207.106 L460.5,203.101 M461.5,204.266 L461.5,199.088 M462.5,196.728 L462.5,189.712 M463.5,189.249 L463.5,185.008 M464.5,180.21 L464.5,174.618 M465.5,175.88 L465.5,169.409 M466.5,168.061 L466.5,163.529 M467.5,163.922 L467.5,159.849 M468.5,162.534 L468.5,157.907 M469.5,163.056 L469.5,158.634 M470.5,166.689 L470.5,161.543 M471.5,169.049 L471.5,163.808 M472.5,169.851 L472.5,167.145 M473.5,172.977 L473.5,170.321 M474.5,174.938 L474.5,171.062 M475.5,175.451 L475.5,172.527 M476.5,176.14 L476.5,172.796 M477.5,175.233 L477.5,172.992 M478.5,174.665 L478.5,171.867 M479.5,173.721 L479.5,171.644 M480.5,173.985 L480.5,170.867 M481.5,172.412 L481.5,170.981 M482.5,174.893 L482.5,171.017 M483.5,174.64 L483.5,171.064 M484.5,174.165 L484.5,171.59 M485.5,174.984 L485.5,172.875 M486.5,175.659 L486.5,173.741 M488.5,176.335 L488.5,175.003 M489.5,175.791 L489.5,174.084 M490.5,175.362 L490.5,173.076 M492.5,174.602 L492.5,173.504 M493.5,174.216 L493.5,173.155 M494.5,174.017 L494.5,172.464 M496.5,173.04 L496.5,171.727 M570.5,174.045 L570.5,171.955 M571.5,187.867 L571.5,158.133 M572.5,187.068 L572.5,170.278 M573.5,204.164 L573.5,141.836 M574.5,186.35 L574.5,149.264 M575.5,203.151 L575.5,147.28 M576.5,203.872 L576.5,160.094 M577.5,214.707 L577.5,179.047 M578.5,184.45 L578.5,161.55 M579.5,164.746 L579.5,136.8 M580.5,155.454 L580.5,136.086 M581.5,161.145 L581.5,136.452 M582.5,193.419 L582.5,152.581 M583.5,226.228 L583.5,199.975 M584.5,222.007 L584.5,197.045 M585.5,194.722 L585.5,162.723 M586.5,192.954 L586.5,153.046 M587.5,145.94 L587.5,128.999 M588.5,169.825 L588.5,140.231 M589.5,187.823 L589.5,158.177 M590.5,202.023 L590.5,180.394 M591.5,208.3 L591.5,186.053 M592.5,193.133 L592.5,165.975 M593.5,181.091 L593.5,162.457 M594.5,180.648 L594.5,144.037 M595.5,163.516 L595.5,145.378 M596.5,164.361 L596.5,143.178 M597.5,186.248 L597.5,159.752 M598.5,216.657 L598.5,195.519 M599.5,204.535 L599.5,175.938 M600.5,182.837 L600.5,164.998 M601.5,172.285 L601.5,151.189 M602.5,165.786 L602.5,137.918 M603.5,166.583 L603.5,149.742 M604.5,180.614 L604.5,165.386 M605.5,192.707 L605.5,175.679 M606.5,195.152 L606.5,172.4 M607.5,193.972 L607.5,174.554 M608.5,184.081 L608.5,161.919 M609.5,164.947 L609.5,151.913 M610.5,162.893 L610.5,149.285 M611.5,175.036 L611.5,154.01 M612.5,184.369 L612.5,161.631 M613.5,197.893 L613.5,178.715 M614.5,201.07 L614.5,190.134 M615.5,182.012 L615.5,165.563 M616.5,178.262 L616.5,164.267 M617.5,172.655 L617.5,156.598 M618.5,165.321 L618.5,153.74 M619.5,182.603 L619.5,163.397 M620.5,180.923 L620.5,169.174 M621.5,184.649 L621.5,171.175 M622.5,193.033 L622.5,181.312 M623.5,185.685 L623.5,171.355 M624.5,178.515 L624.5,164.217 M625.5,170.986 L625.5,156.506 M626.5,171.393 L626.5,155.735 M627.5,179.914 L627.5,165.371 M628.5,180.655 L628.5,165.632 M629.5,186.946 L629.5,169.317 M630.5,186.199 L630.5,174.533 M631.5,180.559 L631.5,170.077 M632.5,177.501 L632.5,168.068 M633.5,170.479 L633.5,162.063 M634.5,170.221 L634.5,160.832 M635.5,176.303 L635.5,165.709 M636.5,177.994 L636.5,168.006 M637.5,182.545 L637.5,165.896 M638.5,186.889 L638.5,179.338 M639.5,181.856 L639.5,169.687 M640.5,177.454 L640.5,166.03 M641.5,170.553 L641.5,161.358 M642.5,172.433 L642.5,163.092 M643.5,178.641 L643.5,167.359 M644.5,177.173 L644.5,168.827 M645.5,179.55 L645.5,171.455 M646.5,180.704 L646.5,167.659 M647.5,180.504 L647.5,173.752 M648.5,176.339 L648.5,169.745 M649.5,176.535 L649.5,167.332 M650.5,168.616 L650.5,163.725 M651.5,173.626 L651.5,165.253 M652.5,177.475 L652.5,168.525 M653.5,181.252 L653.5,173.789 M654.5,182.409 L654.5,173.842 M655.5,178.265 L655.5,172.395 M656.5,176.235 L656.5,169.765 M657.5,175.136 L657.5,166.367 M658.5,168.869 L658.5,165.697 M659.5,176.604 L659.5,168.409 M660.5,176.181 L660.5,171.608 M661.5,176.705 L661.5,171.339 M662.5,176.271 L662.5,170.653 M663.5,178.216 L663.5,174.523 M664.5,177.439 L664.5,170.843 M665.5,176.065 L665.5,169.935 M666.5,171.403 L666.5,167.267 M667.5,173.79 L667.5,167.203 M668.5,176.398 L668.5,169.265 M669.5,176.467 L669.5,173.097 M670.5,178.988 L670.5,176.212 M671.5,177.855 L671.5,170.684 M672.5,175.861 L672.5,170.139 M673.5,174.085 L673.5,170.48 M674.5,173.8 L674.5,168.766 M675.5,172.729 L675.5,168.783 M676.5,175.123 L676.5,170.877 M677.5,176.124 L677.5,173.509 M678.5,176.542 L678.5,171.497 M679.5,176.172 L679.5,172.194 M680.5,175.667 L680.5,171.635 M681.5,175.227 L681.5,170.773 M682.5,173.309 L682.5,170.205 M683.5,172.729 L683.5,170.254 M684.5,173.985 L684.5,171.026"/>
</g>

<g fill="none" stroke="#000080" stroke-opacity="1" stroke-width="1" stroke-linecap="square" stroke-linejoin="bevel" transform="matrix(1,0,0,1,0,0)"
font-family="Segoe UI" font-size="9" font-weight="400" font-style="normal" 
>
</g>

<g fill="none" stroke="#000000" stroke-opacity="1" stroke-width="1" stroke-linecap="square" stroke-linejoin="bevel" transform="matrix(1,0,0,1,0,0)"
font-family="Segoe UI" font-size="9" font-weight="400" font-style="normal" 
>
</g>

<g fill="#ffffff" fill-opacity="1" stroke="#ffffff" stroke-opacity="1" stroke-width="1" stroke-linecap="square" stroke-linejoin="bevel" transform="matrix(1,0,0,1,0,0)"
font-family="Segoe UI" font-size="9" font-weight="400" font-style="normal" 
>
<rect x="684" y="0" width="684" height="346"/>
</g>

<g fill="none" stroke="#000000" stroke-opacity="1" stroke-width="1" stroke-linecap="square" stroke-linejoin="bevel" transform="matrix(1,0,0,1,0,0)"
font-family="Segoe UI" font-size="9" font-weight="400" font-style="normal" 
>
</g>

<g fill="none" stroke="#0000c0" stroke-opacity="1" stroke-width="1" stroke-linecap="square" stroke-linejoin="bevel" transform="matrix(1,0,0,1,684,0)"
font-family="Segoe UI" font-size="9" font-weight="400" font-style="normal" 
>
<polyline fill="none" vector-effect="non-scaling-stroke" points="0,173.5 684,173.5 " />
</g>

<g fill="none" stroke="#000080" stroke-opacity="1" stroke-width="1" stroke-linecap="square" stroke-linejoin="bevel" transform="matrix(1,0,0,1,684,0)"
font-family="Segoe UI" font-size="9" font-weight="400" font-style="normal" 
>
<path vector-effect="non-scaling-stroke" fill-rule="evenodd" d="M0.5,168.84 L0.5,174.985 M1.5,170.223 L1.5,176.738 M2.5,170.17 L2.5,178.644 M3.5,172.134 L3.5,178.718 M4.5,171.738 L4.5,176.574 M5.5,169.69 L5.5,178.28 M6.5,169.547 L6.5,176.31 M7.5,169.014 L7.5,172.055 M7.5,170.534"/>
</g>

<g fill="none" stroke="#0000c0" stroke-opacity="1" stroke-width="1" stroke-linecap="square" stroke-linejoin="bevel" transform="matrix(1,0,0,1,684,0)"
font-family="Segoe UI" font-size="9" font-weight="400" font-style="normal" 
>
<path vector-effect="non-scaling-stroke" fill-rule="evenodd" d="M0.5,173.985 L0.5,171.026 M1.5,175.071 L1.5,171.223 M2.5,175.521 L2.5,171.17 M3.5,176.224 L3.5,173.134 M4.5,174.93 L4.5,172.738 M5.5,175.17 L5.5,170.83 M6.5,174.85 L6.5,171.15"/>
</g>

<g fill="none" stroke="#000080" stroke-opacity="1" stroke-width="1" stroke-linecap="square" stroke-linejoin="bevel" transform="matrix(1,0,0,1,684,0)"
font-family="Segoe UI" font-size="9" font-weight="400" font-style="normal" 
>
</g>

<g fill="none" stroke="#000000" stroke-opacity="1" stroke-width="1" stroke-linecap="square" stroke-linejoin="bevel" transform="matrix(1,0,0,1,0,0)"
font-family="Segoe UI" font-size="9" font-weight="400" font-style="normal" 
>
</g>
</g>
</svg>
