<?xml version="1.0" encoding="UTF-8" standalone="no"?>
<svg width="243.769mm" height="122.061mm"
 viewBox="0 0 691 346"
 xmlns="http://www.w3.org/2000/svg" xmlns:xlink="http://www.w3.org/1999/xlink" version="1.2" baseProfile="tiny">
<title>Exported image from Sonic Visualiser</title>
<desc>Generated with Qt</desc>
<defs>
</defs>
<g fill="none" stroke="black" stroke-width="1" fill-rule="evenodd" stroke-linecap="square" stroke-linejoin="bevel" >

<g fill="#ffffff" fill-opacity="1" stroke="#ffffff" stroke-opacity="1" stroke-width="1" stroke-linecap="square" stroke-linejoin="bevel" transform="matrix(1,0,0,1,0,0)"
font-family="Segoe UI" font-size="9" font-weight="400" font-style="normal" 
>
<rect x="0" y="0" width="684" height="346"/>
</g>

<g fill="none" stroke="#000000" stroke-opacity="1" stroke-width="1" stroke-linecap="square" stroke-linejoin="bevel" transform="matrix(1,0,0,1,0,0)"
font-family="Segoe UI" font-size="9" font-weight="400" font-style="normal" 
>
</g>

<g fill="none" stroke="#0000c0" stroke-opacity="1" stroke-width="1" stroke-linecap="square" stroke-linejoin="bevel" transform="matrix(1,0,0,1,0,0)"
font-family="Segoe UI" font-size="9" font-weight="400" font-style="normal" 
>
<polyline fill="none" vector-effect="non-scaling-stroke" points="0,173.5 684,173.5 " />
</g>

<g fill="none" stroke="#000080" stroke-opacity="1" stroke-width="1" stroke-linecap="square" stroke-linejoin="bevel" transform="matrix(1,0,0,1,0,0)"
font-family="Segoe UI" font-size="9" font-weight="400" font-style="normal" 
>
<path vector-effect="non-scaling-stroke" fill-rule="evenodd" d="M0.5,172.984 L0.5,173.021 M0.5,173.003 L1.5,173 L2.5,173 L3.5,172.997 L4.5,173 L5.5,173 L6.5,173 L7.5,173 L8.5,173 L9.5,173 L10.5,173 L11.5,173.003 L12.5,173 L13.5,172.997 L14.5,172.997 L15.5,173 L16.5,173 L17.5,173 L18.5,173 L19.5,173.003 L20.5,173 L21.5,173 L22.5,173 L23.5,173 L24.5,173 L25.5,172.997 L26.5,173 L27.5,173 L28.5,173 L29.5,173 L30.5,172.997 L31.5,173 L32.5,173.003 L33.5,173 L34.5,173 L35.5,173 L36.5,173 L37.5,172.995 L38.5,172.992 L39.5,173.005 L40.5,173.005 L41.5,173.003 L42.5,173 L43.5,173.013 L44.5,173.008 L45.5,173.008 L46.5,172.989 L47.5,172.995 L48.5,173.008 L49.5,173.021 L50.5,172.982 L51.5,173.018 L52.5,172.989 L53.5,173.005 L54.5,173.008 L55.5,172.971 M56.5,172.451 L56.5,173.75 M57.5,172.382 L57.5,179.341 M58.5,144.712 L58.5,189.689 M59.5,124.46 L59.5,170.904 M60.5,126.408 L60.5,226.323 M61.5,144.86 L61.5,264.273 M62.5,153.703 L62.5,240.694 M63.5,153.83 L63.5,240.33 M64.5,134.591 L64.5,192.228 M65.5,114.719 L65.5,157.985 M66.5,115.749 L66.5,160.535 M67.5,109.777 L67.5,174.853 M68.5,139.042 L68.5,233.456 M69.5,196.9 L69.5,252.652 M70.5,184.816 L70.5,247.03 M71.5,157.441 L71.5,213.177 M72.5,124.624 L72.5,186.294 M73.5,114.286 L73.5,154.918 M74.5,120.643 L74.5,170.207 M75.5,160.646 L75.5,214.18 M76.5,174.494 L76.5,233.694 M77.5,191.653 L77.5,225.014 M78.5,167.483 L78.5,218.753 M79.5,132.115 L79.5,186.526 M80.5,117.523 L80.5,179.225 M81.5,126.677 L81.5,166.015 M82.5,132.221 L82.5,166.955 M83.5,153.466 L83.5,221.593 M84.5,199.387 L84.5,235.552 M85.5,171.226 L85.5,224.069 M86.5,154.933 L86.5,192.693 M87.5,130.304 L87.5,167.483 M88.5,125.368 L88.5,152.23 M89.5,127.918 L89.5,179.288 M90.5,163.946 L90.5,208.04 M91.5,168.634 L91.5,217.76 M92.5,174.658 L92.5,204.762 M93.5,170.967 L93.5,202.724 M94.5,145.668 L94.5,180.138 M95.5,137.585 L95.5,165.609 M96.5,138.667 L96.5,171.031 M97.5,144.29 L97.5,180.782 M98.5,156.882 L98.5,200.876 M99.5,177.873 L99.5,219.259 M100.5,180.972 L100.5,218.541 M101.5,158.064 L101.5,190.94 M102.5,142.801 L102.5,173.502 M103.5,141.861 L103.5,165.292 M104.5,147.004 L104.5,164.579 M105.5,154.532 L105.5,188.722 M106.5,169.468 L106.5,192.914 M107.5,171.78 L107.5,200.665 M108.5,183.332 L108.5,204.556 M109.5,163.629 L109.5,193.036 M110.5,150.541 L110.5,173.623 M111.5,138.234 L111.5,169.03 M112.5,139.755 L112.5,174.051 M113.5,154.342 L113.5,184.678 M114.5,172.784 L114.5,190.254 M115.5,168.444 L115.5,198.062 M116.5,170.513 L116.5,195.987 M117.5,167.388 L117.5,185.402 M118.5,156.148 L118.5,174.051 M119.5,148.096 L119.5,172.05 M120.5,153.772 L120.5,172.926 M121.5,159.289 L121.5,182.778 M122.5,166.564 L122.5,198.241 M123.5,176.474 L123.5,192.74 M124.5,170.603 L124.5,200.089 M125.5,164.98 L125.5,194.551 M126.5,158.143 L126.5,177.503 M127.5,151.628 L127.5,170.001 M128.5,147.368 L128.5,172.91 M129.5,163.36 L129.5,189.652 M130.5,171.258 L130.5,182.477 M131.5,164.32 L131.5,188.327 M132.5,170.767 L132.5,186.13 M133.5,170.429 L133.5,187.524 M134.5,167.029 L134.5,180.777 M135.5,155.324 L135.5,172.673 M136.5,159.484 L136.5,172.335 M137.5,159.205 L137.5,178.913 M138.5,168.37 L138.5,185.798 M139.5,169.901 L139.5,190.074 M140.5,172.461 L140.5,188.601 M141.5,169.822 L141.5,182.255 M142.5,162.652 L142.5,177.065 M143.5,160.271 L143.5,171.147 M144.5,162.399 L144.5,173.206 M145.5,162.214 L145.5,178.01 M146.5,169.294 L146.5,179.726 M147.5,171.089 L147.5,179.214 M148.5,173.185 L148.5,182.128 M149.5,173.517 L149.5,181.548 M150.5,168.718 L150.5,183.517 M151.5,165.508 L151.5,177.076 M152.5,159.463 L152.5,171.337 M153.5,161.797 L153.5,172.134 M154.5,167.203 L154.5,178.179 M155.5,172.968 L155.5,181.87 M156.5,173.343 L156.5,182.852 M157.5,169.732 L157.5,181.722 M158.5,166.754 L158.5,178.2 M159.5,166.828 L159.5,176.083 M160.5,164.421 L160.5,175.027 M161.5,165.371 L161.5,173.707 M162.5,170.487 L162.5,177.16 M163.5,171.179 L163.5,179.821 M164.5,170.788 L164.5,181.336 M165.5,173.47 L165.5,179.943 M166.5,170.334 L166.5,179.277 M167.5,168.497 L167.5,174.484 M168.5,167.108 L168.5,173.987 M169.5,165.735 L169.5,174.536 M170.5,169.162 L170.5,175.18 M171.5,170.983 L171.5,179.668 M172.5,171.105 L172.5,178.897 M173.5,171.585 L173.5,177.393 M174.5,169.12 L174.5,177.086 M175.5,168.497 L175.5,177.287 M176.5,168.792 L176.5,174.394 M177.5,166.57 L177.5,172.24 M178.5,168.702 L178.5,174.288 M179.5,170.983 L179.5,179.04 M180.5,173.945 L180.5,178.058 M181.5,172.166 L181.5,178.448 M182.5,169.716 L182.5,177.704 M183.5,168.306 L183.5,174.109 M184.5,166.987 L184.5,174.325 M185.5,169.558 L185.5,174.283 M186.5,170.988 L186.5,175.138 M187.5,170.814 L187.5,177.905 M188.5,170.878 L188.5,175.355 M189.5,171.432 L189.5,175.677 M190.5,172.118 L190.5,175.312 M191.5,172.039 L191.5,175.83 M192.5,171.96 L192.5,175.36 M193.5,170.624 L193.5,174.156 M194.5,168.724 L194.5,174.658 M195.5,169.426 L195.5,173.333 M196.5,172.203 L196.5,175.122 M197.5,173.169 L197.5,176.405 M198.5,171.68 L198.5,177.192 M199.5,170.329 L199.5,174.774 M200.5,170.957 L200.5,173.459 M201.5,169.526 L201.5,174.774 M202.5,171.395 L202.5,174.088 M203.5,171.786 L203.5,173.919 M204.5,172.393 L204.5,174.389 M205.5,172.208 L205.5,174.832 M206.5,172.192 L206.5,174.431 M207.5,172.087 L207.5,174.082 M208.5,171.78 L208.5,173.628 M209.5,172.108 L209.5,173.887 M210.5,172.345 L210.5,173.919 M211.5,171.448 L211.5,174.035 M212.5,172.124 L212.5,173.169 M213.5,172.477 L213.5,173.834 M214.5,172.81 L214.5,174.262 M214.5,173.536 L215.5,173.272 L216.5,173.095 M217.5,172.435 L217.5,173.829 M217.5,173.132 L218.5,172.857 L219.5,172.612 L220.5,172.857 L221.5,173.195 L222.5,173.28 L223.5,173.071 L224.5,173 L225.5,172.982 L226.5,172.966 M227.5,172.625 L227.5,173.671 M228.5,153.149 L228.5,190.465 M229.5,156.876 L229.5,216.456 M230.5,164.526 L230.5,219.143 M231.5,124.75 L231.5,220.653 M232.5,106.916 L232.5,191.088 M233.5,130.737 L233.5,240.478 M234.5,164.97 L234.5,219.935 M235.5,183.258 L235.5,239.607 M236.5,149.131 L236.5,230.816 M237.5,133.979 L237.5,183.881 M238.5,104.857 L238.5,164.563 M239.5,111.192 L239.5,155.366 M240.5,126.947 L240.5,181.738 M241.5,170.735 L241.5,235.504 M242.5,206.541 L242.5,241.861 M243.5,179.103 L243.5,236.154 M244.5,133.646 L244.5,198.352 M245.5,114.223 L245.5,154.955 M246.5,104.778 L246.5,164.479 M247.5,136.159 L247.5,189.235 M248.5,172.572 L248.5,220.743 M249.5,173.407 L249.5,233.958 M250.5,178.797 L250.5,220.384 M251.5,152.932 L251.5,209.482 M252.5,118.209 L252.5,164.864 M253.5,131.381 L253.5,162.23 M254.5,126.292 L254.5,158.682 M255.5,133.905 L255.5,185.586 M256.5,174.04 L256.5,238.852 M257.5,187.323 L257.5,233.298 M258.5,163.185 L258.5,211.958 M259.5,138.82 L259.5,179.605 M260.5,121.144 L260.5,151.882 M261.5,122.343 L261.5,172.351 M262.5,147.246 L262.5,189.14 M263.5,172.525 L263.5,207.27 M264.5,183.353 L264.5,206.789 M265.5,171.812 L265.5,212.148 M266.5,158.613 L266.5,195.697 M267.5,134.824 L267.5,180.006 M268.5,132.828 L268.5,164.458 M269.5,136.946 L269.5,168.66 M270.5,144.306 L270.5,190.486 M271.5,158.597 L271.5,211.071 M272.5,185.697 L272.5,225.431 M273.5,172.784 L273.5,201.768 M274.5,155.789 L274.5,188.68 M275.5,144.353 L275.5,176.532 M276.5,146.534 L276.5,165.725 M277.5,141.56 L277.5,173.671 M278.5,158.201 L278.5,198.289 M279.5,162.826 L279.5,201.013 M280.5,161.665 L280.5,198.6 M281.5,173.787 L281.5,205.675 M282.5,151.396 L282.5,191.177 M283.5,144.163 L283.5,166.865 M284.5,136.777 L284.5,170.366 M285.5,154.004 L285.5,185.935 M286.5,159.511 L286.5,189.023 M287.5,174.188 L287.5,200.126 M288.5,170.798 L288.5,198.014 M289.5,163.65 L289.5,198.379 M290.5,160.815 L290.5,187.513 M291.5,150.303 L291.5,184.103 M292.5,144.57 L292.5,172.652 M293.5,145.113 L293.5,176.764 M294.5,155.91 L294.5,181.294 M295.5,158.307 L295.5,198.162 M296.5,173.143 L296.5,199.466 M297.5,169.901 L297.5,197.46 M298.5,154.991 L298.5,189.984 M299.5,150.25 L299.5,180.043 M300.5,149.818 L300.5,174.082 M301.5,152.563 L301.5,186.743 M302.5,161.739 L302.5,186.669 M303.5,163.893 L303.5,194.651 M304.5,159.289 L304.5,193.801 M305.5,168.27 L305.5,194.329 M306.5,158.434 L306.5,189.815 M307.5,154.347 L307.5,191.573 M308.5,145.346 L308.5,179.98 M309.5,150.905 L309.5,179.943 M310.5,159.643 L310.5,180.038 M311.5,168.417 L311.5,191.647 M312.5,164.88 L312.5,198.337 M313.5,165.06 L313.5,193.004 M314.5,160.329 L314.5,187.038 M315.5,154.083 L315.5,183.749 M316.5,150.53 L316.5,179.985 M317.5,157.842 L317.5,179.631 M318.5,159.389 L318.5,183.617 M319.5,160.609 L319.5,189.398 M320.5,165.429 L320.5,188.284 M321.5,168.127 L321.5,184.293 M322.5,167.214 L322.5,193.849 M323.5,159.02 L323.5,194.931 M324.5,151.75 L324.5,182.894 M325.5,153.45 L325.5,184.33 M326.5,159.759 L326.5,185.19 M327.5,160.942 L327.5,190.845 M328.5,168.27 L328.5,191.315 M329.5,167.383 L329.5,188.949 M330.5,165.751 L330.5,188.675 M331.5,161.475 L331.5,189.763 M332.5,158.207 L332.5,178.253 M333.5,153.54 L333.5,180.381 M334.5,159.168 L334.5,188.659 M335.5,167.203 L335.5,188.015 M336.5,159.051 L336.5,191.521 M337.5,153.561 L337.5,192.804 M338.5,166.744 L338.5,187.16 M339.5,164.115 L339.5,185.317 M340.5,156.755 L340.5,187.962 M341.5,158.539 L341.5,189.161 M342.5,162.277 L342.5,182.049 M343.5,154.928 L343.5,187.17 M344.5,161.2 L344.5,181.764 M345.5,159.912 L345.5,188.559 M346.5,164.938 L346.5,182.619 M347.5,163.544 L347.5,183.306 M348.5,158.719 L348.5,188.274 M349.5,157.858 L349.5,184.805 M350.5,162.615 L350.5,178.591 M351.5,163.36 L351.5,183.944 M352.5,165.461 L352.5,195.332 M353.5,167.504 L353.5,189.103 M354.5,166.538 L354.5,187.429 M355.5,165.762 L355.5,178.607 M356.5,155.303 L356.5,188.453 M357.5,161.116 L357.5,184.055 M358.5,157.288 L358.5,183.591 M359.5,158.518 L359.5,189.393 M360.5,161.427 L360.5,186.405 M361.5,162.335 L361.5,188.638 M362.5,158.729 L362.5,184.335 M363.5,165.133 L363.5,182.276 M364.5,160.952 L364.5,188.231 M365.5,163.476 L365.5,185.703 M366.5,163.286 L366.5,183.369 M367.5,154.844 L367.5,186.384 M368.5,161.411 L368.5,182.551 M369.5,164.268 L369.5,186.199 M370.5,166.379 L370.5,182.508 M371.5,160.429 L371.5,183.058 M372.5,164.658 L372.5,182.931 M373.5,164.125 L373.5,190.005 M374.5,162.853 L374.5,177.308 M375.5,158.471 L375.5,182.846 M376.5,159.31 L376.5,181.241 M377.5,164.833 L377.5,185.386 M378.5,167.678 L378.5,184.267 M379.5,165.334 L379.5,182.287 M380.5,163.613 L380.5,190.803 M381.5,168.539 L381.5,178.406 M382.5,163.967 L382.5,180.254 M383.5,156.644 L383.5,183.116 M384.5,166.321 L384.5,181.658 M385.5,166.818 L385.5,182.223 M386.5,159.22 L386.5,183.1 M387.5,161.031 L387.5,183.765 M388.5,166.728 L388.5,181.421 M389.5,160.883 L389.5,186.278 M390.5,165.397 L390.5,186.246 M391.5,160.398 L391.5,182.435 M392.5,160.92 L392.5,183.005 M393.5,157.42 L393.5,183.622 M394.5,163.386 L394.5,184.045 M395.5,167.156 L395.5,180.27 M396.5,163.534 L396.5,181.78 M397.5,157.985 L397.5,182.941 M398.5,164.442 L398.5,190.206 M399.5,157.051 L399.5,185.402 M400.5,157.388 L400.5,199.414 M401.5,145.636 L401.5,199.102 M402.5,136.328 L402.5,200.163 M403.5,162.515 L403.5,208.251 M404.5,147.394 L404.5,202.46 M405.5,149.348 L405.5,200.586 M406.5,144.163 L406.5,192.988 M407.5,150.62 L407.5,193.163 M408.5,150.25 L408.5,197.36 M409.5,154.96 L409.5,197.407 M410.5,148.45 L410.5,194.694 M411.5,160.915 L411.5,192.254 M412.5,151.935 L412.5,198.511 M413.5,145.013 L413.5,182.382 M414.5,150.404 L414.5,187.735 M415.5,166.047 L415.5,190.634 M416.5,158.207 L416.5,198.437 M417.5,153.983 L417.5,191.806 M418.5,158.407 L418.5,187.001 M419.5,164.262 L419.5,186.378 M420.5,157.895 L420.5,186.479 M421.5,159.152 L421.5,186.431 M422.5,160.292 L422.5,194.688 M423.5,156.86 L423.5,187.271 M424.5,155.382 L424.5,185.164 M425.5,158.001 L425.5,189.118 M426.5,161.591 L426.5,188.374 M427.5,162.779 L427.5,187.899 M428.5,163.439 L428.5,181.088 M429.5,165.123 L429.5,183.485 M430.5,160.973 L430.5,186.489 M431.5,165.17 L431.5,179.108 M432.5,164.394 L432.5,189.208 M433.5,166.189 L433.5,182.382 M434.5,166.184 L434.5,181.315 M435.5,165.371 L435.5,179.23 M436.5,160.187 L436.5,186.368 M437.5,167.789 L437.5,180.798 M438.5,161.818 L438.5,185.101 M439.5,159.764 L439.5,186.389 M440.5,165.434 L440.5,183.1 M441.5,167.066 L441.5,180.824 M442.5,163.782 L442.5,180.402 M443.5,167.298 L443.5,185.106 M444.5,164.41 L444.5,178.169 M445.5,168.359 L445.5,178.375 M446.5,166.438 L446.5,183.464 M447.5,167.71 L447.5,177.831 M448.5,167.013 L448.5,183.052 M449.5,168.607 L449.5,178.644 M450.5,166.633 L450.5,181.083 M451.5,165.028 L451.5,180.349 M452.5,166.981 L452.5,176.305 M453.5,169.088 L453.5,179.768 M454.5,168.243 L454.5,181.299 M455.5,167.018 L455.5,178.728 M456.5,167.14 L456.5,178.063 M457.5,168.09 L457.5,178.903 M458.5,168.787 L458.5,177.261 M459.5,168.924 L459.5,178.739 M460.5,168.46 L460.5,177.841 M461.5,169.468 L461.5,178.084 M462.5,167.087 L462.5,177.773 M463.5,168.555 L463.5,179.705 M464.5,167.272 L464.5,178.148 M465.5,168.148 L465.5,176.168 M466.5,168.312 L466.5,177.778 M467.5,169.526 L467.5,177.065 M468.5,168.285 L468.5,177.635 M469.5,169.014 L469.5,177.081 M470.5,169.03 L470.5,178.343 M471.5,170.128 L471.5,177.667 M472.5,170.503 L472.5,175.598 M473.5,170.629 L473.5,176.094 M474.5,169.188 L474.5,177.234 M475.5,170.043 L475.5,175.328 M476.5,169.568 L476.5,176.696 M477.5,170.27 L477.5,175.439 M478.5,170.144 L478.5,176.411 M479.5,169.516 L479.5,174.737 M480.5,168.449 L480.5,175.957 M481.5,170.693 L481.5,175.022 M482.5,171.216 L482.5,177.255 M483.5,170.857 L483.5,176.68 M484.5,170.587 L484.5,175.571 M485.5,171.279 L485.5,175.334 M486.5,170.915 L486.5,175.312 M487.5,171.464 L487.5,175.524 M488.5,171.157 L488.5,174.621 M489.5,170.698 L489.5,175.27 M490.5,170.371 L490.5,174.811 M491.5,171.786 L491.5,174.399 M492.5,171.796 L492.5,174.531 M493.5,171.522 L493.5,174.668 M494.5,171.305 L494.5,174.832 M495.5,171.416 L495.5,174.378 M496.5,171.416 L496.5,174.315 M497.5,172.293 L497.5,174.547 M498.5,172.013 L498.5,174.552 M499.5,171.532 L499.5,174.051 M500.5,171.707 L500.5,173.813 M501.5,172.139 L501.5,174.304 M502.5,171.823 L502.5,174.072 M503.5,172.029 L503.5,174.114 M504.5,171.712 L504.5,173.76 M505.5,172.145 L505.5,174.03 M506.5,171.802 L506.5,173.993 M507.5,172.176 L507.5,173.956 M508.5,172.039 L508.5,174.161 M509.5,172.329 L509.5,173.845 M510.5,171.944 L510.5,173.839 M511.5,172.324 L511.5,173.581 M512.5,172.113 L512.5,173.459 M513.5,172.425 L513.5,173.602 M514.5,172.319 L514.5,173.507 M515.5,172.219 L515.5,173.57 M515.5,172.894 L516.5,173.018 L517.5,172.96 L518.5,172.995 L519.5,172.96 L520.5,172.884 L521.5,172.997 L522.5,173.024 L523.5,173.1 L524.5,173.011 L525.5,173.079 L526.5,172.921 L527.5,172.894 L528.5,172.96 L529.5,172.979 L530.5,172.963 L531.5,173.005 L532.5,172.995 L533.5,173.05 L534.5,173 L535.5,173.021 L536.5,172.997 L537.5,173.024 L538.5,172.989 L539.5,173.024 L540.5,172.995 L541.5,172.992 L542.5,172.958 L543.5,172.971 L544.5,172.989 L545.5,173.037 L546.5,172.997 L547.5,172.952 L548.5,172.96 L549.5,173.016 L550.5,172.974 L551.5,173.011 L552.5,173.024 L553.5,173.003 L554.5,172.979 L555.5,172.974 L556.5,173.008 L557.5,173.005 L558.5,172.979 L559.5,172.997 L560.5,172.992 L561.5,173.003 L562.5,172.997 L563.5,173.005 L564.5,173.008 L565.5,173.003 L566.5,173.011 L567.5,172.992 L568.5,172.976 L569.5,173.003 M570.5,169.125 L570.5,177.203 M571.5,153.323 L571.5,194.24 M572.5,91.3361 L572.5,257.298 M573.5,143.028 L573.5,232.632 M574.5,116.868 L574.5,173.037 M575.5,115.881 L575.5,171.865 M576.5,124.782 L576.5,174.003 M577.5,133.139 L577.5,199.313 M578.5,169.352 L578.5,239.834 M579.5,192.518 L579.5,239.707 M580.5,208.489 L580.5,245.747 M581.5,183.343 L581.5,229.576 M582.5,164.764 L582.5,206.251 M583.5,138.155 L583.5,192.112 M584.5,109.661 L584.5,164.69 M585.5,97.8299 L585.5,132.722 M586.5,98.1097 L586.5,132.337 M587.5,107.819 L587.5,146.623 M588.5,125.542 L588.5,173.903 M589.5,148.112 L589.5,194.926 M590.5,178.602 L590.5,213.241 M591.5,202.212 L591.5,241.439 M592.5,224.428 L592.5,252.235 M593.5,228.055 L593.5,257.166 M594.5,211.293 L594.5,252.019 M595.5,185.613 L595.5,231.196 M596.5,164.025 L596.5,198.521 M597.5,147.811 L597.5,180.096 M598.5,134.855 L598.5,162.726 M599.5,124.671 L599.5,150.25 M600.5,114.846 L600.5,138.958 M601.5,118.109 L601.5,139.079 M602.5,117.755 L602.5,141.444 M603.5,130.019 L603.5,160.155 M604.5,143.313 L604.5,167.662 M605.5,155.282 L605.5,180.74 M606.5,166.184 L606.5,187.677 M607.5,176.743 L607.5,202.935 M608.5,185.861 L608.5,208.896 M609.5,191.895 L609.5,208.632 M610.5,186.51 L610.5,208.183 M611.5,193.12 L611.5,208.193 M612.5,192.022 L612.5,209.408 M613.5,197.909 L613.5,208.716 M614.5,194.065 L614.5,214.861 M615.5,194.963 L615.5,210.21 M616.5,185.301 L616.5,201.441 M617.5,174.288 L617.5,192.001 M618.5,159.722 L618.5,181.22 M619.5,151.195 L619.5,164.521 M620.5,136.408 L620.5,157.821 M621.5,127.57 L621.5,142.511 M622.5,122.95 L622.5,136.972 M623.5,120.384 L623.5,132.722 M624.5,123.261 L624.5,142.326 M625.5,134.29 L625.5,151.734 M626.5,144.739 L626.5,165.709 M627.5,160.334 L627.5,181.637 M628.5,176.342 L628.5,191.547 M629.5,187.851 L629.5,202.333 M630.5,201.752 L630.5,210.479 M631.5,202.275 L631.5,212.232 M632.5,201.436 L632.5,210.237 M633.5,195.713 L633.5,205.39 M634.5,185.629 L634.5,198.991 M635.5,177.107 L635.5,189.14 M636.5,167.52 L636.5,182.281 M637.5,160.224 L637.5,171.638 M638.5,157.473 L638.5,166.987 M639.5,154.933 L639.5,164.474 M640.5,154.537 L640.5,163.043 M641.5,155.461 L641.5,165.139 M642.5,160.044 L642.5,168.444 M643.5,163.001 L643.5,169.252 M644.5,165.941 L644.5,174.167 M645.5,168.475 L645.5,176.257 M646.5,172.081 L646.5,176.775 M647.5,172.493 L647.5,177.773 M648.5,172.113 L648.5,177.672 M649.5,171.168 L649.5,177.097 M650.5,170.719 L650.5,175.075 M651.5,168.106 L651.5,174.367 M652.5,168.713 L652.5,173.48 M653.5,169.663 L653.5,173.438 M654.5,169.753 L654.5,176.036 M655.5,170.255 L655.5,175.012 M656.5,171.474 L656.5,175.334 M657.5,172.419 L657.5,177.107 M658.5,173.433 L658.5,177.424 M659.5,174.014 L659.5,177.15 M660.5,173.19 L660.5,177.857 M661.5,173 L661.5,177.097 M662.5,172.229 L662.5,175.598 M663.5,173.074 L663.5,175.93 M664.5,171.226 L664.5,176.152 M665.5,172.113 L665.5,175.244 M666.5,171.479 L666.5,174.959 M667.5,171.263 L667.5,174.23 M668.5,170.703 L668.5,173.385 M669.5,171.062 L669.5,173.517 M670.5,170.413 L670.5,172.53 M671.5,169.468 L671.5,171.955 M672.5,170.112 L672.5,172.53 M673.5,169.832 L673.5,172.245 M674.5,170.08 L674.5,172.229 M675.5,170.619 L675.5,172.351 M676.5,170.666 L676.5,173.137 M677.5,171.374 L677.5,173.253 M678.5,172.06 L678.5,174.045 M679.5,172.425 L679.5,174.198 M680.5,172.588 L680.5,174.621 M681.5,173.47 L681.5,174.6 M682.5,173.227 L682.5,174.843 M683.5,173.195 L683.5,174.647 M683.5,173.921 L684.5,173.958"/>
</g>

<g fill="none" stroke="#0000c0" stroke-opacity="1" stroke-width="1" stroke-linecap="square" stroke-linejoin="bevel" transform="matrix(1,0,0,1,0,0)"
font-family="Segoe UI" font-size="9" font-weight="400" font-style="normal" 
>
<path vector-effect="non-scaling-stroke" fill-rule="evenodd" d="M57.5,175.919 L57.5,173.382 M58.5,180.857 L58.5,165.143 M59.5,169.904 L59.5,150.982 M60.5,193.394 L60.5,152.606 M61.5,199.537 L61.5,146.463 M62.5,207.184 L62.5,154.703 M63.5,205.236 L63.5,154.83 M64.5,187.75 L64.5,158.25 M65.5,156.985 L65.5,136.531 M66.5,159.535 L66.5,136.837 M67.5,173.853 L67.5,140.386 M68.5,197.802 L68.5,148.198 M69.5,228.978 L69.5,197.9 M70.5,213.13 L70.5,185.816 M71.5,191.348 L71.5,158.441 M72.5,185.294 L72.5,142.497 M73.5,153.918 L73.5,128.167 M74.5,169.207 L74.5,148.631 M75.5,187.374 L75.5,161.646 M76.5,203.503 L76.5,175.494 M77.5,209.741 L77.5,192.653 M78.5,186.641 L78.5,168.483 M79.5,185.526 L79.5,154.501 M80.5,178.225 L80.5,143.89 M81.5,165.015 L81.5,146.929 M82.5,165.955 L82.5,145.821 M83.5,193.048 L83.5,154.466 M84.5,217.912 L84.5,200.387 M85.5,196.884 L85.5,172.226 M86.5,180.898 L86.5,165.102 M87.5,166.483 L87.5,144.453 M88.5,151.23 L88.5,136.149 M89.5,178.288 L89.5,158.635 M90.5,185.564 L90.5,164.946 M91.5,194.091 L91.5,169.634 M92.5,195.376 L92.5,175.658 M93.5,190.595 L93.5,171.967 M94.5,179.138 L94.5,160.831 M95.5,164.609 L95.5,149.386 M96.5,170.031 L96.5,152.352 M97.5,179.782 L97.5,156.296 M98.5,185.631 L98.5,160.369 M99.5,201.76 L99.5,178.873 M100.5,196.557 L100.5,181.972 M101.5,181.051 L101.5,164.949 M102.5,172.502 L102.5,161.11 M103.5,164.292 L103.5,154.617 M104.5,163.579 L104.5,155.224 M105.5,180.359 L105.5,165.641 M106.5,182.371 L106.5,170.468 M107.5,186.242 L107.5,172.78 M108.5,192.995 L108.5,184.332 M109.5,181.113 L109.5,164.887 M110.5,172.623 L110.5,161.859 M111.5,168.03 L111.5,154.157 M112.5,173.051 L112.5,157.239 M113.5,180.276 L113.5,165.724 M114.5,181.679 L114.5,173.784 M115.5,186.915 L115.5,169.444 M116.5,185.48 L116.5,171.513 M117.5,178.832 L117.5,168.388 M118.5,173.051 L118.5,166.552 M119.5,171.05 L119.5,159.856 M120.5,171.926 L120.5,162.554 M121.5,179.627 L121.5,166.373 M122.5,179.301 L122.5,167.564 M123.5,183.886 L123.5,177.474 M124.5,186.994 L124.5,171.603 M125.5,180.152 L125.5,165.98 M126.5,176.503 L126.5,165.644 M127.5,169.001 L127.5,159.9 M128.5,171.91 L128.5,164.093 M129.5,178.158 L129.5,167.842 M130.5,177.74 L130.5,172.258 M131.5,179.391 L131.5,166.609 M132.5,180.388 L132.5,171.767 M133.5,179.482 L133.5,171.429 M134.5,176.541 L134.5,169.459 M135.5,171.673 L135.5,165.274 M136.5,171.335 L136.5,163.679 M137.5,177.913 L137.5,166.374 M138.5,176.856 L138.5,169.37 M139.5,182.824 L139.5,170.901 M140.5,181.465 L140.5,173.461 M141.5,177.693 L141.5,170.822 M142.5,176.065 L142.5,169.527 M143.5,170.147 L143.5,165.387 M144.5,172.206 L144.5,166.012 M145.5,176.502 L145.5,169.498 M146.5,176.445 L146.5,170.294 M147.5,176.515 L147.5,172.089 M148.5,176.679 L148.5,174.185 M149.5,177.629 L149.5,174.517 M150.5,176.725 L150.5,169.718 M151.5,176.076 L151.5,169.341 M152.5,170.337 L152.5,165.722 M153.5,171.134 L153.5,167.594 M154.5,175.491 L154.5,170.509 M155.5,177.715 L155.5,173.968 M156.5,178.827 L156.5,174.343 M157.5,177.293 L157.5,170.732 M158.5,175.215 L158.5,170.785 M159.5,175.083 L159.5,169.833 M160.5,174.027 L160.5,168.509 M161.5,172.707 L161.5,169.101 M162.5,174.851 L162.5,171.487 M163.5,176.078 L163.5,172.179 M164.5,176.844 L164.5,171.788 M165.5,176.227 L165.5,174.47 M166.5,175.587 L166.5,171.334 M167.5,173.484 L167.5,170.782 M168.5,172.987 L168.5,169.656 M169.5,173.536 L169.5,170.111 M170.5,174.18 L170.5,171.064 M171.5,175.266 L171.5,171.983 M172.5,175.761 L172.5,172.105 M173.5,175.625 L173.5,172.585 M174.5,174.989 L174.5,171.011 M175.5,175.188 L175.5,170.812 M176.5,173.394 L176.5,171.006 M177.5,171.24 L177.5,169.139 M178.5,173.288 L178.5,170.659 M179.5,175.02 L179.5,171.983 M180.5,176.305 L180.5,174.945 M181.5,175.801 L181.5,173.166 M182.5,175.195 L182.5,170.805 M183.5,173.109 L183.5,170.401 M184.5,173.325 L184.5,170.645 M185.5,173.283 L185.5,171.653 M186.5,174.138 L186.5,171.988 M187.5,174.69 L187.5,171.814 M188.5,174.355 L188.5,171.878 M189.5,174.381 L189.5,172.432 M190.5,174.312 L190.5,173.118 M191.5,174.51 L191.5,173.039 M192.5,174.181 L192.5,172.96 M193.5,173.156 L193.5,171.624 M194.5,173.658 L194.5,170.823 M195.5,172.333 L195.5,171.264 M197.5,175.227 L197.5,174.169 M198.5,174.94 L198.5,172.68 M199.5,173.774 L199.5,171.647 M201.5,173.774 L201.5,171.686 M228.5,178.786 L228.5,167.214 M229.5,184.254 L229.5,161.746 M230.5,189.597 L230.5,165.526 M231.5,202.313 L231.5,143.687 M232.5,190.088 L232.5,147.738 M233.5,197.145 L233.5,148.855 M234.5,192.259 L234.5,165.97 M235.5,213.461 L235.5,184.258 M236.5,190.732 L236.5,155.268 M237.5,182.881 L237.5,153.195 M238.5,163.563 L238.5,134.118 M239.5,154.366 L239.5,132.706 M240.5,180.738 L240.5,152.377 M241.5,212.37 L241.5,171.735 M242.5,225.149 L242.5,207.541 M243.5,208.985 L243.5,180.103 M244.5,187.925 L244.5,158.075 M245.5,153.955 L245.5,131.236 M246.5,163.479 L246.5,128.201 M247.5,187.007 L247.5,158.993 M248.5,195.451 L248.5,173.572 M249.5,206.779 L249.5,174.407 M250.5,201.189 L250.5,179.797 M251.5,184.989 L251.5,161.011 M252.5,163.864 L252.5,144.53 M253.5,161.23 L253.5,146.211 M254.5,157.682 L254.5,143.256 M255.5,184.586 L255.5,156.958 M256.5,201.385 L256.5,175.04 M257.5,215.853 L257.5,188.323 M258.5,188.166 L258.5,164.185 M259.5,178.605 L259.5,159.788 M260.5,150.882 L260.5,136.666 M261.5,171.351 L261.5,144.25 M262.5,184.111 L262.5,161.889 M263.5,189.03 L263.5,173.525 M264.5,194.478 L264.5,184.353 M265.5,193.852 L265.5,172.812 M266.5,186.118 L266.5,159.882 M267.5,179.006 L267.5,153.497 M268.5,163.458 L268.5,150.296 M269.5,167.66 L269.5,153.627 M270.5,186.172 L270.5,159.828 M271.5,191.539 L271.5,159.597 M272.5,206.025 L272.5,186.697 M273.5,185.828 L273.5,173.784 M274.5,179.839 L274.5,166.161 M275.5,175.532 L275.5,157.635 M276.5,164.725 L276.5,152.771 M277.5,172.671 L277.5,159.675 M278.5,182.28 L278.5,163.72 M279.5,187.145 L279.5,163.826 M280.5,190.906 L280.5,162.665 M281.5,190.098 L281.5,174.787 M282.5,180.82 L282.5,165.18 M283.5,165.865 L283.5,157.425 M284.5,169.366 L284.5,156.092 M285.5,183.231 L285.5,162.769 M286.5,180.068 L286.5,165.932 M287.5,186.128 L287.5,175.188 M288.5,186.365 L288.5,171.798 M289.5,183.267 L289.5,164.65 M290.5,179.17 L290.5,166.83 M291.5,183.103 L291.5,162.155 M292.5,171.652 L292.5,161.509 M293.5,175.764 L293.5,163.162 M294.5,179.644 L294.5,166.356 M295.5,184.217 L295.5,161.783 M296.5,187.477 L296.5,174.143 M297.5,182.577 L297.5,170.901 M298.5,181.882 L298.5,164.118 M299.5,179.043 L299.5,161.9 M300.5,173.082 L300.5,158.974 M301.5,180.894 L301.5,165.106 M302.5,179.226 L302.5,166.774 M303.5,179.279 L303.5,166.721 M304.5,182.685 L304.5,163.315 M305.5,180.961 L305.5,169.27 M306.5,180.375 L306.5,165.625 M307.5,181.397 L307.5,164.603 M308.5,178.98 L308.5,165.32 M309.5,178.943 L309.5,162.239 M310.5,179.038 L310.5,166.892 M311.5,178.175 L311.5,169.417 M312.5,183.788 L312.5,165.88 M313.5,180.337 L313.5,166.06 M314.5,179.242 L314.5,166.758 M315.5,180.956 L315.5,165.044 M316.5,178.985 L316.5,163.834 M317.5,178.631 L317.5,166.849 M318.5,179.502 L318.5,166.498 M319.5,178.806 L319.5,167.194 M320.5,178.647 L320.5,167.353 M321.5,178.312 L321.5,169.127 M322.5,180.115 L322.5,168.214 M323.5,179.62 L323.5,166.38 M324.5,181.626 L324.5,164.374 M325.5,181.19 L325.5,164.81 M326.5,178.887 L326.5,167.113 M327.5,179.966 L327.5,166.034 M328.5,180.153 L328.5,169.27 M329.5,178.824 L329.5,168.383 M330.5,178.186 L330.5,167.814 M331.5,180.19 L331.5,165.81 M332.5,177.253 L332.5,166.336 M333.5,179.381 L333.5,166.354 M334.5,178.651 L334.5,167.349 M335.5,178.068 L335.5,168.203 M336.5,179.45 L336.5,166.55 M337.5,179.172 L337.5,166.828 M338.5,177.501 L338.5,168.499 M339.5,177.764 L339.5,168.236 M340.5,180.055 L340.5,165.945 M341.5,180.825 L341.5,165.175 M342.5,177.95 L342.5,168.05 M343.5,179.649 L343.5,166.351 M344.5,178.187 L344.5,167.813 M345.5,180.116 L345.5,165.884 M346.5,177.375 L346.5,168.625 M347.5,177.527 L347.5,168.473 M348.5,178.676 L348.5,167.324 M349.5,179.178 L349.5,166.822 M350.5,177.591 L350.5,168.183 M351.5,177.393 L351.5,168.607 M352.5,178.594 L352.5,167.406 M353.5,178.006 L353.5,168.504 M354.5,178.247 L354.5,167.753 M355.5,176.963 L355.5,169.037 M356.5,179.754 L356.5,166.246 M357.5,177.517 L357.5,168.483 M358.5,178.521 L358.5,167.479 M359.5,179.502 L359.5,166.498 M360.5,177.992 L360.5,168.008 M361.5,179.042 L361.5,166.958 M362.5,178.347 L362.5,167.653 M363.5,176.593 L363.5,169.407 M364.5,178.63 L364.5,167.37 M365.5,177.878 L365.5,168.122 M366.5,177.628 L366.5,168.372 M367.5,178.734 L367.5,167.266 M368.5,178.819 L368.5,167.181 M369.5,177.529 L369.5,168.471 M370.5,177.309 L370.5,168.691 M371.5,177.32 L371.5,168.68 M372.5,176.399 L372.5,169.601 M373.5,178.148 L373.5,167.852 M374.5,176.221 L374.5,169.779 M375.5,178.736 L375.5,167.264 M376.5,176.839 L376.5,169.161 M377.5,176.62 L377.5,169.38 M378.5,177.303 L378.5,168.697 M379.5,176.641 L379.5,169.359 M380.5,178.203 L380.5,167.797 M381.5,175.404 L381.5,170.596 M382.5,176.93 L382.5,169.07 M383.5,177.137 L383.5,168.863 M384.5,176.523 L384.5,169.477 M385.5,176.484 L385.5,169.516 M386.5,177.186 L386.5,168.814 M387.5,178.109 L387.5,167.891 M388.5,176.583 L388.5,169.417 M389.5,177.806 L389.5,168.194 M390.5,176.662 L390.5,169.338 M391.5,178.443 L391.5,167.557 M392.5,177.277 L392.5,168.723 M393.5,177.917 L393.5,168.083 M394.5,177.109 L394.5,168.891 M395.5,176.174 L395.5,169.826 M396.5,177.182 L396.5,168.818 M397.5,177.964 L397.5,168.036 M398.5,177.83 L398.5,168.17 M399.5,179.203 L399.5,166.797 M400.5,182.746 L400.5,163.254 M401.5,185.463 L401.5,160.537 M402.5,184.221 L402.5,161.779 M403.5,179.313 L403.5,166.687 M404.5,186.657 L404.5,159.343 M405.5,184.174 L405.5,161.826 M406.5,182.731 L406.5,163.269 M407.5,182.862 L407.5,163.138 M408.5,181.446 L408.5,164.554 M409.5,184.098 L409.5,161.902 M410.5,183.603 L410.5,162.397 M411.5,179.883 L411.5,166.117 M412.5,182.625 L412.5,163.375 M413.5,180.684 L413.5,165.316 M414.5,181.402 L414.5,164.598 M415.5,179.237 L415.5,167.047 M416.5,182.545 L416.5,163.455 M417.5,180.083 L417.5,165.917 M418.5,179.244 L418.5,166.756 M419.5,180.167 L419.5,165.833 M420.5,178.928 L420.5,167.072 M421.5,179.459 L421.5,166.541 M422.5,179.894 L422.5,166.106 M423.5,180.846 L423.5,165.154 M424.5,178.696 L424.5,167.304 M425.5,178.371 L425.5,167.629 M426.5,179.16 L426.5,166.84 M427.5,178.479 L427.5,167.521 M428.5,177.094 L428.5,168.906 M429.5,177.118 L429.5,168.882 M430.5,178.862 L430.5,167.138 M431.5,177.217 L431.5,168.783 M432.5,178.842 L432.5,167.158 M433.5,177.156 L433.5,168.844 M434.5,176.506 L434.5,169.494 M435.5,176.527 L435.5,169.473 M436.5,177.283 L436.5,168.717 M437.5,176.702 L437.5,169.298 M438.5,178.216 L438.5,167.784 M439.5,177.638 L439.5,168.362 M440.5,177.03 L440.5,168.97 M441.5,176.208 L441.5,169.792 M442.5,176.615 L442.5,169.385 M443.5,177.084 L443.5,168.916 M444.5,176.109 L444.5,169.891 M445.5,176.011 L445.5,169.989 M446.5,176.973 L446.5,169.027 M447.5,175.773 L447.5,170.227 M448.5,175.854 L448.5,170.146 M449.5,175.727 L449.5,170.273 M450.5,176.4 L450.5,169.6 M451.5,176.054 L451.5,169.946 M452.5,175.305 L452.5,170.674 M453.5,176.132 L453.5,170.088 M454.5,175.889 L454.5,170.111 M455.5,175.853 L455.5,170.147 M456.5,175.699 L456.5,170.301 M457.5,175.269 L457.5,170.731 M458.5,174.854 L458.5,171.146 M459.5,175.192 L459.5,170.808 M460.5,175.619 L460.5,170.381 M461.5,175.283 L461.5,170.717 M462.5,175.316 L462.5,170.684 M463.5,175.196 L463.5,170.804 M464.5,175.527 L464.5,170.473 M465.5,175.168 L465.5,170.802 M466.5,175.54 L466.5,170.46 M467.5,175.543 L467.5,170.526 M468.5,175.053 L468.5,170.947 M469.5,175.245 L469.5,170.755 M470.5,175.678 L470.5,170.322 M471.5,174.88 L471.5,171.128 M472.5,174.598 L472.5,171.503 M473.5,174.826 L473.5,171.629 M474.5,174.914 L474.5,171.086 M475.5,174.328 L475.5,171.577 M476.5,174.601 L476.5,171.399 M477.5,174.439 L477.5,171.27 M478.5,174.787 L478.5,171.213 M479.5,173.737 L479.5,171.575 M480.5,174.789 L480.5,171.211 M481.5,174.022 L481.5,171.753 M482.5,174.323 L482.5,172.216 M483.5,174.278 L483.5,171.857 M484.5,174.37 L484.5,171.63 M485.5,174.334 L485.5,172.279 M486.5,174.312 L486.5,171.915 M487.5,174.162 L487.5,172.464 M488.5,173.621 L488.5,172.157 M489.5,174.27 L489.5,171.698 M490.5,173.811 L490.5,171.767 M493.5,173.668 L493.5,172.522 M494.5,173.832 L494.5,172.305 M570.5,174.179 L570.5,171.821 M571.5,182.068 L571.5,163.932 M572.5,200.966 L572.5,145.034 M573.5,190.637 L573.5,155.363 M574.5,172.037 L574.5,143.517 M575.5,170.865 L575.5,138.514 M576.5,173.003 L576.5,144.67 M577.5,187.714 L577.5,158.286 M578.5,207.625 L578.5,170.352 M579.5,214.24 L579.5,193.518 M580.5,224.695 L580.5,209.489 M581.5,205.031 L581.5,184.343 M582.5,185.123 L582.5,165.764 M583.5,185.749 L583.5,160.251 M584.5,163.69 L584.5,134.301 M585.5,131.722 L585.5,114.235 M586.5,131.337 L586.5,114.322 M587.5,145.623 L587.5,126.342 M588.5,172.903 L588.5,149.927 M589.5,184.477 L589.5,161.523 M590.5,198.753 L590.5,179.602 M591.5,221.764 L591.5,203.212 M592.5,238.249 L592.5,225.428 M593.5,241.137 L593.5,229.055 M594.5,227.304 L594.5,212.293 M595.5,207.25 L595.5,186.613 M596.5,186.533 L596.5,165.025 M597.5,179.096 L597.5,163.814 M598.5,161.726 L598.5,147.491 M599.5,149.25 L599.5,132.399 M600.5,137.958 L600.5,126.555 M601.5,138.079 L601.5,126.315 M602.5,140.444 L602.5,130.97 M603.5,159.155 L603.5,142.421 M604.5,166.662 L604.5,154.702 M605.5,179.74 L605.5,165.888 M606.5,179.102 L606.5,167.184 M607.5,189.581 L607.5,177.743 M608.5,195.205 L608.5,186.861 M609.5,199.259 L609.5,192.895 M610.5,197.789 L610.5,187.51 M611.5,199.743 L611.5,194.12 M612.5,201.564 L612.5,193.022 M613.5,203.123 L613.5,198.909 M614.5,204.475 L614.5,195.065 M615.5,201.68 L615.5,195.963 M616.5,193.033 L616.5,186.301 M617.5,183.945 L617.5,175.288 M618.5,178.658 L618.5,167.342 M619.5,163.521 L619.5,157.314 M620.5,156.821 L620.5,144.687 M621.5,141.511 L621.5,134.806 M622.5,135.972 L622.5,127.741 M623.5,131.722 L623.5,125.971 M624.5,141.326 L624.5,130.217 M625.5,150.734 L625.5,140.425 M626.5,164.709 L626.5,152.889 M627.5,178.786 L627.5,167.214 M628.5,185.822 L628.5,177.342 M629.5,197.23 L629.5,188.851 M630.5,205.471 L630.5,202.752 M631.5,207.19 L631.5,203.275 M632.5,205.204 L632.5,202.436 M633.5,200.578 L633.5,196.713 M634.5,192.199 L634.5,186.629 M635.5,184.128 L635.5,178.107 M636.5,175.982 L636.5,170.018 M637.5,170.638 L637.5,166.298 M638.5,165.987 L638.5,160.859 M639.5,163.474 L639.5,158.938 M640.5,162.043 L640.5,158.025 M641.5,164.139 L641.5,160.419 M642.5,167.444 L642.5,162.681 M643.5,168.252 L643.5,165.715 M644.5,173.167 L644.5,169.276 M645.5,175.154 L645.5,170.846 M646.5,174.878 L646.5,173.081 M647.5,176.159 L647.5,173.493 M648.5,175.899 L648.5,173.113 M649.5,175.153 L649.5,172.168 M650.5,174.075 L650.5,171.719 M651.5,173.367 L651.5,171.573 M652.5,172.48 L652.5,170.697 M653.5,172.438 L653.5,170.771 M654.5,175.036 L654.5,170.857 M655.5,174.012 L655.5,171.421 M656.5,174.334 L656.5,172.474 M657.5,175.472 L657.5,173.419 M658.5,175.723 L658.5,174.433 M659.5,176.15 L659.5,175.014 M660.5,176.113 L660.5,174.19 M661.5,175.582 L661.5,174 M662.5,174.598 L662.5,173.229 M664.5,174.478 L664.5,172.226 M665.5,174.244 L665.5,173.113 M666.5,173.959 L666.5,172.479"/>
</g>

<g fill="none" stroke="#000080" stroke-opacity="1" stroke-width="1" stroke-linecap="square" stroke-linejoin="bevel" transform="matrix(1,0,0,1,0,0)"
font-family="Segoe UI" font-size="9" font-weight="400" font-style="normal" 
>
</g>

<g fill="none" stroke="#000000" stroke-opacity="1" stroke-width="1" stroke-linecap="square" stroke-linejoin="bevel" transform="matrix(1,0,0,1,0,0)"
font-family="Segoe UI" font-size="9" font-weight="400" font-style="normal" 
>
</g>

<g fill="#ffffff" fill-opacity="1" stroke="#ffffff" stroke-opacity="1" stroke-width="1" stroke-linecap="square" stroke-linejoin="bevel" transform="matrix(1,0,0,1,0,0)"
font-family="Segoe UI" font-size="9" font-weight="400" font-style="normal" 
>
<rect x="684" y="0" width="684" height="346"/>
</g>

<g fill="none" stroke="#000000" stroke-opacity="1" stroke-width="1" stroke-linecap="square" stroke-linejoin="bevel" transform="matrix(1,0,0,1,0,0)"
font-family="Segoe UI" font-size="9" font-weight="400" font-style="normal" 
>
</g>

<g fill="none" stroke="#0000c0" stroke-opacity="1" stroke-width="1" stroke-linecap="square" stroke-linejoin="bevel" transform="matrix(1,0,0,1,684,0)"
font-family="Segoe UI" font-size="9" font-weight="400" font-style="normal" 
>
<polyline fill="none" vector-effect="non-scaling-stroke" points="0,173.5 684,173.5 " />
</g>

<g fill="none" stroke="#000080" stroke-opacity="1" stroke-width="1" stroke-linecap="square" stroke-linejoin="bevel" transform="matrix(1,0,0,1,684,0)"
font-family="Segoe UI" font-size="9" font-weight="400" font-style="normal" 
>
<path vector-effect="non-scaling-stroke" fill-rule="evenodd" d="M0.5,173.523 L0.5,174.394 M1.5,173.327 L1.5,174.346 M2.5,172.815 L2.5,174.04 M3.5,172.995 L3.5,174.056 M3.5,173.525 L4.5,173.092 L5.5,173.087 L6.5,172.966 L7.5,173.09"/>
</g>

<g fill="none" stroke="#000000" stroke-opacity="1" stroke-width="1" stroke-linecap="square" stroke-linejoin="bevel" transform="matrix(1,0,0,1,0,0)"
font-family="Segoe UI" font-size="9" font-weight="400" font-style="normal" 
>
</g>
</g>
</svg>
