<?xml version="1.0" encoding="UTF-8" standalone="no"?>
<svg width="243.769mm" height="122.061mm"
 viewBox="0 0 691 346"
 xmlns="http://www.w3.org/2000/svg" xmlns:xlink="http://www.w3.org/1999/xlink" version="1.2" baseProfile="tiny">
<title>Exported image from Sonic Visualiser</title>
<desc>Generated with Qt</desc>
<defs>
</defs>
<g fill="none" stroke="black" stroke-width="1" fill-rule="evenodd" stroke-linecap="square" stroke-linejoin="bevel" >

<g fill="#ffffff" fill-opacity="1" stroke="#ffffff" stroke-opacity="1" stroke-width="1" stroke-linecap="square" stroke-linejoin="bevel" transform="matrix(1,0,0,1,0,0)"
font-family="Segoe UI" font-size="9" font-weight="400" font-style="normal" 
>
<rect x="0" y="0" width="684" height="346"/>
</g>

<g fill="none" stroke="#000000" stroke-opacity="1" stroke-width="1" stroke-linecap="square" stroke-linejoin="bevel" transform="matrix(1,0,0,1,0,0)"
font-family="Segoe UI" font-size="9" font-weight="400" font-style="normal" 
>
</g>

<g fill="none" stroke="#0000c0" stroke-opacity="1" stroke-width="1" stroke-linecap="square" stroke-linejoin="bevel" transform="matrix(1,0,0,1,0,0)"
font-family="Segoe UI" font-size="9" font-weight="400" font-style="normal" 
>
<polyline fill="none" vector-effect="non-scaling-stroke" points="0,173.5 684,173.5 " />
</g>

<g fill="none" stroke="#000080" stroke-opacity="1" stroke-width="1" stroke-linecap="square" stroke-linejoin="bevel" transform="matrix(1,0,0,1,0,0)"
font-family="Segoe UI" font-size="9" font-weight="400" font-style="normal" 
>
<path vector-effect="non-scaling-stroke" fill-rule="evenodd" d="M0.5,172.984 L0.5,173.021 M0.5,173.003 L1.5,173 L2.5,173 L3.5,172.997 L4.5,173 L5.5,173 L6.5,173 L7.5,173 L8.5,173 L9.5,173 L10.5,173 L11.5,173.003 L12.5,173 L13.5,172.997 L14.5,172.997 L15.5,173 L16.5,173 L17.5,173 L18.5,173 L19.5,173.003 L20.5,173 L21.5,173 L22.5,173 L23.5,173 L24.5,173 L25.5,172.997 L26.5,173 L27.5,173 L28.5,173 L29.5,173 L30.5,172.997 L31.5,173 L32.5,173 L33.5,173 L34.5,173 L35.5,173 L36.5,173.003 L37.5,173 L38.5,173.003 L39.5,173 L40.5,173 L41.5,172.987 L42.5,172.992 L43.5,172.995 L44.5,172.992 L45.5,173.013 L46.5,172.997 L47.5,173.003 L48.5,173.013 L49.5,172.987 L50.5,172.995 L51.5,173.005 L52.5,173.005 L53.5,173.005 L54.5,172.979 L55.5,173.04 L56.5,172.844 M57.5,170.381 L57.5,176.553 M58.5,165.033 L58.5,183.221 M59.5,158.376 L59.5,189.678 M60.5,159.152 L60.5,185.692 M61.5,153.856 L61.5,200.11 M62.5,151.829 L62.5,199.857 M63.5,148.925 L63.5,188.96 M64.5,152.79 L64.5,186.151 M65.5,154.374 L65.5,195.058 M66.5,158.925 L66.5,201.05 M67.5,146.359 L67.5,193.289 M68.5,145.979 L68.5,191.494 M69.5,149.923 L69.5,189.414 M70.5,153.814 L70.5,193.004 M71.5,158.175 L71.5,193.358 M72.5,159.057 L72.5,184.742 M73.5,159.363 L73.5,193.933 M74.5,147.12 L74.5,191.5 M75.5,154.902 L75.5,191.452 M76.5,151.903 L76.5,187.967 M77.5,155.926 L77.5,185.291 M78.5,157.964 L78.5,186.304 M79.5,157.077 L79.5,198.373 M80.5,154.025 L80.5,198.416 M81.5,157.278 L81.5,182.683 M82.5,158.376 L82.5,181.975 M83.5,154.669 L83.5,193.104 M84.5,159.342 L84.5,186.774 M85.5,160.709 L85.5,192.144 M86.5,163.756 L86.5,185.497 M87.5,162.853 L87.5,183.395 M88.5,153.27 L88.5,182.255 M89.5,161.702 L89.5,192.524 M90.5,158.56 L90.5,191.489 M91.5,157.621 L91.5,193.648 M92.5,161.042 L92.5,180.555 M93.5,159.231 L93.5,186.246 M94.5,159.189 L94.5,182.519 M95.5,159.516 L95.5,184.33 M96.5,158.814 L96.5,188.812 M97.5,167.108 L97.5,181.838 M98.5,163.391 L98.5,179.663 M99.5,164.906 L99.5,182.809 M100.5,159.437 L100.5,185.697 M101.5,165.429 L101.5,181.157 M102.5,161 L102.5,181.204 M103.5,156.311 L103.5,183.538 M104.5,160.049 L104.5,178.454 M105.5,160.503 L105.5,186.986 M106.5,162.451 L106.5,184.837 M107.5,162.473 L107.5,183.348 M108.5,159.041 L108.5,187.957 M109.5,163.27 L109.5,181.933 M110.5,165.065 L110.5,181.125 M111.5,161.491 L111.5,180.476 M112.5,161.828 L112.5,181.706 M113.5,157.531 L113.5,187.619 M114.5,162.478 L114.5,180.233 M115.5,160.614 L115.5,182.023 M116.5,164.231 L116.5,183.068 M117.5,159.463 L117.5,181.458 M118.5,160.82 L118.5,189.572 M119.5,160.567 L119.5,187.387 M120.5,164.241 L120.5,188.796 M121.5,158.397 L121.5,185.945 M122.5,158.36 L122.5,187.962 M123.5,161.021 L123.5,186.172 M124.5,164.384 L124.5,187.714 M125.5,163.465 L125.5,180.096 M126.5,160.25 L126.5,180.333 M127.5,159.648 L127.5,189.873 M128.5,162.404 L128.5,181.595 M129.5,163.206 L129.5,188.68 M130.5,162.034 L130.5,186.679 M131.5,154.094 L131.5,183.295 M132.5,159.051 L132.5,189.177 M133.5,163.872 L133.5,187.535 M134.5,162.948 L134.5,182.466 M135.5,155.952 L135.5,187.117 M136.5,156.486 L136.5,184.958 M137.5,159.463 L137.5,187.36 M138.5,159.315 L138.5,185.301 M139.5,158.175 L139.5,186.315 M140.5,165.704 L140.5,183.601 M141.5,159.748 L141.5,187.228 M142.5,163.328 L142.5,190.692 M143.5,163.18 L143.5,185.84 M144.5,160.25 L144.5,186.89 M145.5,157.225 L145.5,178.924 M146.5,158.513 L146.5,187.888 M147.5,158.45 L147.5,184.388 M148.5,159.912 L148.5,187.165 M149.5,164.59 L149.5,184.161 M150.5,161.454 L150.5,187.044 M151.5,157.489 L151.5,184.71 M152.5,160.229 L152.5,186.304 M153.5,159.405 L153.5,182.53 M154.5,160.978 L154.5,183.744 M155.5,160.857 L155.5,192.408 M156.5,160.852 L156.5,185.919 M157.5,163.412 L157.5,183.86 M158.5,162.071 L158.5,184.557 M159.5,159.189 L159.5,191.426 M160.5,161.517 L160.5,185.159 M161.5,160.641 L161.5,185.523 M162.5,162.626 L162.5,192.408 M163.5,160.002 L163.5,182.466 M164.5,162.372 L164.5,185.967 M165.5,155.303 L165.5,186.125 M166.5,166.311 L166.5,188.696 M167.5,157.246 L167.5,184.684 M168.5,163.317 L168.5,183.205 M169.5,159.189 L169.5,189.736 M170.5,159.579 L170.5,190.016 M171.5,157.441 L171.5,182.926 M172.5,163.354 L172.5,182.118 M173.5,164.03 L173.5,186.658 M174.5,158.054 L174.5,183.353 M175.5,163.639 L175.5,178.998 M176.5,160.604 L176.5,186.553 M177.5,161.623 L177.5,190.554 M178.5,161.744 L178.5,187.624 M179.5,164.822 L179.5,183.96 M180.5,163.909 L180.5,183.776 M181.5,166.95 L181.5,181.944 M182.5,161.528 L182.5,186.135 M183.5,165.688 L183.5,176.965 M184.5,163.983 L184.5,188.765 M185.5,160.905 L185.5,184.541 M186.5,164.025 L186.5,185.634 M187.5,158.323 L187.5,192.661 M188.5,165.709 L188.5,184.731 M189.5,161.322 L189.5,185.433 M190.5,160.889 L190.5,183.073 M191.5,158.877 L191.5,180.993 M192.5,160.836 L192.5,184.441 M193.5,162.272 L193.5,185.845 M194.5,162.531 L194.5,186.943 M195.5,165.63 L195.5,178.544 M196.5,159.458 L196.5,183.892 M197.5,161.881 L197.5,183.3 M198.5,167.092 L198.5,184.837 M199.5,165.25 L199.5,181.389 M200.5,163.629 L200.5,181.247 M201.5,166.316 L201.5,183.248 M202.5,163.47 L202.5,190.185 M203.5,159.917 L203.5,181.094 M204.5,164.31 L204.5,182.091 M205.5,163.861 L205.5,181.035 M206.5,164.827 L206.5,184.451 M207.5,166.438 L207.5,181.257 M208.5,165.097 L208.5,187.667 M209.5,165.44 L209.5,182.508 M210.5,167.958 L210.5,179.425 M211.5,166.105 L211.5,179.151 M212.5,159.97 L212.5,182.419 M213.5,165.012 L213.5,181.226 M214.5,167.198 L214.5,183.079 M215.5,161.517 L215.5,181.743 M216.5,160.181 L216.5,184.958 M217.5,166.955 L217.5,180.038 M218.5,164.996 L218.5,186.093 M219.5,162.219 L219.5,185.84 M220.5,159.97 L220.5,181.352 M221.5,157.742 L221.5,184.948 M222.5,162.906 L222.5,184.251 M223.5,166.311 L223.5,177.968 M224.5,166.855 L224.5,181.595 M225.5,163.169 L225.5,178.311 M226.5,160.319 L226.5,186.436 M227.5,163.117 L227.5,193.178 M228.5,152.753 L228.5,216.039 M229.5,165.413 L229.5,216.144 M230.5,120.331 L230.5,202.08 M231.5,107.169 L231.5,187.73 M232.5,134.929 L232.5,273.728 M233.5,157.652 L233.5,245.33 M234.5,189.013 L234.5,246.465 M235.5,151.729 L235.5,218.425 M236.5,114.313 L236.5,170.698 M237.5,114.365 L237.5,157.198 M238.5,109.73 L238.5,157.895 M239.5,133.71 L239.5,203.442 M240.5,191.901 L240.5,244.337 M241.5,187.682 L241.5,252.41 M242.5,165.429 L242.5,219.914 M243.5,131.202 L243.5,203.062 M244.5,114.878 L244.5,150.245 M245.5,117.274 L245.5,161.443 M246.5,148.154 L246.5,204.514 M247.5,181.542 L247.5,239.887 M248.5,181.336 L248.5,227.142 M249.5,174.209 L249.5,216.588 M250.5,148.186 L250.5,186.6 M251.5,115.273 L251.5,179.895 M252.5,122.733 L252.5,165.603 M253.5,134.095 L253.5,154.384 M254.5,135.922 L254.5,197.539 M255.5,174.415 L255.5,236.291 M256.5,185.544 L256.5,229.618 M257.5,168.65 L257.5,218.077 M258.5,133.43 L258.5,178.459 M259.5,127.443 L259.5,160.831 M260.5,126.065 L260.5,172.34 M261.5,151.069 L261.5,198.363 M262.5,172.467 L262.5,207.877 M263.5,173.512 L263.5,208.04 M264.5,186.352 L264.5,207.565 M265.5,146.312 L265.5,194.044 M266.5,136.999 L266.5,163.407 M267.5,139.412 L267.5,167.235 M268.5,135.557 L268.5,170.54 M269.5,145.478 L269.5,188.221 M270.5,174.806 L270.5,217.602 M271.5,170.645 L271.5,206.541 M272.5,169.061 L272.5,203.827 M273.5,174.79 L273.5,200.179 M274.5,119.201 L274.5,224.877 M275.5,125.083 L275.5,183.538 M276.5,145.383 L276.5,240.652 M277.5,157.974 L277.5,224.169 M278.5,198.907 L278.5,233.277 M279.5,160.007 L279.5,207.259 M280.5,129.481 L280.5,164.785 M281.5,127.517 L281.5,139.454 M282.5,128.942 L282.5,144.401 M283.5,138.725 L283.5,185.613 M283.5,162.169 L284.5,218.837 L284.5,194.472 L284.5,243.202 L284.5,218.837 M285.5,212.655 L285.5,234.338 M286.5,167.272 L286.5,223.018 M287.5,131.476 L287.5,191.13 M288.5,124.122 L288.5,141.703 M289.5,125.442 L289.5,151.227 M290.5,146.491 L290.5,197.888 M291.5,175.693 L291.5,216.952 M292.5,182.846 L292.5,232.052 M293.5,178.332 L293.5,217.026 M294.5,149.031 L294.5,185.196 M295.5,126.134 L295.5,159.083 M296.5,136.598 L296.5,158.935 M297.5,132.337 L297.5,150.826 M298.5,143.889 L298.5,186.531 M299.5,177.034 L299.5,226.344 M300.5,186.706 L300.5,226.513 M301.5,169.51 L301.5,203.843 M302.5,125.906 L302.5,176.067 M303.5,130.236 L303.5,150.388 M304.5,132.934 L304.5,169.816 M305.5,148.54 L305.5,192.608 M306.5,174.716 L306.5,206.715 M307.5,178.29 L307.5,203.167 M308.5,181.632 L308.5,204.936 M309.5,155.282 L309.5,194.556 M310.5,141.471 L310.5,166.538 M311.5,138.789 L311.5,161.781 M312.5,144.29 L312.5,163.608 M313.5,141.629 L313.5,184.261 M314.5,174.684 L314.5,210.39 M315.5,190.465 L315.5,213.304 M316.5,165.44 L316.5,199.683 M317.5,153.086 L317.5,180.983 M318.5,146.47 L318.5,165.45 M319.5,142.484 L319.5,164.151 M320.5,151.813 L320.5,177.419 M321.5,168.618 L321.5,198.474 M322.5,172.092 L322.5,193.326 M323.5,183.052 L323.5,200.327 M324.5,168.856 L324.5,202.539 M325.5,157.431 L325.5,181.864 M326.5,145.715 L326.5,165.846 M327.5,135.827 L327.5,167.779 M328.5,156.317 L328.5,178.206 M329.5,155.271 L329.5,187.234 M330.5,171.596 L330.5,199.804 M331.5,174.552 L331.5,193.859 M332.5,169.764 L332.5,198.622 M333.5,164.547 L333.5,184.103 M334.5,156.259 L334.5,173.021 M335.5,147.093 L335.5,168 M336.5,159.637 L336.5,174.568 M337.5,161.828 L337.5,179.916 M338.5,165.033 L338.5,190 M339.5,180.127 L339.5,196.943 M340.5,170.888 L340.5,193.627 M341.5,160.319 L341.5,184.699 M342.5,151.159 L342.5,168.106 M343.5,151.153 L343.5,168.919 M344.5,164.151 L344.5,182.962 M345.5,165.498 L345.5,186.262 M346.5,172.06 L346.5,184.858 M347.5,170.244 L347.5,189.636 M348.5,171.226 L348.5,184.758 M349.5,167.72 L349.5,180.903 M350.5,160.619 L350.5,174.447 M351.5,158.888 L351.5,168.312 M352.5,159.215 L352.5,170.867 M353.5,160.065 L353.5,178.306 M354.5,170.223 L354.5,190.005 M355.5,172.578 L355.5,191.695 M356.5,173.153 L356.5,190.528 M357.5,166.987 L357.5,180.148 M358.5,164.463 L358.5,174.637 M359.5,159.616 L359.5,169.948 M360.5,163.053 L360.5,177.451 M361.5,168.729 L361.5,178.158 M362.5,170.461 L362.5,181.41 M363.5,170.587 L363.5,178.691 M364.5,173.048 L364.5,182.466 M365.5,172.097 L365.5,183.501 M366.5,166.174 L366.5,179.167 M367.5,159.97 L367.5,172.366 M368.5,162.013 L368.5,172.963 M369.5,164.774 L369.5,173.908 M370.5,169.563 L370.5,179.23 M371.5,174.32 L371.5,183.221 M372.5,171.274 L372.5,181.373 M373.5,170.049 L373.5,179.52 M374.5,165.846 L374.5,174.637 M375.5,166.723 L375.5,173.143 M376.5,164.009 L376.5,174.975 M377.5,168.275 L377.5,173.94 M378.5,172.113 L378.5,180.502 M379.5,172.277 L379.5,180.317 M380.5,169.547 L380.5,182.614 M381.5,170.043 L381.5,180.735 M382.5,169.151 L382.5,178.443 M383.5,167.214 L383.5,173.243 M384.5,164.674 L384.5,175.867 M385.5,168.745 L385.5,175.962 M386.5,170.191 L386.5,176.606 M387.5,170.397 L387.5,179.457 M388.5,170.55 L388.5,178.918 M389.5,171.384 L389.5,177.255 M390.5,169.605 L390.5,175.46 M391.5,169.51 L391.5,179.198 M392.5,168.893 L392.5,173.776 M393.5,165.704 L393.5,173.327 M394.5,169.368 L394.5,174.811 M395.5,171.928 L395.5,179.383 M396.5,173.333 L396.5,178.697 M397.5,169.985 L397.5,177.34 M398.5,169.531 L398.5,175.64 M399.5,149.944 L399.5,185.681 M400.5,157.673 L400.5,199.324 M401.5,154.025 L401.5,222.427 M402.5,121.968 L402.5,216.62 M403.5,100.174 L403.5,186.267 M404.5,121.224 L404.5,234.987 M405.5,131.756 L405.5,239.517 M406.5,167.288 L406.5,244.432 M407.5,166.554 L407.5,242.31 M408.5,145.124 L408.5,193.405 M409.5,114.999 L409.5,162.267 M410.5,106.779 L410.5,155.176 M411.5,121.973 L411.5,166.559 M412.5,152.172 L412.5,236.254 M413.5,196.684 L413.5,240.504 M414.5,198.014 L414.5,240.071 M415.5,163.613 L415.5,210.606 M416.5,116.287 L416.5,198.331 M417.5,110.284 L417.5,146.808 M418.5,119.846 L418.5,182.223 M419.5,159.199 L419.5,207.317 M420.5,174.167 L420.5,222.86 M421.5,185.027 L421.5,234.75 M422.5,160.493 L422.5,212.412 M423.5,118.452 L423.5,176.759 M424.5,120.896 L424.5,162.198 M425.5,130.684 L425.5,158.518 M426.5,136.349 L426.5,172.884 M427.5,157.932 L427.5,213.747 M428.5,194.461 L428.5,229.977 M429.5,163.206 L429.5,228.667 M430.5,156.47 L430.5,199.002 M431.5,116.06 L431.5,162.14 M432.5,125.162 L432.5,170.587 M433.5,132.532 L433.5,179.737 M434.5,166.29 L434.5,203.59 M435.5,176.331 L435.5,205.068 M436.5,178.169 L436.5,214.344 M437.5,176.03 L437.5,209.804 M438.5,144.659 L438.5,185.592 M439.5,135.093 L439.5,162.911 M440.5,141.962 L440.5,164.827 M441.5,144.19 L441.5,170.909 M442.5,154.242 L442.5,190.576 M443.5,167.462 L443.5,192.973 M444.5,168.671 L444.5,208.204 M445.5,130.864 L445.5,213.668 M446.5,112.301 L446.5,194.847 M447.5,131.429 L447.5,229.1 M448.5,158.846 L448.5,238.414 M449.5,162.684 L449.5,232.368 M450.5,169.684 L450.5,225.663 M451.5,136.107 L451.5,178.507 M452.5,128.087 L452.5,148.836 M453.5,126.64 L453.5,140.716 M454.5,130.172 L454.5,160.139 M455.5,159.859 L455.5,222.886 M456.5,205.369 L456.5,238.741 M457.5,198.548 L457.5,227.29 M458.5,163.682 L458.5,207.634 M459.5,125.03 L459.5,175.291 M460.5,123.267 L460.5,133.778 M461.5,131.323 L461.5,175.212 M462.5,164.12 L462.5,210.215 M463.5,181.094 L463.5,226.223 M464.5,189.382 L464.5,223.43 M465.5,166.717 L465.5,202.022 M466.5,123.378 L466.5,173.227 M467.5,129.555 L467.5,158.376 M468.5,133.889 L468.5,165.804 M469.5,134.364 L469.5,168.227 M470.5,157.526 L470.5,212.053 M471.5,200.57 L471.5,229.032 M472.5,170.973 L472.5,218.647 M473.5,147.722 L473.5,191.917 M474.5,129.75 L474.5,163.444 M475.5,130.948 L475.5,154.965 M476.5,143.662 L476.5,175.17 M477.5,169.51 L477.5,207.032 M478.5,181.067 L478.5,207.961 M479.5,183.327 L479.5,206.794 M480.5,171.886 L480.5,203.236 M481.5,149.184 L481.5,181.511 M482.5,139.771 L482.5,161.902 M483.5,141.449 L483.5,161.723 M484.5,144.881 L484.5,173.887 M485.5,159.696 L485.5,202.064 M486.5,185.671 L486.5,219.671 M487.5,175.339 L487.5,214.001 M488.5,158.043 L488.5,195.808 M489.5,149.569 L489.5,177.625 M490.5,143.794 L490.5,162.974 M491.5,147.685 L491.5,165.202 M492.5,158.36 L492.5,186.737 M493.5,170.355 L493.5,191.146 M494.5,176.025 L494.5,200.496 M495.5,179.615 L495.5,203.072 M496.5,150.694 L496.5,198.189 M497.5,152.273 L497.5,172.134 M498.5,141.798 L498.5,166.897 M499.5,147.674 L499.5,172.25 M500.5,159.611 L500.5,183.369 M501.5,171.775 L501.5,194.467 M502.5,168.296 L502.5,199.519 M503.5,172.118 L503.5,195.897 M504.5,167.092 L504.5,183.712 M505.5,156.396 L505.5,176.284 M506.5,153.735 L506.5,165.482 M507.5,156.121 L507.5,168.808 M508.5,159.189 L508.5,180.65 M509.5,168.085 L509.5,189.747 M510.5,177.086 L510.5,193.083 M511.5,169.521 L511.5,194.741 M512.5,165.64 L512.5,191.299 M513.5,154.997 L513.5,178.734 M514.5,151.987 L514.5,167.715 M515.5,152.764 L515.5,173.612 M516.5,162.795 L516.5,186.215 M517.5,171.754 L517.5,184.351 M518.5,166.591 L518.5,187.017 M519.5,173.729 L519.5,187.302 M520.5,170.297 L520.5,186.764 M521.5,165.128 L521.5,180.898 M522.5,160.102 L522.5,174.098 M523.5,159.659 L523.5,170.17 M524.5,160.762 L524.5,172.641 M525.5,165.841 L525.5,183.622 M526.5,169.843 L526.5,188.136 M527.5,173.37 L527.5,189.726 M528.5,170.128 L528.5,183.047 M529.5,163.096 L529.5,175.904 M530.5,160.572 L530.5,170.049 M531.5,163.787 L531.5,174.13 M532.5,164.933 L532.5,177.546 M533.5,169.595 L533.5,180.798 M534.5,169.98 L534.5,179.367 M535.5,173.871 L535.5,180.101 M536.5,172.198 L536.5,181.347 M537.5,171.268 L537.5,183.522 M538.5,166.87 L538.5,177.329 M539.5,159.917 L539.5,171.77 M540.5,162.272 L540.5,172.541 M541.5,168.301 L541.5,178.586 M542.5,173.127 L542.5,183.39 M543.5,173.211 L543.5,182.107 M544.5,171.152 L544.5,180.112 M545.5,167.193 L545.5,178.269 M546.5,167.229 L546.5,174.932 M547.5,163.66 L547.5,174.484 M548.5,163.629 L548.5,172.382 M549.5,169.911 L549.5,176.548 M550.5,170.582 L550.5,179.705 M551.5,169.959 L551.5,181.88 M552.5,171.796 L552.5,179.61 M553.5,169.288 L553.5,179.24 M554.5,168.528 L554.5,174.172 M555.5,167.852 L555.5,173.586 M556.5,164.236 L556.5,174.584 M557.5,167.895 L557.5,175.006 M558.5,170.466 L558.5,178.797 M559.5,171.2 L559.5,178.755 M560.5,172.752 L560.5,178.137 M561.5,171.627 L561.5,176.495 M562.5,168.993 L562.5,177.144 M563.5,169.083 L563.5,174.093 M564.5,166.596 L564.5,173.079 M565.5,168.972 L565.5,174.172 M566.5,171.173 L566.5,178.427 M567.5,172.43 L567.5,178.47 M568.5,172.736 L568.5,178.639 M569.5,169.373 L569.5,177.657 M570.5,166.306 L570.5,173.924 M571.5,150.018 L571.5,194.683 M572.5,146.449 L572.5,222.512 M573.5,157.499 L573.5,213.478 M574.5,106.599 L574.5,212.56 M575.5,121.53 L575.5,192.033 M576.5,120.696 L576.5,237.743 M577.5,161.179 L577.5,242.305 M578.5,198.437 L578.5,249.464 M579.5,143.862 L579.5,213.045 M580.5,130.632 L580.5,176.991 M581.5,104.751 L581.5,155.303 M582.5,115.474 L582.5,155.519 M583.5,133.451 L583.5,204.63 M584.5,188.173 L584.5,236.022 M585.5,202.328 L585.5,241.951 M586.5,164.975 L586.5,228.192 M587.5,125.305 L587.5,198.136 M588.5,115.062 L588.5,157.795 M589.5,110.717 L589.5,159.125 M590.5,140.119 L590.5,205.137 M591.5,169.954 L591.5,216.598 M592.5,177.614 L592.5,234.163 M593.5,181.526 L593.5,229.127 M594.5,149.427 L594.5,192.027 M595.5,123.103 L595.5,168.592 M596.5,131.133 L596.5,158.539 M597.5,137.421 L597.5,157.061 M598.5,141.676 L598.5,182.931 M598.5,162.304 L599.5,208.112 L599.5,184.034 L599.5,232.189 L599.5,208.112 M600.5,189.134 L600.5,228.594 M601.5,159.02 L601.5,201.019 M602.5,118.093 L602.5,179.446 M603.5,120.178 L603.5,152.141 M604.5,128.546 L604.5,174.679 M605.5,144.818 L605.5,191.727 M606.5,170.471 L606.5,202.798 M607.5,178.57 L607.5,210.865 M608.5,179.077 L608.5,217.359 M609.5,152.621 L609.5,202.154 M610.5,133.91 L610.5,172.456 M611.5,140.964 L611.5,166.606 M612.5,142.885 L612.5,168.586 M613.5,139.306 L613.5,184.451 M614.5,170.138 L614.5,191.584 M615.5,167.092 L615.5,202.988 M616.5,151.148 L616.5,196.277 M617.5,104.904 L617.5,224 M618.5,133.224 L618.5,187.461 M619.5,142.569 L619.5,237.22 M620.5,160.181 L620.5,230.098 M621.5,195.317 L621.5,234.074 M622.5,153.445 L622.5,203.637 M623.5,127.818 L623.5,163.792 M624.5,125.59 L624.5,140.13 M625.5,130.267 L625.5,145.356 M626.5,143.625 L626.5,201.863 M627.5,201.356 L627.5,242.447 M628.5,209.967 L628.5,231.978 M629.5,164.305 L629.5,215.363 M630.5,130.764 L630.5,196.177 M631.5,124.708 L631.5,135.093 M632.5,125.922 L632.5,160.783 M633.5,155.694 L633.5,200.237 M634.5,182.603 L634.5,224.555 M635.5,183.084 L635.5,221.63 M636.5,175.265 L636.5,216.884 M637.5,145.314 L637.5,185.307 M638.5,131.867 L638.5,162.05 M639.5,128.393 L639.5,166.876 M640.5,133.05 L640.5,153.893 M641.5,147.722 L641.5,189.224 M642.5,182.936 L642.5,228.858 M643.5,187.63 L643.5,224.412 M644.5,168.602 L644.5,201.795 M645.5,126.508 L645.5,171.004 M646.5,131.234 L646.5,153.978 M647.5,132.817 L647.5,170.857 M648.5,146.798 L648.5,198.41 M649.5,176.564 L649.5,208.489 M650.5,179.9 L650.5,206.525 M651.5,181.368 L651.5,203.273 M652.5,154.923 L652.5,189.731 M653.5,140.203 L653.5,165.155 M654.5,139.971 L654.5,161.005 M655.5,143.076 L655.5,164.811 M656.5,150.984 L656.5,190.338 M657.5,172.736 L657.5,219.993 M658.5,185.502 L658.5,214.175 M659.5,168.069 L659.5,193.464 M660.5,157.542 L660.5,179.483 M661.5,148.096 L661.5,166.96 M662.5,143.318 L662.5,163.338 M663.5,152.304 L663.5,181.5 M664.5,168.676 L664.5,189.213 M665.5,175.418 L665.5,195.67 M666.5,183.712 L666.5,201.066 M667.5,169.003 L667.5,201.304 M668.5,154.437 L668.5,178.575 M669.5,144.163 L669.5,167.14 M670.5,145.113 L670.5,168.201 M671.5,155.873 L671.5,180.386 M672.5,163.94 L672.5,188.411 M673.5,169.109 L673.5,199.593 M674.5,176.875 L674.5,194.372 M675.5,171.511 L675.5,191.399 M676.5,163.455 L676.5,176.532 M677.5,157.251 L677.5,173.612 M678.5,152.795 L678.5,168.291 M679.5,158.492 L679.5,173.417 M680.5,167.193 L680.5,188.68 M681.5,166.585 L681.5,186.088 M682.5,180.539 L682.5,196.219 M683.5,170.175 L683.5,191.737 M684.5,156.206 L684.5,182.213 M684.5,169.209"/>
</g>

<g fill="none" stroke="#0000c0" stroke-opacity="1" stroke-width="1" stroke-linecap="square" stroke-linejoin="bevel" transform="matrix(1,0,0,1,0,0)"
font-family="Segoe UI" font-size="9" font-weight="400" font-style="normal" 
>
<path vector-effect="non-scaling-stroke" fill-rule="evenodd" d="M57.5,174.488 L57.5,171.512 M58.5,177.194 L58.5,168.806 M59.5,179.32 L59.5,166.68 M60.5,178.068 L60.5,167.932 M61.5,182.965 L61.5,163.035 M62.5,184.414 L62.5,161.586 M63.5,182.167 L63.5,163.833 M64.5,180.945 L64.5,165.055 M65.5,180.548 L65.5,165.452 M66.5,181.67 L66.5,164.33 M67.5,181.176 L67.5,164.824 M68.5,182.038 L68.5,163.962 M69.5,182.664 L69.5,163.336 M70.5,180.706 L70.5,165.294 M71.5,181.15 L71.5,164.85 M72.5,178.597 L72.5,167.403 M73.5,180.58 L73.5,165.42 M74.5,181.112 L74.5,164.888 M75.5,181.502 L75.5,164.498 M76.5,180.421 L76.5,165.579 M77.5,179.453 L77.5,166.547 M78.5,180.158 L78.5,165.842 M79.5,180.064 L79.5,165.936 M80.5,179.937 L80.5,166.063 M81.5,178.564 L81.5,167.436 M82.5,179.542 L82.5,166.458 M83.5,181.339 L83.5,164.661 M84.5,179.615 L84.5,166.385 M85.5,179.554 L85.5,166.446 M86.5,177.635 L86.5,168.365 M87.5,177.726 L87.5,168.274 M88.5,177.458 L88.5,168.542 M89.5,180.886 L89.5,165.114 M90.5,180.2 L90.5,165.8 M91.5,179.139 L91.5,166.861 M92.5,177.728 L92.5,168.272 M93.5,178.746 L93.5,167.254 M94.5,177.392 L94.5,168.608 M95.5,179.535 L95.5,166.465 M96.5,180.619 L96.5,165.381 M97.5,177.096 L97.5,168.904 M98.5,177.216 L98.5,168.784 M99.5,177.333 L99.5,168.667 M100.5,178.024 L100.5,167.976 M101.5,177.308 L101.5,168.692 M102.5,177.995 L102.5,168.005 M103.5,178.069 L103.5,167.931 M104.5,176.567 L104.5,169.433 M105.5,178.174 L105.5,167.826 M106.5,178.243 L106.5,167.757 M107.5,177.488 L107.5,168.512 M108.5,178.811 L108.5,167.189 M109.5,177.977 L109.5,168.023 M110.5,176.985 L110.5,169.015 M111.5,176.697 L111.5,169.303 M112.5,177.977 L112.5,168.023 M113.5,178.028 L113.5,167.972 M114.5,176.676 L114.5,169.324 M115.5,176.614 L115.5,169.386 M116.5,177.387 L116.5,168.613 M117.5,178.162 L117.5,167.838 M118.5,178.442 L118.5,167.558 M119.5,177.692 L119.5,168.308 M120.5,178.406 L120.5,167.594 M121.5,177.944 L121.5,168.056 M122.5,179.572 L122.5,166.428 M123.5,178.072 L123.5,167.928 M124.5,178.534 L124.5,167.466 M125.5,177.444 L125.5,168.556 M126.5,177.595 L126.5,168.405 M127.5,179.093 L127.5,166.907 M128.5,177.486 L128.5,168.514 M129.5,178.849 L129.5,167.151 M130.5,178.95 L130.5,167.05 M131.5,178.244 L131.5,167.756 M132.5,177.69 L132.5,168.31 M133.5,178.388 L133.5,167.612 M134.5,178.206 L134.5,167.794 M135.5,178.639 L135.5,167.361 M136.5,177.936 L136.5,168.064 M137.5,179.575 L137.5,166.425 M138.5,178.501 L138.5,167.499 M139.5,177.262 L139.5,168.738 M140.5,177.24 L140.5,168.76 M141.5,178.363 L141.5,167.637 M142.5,178.536 L142.5,167.464 M143.5,178.308 L143.5,167.692 M144.5,178.093 L144.5,167.907 M145.5,177.1 L145.5,168.9 M146.5,179.213 L146.5,166.787 M147.5,178.239 L147.5,167.761 M148.5,178.906 L148.5,167.094 M149.5,176.761 L149.5,169.239 M150.5,178.923 L150.5,167.077 M151.5,178.918 L151.5,167.082 M152.5,177.491 L152.5,168.509 M153.5,179.523 L153.5,166.477 M154.5,177.517 L154.5,168.483 M155.5,177.957 L155.5,168.043 M156.5,178.706 L156.5,167.294 M157.5,177.873 L157.5,168.127 M158.5,177.677 L158.5,168.323 M159.5,179.305 L159.5,166.695 M160.5,178.267 L160.5,167.733 M161.5,178.652 L161.5,167.348 M162.5,179.157 L162.5,166.843 M163.5,177.118 L163.5,168.882 M164.5,178.987 L164.5,167.013 M165.5,179.013 L165.5,166.987 M166.5,176.971 L166.5,169.029 M167.5,177.874 L167.5,168.126 M168.5,177.487 L168.5,168.513 M169.5,178.555 L169.5,167.445 M170.5,179.43 L170.5,166.57 M171.5,178.905 L171.5,167.095 M172.5,177.842 L172.5,168.158 M173.5,178.676 L173.5,167.324 M174.5,177.627 L174.5,168.373 M175.5,177.039 L175.5,168.961 M176.5,178.535 L176.5,167.465 M177.5,178.999 L177.5,167.001 M178.5,178.749 L178.5,167.251 M179.5,177.497 L179.5,168.503 M180.5,176.883 L180.5,169.117 M181.5,176.109 L181.5,169.891 M182.5,178.558 L182.5,167.442 M183.5,175.965 L183.5,169.989 M184.5,178.075 L184.5,167.925 M185.5,177.652 L185.5,168.348 M186.5,178.14 L186.5,167.86 M187.5,180.599 L187.5,165.401 M188.5,177.057 L188.5,168.943 M189.5,178.291 L189.5,167.709 M190.5,178.5 L190.5,167.5 M191.5,176.135 L191.5,169.865 M192.5,177.785 L192.5,168.215 M193.5,177.524 L193.5,168.476 M194.5,178.552 L194.5,167.448 M195.5,175.872 L195.5,170.128 M196.5,178.571 L196.5,167.429 M197.5,178.347 L197.5,167.653 M198.5,176.577 L198.5,169.423 M199.5,176.609 L199.5,169.391 M200.5,176.762 L200.5,169.238 M201.5,176.902 L201.5,169.098 M202.5,177.057 L202.5,168.943 M203.5,177.374 L203.5,168.626 M204.5,176.793 L204.5,169.207 M205.5,177.395 L205.5,168.605 M206.5,177.793 L206.5,168.207 M207.5,176.536 L207.5,169.464 M208.5,177.269 L208.5,168.731 M209.5,176.723 L209.5,169.277 M210.5,176.035 L210.5,169.965 M211.5,176.495 L211.5,169.505 M212.5,177.212 L212.5,168.788 M213.5,177.162 L213.5,168.838 M214.5,176.959 L214.5,169.041 M215.5,177.55 L215.5,168.45 M216.5,177.499 L216.5,168.501 M217.5,175.85 L217.5,170.15 M218.5,177.045 L218.5,168.955 M219.5,178.099 L219.5,167.901 M220.5,177.692 L220.5,168.308 M221.5,178.094 L221.5,167.906 M222.5,177.477 L222.5,168.523 M223.5,176.309 L223.5,169.691 M224.5,176.325 L224.5,169.675 M225.5,176.175 L225.5,169.825 M226.5,178.35 L226.5,167.65 M227.5,178.962 L227.5,167.038 M228.5,183.748 L228.5,162.252 M229.5,189.746 L229.5,166.413 M230.5,198.406 L230.5,147.594 M231.5,186.73 L231.5,142.627 M232.5,200.471 L232.5,145.529 M233.5,200.181 L233.5,158.652 M234.5,217.585 L234.5,190.013 M235.5,186.87 L235.5,159.13 M236.5,169.698 L236.5,141.691 M237.5,156.198 L237.5,137.159 M238.5,156.895 L238.5,135.16 M239.5,191.885 L239.5,154.115 M240.5,219.269 L240.5,192.901 M241.5,225.147 L241.5,188.682 M242.5,197.945 L242.5,166.429 M243.5,193.71 L243.5,152.29 M244.5,149.245 L244.5,128.809 M245.5,160.443 L245.5,134.774 M246.5,185.832 L246.5,160.168 M247.5,199.67 L247.5,182.542 M248.5,207.427 L248.5,182.336 M249.5,198.129 L249.5,175.209 M250.5,182.32 L250.5,163.68 M251.5,178.895 L251.5,146.268 M252.5,164.603 L252.5,145.019 M253.5,153.384 L253.5,142.094 M254.5,187.904 L254.5,158.096 M255.5,212.458 L255.5,175.415 M256.5,207.468 L256.5,186.544 M257.5,184.832 L257.5,169.65 M258.5,177.459 L258.5,155.654 M259.5,159.831 L259.5,136.627 M260.5,171.34 L260.5,145.951 M261.5,181.06 L261.5,164.94 M262.5,192.284 L262.5,173.467 M263.5,194.257 L263.5,174.512 M264.5,196.127 L264.5,187.352 M265.5,182.672 L265.5,163.328 M266.5,162.407 L266.5,153.239 M267.5,166.235 L267.5,149.974 M268.5,169.54 L268.5,154.1 M269.5,183.645 L269.5,162.355 M270.5,195.574 L270.5,175.806 M271.5,184.898 L271.5,171.645 M272.5,180.55 L272.5,170.061 M273.5,186.072 L273.5,175.79 M274.5,201.172 L274.5,144.828 M275.5,182.538 L275.5,145.847 M276.5,191.102 L276.5,154.898 M277.5,194.652 L277.5,158.974 M278.5,217.412 L278.5,199.907 M279.5,185.935 L279.5,161.007 M280.5,163.785 L280.5,145.761 M281.5,138.454 L281.5,131.901 M282.5,143.401 L282.5,134.881 M283.5,184.613 L283.5,154.935 M284.5,218.505 L284.5,195.472 M285.5,226.171 L285.5,213.655 M286.5,202.151 L286.5,168.272 M287.5,187.499 L287.5,158.501 M288.5,140.703 L288.5,129.634 M289.5,150.227 L289.5,133.344 M290.5,184.028 L290.5,161.972 M291.5,196.424 L291.5,176.693 M292.5,209.363 L292.5,183.846 M293.5,198.684 L293.5,179.332 M294.5,182.636 L294.5,163.364 M295.5,158.083 L295.5,145.581 M296.5,157.935 L296.5,147.295 M297.5,149.826 L297.5,142.171 M298.5,185.222 L298.5,160.778 M299.5,209.786 L299.5,178.034 M300.5,210.772 L300.5,187.706 M301.5,185.062 L301.5,170.51 M302.5,175.067 L302.5,156.889 M303.5,149.388 L303.5,137.271 M304.5,168.816 L304.5,146.636 M305.5,181.082 L305.5,164.918 M306.5,189.858 L306.5,175.716 M307.5,193.297 L307.5,179.29 M308.5,196.457 L308.5,182.632 M309.5,182.169 L309.5,163.831 M310.5,165.538 L310.5,153.06 M311.5,160.781 L311.5,149.384 M312.5,162.608 L312.5,153.153 M313.5,183.261 L313.5,161.264 M314.5,194.773 L314.5,175.684 M315.5,201.998 L315.5,191.465 M316.5,183.946 L316.5,166.44 M317.5,179.983 L317.5,165.355 M318.5,164.45 L318.5,157.215 M319.5,163.151 L319.5,153.33 M320.5,176.419 L320.5,160.557 M321.5,180.263 L321.5,169.618 M322.5,182.989 L322.5,173.092 M323.5,191.438 L323.5,184.052 M324.5,187.063 L324.5,169.856 M325.5,180.385 L325.5,165.615 M326.5,164.846 L326.5,156.957 M327.5,166.779 L327.5,154.75 M328.5,177.206 L328.5,164.397 M329.5,179.516 L329.5,166.484 M330.5,184.429 L330.5,172.596 M331.5,187.063 L331.5,175.552 M332.5,182.262 L332.5,170.764 M333.5,176.962 L333.5,169.038 M334.5,172.021 L334.5,162.436 M335.5,167 L335.5,159.217 M336.5,173.568 L336.5,165.257 M337.5,176.654 L337.5,169.346 M338.5,181.973 L338.5,166.033 M339.5,187.675 L339.5,181.127 M340.5,183.013 L340.5,171.888 M341.5,178.154 L341.5,167.846 M342.5,167.106 L342.5,161.568 M343.5,167.919 L343.5,160.672 M344.5,178.494 L344.5,167.506 M345.5,177.183 L345.5,168.817 M346.5,178.459 L346.5,173.06 M347.5,179.965 L347.5,171.244 M348.5,180.275 L348.5,172.226 M349.5,177.524 L349.5,168.72 M350.5,173.447 L350.5,168.54 M351.5,167.312 L351.5,163.909 M352.5,169.867 L352.5,165.088 M353.5,177.306 L353.5,168.405 M354.5,179.923 L354.5,171.223 M355.5,183.653 L355.5,173.578 M356.5,179.255 L356.5,174.153 M357.5,176.529 L357.5,169.471 M358.5,173.637 L358.5,167.412 M359.5,168.948 L359.5,165.271 M360.5,176.451 L360.5,167.367 M361.5,175.771 L361.5,170.229 M362.5,176.692 L362.5,171.461 M363.5,176.586 L363.5,171.587 M364.5,177.359 L364.5,174.048 M365.5,177.258 L365.5,173.097 M366.5,175.391 L366.5,170.609 M367.5,171.366 L367.5,167.614 M368.5,171.963 L368.5,166.951 M369.5,172.908 L369.5,169.597 M370.5,175.614 L370.5,170.563 M371.5,179.117 L371.5,175.32 M372.5,178.452 L372.5,172.274 M373.5,176.145 L373.5,171.049 M374.5,173.637 L374.5,170.831 M375.5,172.143 L375.5,169.604 M376.5,173.975 L376.5,168.126 M377.5,172.94 L377.5,170.554 M378.5,175.657 L378.5,173.113 M379.5,177.194 L379.5,173.277 M380.5,176.275 L380.5,170.547 M381.5,176.35 L381.5,171.043 M382.5,175.15 L382.5,170.85 M383.5,172.243 L383.5,170.272 M384.5,174.867 L384.5,169.335 M385.5,174.962 L385.5,170.801 M386.5,175.007 L386.5,171.191 M387.5,175.423 L387.5,171.397 M388.5,175.774 L388.5,171.55 M389.5,175.301 L389.5,172.384 M390.5,174.46 L390.5,171.195 M391.5,175.258 L391.5,170.742 M392.5,172.776 L392.5,170.183 M393.5,172.327 L393.5,169.225 M394.5,173.811 L394.5,171.39 M395.5,176.196 L395.5,172.928 M396.5,176.674 L396.5,174.333 M397.5,175.678 L397.5,170.985 M398.5,174.64 L398.5,170.962 M399.5,178.393 L399.5,167.607 M400.5,182.723 L400.5,163.277 M401.5,188.088 L401.5,157.912 M402.5,193.871 L402.5,152.129 M403.5,185.267 L403.5,139.089 M404.5,193.746 L404.5,152.254 M405.5,198.873 L405.5,147.127 M406.5,203.821 L406.5,168.288 M407.5,205.37 L407.5,167.554 M408.5,185.042 L408.5,160.958 M409.5,161.267 L409.5,140.128 M410.5,154.176 L410.5,128.29 M411.5,165.559 L411.5,140.995 M412.5,197.626 L412.5,153.172 M413.5,223.109 L413.5,197.684 M414.5,218.147 L414.5,199.014 M415.5,192.706 L415.5,164.613 M416.5,197.331 L416.5,139.85 M417.5,145.808 L417.5,127.837 M418.5,181.223 L418.5,147.164 M419.5,188.144 L419.5,160.199 M420.5,201.416 L420.5,175.167 M421.5,209.996 L421.5,186.027 M422.5,189.853 L422.5,161.493 M423.5,175.759 L423.5,154.517 M424.5,161.198 L424.5,143.1 M425.5,157.518 L425.5,145.979 M426.5,171.884 L426.5,148.709 M427.5,186.732 L427.5,159.268 M428.5,217.062 L428.5,195.461 M429.5,199.989 L429.5,164.206 M430.5,181.37 L430.5,164.63 M431.5,161.14 L431.5,142.789 M432.5,169.587 L432.5,139.264 M433.5,178.737 L433.5,154.055 M434.5,183.988 L434.5,167.29 M435.5,192.653 L435.5,177.331 M436.5,195.298 L436.5,179.169 M437.5,191.017 L437.5,177.03 M438.5,184.46 L438.5,161.54 M439.5,161.911 L439.5,149.299 M440.5,163.827 L440.5,152.263 M441.5,169.909 L441.5,157.055 M442.5,181.507 L442.5,164.493 M443.5,178.078 L443.5,168.462 M444.5,185.248 L444.5,169.671 M445.5,192.945 L445.5,153.055 M446.5,193.847 L446.5,140.827 M447.5,189.338 L447.5,156.662 M448.5,201.645 L448.5,159.846 M449.5,205.561 L449.5,163.684 M450.5,202.3 L450.5,170.684 M451.5,177.507 L451.5,159.157 M452.5,147.836 L452.5,135.186 M453.5,139.716 L453.5,133.001 M454.5,159.139 L454.5,142.909 M455.5,197.451 L455.5,160.859 M456.5,228.611 L456.5,206.369 M457.5,214.435 L457.5,199.548 M458.5,185.444 L458.5,164.682 M459.5,174.291 L459.5,139.44 M460.5,132.778 L460.5,128.27 M461.5,174.212 L461.5,152.138 M462.5,188.232 L462.5,165.12 M463.5,205.223 L463.5,182.094 M464.5,208.183 L464.5,190.382 M465.5,184.845 L465.5,167.717 M466.5,172.227 L466.5,152.656 M467.5,157.376 L467.5,145.525 M468.5,164.804 L468.5,145.081 M469.5,167.227 L469.5,149.017 M470.5,192.39 L470.5,158.526 M471.5,217.648 L471.5,201.57 M472.5,195.271 L472.5,171.973 M473.5,181.07 L473.5,164.93 M474.5,162.444 L474.5,144.2 M475.5,153.965 L475.5,137.722 M476.5,174.17 L476.5,159.374 M477.5,186.048 L477.5,170.51 M478.5,192.326 L478.5,182.067 M479.5,196.966 L479.5,184.327 M480.5,188.386 L480.5,172.886 M481.5,180.511 L481.5,159.857 M482.5,160.902 L482.5,149.79 M483.5,160.723 L483.5,151.916 M484.5,172.887 L484.5,157.309 M485.5,186.481 L485.5,160.696 M486.5,204.392 L486.5,186.671 M487.5,194.182 L487.5,176.339 M488.5,180.904 L488.5,165.096 M489.5,176.625 L489.5,161.625 M490.5,161.974 L490.5,153.566 M491.5,164.202 L491.5,156.348 M492.5,179.992 L492.5,166.008 M493.5,181.974 L493.5,171.355 M494.5,189.045 L494.5,177.025 M495.5,192.342 L495.5,180.615 M496.5,181.653 L496.5,164.347 M497.5,171.134 L497.5,160.902 M498.5,165.897 L498.5,154.731 M499.5,171.25 L499.5,159.104 M500.5,178.924 L500.5,167.076 M501.5,183.655 L501.5,172.775 M502.5,186.597 L502.5,169.296 M503.5,184.645 L503.5,173.118 M504.5,177.533 L504.5,168.467 M505.5,175.284 L505.5,166.856 M506.5,164.482 L506.5,160.086 M507.5,167.808 L507.5,162.899 M508.5,178.477 L508.5,167.523 M509.5,178.439 L509.5,169.085 M510.5,185.167 L510.5,178.086 M511.5,186.332 L511.5,170.521 M512.5,178.332 L512.5,167.668 M513.5,177.734 L513.5,163.969 M514.5,166.715 L514.5,160.538 M515.5,172.612 L515.5,165.034 M516.5,177.8 L516.5,168.2 M517.5,178.016 L517.5,172.754 M518.5,179.609 L518.5,167.591 M519.5,180.77 L519.5,174.729 M520.5,178.52 L520.5,171.297 M521.5,177.186 L521.5,168.814 M522.5,173.098 L522.5,165.232 M523.5,169.17 L523.5,164.047 M524.5,171.641 L524.5,166.471 M525.5,177.245 L525.5,168.755 M526.5,182.431 L526.5,170.843 M527.5,181.24 L527.5,174.37 M528.5,177.373 L528.5,171.128 M529.5,174.904 L529.5,169.241 M530.5,169.049 L530.5,165.237 M531.5,173.13 L531.5,166.183 M532.5,176.296 L532.5,169.704 M533.5,176.408 L533.5,170.595 M534.5,176.322 L534.5,170.98 M535.5,176.765 L535.5,174.871 M536.5,177.619 L536.5,173.198 M537.5,176.314 L537.5,172.268 M538.5,176.329 L538.5,169.469 M539.5,170.77 L539.5,166.24 M540.5,171.541 L540.5,167.721 M541.5,175.448 L541.5,170.552 M542.5,177.8 L542.5,174.127 M543.5,178.693 L543.5,174.211 M544.5,176.534 L544.5,172.152 M545.5,175.335 L545.5,170.665 M546.5,173.932 L546.5,169.606 M547.5,173.484 L547.5,168.661 M548.5,171.382 L548.5,168.899 M549.5,174.917 L549.5,171.083 M550.5,176.312 L550.5,171.582 M551.5,176.502 L551.5,170.959 M552.5,176.047 L552.5,172.796 M553.5,175.935 L553.5,170.288 M554.5,173.172 L554.5,170.734 M555.5,172.586 L555.5,169.999 M556.5,173.584 L556.5,170.41 M557.5,174.006 L557.5,170.981 M558.5,175.596 L558.5,171.466 M559.5,175.811 L559.5,172.2 M560.5,175.553 L560.5,173.752 M561.5,174.868 L561.5,172.627 M562.5,175.108 L562.5,170.892 M563.5,173.093 L563.5,170.918 M564.5,172.079 L564.5,169.473 M565.5,173.172 L565.5,170.501 M566.5,174.998 L566.5,172.173 M567.5,176.429 L567.5,173.43 M568.5,176.045 L568.5,173.736 M569.5,175.157 L569.5,170.843 M570.5,172.924 L570.5,170.586 M571.5,182.257 L571.5,163.743 M572.5,187.841 L572.5,158.159 M573.5,191.328 L573.5,158.499 M574.5,206.97 L574.5,139.03 M575.5,191.033 L575.5,149.138 M576.5,197.66 L576.5,148.34 M577.5,193.606 L577.5,162.179 M578.5,218.058 L578.5,199.437 M579.5,186.622 L579.5,159.378 M580.5,175.991 L580.5,150.3 M581.5,154.303 L581.5,132.104 M582.5,154.519 L582.5,131.826 M583.5,190.926 L583.5,155.074 M584.5,217.291 L584.5,189.173 M585.5,224.186 L585.5,203.328 M586.5,204.815 L586.5,165.975 M587.5,193.042 L587.5,152.958 M588.5,156.795 L588.5,131.334 M589.5,158.125 L589.5,130.786 M590.5,183.736 L590.5,162.264 M591.5,198.433 L591.5,170.954 M592.5,208.165 L592.5,178.614 M593.5,201.326 L593.5,182.526 M594.5,184.334 L594.5,161.666 M595.5,167.592 L595.5,144.08 M596.5,157.539 L596.5,145.964 M597.5,156.061 L597.5,142.962 M598.5,181.931 L598.5,161.71 M599.5,207.485 L599.5,185.034 M600.5,212.111 L600.5,190.134 M601.5,184.627 L601.5,161.373 M602.5,178.446 L602.5,154.446 M603.5,151.141 L603.5,138.682 M604.5,173.679 L604.5,146.737 M605.5,182.608 L605.5,163.392 M606.5,189.264 L606.5,171.471 M607.5,194.575 L607.5,179.57 M608.5,195.977 L608.5,180.077 M609.5,182.696 L609.5,163.304 M610.5,171.456 L610.5,152.24 M611.5,165.606 L611.5,150.078 M612.5,167.586 L612.5,153.701 M613.5,183.451 L613.5,161.391 M614.5,179.154 L614.5,171.138 M615.5,182.597 L615.5,168.092 M616.5,185.566 L616.5,160.434 M617.5,204.829 L617.5,141.171 M618.5,186.461 L618.5,150.235 M619.5,193.991 L619.5,152.009 M620.5,200.648 L620.5,161.181 M621.5,214.974 L621.5,196.317 M622.5,185.018 L622.5,160.982 M623.5,162.792 L623.5,143.586 M624.5,139.13 L624.5,132.188 M625.5,144.356 L625.5,136.086 M626.5,190.04 L626.5,155.96 M627.5,221.996 L627.5,202.356 M628.5,223.802 L628.5,210.967 M629.5,197.743 L629.5,165.305 M630.5,190.82 L630.5,155.18 M631.5,134.093 L631.5,128.368 M632.5,159.783 L632.5,135.939 M633.5,182.963 L633.5,163.037 M634.5,199.195 L634.5,183.603 M635.5,208.162 L635.5,184.084 M636.5,194.517 L636.5,176.265 M637.5,184.273 L637.5,161.727 M638.5,161.05 L638.5,144.913 M639.5,165.876 L639.5,146.82 M640.5,152.893 L640.5,142.385 M641.5,185.114 L641.5,160.886 M642.5,212.975 L642.5,183.936 M643.5,207.849 L643.5,188.63 M644.5,181.511 L644.5,169.602 M645.5,170.004 L645.5,153.157 M646.5,152.978 L646.5,138.43 M647.5,169.857 L647.5,147.738 M648.5,181.461 L648.5,164.539 M649.5,191.823 L649.5,177.564 M650.5,194.753 L650.5,180.9 M651.5,194.753 L651.5,182.368 M652.5,181.672 L652.5,164.328 M653.5,164.155 L653.5,151.873 M654.5,160.005 L654.5,151.19 M655.5,163.811 L655.5,152.516 M656.5,183.019 L656.5,162.981 M657.5,197.98 L657.5,173.736 M658.5,201.747 L658.5,186.502 M659.5,182.598 L659.5,169.069 M660.5,178.483 L660.5,164.173 M661.5,165.96 L661.5,156.945 M662.5,162.338 L662.5,153.654 M663.5,180.5 L663.5,161.804 M664.5,180.123 L664.5,169.676 M665.5,184.524 L665.5,176.418 M666.5,193.06 L666.5,184.712 M667.5,186.896 L667.5,170.003 M668.5,177.575 L668.5,165.36 M669.5,166.14 L669.5,156.387 M670.5,167.201 L670.5,156.123 M671.5,179.386 L671.5,165.422 M672.5,180.671 L672.5,165.329 M673.5,186.853 L673.5,170.109 M674.5,185.864 L674.5,177.875 M675.5,180.487 L675.5,172.511 M676.5,175.532 L676.5,169.433 M677.5,172.612 L677.5,162.511 M678.5,167.291 L678.5,160.498 M679.5,172.417 L679.5,165.433 M680.5,176.814 L680.5,169.186 M681.5,181.904 L681.5,167.585 M682.5,187.586 L682.5,181.539 M683.5,181.766 L683.5,171.175 M684.5,179.478 L684.5,166.522"/>
</g>

<g fill="none" stroke="#000080" stroke-opacity="1" stroke-width="1" stroke-linecap="square" stroke-linejoin="bevel" transform="matrix(1,0,0,1,0,0)"
font-family="Segoe UI" font-size="9" font-weight="400" font-style="normal" 
>
</g>

<g fill="none" stroke="#000000" stroke-opacity="1" stroke-width="1" stroke-linecap="square" stroke-linejoin="bevel" transform="matrix(1,0,0,1,0,0)"
font-family="Segoe UI" font-size="9" font-weight="400" font-style="normal" 
>
</g>

<g fill="#ffffff" fill-opacity="1" stroke="#ffffff" stroke-opacity="1" stroke-width="1" stroke-linecap="square" stroke-linejoin="bevel" transform="matrix(1,0,0,1,0,0)"
font-family="Segoe UI" font-size="9" font-weight="400" font-style="normal" 
>
<rect x="684" y="0" width="684" height="346"/>
</g>

<g fill="none" stroke="#000000" stroke-opacity="1" stroke-width="1" stroke-linecap="square" stroke-linejoin="bevel" transform="matrix(1,0,0,1,0,0)"
font-family="Segoe UI" font-size="9" font-weight="400" font-style="normal" 
>
</g>

<g fill="none" stroke="#0000c0" stroke-opacity="1" stroke-width="1" stroke-linecap="square" stroke-linejoin="bevel" transform="matrix(1,0,0,1,684,0)"
font-family="Segoe UI" font-size="9" font-weight="400" font-style="normal" 
>
<polyline fill="none" vector-effect="non-scaling-stroke" points="0,173.5 684,173.5 " />
</g>

<g fill="none" stroke="#000080" stroke-opacity="1" stroke-width="1" stroke-linecap="square" stroke-linejoin="bevel" transform="matrix(1,0,0,1,684,0)"
font-family="Segoe UI" font-size="9" font-weight="400" font-style="normal" 
>
<path vector-effect="non-scaling-stroke" fill-rule="evenodd" d="M0.5,156.206 L0.5,182.213 M1.5,153.006 L1.5,167.594 M2.5,155.884 L2.5,171.216 M3.5,160.883 L3.5,184.113 M4.5,163.365 L4.5,185.138 M5.5,172.129 L5.5,185.893 M6.5,167.456 L6.5,188.158 M7.5,177.261 L7.5,187.535 M7.5,182.398"/>
</g>

<g fill="none" stroke="#0000c0" stroke-opacity="1" stroke-width="1" stroke-linecap="square" stroke-linejoin="bevel" transform="matrix(1,0,0,1,684,0)"
font-family="Segoe UI" font-size="9" font-weight="400" font-style="normal" 
>
<path vector-effect="non-scaling-stroke" fill-rule="evenodd" d="M0.5,179.478 L0.5,166.522 M1.5,166.594 L1.5,161.295 M2.5,170.216 L2.5,162.245 M3.5,178.473 L3.5,167.527 M4.5,177.226 L4.5,168.774 M5.5,179.407 L5.5,173.129 M6.5,180.454 L6.5,168.456 M7.5,182.317 L7.5,178.261"/>
</g>

<g fill="none" stroke="#000080" stroke-opacity="1" stroke-width="1" stroke-linecap="square" stroke-linejoin="bevel" transform="matrix(1,0,0,1,684,0)"
font-family="Segoe UI" font-size="9" font-weight="400" font-style="normal" 
>
</g>

<g fill="none" stroke="#000000" stroke-opacity="1" stroke-width="1" stroke-linecap="square" stroke-linejoin="bevel" transform="matrix(1,0,0,1,0,0)"
font-family="Segoe UI" font-size="9" font-weight="400" font-style="normal" 
>
</g>
</g>
</svg>
