<?xml version="1.0" encoding="UTF-8" standalone="no"?>
<svg width="243.769mm" height="122.061mm"
 viewBox="0 0 691 346"
 xmlns="http://www.w3.org/2000/svg" xmlns:xlink="http://www.w3.org/1999/xlink" version="1.2" baseProfile="tiny">
<title>Exported image from Sonic Visualiser</title>
<desc>Generated with Qt</desc>
<defs>
</defs>
<g fill="none" stroke="black" stroke-width="1" fill-rule="evenodd" stroke-linecap="square" stroke-linejoin="bevel" >

<g fill="#ffffff" fill-opacity="1" stroke="#ffffff" stroke-opacity="1" stroke-width="1" stroke-linecap="square" stroke-linejoin="bevel" transform="matrix(1,0,0,1,0,0)"
font-family="Segoe UI" font-size="9" font-weight="400" font-style="normal" 
>
<rect x="0" y="0" width="684" height="346"/>
</g>

<g fill="none" stroke="#000000" stroke-opacity="1" stroke-width="1" stroke-linecap="square" stroke-linejoin="bevel" transform="matrix(1,0,0,1,0,0)"
font-family="Segoe UI" font-size="9" font-weight="400" font-style="normal" 
>
</g>

<g fill="none" stroke="#0000c0" stroke-opacity="1" stroke-width="1" stroke-linecap="square" stroke-linejoin="bevel" transform="matrix(1,0,0,1,0,0)"
font-family="Segoe UI" font-size="9" font-weight="400" font-style="normal" 
>
<polyline fill="none" vector-effect="non-scaling-stroke" points="0,173.5 684,173.5 " />
</g>

<g fill="none" stroke="#000080" stroke-opacity="1" stroke-width="1" stroke-linecap="square" stroke-linejoin="bevel" transform="matrix(1,0,0,1,0,0)"
font-family="Segoe UI" font-size="9" font-weight="400" font-style="normal" 
>
<path vector-effect="non-scaling-stroke" fill-rule="evenodd" d="M0.5,172.984 L0.5,173.021 M0.5,173.003 L1.5,173 L2.5,173 L3.5,172.997 L4.5,173 L5.5,173 L6.5,173 L7.5,173 L8.5,173 L9.5,173 L10.5,173 L11.5,173.003 L12.5,173 L13.5,172.997 L14.5,172.997 L15.5,173 L16.5,173 L17.5,173 L18.5,173 L19.5,173.003 L20.5,173 L21.5,173 L22.5,173 L23.5,173 L24.5,173 L25.5,172.997 L26.5,173 L27.5,173 L28.5,173 L29.5,173 L30.5,172.997 L31.5,173 L32.5,173 L33.5,172.997 L34.5,173 L35.5,172.997 L36.5,173 L37.5,172.995 L38.5,172.997 L39.5,173.003 L40.5,173.011 L41.5,172.992 L42.5,173.003 L43.5,172.995 L44.5,173 L45.5,173.016 L46.5,172.987 L47.5,172.984 L48.5,173.008 L49.5,173.008 L50.5,172.992 L51.5,173 L52.5,172.989 L53.5,172.995 L54.5,173.034 L55.5,172.992 M56.5,172.145 L56.5,173.597 M57.5,170.434 L57.5,176.062 M58.5,163.164 L58.5,184.525 M59.5,155.614 L59.5,192.624 M60.5,156.248 L60.5,188.189 M61.5,150.404 L61.5,204.683 M62.5,149.158 L62.5,202.117 M63.5,145.235 L63.5,191.368 M64.5,151.285 L64.5,186.463 M65.5,152.019 L65.5,198.643 M66.5,157.23 L66.5,201.404 M67.5,143.989 L67.5,193.632 M68.5,149.453 L68.5,194.577 M69.5,147.891 L69.5,195.121 M70.5,150.441 L70.5,194.836 M71.5,159.484 L71.5,193.68 M72.5,157.584 L72.5,185.365 M73.5,158.861 L73.5,198.199 M74.5,149.295 L74.5,190.834 M75.5,154.289 L75.5,190.422 M76.5,153.043 L76.5,186.495 M77.5,156.01 L77.5,185.074 M78.5,158.787 L78.5,184.911 M79.5,159.395 L79.5,197.777 M80.5,156.327 L80.5,199.582 M81.5,159.094 L81.5,181.336 M82.5,159.775 L82.5,181.827 M83.5,157.996 L83.5,190.65 M84.5,162.198 L84.5,185.349 M85.5,162.224 L85.5,188.485 M86.5,166.738 L86.5,184.33 M87.5,162.441 L87.5,181.611 M88.5,158.909 L88.5,179.958 M89.5,163.824 L89.5,189.224 M90.5,162.024 L90.5,187.63 M91.5,162.209 L91.5,189.831 M92.5,164.125 L92.5,178.396 M93.5,163.064 L93.5,183.216 M94.5,163.882 L94.5,180.027 M95.5,165.149 L95.5,181.474 M96.5,162.8 L96.5,185.819 M97.5,168.914 L97.5,179.267 M98.5,166.95 L98.5,177.694 M99.5,167.293 L99.5,181.057 M100.5,164.679 L100.5,181.4 M101.5,168.423 L101.5,178.243 M102.5,165.931 L102.5,178.475 M103.5,163.882 L103.5,180.339 M104.5,165.92 L104.5,176.168 M105.5,166.274 L105.5,181.204 M106.5,167.008 L106.5,179.636 M107.5,166.738 L107.5,179.367 M108.5,165.324 L108.5,181.315 M109.5,167.736 L109.5,177.54 M110.5,169.067 L110.5,177.789 M111.5,167.573 L111.5,176.865 M112.5,168.354 L112.5,177.271 M113.5,165.762 L113.5,179.774 M114.5,168.465 L114.5,176.046 M115.5,167.8 L115.5,177.107 M116.5,169.484 L116.5,177.525 M117.5,167.789 L117.5,176.157 M118.5,168.101 L118.5,179.151 M119.5,168.143 L119.5,178.95 M120.5,169.183 L120.5,178.855 M121.5,167.282 L121.5,177.667 M122.5,167.52 L122.5,178.417 M123.5,168.655 L123.5,177.841 M124.5,170.107 L124.5,178.095 M125.5,169.927 L125.5,175.671 M126.5,168.829 L126.5,175.84 M127.5,169.135 L127.5,178.829 M128.5,169.669 L128.5,175.788 M129.5,170.191 L129.5,177.055 M130.5,169.885 L130.5,176.764 M131.5,167.8 L131.5,175.782 M132.5,169.42 L132.5,176.78 M133.5,170.714 L133.5,176.928 M134.5,170.545 L134.5,175.587 M135.5,169.072 L135.5,176.374 M136.5,169.31 L136.5,175.492 M137.5,170.26 L137.5,176.21 M138.5,169.938 L138.5,175.661 M139.5,169.848 L139.5,175.814 M140.5,171.458 L140.5,174.98 M141.5,170.587 L141.5,175.471 M142.5,171.305 L142.5,175.793 M143.5,171.025 L143.5,175.439 M144.5,170.814 L144.5,175.149 M145.5,170.645 L145.5,174.019 M146.5,170.751 L146.5,175.339 M147.5,170.909 L147.5,174.753 M148.5,171.216 L148.5,174.716 M149.5,171.934 L149.5,174.521 M150.5,171.532 L150.5,174.832 M151.5,171.12 L151.5,174.468 M152.5,171.437 L152.5,174.637 M153.5,171.342 L153.5,174.003 M154.5,171.654 L154.5,174.251 M155.5,171.685 L155.5,175.001 M156.5,171.775 L156.5,174.257 M157.5,172.087 L157.5,173.966 M158.5,172.023 L158.5,174.019 M159.5,171.796 L159.5,174.663 M160.5,172.007 L160.5,174.003 M161.5,171.955 L161.5,173.987 M162.5,172.224 L162.5,174.362 M163.5,172.06 L163.5,173.681 M164.5,172.256 L164.5,173.934 M165.5,171.839 L165.5,173.871 M166.5,172.593 L166.5,173.924 M167.5,171.97 L167.5,173.723 M168.5,172.398 L168.5,173.628 M169.5,172.224 L169.5,173.855 M170.5,172.298 L170.5,173.813 M171.5,172.155 L171.5,173.523 M171.5,172.839 L172.5,172.982 L173.5,173.1 M174.5,172.351 L174.5,173.428 M174.5,172.889 L175.5,172.945 L176.5,173.011 M177.5,172.562 L177.5,173.575 M177.5,173.069 L178.5,173.042 L179.5,173.042 L180.5,173.026 L181.5,173.021 L182.5,173 L183.5,172.945 L184.5,173.05 L185.5,172.976 L186.5,173.034 L187.5,173.008 L188.5,173.037 L189.5,173.011 L190.5,172.976 L191.5,172.931 L192.5,173.008 L193.5,172.984 L194.5,173.011 L195.5,172.989 L196.5,172.979 L197.5,172.984 L198.5,173.045 L199.5,172.995 L200.5,172.995 L201.5,173.024 L202.5,173.042 L203.5,172.976 L204.5,173.011 L205.5,172.984 L206.5,173.016 L207.5,173.008 L208.5,173.024 L209.5,173.008 L210.5,173.008 L211.5,172.992 L212.5,172.974 L213.5,173.003 L214.5,173.016 L215.5,172.979 L216.5,173.003 L217.5,172.995 L218.5,173.003 L219.5,173.003 L220.5,172.997 L221.5,173 L222.5,172.997 L223.5,173 L224.5,173 L225.5,172.997 L226.5,172.995 M227.5,172.498 L227.5,173.618 M228.5,148.186 L228.5,194.72 M229.5,155.731 L229.5,199.26 M230.5,144.918 L230.5,202.228 M231.5,145.404 L231.5,185.291 M232.5,145.731 L232.5,209.022 M233.5,157.114 L233.5,195.607 M234.5,148.07 L234.5,204.709 M235.5,143.947 L235.5,189.404 M236.5,153.001 L236.5,185.386 M237.5,155.805 L237.5,197.93 M238.5,143.899 L238.5,198.585 M239.5,153.64 L239.5,194.234 M240.5,160.213 L240.5,192.545 M241.5,142.373 L241.5,199.276 M242.5,155.387 L242.5,190.396 M243.5,156.665 L243.5,190.063 M244.5,159.157 L244.5,195.053 M245.5,158.413 L245.5,197.434 M246.5,150.8 L246.5,188.87 M247.5,159.585 L247.5,186.421 M248.5,161.015 L248.5,184.953 M249.5,157.716 L249.5,189.414 M250.5,158.555 L250.5,183.522 M251.5,158.55 L251.5,199.931 M252.5,154.532 L252.5,184.853 M253.5,160.567 L253.5,181.041 M254.5,160.915 L254.5,189.224 M255.5,162.114 L255.5,186.774 M256.5,162.906 L256.5,184.969 M257.5,167.377 L257.5,184.061 M258.5,165.25 L258.5,183.818 M259.5,161.316 L259.5,181.838 M260.5,164.547 L260.5,183.438 M261.5,159.321 L261.5,188.881 M262.5,166.955 L262.5,182.039 M263.5,165.714 L263.5,181.183 M264.5,166.833 L264.5,177.783 M265.5,158.27 L265.5,183.443 M266.5,167.156 L266.5,180.043 M267.5,160.641 L267.5,184.604 M268.5,164.151 L268.5,184.272 M269.5,167.277 L269.5,183.939 M270.5,168.998 L270.5,180.027 M271.5,166.712 L271.5,181.484 M272.5,168.386 L272.5,183.237 M273.5,163.866 L273.5,179.71 M274.5,167.092 L274.5,181.262 M275.5,165.361 L275.5,181.004 M276.5,166.57 L276.5,177.915 M277.5,166.728 L277.5,183.712 M278.5,167.124 L278.5,179.721 M279.5,166.897 L279.5,181.252 M280.5,165.894 L280.5,177.451 M281.5,166.474 L281.5,179.763 M282.5,168.079 L282.5,178.786 M283.5,168.248 L283.5,178.649 M284.5,166.733 L284.5,179.584 M285.5,168.745 L285.5,176.305 M286.5,167.953 L286.5,177.461 M287.5,169.056 L287.5,176.949 M288.5,168.713 L288.5,177.482 M289.5,168.665 L289.5,178.116 M290.5,169.019 L290.5,178.538 M291.5,168.718 L291.5,178.031 M292.5,167.636 L292.5,179.9 M293.5,167.288 L293.5,177.979 M294.5,168.808 L294.5,177.651 M295.5,168.259 L295.5,178.612 M296.5,167.699 L296.5,176.585 M297.5,170.049 L297.5,176.226 M298.5,168.534 L298.5,176.4 M299.5,170.086 L299.5,178.528 M300.5,169.954 L300.5,177.282 M301.5,170.007 L301.5,177.213 M302.5,169.769 L302.5,176.342 M303.5,169.806 L303.5,175.497 M304.5,171.411 L304.5,176.653 M305.5,169.246 L305.5,175.508 M306.5,170.207 L306.5,176.115 M307.5,169.5 L307.5,176.817 M308.5,168.523 L308.5,176.31 M309.5,170.033 L309.5,175.851 M310.5,170.872 L310.5,175.893 M311.5,171.305 L311.5,175.798 M312.5,170.492 L312.5,175.645 M313.5,169.827 L313.5,175.497 M314.5,170.983 L314.5,175.444 M315.5,171.168 L315.5,175.888 M316.5,171.115 L316.5,174.23 M317.5,170.751 L317.5,175.202 M318.5,170.788 L318.5,174.911 M319.5,171.036 L319.5,175.233 M320.5,171.728 L320.5,174.663 M321.5,171.833 L321.5,174.346 M322.5,171.474 L322.5,174.758 M323.5,171.854 L323.5,174.853 M324.5,171.363 L324.5,174.6 M325.5,171.875 L325.5,174.526 M326.5,171.965 L326.5,174.642 M327.5,171.395 L327.5,174.151 M328.5,172.245 L328.5,173.797 M329.5,171.897 L329.5,173.919 M330.5,172.081 L330.5,174.521 M331.5,172.007 L331.5,174.235 M332.5,172.044 L332.5,173.766 M333.5,171.791 L333.5,173.813 M334.5,171.97 L334.5,174.315 M335.5,172.414 L335.5,173.887 M336.5,172.034 L336.5,173.845 M337.5,171.897 L337.5,174.146 M338.5,172.171 L338.5,173.676 M339.5,172.023 L339.5,173.713 M340.5,172.219 L340.5,173.855 M341.5,172.345 L341.5,173.802 M342.5,172.351 L342.5,173.512 M343.5,172.198 L343.5,173.586 M343.5,172.892 L344.5,173.013 L345.5,172.945 L346.5,172.976 L347.5,172.926 L348.5,172.995 L349.5,172.987 L350.5,173.016 L351.5,173.055 L352.5,173.106 L353.5,173.021 L354.5,172.995 L355.5,172.982 L356.5,172.958 L357.5,173.008 L358.5,172.931 L359.5,172.992 L360.5,173.013 L361.5,173.032 L362.5,172.971 L363.5,173.003 L364.5,172.984 L365.5,173 L366.5,173.013 L367.5,172.989 L368.5,173.005 L369.5,173.016 L370.5,172.992 L371.5,172.958 L372.5,173.018 L373.5,173.024 L374.5,172.974 L375.5,172.968 L376.5,172.971 L377.5,173.005 L378.5,173.021 L379.5,173.008 L380.5,173.026 L381.5,173.005 L382.5,172.989 L383.5,172.976 L384.5,172.987 L385.5,173.011 L386.5,172.974 L387.5,172.976 L388.5,173.003 L389.5,172.995 L390.5,172.995 L391.5,173 L392.5,172.995 L393.5,173 L394.5,172.997 L395.5,173.003 L396.5,173.003 L397.5,173.005 L398.5,172.984 M399.5,152.373 L399.5,188.374 M400.5,135.41 L400.5,196.716 M401.5,102.84 L401.5,243.455 M402.5,122.549 L402.5,187.577 M403.5,118.119 L403.5,156.401 M404.5,110.686 L404.5,169.077 M405.5,121.625 L405.5,170.212 M406.5,144.844 L406.5,223.187 M407.5,175.407 L407.5,240.383 M408.5,201.937 L408.5,249.474 M409.5,189.673 L409.5,242.595 M410.5,170.593 L410.5,215.854 M411.5,158.196 L411.5,197.112 M412.5,136.666 L412.5,171.126 M413.5,100.792 L413.5,140.357 M414.5,99.0389 L414.5,135.869 M415.5,102.56 L415.5,126.952 M416.5,102.376 L416.5,151.042 M417.5,142.183 L417.5,186.067 M418.5,158.001 L418.5,200.923 M419.5,174.843 L419.5,232.046 M420.5,213.003 L420.5,247.056 M421.5,227.485 L421.5,255.034 M422.5,222.654 L422.5,259.859 M423.5,199.778 L423.5,231.661 M424.5,181.394 L424.5,212.845 M425.5,154.194 L425.5,192.825 M426.5,147.611 L426.5,174.135 M427.5,123.446 L427.5,153.788 M428.5,117.274 L428.5,147.843 M429.5,115.548 L429.5,134.042 M430.5,118.161 L430.5,139.427 M431.5,123.89 L431.5,150.002 M432.5,133.145 L432.5,158.186 M433.5,141.053 L433.5,174.172 M434.5,159.384 L434.5,188.627 M435.5,170.751 L435.5,198.442 M436.5,182.049 L436.5,206.182 M437.5,187.582 L437.5,209.313 M438.5,187.915 L438.5,207.813 M439.5,185.977 L439.5,209.086 M440.5,192.307 L440.5,205.649 M441.5,195.686 L441.5,210.242 M442.5,195.348 L442.5,209.27 M443.5,194.15 L443.5,212.158 M444.5,191.373 L444.5,208.838 M445.5,180.666 L445.5,194.868 M446.5,165.693 L446.5,187.751 M447.5,159.49 L447.5,173.169 M448.5,142.167 L448.5,160.461 M449.5,133.456 L449.5,149.422 M450.5,125.02 L450.5,139.512 M451.5,119.883 L451.5,133.198 M452.5,118.135 L452.5,132.638 M453.5,126.366 L453.5,140.256 M454.5,135.336 L454.5,154.152 M455.5,150.171 L455.5,168.196 M455.5,159.183 L456.5,177.387 L456.5,169.352 L456.5,185.423 L456.5,177.387 M457.5,182.081 L457.5,197.624 M458.5,195.765 L458.5,206.573 M459.5,202.228 L459.5,210.944 M460.5,203.474 L460.5,211.826 M461.5,197.687 L461.5,209.656 M462.5,189.129 L462.5,201.979 M463.5,181.336 L463.5,196.673 M464.5,173.269 L464.5,185.813 M465.5,164.558 L465.5,175.777 M466.5,159.257 L466.5,170.022 M467.5,156.66 L467.5,166.348 M468.5,154.849 L468.5,161.306 M469.5,154.659 L469.5,164.215 M470.5,156.332 L470.5,166.791 M471.5,159.374 L471.5,167.673 M472.5,164.146 L472.5,172.43 M473.5,166.29 L473.5,174.378 M474.5,167.33 L474.5,175.508 M475.5,170.719 L475.5,176.933 M476.5,173.681 L476.5,177.556 M477.5,171.907 L477.5,177.144 M478.5,169.336 L478.5,176.125 M479.5,169.727 L479.5,176.712 M480.5,168.882 L480.5,175.159 M481.5,168.206 L481.5,173.385 M482.5,168.116 L482.5,175.297 M483.5,170.957 L483.5,175.244 M484.5,170.904 L484.5,174.161 M485.5,171.601 L485.5,176.426 M486.5,172.593 L486.5,177.53 M487.5,173.127 L487.5,176.59 M488.5,174.489 L488.5,177.313 M489.5,172.989 L489.5,177.377 M490.5,172.747 L490.5,176.046 M491.5,173.069 L491.5,176.648 M492.5,172.689 L492.5,175.555 M493.5,171.432 L493.5,175.107 M494.5,171.564 L494.5,174.8 M495.5,171.575 L495.5,174.225 M496.5,170.92 L496.5,173.971 M497.5,170.978 L497.5,173.533 M498.5,170.439 L498.5,172.879 M499.5,170.55 L499.5,172.134 M500.5,169.758 L500.5,172.382 M501.5,170.038 L501.5,171.907 M502.5,169.574 L502.5,172.013 M503.5,170.17 L503.5,172.52 M504.5,170.872 L504.5,172.435 M505.5,171.152 L505.5,173.201 M506.5,171.522 L506.5,173.845 M507.5,172.461 L507.5,174.093 M508.5,172.852 L508.5,174.014 M509.5,173.137 L509.5,174.79 M510.5,172.741 L510.5,174.848 M511.5,173.581 L511.5,174.721 M512.5,173.174 L512.5,174.61 M512.5,173.892 L513.5,174.053 M514.5,172.71 L514.5,174.484 M515.5,172.842 L515.5,174.119 M516.5,172.916 L516.5,174.056 M517.5,172.398 L517.5,173.649 M517.5,173.024 L518.5,172.947 M519.5,172.652 L519.5,173.671 M519.5,173.161 L520.5,173.137 L521.5,173.069 L522.5,172.971 L523.5,172.989 L524.5,172.982 L525.5,173.037 L526.5,173.077 L527.5,173.04 L528.5,172.979 L529.5,173.003 L530.5,173.082 L531.5,173.024 L532.5,172.945 L533.5,173.037 L534.5,172.916 L535.5,173.024 L536.5,172.997 L537.5,172.971 L538.5,173.011 L539.5,173.018 L540.5,173 L541.5,172.984 L542.5,172.979 L543.5,172.997 L544.5,172.995 L545.5,172.984 L546.5,172.952 L547.5,172.982 L548.5,172.971 L549.5,172.968 L550.5,172.96 L551.5,172.974 L552.5,172.979 L553.5,172.987 L554.5,172.974 L555.5,172.958 L556.5,172.982 L557.5,172.955 L558.5,172.968 L559.5,172.958 L560.5,172.96 L561.5,172.96 L562.5,172.958 L563.5,172.96 L564.5,172.958 L565.5,172.966 L566.5,172.963 L567.5,172.963 L568.5,172.947 L569.5,172.982 M570.5,167.34 L570.5,176.727 M571.5,155.984 L571.5,192.202 M572.5,152.505 L572.5,196.811 M573.5,148.931 L573.5,198.088 M574.5,155.087 L574.5,190.935 M575.5,149.205 L575.5,201.077 M576.5,154.786 L576.5,203.885 M577.5,145.731 L577.5,194.424 M578.5,151.195 L578.5,204.065 M579.5,150.071 L579.5,191.589 M580.5,157.23 L580.5,202.154 M581.5,141.576 L581.5,194.118 M582.5,147.616 L582.5,185.56 M583.5,161.612 L583.5,193.173 M584.5,156.781 L584.5,188.437 M585.5,156.665 L585.5,193.062 M586.5,156.19 L586.5,192.471 M587.5,152.209 L587.5,182.873 M588.5,157.869 L588.5,196.547 M589.5,154.321 L589.5,186.811 M590.5,148.957 L590.5,186.553 M591.5,158.275 L591.5,187.255 M592.5,158.265 L592.5,189.974 M593.5,156.718 L593.5,197.761 M594.5,154.39 L594.5,178.718 M595.5,166.886 L595.5,180.83 M596.5,159.585 L596.5,184.921 M597.5,161.855 L597.5,184.256 M598.5,164.183 L598.5,182.213 M599.5,160.883 L599.5,189.863 M600.5,162.573 L600.5,188.253 M601.5,164.109 L601.5,180.112 M602.5,160.683 L602.5,180.455 M603.5,163.449 L603.5,185.967 M604.5,162.003 L604.5,187.081 M605.5,159.49 L605.5,189.715 M606.5,161.633 L606.5,178.433 M607.5,163.808 L607.5,187.286 M608.5,161.976 L608.5,179.832 M609.5,165.049 L609.5,184.172 M610.5,160.239 L610.5,182.26 M611.5,166.833 L611.5,178.712 M612.5,168.28 L612.5,181.748 M613.5,168.38 L613.5,177.836 M614.5,163.66 L614.5,178.116 M615.5,166.422 L615.5,181.695 M616.5,165.26 L616.5,179.246 M617.5,166.258 L617.5,178.707 M618.5,165.155 L618.5,176.627 M619.5,167.942 L619.5,179.489 M620.5,168.866 L620.5,178.628 M621.5,167.193 L621.5,178.443 M622.5,166.638 L622.5,178.66 M623.5,166.063 L623.5,179.441 M624.5,167.462 L624.5,178.343 M625.5,169.647 L625.5,176.77 M626.5,167.388 L626.5,176.221 M627.5,169.51 L627.5,180.835 M628.5,168.523 L628.5,176.516 M629.5,165.651 L629.5,176.844 M630.5,169.014 L630.5,176.733 M631.5,169.167 L631.5,178.412 M632.5,167.657 L632.5,181.775 M633.5,170.307 L633.5,175.972 M634.5,167.815 L634.5,177.324 M635.5,169.394 L635.5,176.205 M636.5,169.357 L636.5,177.931 M637.5,169.151 L637.5,178.443 M638.5,169.146 L638.5,177.884 M639.5,170.033 L639.5,175.92 M640.5,168.671 L640.5,175.054 M641.5,168.164 L641.5,177.398 M642.5,169.304 L642.5,175.275 M643.5,170.402 L643.5,175.196 M644.5,169.426 L644.5,179.23 M645.5,167.779 L645.5,175.851 M646.5,169.684 L646.5,175.909 M647.5,170.835 L647.5,175.92 M648.5,170.102 L648.5,175.761 M649.5,168.333 L649.5,175.534 M650.5,170.022 L650.5,176.294 M651.5,170.45 L651.5,175.983 M652.5,169.98 L652.5,175.83 M653.5,169.706 L653.5,175.001 M654.5,172.034 L654.5,175.159 M655.5,170.883 L655.5,174.864 M656.5,170.904 L656.5,176.68 M657.5,170.276 L657.5,175.033 M658.5,170.73 L658.5,174.225 M659.5,170.867 L659.5,174.494 M660.5,171.511 L660.5,175.561 M661.5,171.247 L661.5,174.916 M662.5,171.443 L662.5,175.154 M663.5,171.707 L663.5,174.22 M664.5,170.672 L664.5,174.436 M665.5,171.532 L665.5,174.415 M666.5,171.184 L666.5,174.066 M667.5,171.321 L667.5,174.7 M668.5,171.501 L668.5,174.119 M669.5,171.775 L669.5,174.616 M670.5,171.918 L670.5,174.241 M671.5,171.675 L671.5,173.85 M672.5,172.187 L672.5,174.278 M673.5,171.622 L673.5,174.235 M674.5,171.944 L674.5,174.161 M675.5,171.981 L675.5,174.056 M676.5,172.361 L676.5,173.829 M677.5,172.377 L677.5,173.871 M678.5,172.023 L678.5,173.607 M679.5,172.039 L679.5,173.718 M680.5,172.234 L680.5,173.924 M681.5,171.77 L681.5,173.549 M682.5,172.366 L682.5,173.465 M683.5,172.467 L683.5,174.024 M684.5,172.551 L684.5,173.861 M684.5,173.206"/>
</g>

<g fill="none" stroke="#0000c0" stroke-opacity="1" stroke-width="1" stroke-linecap="square" stroke-linejoin="bevel" transform="matrix(1,0,0,1,0,0)"
font-family="Segoe UI" font-size="9" font-weight="400" font-style="normal" 
>
<path vector-effect="non-scaling-stroke" fill-rule="evenodd" d="M57.5,174.613 L57.5,171.434 M58.5,178.139 L58.5,167.861 M59.5,180.525 L59.5,165.475 M60.5,178.72 L60.5,167.28 M61.5,184.527 L61.5,161.473 M62.5,185.577 L62.5,160.423 M63.5,183.333 L63.5,162.667 M64.5,181.608 L64.5,164.392 M65.5,181.112 L65.5,164.888 M66.5,182.433 L66.5,163.567 M67.5,181.7 L67.5,164.3 M68.5,182.568 L68.5,163.432 M69.5,183.39 L69.5,162.61 M70.5,181.333 L70.5,164.667 M71.5,181.4 L71.5,164.6 M72.5,178.92 L72.5,167.08 M73.5,181.153 L73.5,164.847 M74.5,181.257 L74.5,164.743 M75.5,181.256 L75.5,164.744 M76.5,179.91 L76.5,166.09 M77.5,179.066 L77.5,166.934 M78.5,179.7 L78.5,166.3 M79.5,179.598 L79.5,166.402 M80.5,180.137 L80.5,165.863 M81.5,178.451 L81.5,167.549 M82.5,178.819 L82.5,167.181 M83.5,180.276 L83.5,165.724 M84.5,178.669 L84.5,167.331 M85.5,178.472 L85.5,167.528 M86.5,176.678 L86.5,169.322 M87.5,177.39 L87.5,168.61 M88.5,176.738 L88.5,169.262 M89.5,179.561 L89.5,166.439 M90.5,178.819 L90.5,167.181 M91.5,177.894 L91.5,168.106 M92.5,176.522 L92.5,169.478 M93.5,177.49 L93.5,168.51 M94.5,176.187 L94.5,169.813 M95.5,177.793 L95.5,168.207 M96.5,178.338 L96.5,167.662 M97.5,175.985 L97.5,170.015 M98.5,175.713 L98.5,170.287 M99.5,176.143 L99.5,169.857 M100.5,176.384 L100.5,169.616 M101.5,175.997 L101.5,170.003 M102.5,176.349 L102.5,169.651 M103.5,176.376 L103.5,169.624 M104.5,175.168 L104.5,170.814 M105.5,176.163 L105.5,169.837 M106.5,176.234 L106.5,169.766 M107.5,175.741 L107.5,170.259 M108.5,176.45 L108.5,169.55 M109.5,175.784 L109.5,170.216 M110.5,175.388 L110.5,170.612 M111.5,175.231 L111.5,170.769 M112.5,175.758 L112.5,170.242 M113.5,175.671 L113.5,170.329 M114.5,174.904 L114.5,171.096 M115.5,174.906 L115.5,171.094 M116.5,175.183 L116.5,170.817 M117.5,175.157 L117.5,170.686 M118.5,175.53 L118.5,170.47 M119.5,175.044 L119.5,170.956 M120.5,175.484 L120.5,170.516 M121.5,175.237 L121.5,170.763 M122.5,175.65 L122.5,170.35 M123.5,175.133 L123.5,170.867 M124.5,175.298 L124.5,171.107 M125.5,174.671 L125.5,171.184 M126.5,174.801 L126.5,171.199 M127.5,175.215 L127.5,170.785 M128.5,174.755 L128.5,171.245 M129.5,175.006 L129.5,171.191 M130.5,175.022 L130.5,170.978 M131.5,174.782 L131.5,171.135 M132.5,174.542 L132.5,171.458 M133.5,174.744 L133.5,171.714 M134.5,174.587 L134.5,171.545 M135.5,174.797 L135.5,171.203 M136.5,174.471 L136.5,171.529 M137.5,174.87 L137.5,171.26 M138.5,174.527 L138.5,171.473 M139.5,174.256 L139.5,171.744 M140.5,173.98 L140.5,172.458 M141.5,174.423 L141.5,171.587 M142.5,174.357 L142.5,172.305 M143.5,174.365 L143.5,172.025 M144.5,174.149 L144.5,171.814 M145.5,173.019 L145.5,171.93 M146.5,174.339 L146.5,171.751 M147.5,173.753 L147.5,171.909 M148.5,173.716 L148.5,172.216 M150.5,173.832 L150.5,172.532 M151.5,173.468 L151.5,172.12 M152.5,173.637 L152.5,172.437 M155.5,173.967 L155.5,172.685 M228.5,180.028 L228.5,165.972 M229.5,184.243 L229.5,161.757 M230.5,185.374 L230.5,160.626 M231.5,181.767 L231.5,164.233 M232.5,183.078 L232.5,162.922 M233.5,183.225 L233.5,162.775 M234.5,184.481 L234.5,161.519 M235.5,184.94 L235.5,161.06 M236.5,180.747 L236.5,165.253 M237.5,183.139 L237.5,162.861 M238.5,182.995 L238.5,163.005 M239.5,182.727 L239.5,163.273 M240.5,180.616 L240.5,165.384 M241.5,183.807 L241.5,162.193 M242.5,180.345 L242.5,165.655 M243.5,180.638 L243.5,165.362 M244.5,179.599 L244.5,166.401 M245.5,181.813 L245.5,164.187 M246.5,180.774 L246.5,165.226 M247.5,180.128 L247.5,165.872 M248.5,177.848 L248.5,168.152 M249.5,180.379 L249.5,165.621 M250.5,177.848 L250.5,168.152 M251.5,181.063 L251.5,164.937 M252.5,180.554 L252.5,165.446 M253.5,178.524 L253.5,167.476 M254.5,179.91 L254.5,166.09 M255.5,178.323 L255.5,167.677 M256.5,178.304 L256.5,167.696 M257.5,176.955 L257.5,169.045 M258.5,176.978 L258.5,169.022 M259.5,178.264 L259.5,167.736 M260.5,178.075 L260.5,167.925 M261.5,178.861 L261.5,167.139 M262.5,177.154 L262.5,168.846 M263.5,176.905 L263.5,169.095 M264.5,175.877 L264.5,170.123 M265.5,178.622 L265.5,167.378 M266.5,176.15 L266.5,169.85 M267.5,178.015 L267.5,167.985 M268.5,176.941 L268.5,169.059 M269.5,176.701 L269.5,169.299 M270.5,175.39 L270.5,170.61 M271.5,176.677 L271.5,169.323 M272.5,176.626 L272.5,169.386 M273.5,176.493 L273.5,169.507 M274.5,176.138 L274.5,169.862 M275.5,176.328 L275.5,169.672 M276.5,175.251 L276.5,170.749 M277.5,176.43 L277.5,169.57 M278.5,176.052 L278.5,169.948 M279.5,176.457 L279.5,169.543 M280.5,175.207 L280.5,170.793 M281.5,176.181 L281.5,169.819 M282.5,175.979 L282.5,170.021 M283.5,175.618 L283.5,170.382 M284.5,175.914 L284.5,170.086 M285.5,174.927 L285.5,171.073 M286.5,175.341 L286.5,170.659 M287.5,175.041 L287.5,170.959 M288.5,175.262 L288.5,170.738 M289.5,175.558 L289.5,170.442 M290.5,174.934 L290.5,171.066 M291.5,175.693 L291.5,170.307 M292.5,175.305 L292.5,170.695 M293.5,175.432 L293.5,170.568 M294.5,175.343 L294.5,170.657 M295.5,175.779 L295.5,170.221 M296.5,175.219 L296.5,170.781 M297.5,174.94 L297.5,171.06 M298.5,175.289 L298.5,170.711 M299.5,174.973 L299.5,171.086 M300.5,175.192 L300.5,170.954 M301.5,174.931 L301.5,171.069 M302.5,174.908 L302.5,171.092 M303.5,174.497 L303.5,171.142 M304.5,174.438 L304.5,172.411 M305.5,174.508 L305.5,171.401 M306.5,174.625 L306.5,171.375 M307.5,174.845 L307.5,171.155 M308.5,174.634 L308.5,171.366 M309.5,174.751 L309.5,171.249 M310.5,174.24 L310.5,171.872 M311.5,174.108 L311.5,172.305 M312.5,174.534 L312.5,171.492 M313.5,174.438 L313.5,171.562 M314.5,174.382 L314.5,171.983 M315.5,174.43 L315.5,172.168 M316.5,173.23 L316.5,172.115 M317.5,174.202 L317.5,171.789 M318.5,173.911 L318.5,171.788 M319.5,174.146 L319.5,172.036 M322.5,173.758 L322.5,172.474 M324.5,173.6 L324.5,172.363 M399.5,177.679 L399.5,168.321 M400.5,182.294 L400.5,163.706 M401.5,199.77 L401.5,146.23 M402.5,186.577 L402.5,158.749 M403.5,155.401 L403.5,136.551 M404.5,168.077 L404.5,140.442 M405.5,169.212 L405.5,150.085 M406.5,190.044 L406.5,155.956 M407.5,211.123 L407.5,176.407 M408.5,223.088 L408.5,202.937 M409.5,217.83 L409.5,190.673 M410.5,195.519 L410.5,171.593 M411.5,183.63 L411.5,162.37 M412.5,170.126 L412.5,153.53 M413.5,139.357 L413.5,122.175 M414.5,134.869 L414.5,116.275 M415.5,125.952 L415.5,116.615 M416.5,150.042 L416.5,131.639 M417.5,185.067 L417.5,157.762 M418.5,185.668 L418.5,160.332 M419.5,208.388 L419.5,175.843 M420.5,229.017 L420.5,214.003 M421.5,240.764 L421.5,228.485 M422.5,238.202 L422.5,223.654 M423.5,217.814 L423.5,200.778 M424.5,198.163 L424.5,182.394 M425.5,181.239 L425.5,164.761 M426.5,173.135 L426.5,157.97 M427.5,152.788 L427.5,140.643 M428.5,146.843 L428.5,129.567 M429.5,133.042 L429.5,124.373 M430.5,138.427 L430.5,129.026 M431.5,149.002 L431.5,132.97 M432.5,157.186 L432.5,147.207 M433.5,173.172 L433.5,158.865 M434.5,178.787 L434.5,167.213 M435.5,183.277 L435.5,171.751 M436.5,192.823 L436.5,183.049 M437.5,197.491 L437.5,188.582 M438.5,198.354 L438.5,188.915 M439.5,199.296 L439.5,186.977 M440.5,199.968 L440.5,193.307 M441.5,202.112 L441.5,196.686 M442.5,203.192 L442.5,196.348 M443.5,204.225 L443.5,195.15 M444.5,198.613 L444.5,192.373 M445.5,189.438 L445.5,181.666 M446.5,179.712 L446.5,166.693 M447.5,172.169 L447.5,164.157 M448.5,159.461 L448.5,152.218 M449.5,148.422 L449.5,140.083 M450.5,138.512 L450.5,131.622 M451.5,132.198 L451.5,126.768 M452.5,131.638 L452.5,126.49 M453.5,139.256 L453.5,133.688 M454.5,153.152 L454.5,144.858 M455.5,167.196 L455.5,159.641 M456.5,178.375 L456.5,170.352 M457.5,190.413 L457.5,183.081 M458.5,201.479 L458.5,196.765 M459.5,206.642 L459.5,203.228 M460.5,207.281 L460.5,204.474 M461.5,203.835 L461.5,198.687 M462.5,196.47 L462.5,190.129 M463.5,188.9 L463.5,182.336 M464.5,180.521 L464.5,174.269 M465.5,174.777 L465.5,169.966 M466.5,169.022 L466.5,163.903 M467.5,165.348 L467.5,160.489 M468.5,160.306 L468.5,158.077 M469.5,163.215 L469.5,158.844 M470.5,165.791 L470.5,161.278 M471.5,166.673 L471.5,163.517 M472.5,171.43 L472.5,167.223 M473.5,173.378 L473.5,170.147 M474.5,174.508 L474.5,171.02 M475.5,175.522 L475.5,171.719 M476.5,175.713 L476.5,174.681 M477.5,175.198 L477.5,172.907 M478.5,174.758 L478.5,171.242 M479.5,174.795 L479.5,171.205 M480.5,174.159 L480.5,171.005 M481.5,172.385 L481.5,170.647 M482.5,174.297 L482.5,170.716 M483.5,174.244 L483.5,171.957 M484.5,173.161 L484.5,171.904 M485.5,174.829 L485.5,172.601 M486.5,175.455 L486.5,173.593 M487.5,175.59 L487.5,174.127 M489.5,175.852 L489.5,173.989 M490.5,175.046 L490.5,173.747 M493.5,174.107 L493.5,172.432 M494.5,173.8 L494.5,172.564 M496.5,172.971 L496.5,171.92 M570.5,173.946 L570.5,172.054 M571.5,179.979 L571.5,166.021 M572.5,181.801 L572.5,164.199 M573.5,183.17 L573.5,162.83 M574.5,179.756 L574.5,166.244 M575.5,182.027 L575.5,163.973 M576.5,183.324 L576.5,162.676 M577.5,183.1 L577.5,162.9 M578.5,183.162 L578.5,162.838 M579.5,182.049 L579.5,163.951 M580.5,181.466 L580.5,164.534 M581.5,183.181 L581.5,162.819 M582.5,183.176 L582.5,162.824 M583.5,180.652 L583.5,165.348 M584.5,179.873 L584.5,166.127 M585.5,180.592 L585.5,165.408 M586.5,179.947 L586.5,166.053 M587.5,178.624 L587.5,167.376 M588.5,180.377 L588.5,165.623 M589.5,180.826 L589.5,165.174 M590.5,181.027 L590.5,164.973 M591.5,180.249 L591.5,165.751 M592.5,179.706 L592.5,166.294 M593.5,181.255 L593.5,164.745 M594.5,177.337 L594.5,168.663 M595.5,176.985 L595.5,169.015 M596.5,177.991 L596.5,168.009 M597.5,178.642 L597.5,167.358 M598.5,177.729 L598.5,168.271 M599.5,178.676 L599.5,167.324 M600.5,178.423 L600.5,167.577 M601.5,176.691 L601.5,169.309 M602.5,176.449 L602.5,169.551 M603.5,178.473 L603.5,167.527 M604.5,177.994 L604.5,168.006 M605.5,178.065 L605.5,167.935 M606.5,176.517 L606.5,169.483 M607.5,177.163 L607.5,168.837 M608.5,177.354 L608.5,168.646 M609.5,177.579 L609.5,168.421 M610.5,177.776 L610.5,168.224 M611.5,176.159 L611.5,169.841 M612.5,176.569 L612.5,169.431 M613.5,175.84 L613.5,170.16 M614.5,176.126 L614.5,169.874 M615.5,176.169 L615.5,169.831 M616.5,176.286 L616.5,169.714 M617.5,175.863 L617.5,170.137 M618.5,175.627 L618.5,170.13 M619.5,175.497 L619.5,170.503 M620.5,175.894 L620.5,170.106 M621.5,176.053 L621.5,169.947 M622.5,175.869 L622.5,170.131 M623.5,175.903 L623.5,170.097 M624.5,175.74 L624.5,170.26 M625.5,174.887 L625.5,171.113 M626.5,175.221 L626.5,170.613 M627.5,175.714 L627.5,170.51 M628.5,175.19 L628.5,170.81 M629.5,175.312 L629.5,170.688 M630.5,174.768 L630.5,171.232 M631.5,175.854 L631.5,170.167 M632.5,175.807 L632.5,170.193 M633.5,174.883 L633.5,171.307 M634.5,175.393 L634.5,170.607 M635.5,174.921 L635.5,171.079 M636.5,175.177 L636.5,170.823 M637.5,175.317 L637.5,170.683 M638.5,175.368 L638.5,170.632 M639.5,174.799 L639.5,171.201 M640.5,174.054 L640.5,170.936 M641.5,175.318 L641.5,170.682 M642.5,174.275 L642.5,171.227 M643.5,174.196 L643.5,171.402 M644.5,175.306 L644.5,170.694 M645.5,174.851 L645.5,171.142 M646.5,174.73 L646.5,171.27 M647.5,174.474 L647.5,171.835 M648.5,174.671 L648.5,171.329 M649.5,174.534 L649.5,171.248 M650.5,174.509 L650.5,171.491 M651.5,174.767 L651.5,171.45 M652.5,174.809 L652.5,171.191 M653.5,174.001 L653.5,171.592 M654.5,174.121 L654.5,173.034 M655.5,173.864 L655.5,171.883 M656.5,174.382 L656.5,171.904 M657.5,174.033 L657.5,171.533 M658.5,173.225 L658.5,171.798 M659.5,173.494 L659.5,171.867 M660.5,174.31 L660.5,172.511 M661.5,173.916 L661.5,172.247 M662.5,174.154 L662.5,172.443 M664.5,173.436 L664.5,171.79 M667.5,173.7 L667.5,172.321"/>
</g>

<g fill="none" stroke="#000080" stroke-opacity="1" stroke-width="1" stroke-linecap="square" stroke-linejoin="bevel" transform="matrix(1,0,0,1,0,0)"
font-family="Segoe UI" font-size="9" font-weight="400" font-style="normal" 
>
</g>

<g fill="none" stroke="#000000" stroke-opacity="1" stroke-width="1" stroke-linecap="square" stroke-linejoin="bevel" transform="matrix(1,0,0,1,0,0)"
font-family="Segoe UI" font-size="9" font-weight="400" font-style="normal" 
>
</g>

<g fill="#ffffff" fill-opacity="1" stroke="#ffffff" stroke-opacity="1" stroke-width="1" stroke-linecap="square" stroke-linejoin="bevel" transform="matrix(1,0,0,1,0,0)"
font-family="Segoe UI" font-size="9" font-weight="400" font-style="normal" 
>
<rect x="684" y="0" width="684" height="346"/>
</g>

<g fill="none" stroke="#000000" stroke-opacity="1" stroke-width="1" stroke-linecap="square" stroke-linejoin="bevel" transform="matrix(1,0,0,1,0,0)"
font-family="Segoe UI" font-size="9" font-weight="400" font-style="normal" 
>
</g>

<g fill="none" stroke="#0000c0" stroke-opacity="1" stroke-width="1" stroke-linecap="square" stroke-linejoin="bevel" transform="matrix(1,0,0,1,684,0)"
font-family="Segoe UI" font-size="9" font-weight="400" font-style="normal" 
>
<polyline fill="none" vector-effect="non-scaling-stroke" points="0,173.5 684,173.5 " />
</g>

<g fill="none" stroke="#000080" stroke-opacity="1" stroke-width="1" stroke-linecap="square" stroke-linejoin="bevel" transform="matrix(1,0,0,1,684,0)"
font-family="Segoe UI" font-size="9" font-weight="400" font-style="normal" 
>
<path vector-effect="non-scaling-stroke" fill-rule="evenodd" d="M0.5,172.551 L0.5,173.861 M0.5,173.206 L1.5,173.005 M2.5,172.055 L2.5,173.385 M3.5,172.388 L3.5,173.581 M4.5,172.314 L4.5,173.602 M4.5,172.958 L5.5,172.91 L6.5,173.143 L7.5,172.842"/>
</g>

<g fill="none" stroke="#000000" stroke-opacity="1" stroke-width="1" stroke-linecap="square" stroke-linejoin="bevel" transform="matrix(1,0,0,1,0,0)"
font-family="Segoe UI" font-size="9" font-weight="400" font-style="normal" 
>
</g>
</g>
</svg>
