<?xml version="1.0" encoding="UTF-8" standalone="no"?>
<svg width="243.769mm" height="122.061mm"
 viewBox="0 0 691 346"
 xmlns="http://www.w3.org/2000/svg" xmlns:xlink="http://www.w3.org/1999/xlink" version="1.2" baseProfile="tiny">
<title>Exported image from Sonic Visualiser</title>
<desc>Generated with Qt</desc>
<defs>
</defs>
<g fill="none" stroke="black" stroke-width="1" fill-rule="evenodd" stroke-linecap="square" stroke-linejoin="bevel" >

<g fill="#ffffff" fill-opacity="1" stroke="#ffffff" stroke-opacity="1" stroke-width="1" stroke-linecap="square" stroke-linejoin="bevel" transform="matrix(1,0,0,1,0,0)"
font-family="Segoe UI" font-size="9" font-weight="400" font-style="normal" 
>
<rect x="0" y="0" width="684" height="346"/>
</g>

<g fill="none" stroke="#000000" stroke-opacity="1" stroke-width="1" stroke-linecap="square" stroke-linejoin="bevel" transform="matrix(1,0,0,1,0,0)"
font-family="Segoe UI" font-size="9" font-weight="400" font-style="normal" 
>
</g>

<g fill="none" stroke="#0000c0" stroke-opacity="1" stroke-width="1" stroke-linecap="square" stroke-linejoin="bevel" transform="matrix(1,0,0,1,0,0)"
font-family="Segoe UI" font-size="9" font-weight="400" font-style="normal" 
>
<polyline fill="none" vector-effect="non-scaling-stroke" points="0,173.5 684,173.5 " />
</g>

<g fill="none" stroke="#000080" stroke-opacity="1" stroke-width="1" stroke-linecap="square" stroke-linejoin="bevel" transform="matrix(1,0,0,1,0,0)"
font-family="Segoe UI" font-size="9" font-weight="400" font-style="normal" 
>
<path vector-effect="non-scaling-stroke" fill-rule="evenodd" d="M0.5,172.984 L0.5,173.021 M0.5,173.003 L1.5,173 L2.5,173 L3.5,172.997 L4.5,173 L5.5,173 L6.5,173 L7.5,173 L8.5,173 L9.5,173 L10.5,173 L11.5,173.003 L12.5,173 L13.5,172.997 L14.5,172.997 L15.5,173 L16.5,173 L17.5,173 L18.5,173 L19.5,173.003 L20.5,173 L21.5,173 L22.5,173 L23.5,173 L24.5,173 L25.5,172.997 L26.5,173 L27.5,173 L28.5,173 L29.5,173 L30.5,172.997 L31.5,173 L32.5,173.003 L33.5,173 L34.5,173 L35.5,173 L36.5,173 L37.5,172.995 L38.5,172.992 L39.5,173.005 L40.5,173.005 L41.5,173.003 L42.5,173 L43.5,173.013 L44.5,173.008 L45.5,173.008 L46.5,172.989 L47.5,172.995 L48.5,173.008 L49.5,173.021 L50.5,172.982 L51.5,173.018 L52.5,172.989 L53.5,173.005 L54.5,173.008 L55.5,172.971 M56.5,172.451 L56.5,173.75 M57.5,172.382 L57.5,179.341 M58.5,144.712 L58.5,189.689 M59.5,124.46 L59.5,170.904 M60.5,126.408 L60.5,226.323 M61.5,144.86 L61.5,264.273 M62.5,153.703 L62.5,240.694 M63.5,153.83 L63.5,240.33 M64.5,134.591 L64.5,192.228 M65.5,114.719 L65.5,157.985 M66.5,115.749 L66.5,160.535 M67.5,109.777 L67.5,174.853 M68.5,139.042 L68.5,233.456 M69.5,196.9 L69.5,252.652 M70.5,184.816 L70.5,247.03 M71.5,157.441 L71.5,213.177 M72.5,124.624 L72.5,186.294 M73.5,114.286 L73.5,154.918 M74.5,120.643 L74.5,170.207 M75.5,160.646 L75.5,214.18 M76.5,174.494 L76.5,233.694 M77.5,191.653 L77.5,225.014 M78.5,167.483 L78.5,218.753 M79.5,132.115 L79.5,186.526 M80.5,117.523 L80.5,179.225 M81.5,126.677 L81.5,166.015 M82.5,132.221 L82.5,166.955 M83.5,153.466 L83.5,221.593 M84.5,199.387 L84.5,235.552 M85.5,171.226 L85.5,224.069 M86.5,154.933 L86.5,192.693 M87.5,130.304 L87.5,167.483 M88.5,125.368 L88.5,152.23 M89.5,127.918 L89.5,179.288 M90.5,163.946 L90.5,208.04 M91.5,168.634 L91.5,217.76 M92.5,174.658 L92.5,204.762 M93.5,170.967 L93.5,202.724 M94.5,145.668 L94.5,180.138 M95.5,137.585 L95.5,165.609 M96.5,138.667 L96.5,171.031 M97.5,144.29 L97.5,180.782 M98.5,156.882 L98.5,200.876 M99.5,177.873 L99.5,219.259 M100.5,180.972 L100.5,218.541 M101.5,158.064 L101.5,190.94 M102.5,142.801 L102.5,173.502 M103.5,141.861 L103.5,165.292 M104.5,147.004 L104.5,164.579 M105.5,154.532 L105.5,188.722 M106.5,169.468 L106.5,192.914 M107.5,171.78 L107.5,200.665 M108.5,183.332 L108.5,204.556 M109.5,163.629 L109.5,193.036 M110.5,150.541 L110.5,173.623 M111.5,138.234 L111.5,169.03 M112.5,139.755 L112.5,174.051 M113.5,154.342 L113.5,184.678 M114.5,172.784 L114.5,190.254 M115.5,168.444 L115.5,198.062 M116.5,170.513 L116.5,195.987 M117.5,167.388 L117.5,185.402 M118.5,156.148 L118.5,174.051 M119.5,148.096 L119.5,172.05 M120.5,153.772 L120.5,172.926 M121.5,159.289 L121.5,182.778 M122.5,166.564 L122.5,198.241 M123.5,176.474 L123.5,192.74 M124.5,170.603 L124.5,200.089 M125.5,164.98 L125.5,194.551 M126.5,158.143 L126.5,177.503 M127.5,151.628 L127.5,170.001 M128.5,147.368 L128.5,172.91 M129.5,163.36 L129.5,189.652 M130.5,171.258 L130.5,182.477 M131.5,164.32 L131.5,188.327 M132.5,170.767 L132.5,186.13 M133.5,170.429 L133.5,187.524 M134.5,167.029 L134.5,180.777 M135.5,155.324 L135.5,172.673 M136.5,159.484 L136.5,172.335 M137.5,159.205 L137.5,178.913 M138.5,168.37 L138.5,185.798 M139.5,169.901 L139.5,190.074 M140.5,172.461 L140.5,188.601 M141.5,169.822 L141.5,182.255 M142.5,162.652 L142.5,177.065 M143.5,160.271 L143.5,171.147 M144.5,162.399 L144.5,173.206 M145.5,162.214 L145.5,178.01 M146.5,169.294 L146.5,179.726 M147.5,171.089 L147.5,179.214 M148.5,173.185 L148.5,182.128 M149.5,173.517 L149.5,181.548 M150.5,168.718 L150.5,183.517 M151.5,165.508 L151.5,177.076 M152.5,159.463 L152.5,171.337 M153.5,161.797 L153.5,172.134 M154.5,167.203 L154.5,178.179 M155.5,172.968 L155.5,181.87 M156.5,173.343 L156.5,182.852 M157.5,169.732 L157.5,181.722 M158.5,166.754 L158.5,178.2 M159.5,166.828 L159.5,176.083 M160.5,164.421 L160.5,175.027 M161.5,165.371 L161.5,173.707 M162.5,170.487 L162.5,177.16 M163.5,171.179 L163.5,179.821 M164.5,170.788 L164.5,181.336 M165.5,173.47 L165.5,179.943 M166.5,170.334 L166.5,179.277 M167.5,168.497 L167.5,174.484 M168.5,167.108 L168.5,173.987 M169.5,165.735 L169.5,174.536 M170.5,169.162 L170.5,175.18 M171.5,170.983 L171.5,179.668 M172.5,171.105 L172.5,178.897 M173.5,171.585 L173.5,177.393 M174.5,169.12 L174.5,177.086 M175.5,168.497 L175.5,177.287 M176.5,168.792 L176.5,174.394 M177.5,166.57 L177.5,172.24 M178.5,168.702 L178.5,174.288 M179.5,170.983 L179.5,179.04 M180.5,173.945 L180.5,178.058 M181.5,172.166 L181.5,178.448 M182.5,169.716 L182.5,177.704 M183.5,168.306 L183.5,174.109 M184.5,166.987 L184.5,174.325 M185.5,169.558 L185.5,174.283 M186.5,170.988 L186.5,175.138 M187.5,170.814 L187.5,177.905 M188.5,170.878 L188.5,175.355 M189.5,171.432 L189.5,175.677 M190.5,172.118 L190.5,175.312 M191.5,172.034 L191.5,175.83 M192.5,171.96 L192.5,175.365 M193.5,170.629 L193.5,174.167 M194.5,168.724 L194.5,174.668 M195.5,169.426 L195.5,173.327 M196.5,172.213 L196.5,175.133 M197.5,173.169 L197.5,176.395 M198.5,171.685 L198.5,177.176 M199.5,170.323 L199.5,174.784 M200.5,170.952 L200.5,173.454 M201.5,169.526 L201.5,174.784 M202.5,171.384 L202.5,174.088 M203.5,171.796 L203.5,173.945 M204.5,172.409 L204.5,174.394 M205.5,172.208 L205.5,174.832 M206.5,172.176 L206.5,174.441 M207.5,172.066 L207.5,174.072 M208.5,171.791 L208.5,173.623 M209.5,172.118 L209.5,173.898 M210.5,172.361 L210.5,173.919 M211.5,171.464 L211.5,174.045 M212.5,172.102 L212.5,173.174 M213.5,172.467 L213.5,173.824 M214.5,172.826 L214.5,174.262 M214.5,173.544 L215.5,173.259 L216.5,173.103 M217.5,172.425 L217.5,173.813 M217.5,173.119 L218.5,172.834 L219.5,172.617 L220.5,172.876 L221.5,173.187 L222.5,173.267 L223.5,173.1 L224.5,172.979 L225.5,172.979 L226.5,172.982 L227.5,172.979 L228.5,172.979 L229.5,172.966 L230.5,172.987 L231.5,172.984 L232.5,172.979 L233.5,172.976 L234.5,172.966 L235.5,172.982 L236.5,172.974 L237.5,172.974 L238.5,172.976 L239.5,172.968 L240.5,172.974 L241.5,172.976 L242.5,172.966 L243.5,172.966 L244.5,172.966 L245.5,172.979 L246.5,172.968 L247.5,172.966 L248.5,172.968 L249.5,172.971 L250.5,172.974 L251.5,172.979 L252.5,172.966 L253.5,172.968 L254.5,172.968 L255.5,172.974 L256.5,172.968 L257.5,172.979 L258.5,172.979 L259.5,172.968 L260.5,172.974 L261.5,172.968 L262.5,172.976 L263.5,172.976 L264.5,172.963 L265.5,172.96 L266.5,172.971 L267.5,172.968 L268.5,172.966 L269.5,172.987 L270.5,172.963 L271.5,172.966 L272.5,172.968 L273.5,172.976 L274.5,172.989 L275.5,173 L276.5,173.003 L277.5,173 L278.5,173 L279.5,173.003 L280.5,173 L281.5,173 L282.5,173 L283.5,173 L284.5,173 L285.5,173 L286.5,173 L287.5,173 L288.5,173 L289.5,173 L290.5,172.997 L291.5,173 L292.5,173 L293.5,172.997 L294.5,173 L295.5,173 L296.5,173 L297.5,173 L298.5,172.997 L299.5,173 L300.5,173 L301.5,173 L302.5,173.003 L303.5,173 L304.5,173 L305.5,173 L306.5,173 L307.5,173 L308.5,173 L309.5,173 L310.5,173 L311.5,173 L312.5,173 L313.5,173 L314.5,173.003 L315.5,173 L316.5,173 L317.5,173 L318.5,173.003 L319.5,173 L320.5,173.003 L321.5,173 L322.5,173 L323.5,173 L324.5,172.997 L325.5,172.997 L326.5,172.997 L327.5,173.003 L328.5,173 L329.5,173 L330.5,173 L331.5,173 L332.5,173.003 L333.5,173.003 L334.5,173 L335.5,173 L336.5,173 L337.5,173 L338.5,173 L339.5,173 L340.5,173.003 L341.5,173 L342.5,173 L343.5,173 L344.5,173 L345.5,173 L346.5,172.997 L347.5,173 L348.5,173.003 L349.5,173 L350.5,173 L351.5,173 L352.5,173 L353.5,173 L354.5,173 L355.5,173 L356.5,173 L357.5,173 L358.5,173.003 L359.5,173 L360.5,173.003 L361.5,173 L362.5,173 L363.5,173 L364.5,172.997 L365.5,173 L366.5,173 L367.5,173 L368.5,173 L369.5,173 L370.5,173 L371.5,173 L372.5,173 L373.5,173 L374.5,172.997 L375.5,173 L376.5,173 L377.5,173 L378.5,173 L379.5,173 L380.5,173 L381.5,173 L382.5,173 L383.5,172.997 L384.5,173 L385.5,173 L386.5,173 L387.5,173 L388.5,173 L389.5,173 L390.5,173 L391.5,173 L392.5,173.003 L393.5,173 L394.5,172.997 L395.5,172.997 L396.5,173.021 L397.5,172.989 L398.5,173.061 M399.5,151.512 L399.5,185.961 M400.5,157.151 L400.5,199.033 M401.5,145.557 L401.5,198.653 M402.5,137.115 L402.5,199.429 M403.5,162.119 L403.5,208.647 M404.5,148.244 L404.5,202.676 M405.5,148.123 L405.5,199.292 M406.5,144.501 L406.5,193.77 M407.5,151.359 L407.5,193.606 M408.5,151.016 L408.5,196.721 M409.5,155.752 L409.5,197.523 M410.5,148.197 L410.5,195.148 M411.5,160.002 L411.5,193.289 M412.5,151.898 L412.5,199.165 M413.5,144.892 L413.5,182.878 M414.5,150.034 L414.5,187.239 M415.5,166.591 L415.5,190.597 M416.5,158.64 L416.5,198.31 M417.5,154.083 L417.5,192.307 M418.5,158.46 L418.5,187.461 M419.5,164.331 L419.5,186.062 M420.5,158.017 L420.5,186.595 M421.5,159.168 L421.5,186.225 M422.5,160.319 L422.5,194.694 M423.5,156.707 L423.5,187.35 M424.5,155.44 L424.5,185.18 M425.5,157.99 L425.5,189.066 M426.5,161.66 L426.5,188.4 M427.5,162.779 L427.5,188.052 M428.5,163.354 L428.5,180.962 M429.5,165.25 L429.5,183.406 M430.5,161.01 L430.5,186.584 M431.5,165.292 L431.5,179.219 M432.5,164.59 L432.5,189.213 M433.5,166.321 L433.5,182.361 M434.5,166.427 L434.5,181.447 M435.5,165.223 L435.5,179.235 M436.5,160.15 L436.5,186.178 M437.5,167.747 L437.5,180.719 M438.5,161.77 L438.5,185.206 M439.5,159.938 L439.5,186.542 M440.5,165.45 L440.5,183.253 M441.5,167.061 L441.5,180.787 M442.5,163.75 L442.5,180.307 M443.5,167.235 L443.5,185.275 M444.5,164.31 L444.5,178 M445.5,168.475 L445.5,178.359 M446.5,166.422 L446.5,183.575 M447.5,167.9 L447.5,177.736 M448.5,167.029 L448.5,183.052 M449.5,168.576 L449.5,178.58 M450.5,166.696 L450.5,181.072 M451.5,165.133 L451.5,180.37 M452.5,166.997 L452.5,176.257 M453.5,169.146 L453.5,179.774 M454.5,168.27 L454.5,181.294 M455.5,166.992 L455.5,178.607 M456.5,167.05 L456.5,178.153 M457.5,167.958 L457.5,178.939 M458.5,168.724 L458.5,177.134 M459.5,168.882 L459.5,178.881 M460.5,168.454 L460.5,177.926 M461.5,169.394 L461.5,178.195 M462.5,167.166 L462.5,177.789 M463.5,168.539 L463.5,179.721 M464.5,167.235 L464.5,178.053 M465.5,168.111 L465.5,176.073 M466.5,168.285 L466.5,177.767 M467.5,169.426 L467.5,176.96 M468.5,168.338 L468.5,177.62 M469.5,169.083 L469.5,177.039 M470.5,169.067 L470.5,178.338 M471.5,170.186 L471.5,177.678 M472.5,170.482 L472.5,175.645 M473.5,170.624 L473.5,176.157 M474.5,169.093 L474.5,177.181 M475.5,170.154 L475.5,175.244 M476.5,169.51 L476.5,176.68 M477.5,170.249 L477.5,175.434 M478.5,170.207 L478.5,176.384 M479.5,169.463 L479.5,174.843 M480.5,168.428 L480.5,175.967 M481.5,170.857 L481.5,174.911 M482.5,171.279 L482.5,177.303 M483.5,170.772 L483.5,176.669 M484.5,170.529 L484.5,175.624 M485.5,171.21 L485.5,175.381 M486.5,170.962 L486.5,175.328 M487.5,171.458 L487.5,175.471 M488.5,171.184 L488.5,174.616 M489.5,170.709 L489.5,175.249 M490.5,170.408 L490.5,174.8 M491.5,171.791 L491.5,174.378 M492.5,171.791 L492.5,174.505 M493.5,171.495 L493.5,174.637 M494.5,171.295 L494.5,174.832 M495.5,171.437 L495.5,174.383 M496.5,171.411 L496.5,174.336 M497.5,172.287 L497.5,174.563 M498.5,172.002 L498.5,174.552 M499.5,171.532 L499.5,174.051 M500.5,171.717 L500.5,173.813 M501.5,172.15 L501.5,174.309 M502.5,171.823 L502.5,174.066 M503.5,172.055 L503.5,174.109 M504.5,171.712 L504.5,173.76 M505.5,172.161 L505.5,174.04 M506.5,171.817 L506.5,173.966 M507.5,172.182 L507.5,173.95 M508.5,172.05 L508.5,174.167 M509.5,172.345 L509.5,173.845 M510.5,171.955 L510.5,173.813 M511.5,172.345 L511.5,173.575 M512.5,172.113 L512.5,173.454 M513.5,172.435 L513.5,173.602 M514.5,172.319 L514.5,173.517 M515.5,172.208 L515.5,173.554 M515.5,172.881 L516.5,173.024 L517.5,172.974 L518.5,172.997 L519.5,172.958 L520.5,172.876 L521.5,172.987 L522.5,173.016 L523.5,173.108 L524.5,173.021 L525.5,173.084 L526.5,172.916 L527.5,172.897 L528.5,172.963 L529.5,172.979 L530.5,172.963 L531.5,173.003 L532.5,173 L533.5,173.061 L534.5,173.003 L535.5,173.024 L536.5,173 L537.5,173.024 L538.5,172.987 L539.5,173.021 L540.5,172.997 L541.5,172.987 L542.5,172.958 L543.5,172.982 L544.5,173 L545.5,173.032 L546.5,173 L547.5,172.96 L548.5,172.955 L549.5,173.021 L550.5,172.971 L551.5,173.008 L552.5,173.013 L553.5,173.003 L554.5,172.982 L555.5,172.979 L556.5,173.011 L557.5,173.008 L558.5,172.987 L559.5,173 L560.5,172.997 L561.5,172.992 L562.5,172.997 L563.5,173 L564.5,172.997 L565.5,173 L566.5,173.003 L567.5,173 L568.5,173 L569.5,172.997 L570.5,173 L571.5,173 L572.5,173 L573.5,173 L574.5,173.003 L575.5,173 L576.5,173 L577.5,173 L578.5,172.997 L579.5,173 L580.5,173 L581.5,173 L582.5,173.003 L583.5,173 L584.5,173 L585.5,173.003 L586.5,173 L587.5,173.003 L588.5,173.003 L589.5,173 L590.5,173 L591.5,173 L592.5,173 L593.5,173 L594.5,173 L595.5,173 L596.5,172.997 L597.5,173 L598.5,173 L599.5,172.997 L600.5,173 L601.5,172.997 L602.5,172.997 L603.5,172.997 L604.5,173 L605.5,173 L606.5,173 L607.5,173 L608.5,172.997 L609.5,173 L610.5,173 L611.5,173 L612.5,173.003 L613.5,173 L614.5,173 L615.5,173 L616.5,173 L617.5,173 L618.5,173 L619.5,173.003 L620.5,173 L621.5,172.997 L622.5,173 L623.5,172.997 L624.5,173 L625.5,173 L626.5,173 L627.5,173 L628.5,173 L629.5,172.997 L630.5,173 L631.5,173 L632.5,173 L633.5,173 L634.5,173 L635.5,173 L636.5,173 L637.5,173 L638.5,173.003 L639.5,173 L640.5,173 L641.5,173 L642.5,173 L643.5,173 L644.5,173 L645.5,173.003 L646.5,173 L647.5,173 L648.5,173 L649.5,173 L650.5,173 L651.5,173 L652.5,173 L653.5,173 L654.5,173 L655.5,173 L656.5,173 L657.5,173 L658.5,173 L659.5,173 L660.5,173.003 L661.5,172.997 L662.5,173 L663.5,173 L664.5,173 L665.5,173 L666.5,173 L667.5,173.003 L668.5,173.003 L669.5,173 L670.5,173 L671.5,173.003 L672.5,173.003 L673.5,172.997 L674.5,173 L675.5,173 L676.5,173.003 L677.5,173.003 L678.5,173 L679.5,173 L680.5,173 L681.5,173 L682.5,173 L683.5,173 L684.5,173"/>
</g>

<g fill="none" stroke="#0000c0" stroke-opacity="1" stroke-width="1" stroke-linecap="square" stroke-linejoin="bevel" transform="matrix(1,0,0,1,0,0)"
font-family="Segoe UI" font-size="9" font-weight="400" font-style="normal" 
>
<path vector-effect="non-scaling-stroke" fill-rule="evenodd" d="M57.5,175.919 L57.5,173.382 M58.5,180.857 L58.5,165.143 M59.5,169.904 L59.5,150.982 M60.5,193.394 L60.5,152.606 M61.5,199.537 L61.5,146.463 M62.5,207.184 L62.5,154.703 M63.5,205.236 L63.5,154.83 M64.5,187.75 L64.5,158.25 M65.5,156.985 L65.5,136.531 M66.5,159.535 L66.5,136.837 M67.5,173.853 L67.5,140.386 M68.5,197.802 L68.5,148.198 M69.5,228.978 L69.5,197.9 M70.5,213.13 L70.5,185.816 M71.5,191.348 L71.5,158.441 M72.5,185.294 L72.5,142.497 M73.5,153.918 L73.5,128.167 M74.5,169.207 L74.5,148.631 M75.5,187.374 L75.5,161.646 M76.5,203.503 L76.5,175.494 M77.5,209.741 L77.5,192.653 M78.5,186.641 L78.5,168.483 M79.5,185.526 L79.5,154.501 M80.5,178.225 L80.5,143.89 M81.5,165.015 L81.5,146.929 M82.5,165.955 L82.5,145.821 M83.5,193.048 L83.5,154.466 M84.5,217.912 L84.5,200.387 M85.5,196.884 L85.5,172.226 M86.5,180.898 L86.5,165.102 M87.5,166.483 L87.5,144.453 M88.5,151.23 L88.5,136.149 M89.5,178.288 L89.5,158.635 M90.5,185.564 L90.5,164.946 M91.5,194.091 L91.5,169.634 M92.5,195.376 L92.5,175.658 M93.5,190.595 L93.5,171.967 M94.5,179.138 L94.5,160.831 M95.5,164.609 L95.5,149.386 M96.5,170.031 L96.5,152.352 M97.5,179.782 L97.5,156.296 M98.5,185.631 L98.5,160.369 M99.5,201.76 L99.5,178.873 M100.5,196.557 L100.5,181.972 M101.5,181.051 L101.5,164.949 M102.5,172.502 L102.5,161.11 M103.5,164.292 L103.5,154.617 M104.5,163.579 L104.5,155.224 M105.5,180.359 L105.5,165.641 M106.5,182.371 L106.5,170.468 M107.5,186.242 L107.5,172.78 M108.5,192.995 L108.5,184.332 M109.5,181.113 L109.5,164.887 M110.5,172.623 L110.5,161.859 M111.5,168.03 L111.5,154.157 M112.5,173.051 L112.5,157.239 M113.5,180.276 L113.5,165.724 M114.5,181.679 L114.5,173.784 M115.5,186.915 L115.5,169.444 M116.5,185.48 L116.5,171.513 M117.5,178.832 L117.5,168.388 M118.5,173.051 L118.5,166.552 M119.5,171.05 L119.5,159.856 M120.5,171.926 L120.5,162.554 M121.5,179.627 L121.5,166.373 M122.5,179.301 L122.5,167.564 M123.5,183.886 L123.5,177.474 M124.5,186.994 L124.5,171.603 M125.5,180.152 L125.5,165.98 M126.5,176.503 L126.5,165.644 M127.5,169.001 L127.5,159.9 M128.5,171.91 L128.5,164.093 M129.5,178.158 L129.5,167.842 M130.5,177.74 L130.5,172.258 M131.5,179.391 L131.5,166.609 M132.5,180.388 L132.5,171.767 M133.5,179.482 L133.5,171.429 M134.5,176.541 L134.5,169.459 M135.5,171.673 L135.5,165.274 M136.5,171.335 L136.5,163.679 M137.5,177.913 L137.5,166.374 M138.5,176.856 L138.5,169.37 M139.5,182.824 L139.5,170.901 M140.5,181.465 L140.5,173.461 M141.5,177.693 L141.5,170.822 M142.5,176.065 L142.5,169.527 M143.5,170.147 L143.5,165.387 M144.5,172.206 L144.5,166.012 M145.5,176.502 L145.5,169.498 M146.5,176.445 L146.5,170.294 M147.5,176.515 L147.5,172.089 M148.5,176.679 L148.5,174.185 M149.5,177.629 L149.5,174.517 M150.5,176.725 L150.5,169.718 M151.5,176.076 L151.5,169.341 M152.5,170.337 L152.5,165.722 M153.5,171.134 L153.5,167.594 M154.5,175.491 L154.5,170.509 M155.5,177.715 L155.5,173.968 M156.5,178.827 L156.5,174.343 M157.5,177.293 L157.5,170.732 M158.5,175.215 L158.5,170.785 M159.5,175.083 L159.5,169.833 M160.5,174.027 L160.5,168.509 M161.5,172.707 L161.5,169.101 M162.5,174.851 L162.5,171.487 M163.5,176.078 L163.5,172.179 M164.5,176.844 L164.5,171.788 M165.5,176.227 L165.5,174.47 M166.5,175.587 L166.5,171.334 M167.5,173.484 L167.5,170.782 M168.5,172.987 L168.5,169.656 M169.5,173.536 L169.5,170.111 M170.5,174.18 L170.5,171.064 M171.5,175.266 L171.5,171.983 M172.5,175.761 L172.5,172.105 M173.5,175.625 L173.5,172.585 M174.5,174.989 L174.5,171.011 M175.5,175.188 L175.5,170.812 M176.5,173.394 L176.5,171.006 M177.5,171.24 L177.5,169.139 M178.5,173.288 L178.5,170.659 M179.5,175.02 L179.5,171.983 M180.5,176.305 L180.5,174.945 M181.5,175.801 L181.5,173.166 M182.5,175.195 L182.5,170.805 M183.5,173.109 L183.5,170.401 M184.5,173.325 L184.5,170.645 M185.5,173.283 L185.5,171.653 M186.5,174.138 L186.5,171.988 M187.5,174.69 L187.5,171.814 M188.5,174.355 L188.5,171.878 M189.5,174.381 L189.5,172.432 M190.5,174.312 L190.5,173.118 M191.5,174.511 L191.5,173.034 M192.5,174.181 L192.5,172.96 M193.5,173.167 L193.5,171.629 M194.5,173.668 L194.5,170.823 M195.5,172.327 L195.5,171.263 M197.5,175.227 L197.5,174.169 M198.5,174.938 L198.5,172.685 M199.5,173.784 L199.5,171.649 M201.5,173.784 L201.5,171.687 M399.5,177.419 L399.5,168.581 M400.5,182.961 L400.5,163.039 M401.5,185.414 L401.5,160.586 M402.5,184.066 L402.5,161.934 M403.5,179.425 L403.5,166.575 M404.5,186.552 L404.5,159.448 M405.5,184.107 L405.5,161.893 M406.5,182.766 L406.5,163.234 M407.5,182.76 L407.5,163.24 M408.5,181.484 L408.5,164.516 M409.5,184.188 L409.5,161.812 M410.5,183.586 L410.5,162.414 M411.5,179.856 L411.5,166.144 M412.5,182.611 L412.5,163.389 M413.5,180.598 L413.5,165.402 M414.5,181.438 L414.5,164.562 M415.5,179.269 L415.5,167.591 M416.5,182.299 L416.5,163.701 M417.5,180.049 L417.5,165.951 M418.5,179.27 L418.5,166.73 M419.5,180.179 L419.5,165.821 M420.5,178.889 L420.5,167.111 M421.5,179.492 L421.5,166.508 M422.5,179.909 L422.5,166.091 M423.5,180.86 L423.5,165.14 M424.5,178.699 L424.5,167.301 M425.5,178.377 L425.5,167.623 M426.5,179.188 L426.5,166.812 M427.5,178.46 L427.5,167.54 M428.5,177.098 L428.5,168.902 M429.5,177.127 L429.5,168.873 M430.5,178.875 L430.5,167.125 M431.5,177.202 L431.5,168.798 M432.5,178.79 L432.5,167.21 M433.5,177.11 L433.5,168.89 M434.5,176.51 L434.5,169.49 M435.5,176.514 L435.5,169.486 M436.5,177.272 L436.5,168.728 M437.5,176.729 L437.5,169.271 M438.5,178.221 L438.5,167.779 M439.5,177.626 L439.5,168.374 M440.5,177.064 L440.5,168.936 M441.5,176.228 L441.5,169.772 M442.5,176.626 L442.5,169.374 M443.5,177.099 L443.5,168.901 M444.5,176.125 L444.5,169.875 M445.5,176.032 L445.5,169.968 M446.5,176.953 L446.5,169.047 M447.5,175.785 L447.5,170.215 M448.5,175.855 L448.5,170.145 M449.5,175.732 L449.5,170.268 M450.5,176.392 L450.5,169.608 M451.5,176.047 L451.5,169.953 M452.5,175.257 L452.5,170.643 M453.5,176.133 L453.5,170.146 M454.5,175.878 L454.5,170.122 M455.5,175.843 L455.5,170.157 M456.5,175.691 L456.5,170.309 M457.5,175.283 L457.5,170.717 M458.5,174.848 L458.5,171.152 M459.5,175.19 L459.5,170.81 M460.5,175.629 L460.5,170.371 M461.5,175.278 L461.5,170.722 M462.5,175.321 L462.5,170.679 M463.5,175.208 L463.5,170.792 M464.5,175.524 L464.5,170.476 M465.5,175.073 L465.5,170.818 M466.5,175.539 L466.5,170.461 M467.5,175.537 L467.5,170.463 M468.5,175.044 L468.5,170.956 M469.5,175.235 L469.5,170.765 M470.5,175.672 L470.5,170.328 M471.5,174.885 L471.5,171.186 M472.5,174.616 L472.5,171.482 M473.5,174.85 L473.5,171.624 M474.5,174.935 L474.5,171.065 M475.5,174.244 L475.5,171.583 M476.5,174.592 L476.5,171.408 M477.5,174.434 L477.5,171.249 M478.5,174.786 L478.5,171.214 M479.5,173.843 L479.5,171.572 M480.5,174.786 L480.5,171.214 M481.5,173.911 L481.5,171.857 M482.5,174.315 L482.5,172.279 M483.5,174.284 L483.5,171.772 M484.5,174.389 L484.5,171.611 M485.5,174.381 L485.5,172.21 M486.5,174.328 L486.5,171.962 M487.5,174.166 L487.5,172.458 M488.5,173.616 L488.5,172.184 M489.5,174.249 L489.5,171.709 M490.5,173.8 L490.5,171.778 M493.5,173.637 L493.5,172.495 M494.5,173.832 L494.5,172.295"/>
</g>

<g fill="none" stroke="#000080" stroke-opacity="1" stroke-width="1" stroke-linecap="square" stroke-linejoin="bevel" transform="matrix(1,0,0,1,0,0)"
font-family="Segoe UI" font-size="9" font-weight="400" font-style="normal" 
>
</g>

<g fill="none" stroke="#000000" stroke-opacity="1" stroke-width="1" stroke-linecap="square" stroke-linejoin="bevel" transform="matrix(1,0,0,1,0,0)"
font-family="Segoe UI" font-size="9" font-weight="400" font-style="normal" 
>
</g>

<g fill="#ffffff" fill-opacity="1" stroke="#ffffff" stroke-opacity="1" stroke-width="1" stroke-linecap="square" stroke-linejoin="bevel" transform="matrix(1,0,0,1,0,0)"
font-family="Segoe UI" font-size="9" font-weight="400" font-style="normal" 
>
<rect x="684" y="0" width="684" height="346"/>
</g>

<g fill="none" stroke="#000000" stroke-opacity="1" stroke-width="1" stroke-linecap="square" stroke-linejoin="bevel" transform="matrix(1,0,0,1,0,0)"
font-family="Segoe UI" font-size="9" font-weight="400" font-style="normal" 
>
</g>

<g fill="none" stroke="#0000c0" stroke-opacity="1" stroke-width="1" stroke-linecap="square" stroke-linejoin="bevel" transform="matrix(1,0,0,1,684,0)"
font-family="Segoe UI" font-size="9" font-weight="400" font-style="normal" 
>
<polyline fill="none" vector-effect="non-scaling-stroke" points="0,173.5 684,173.5 " />
</g>

<g fill="none" stroke="#000080" stroke-opacity="1" stroke-width="1" stroke-linecap="square" stroke-linejoin="bevel" transform="matrix(1,0,0,1,684,0)"
font-family="Segoe UI" font-size="9" font-weight="400" font-style="normal" 
>
<path vector-effect="non-scaling-stroke" fill-rule="evenodd" d="M0.5,172.968 L0.5,173.032 M0.5,173 L1.5,173.003 L2.5,173 L3.5,173.003 L4.5,173 L5.5,173 L6.5,173 L7.5,173"/>
</g>

<g fill="none" stroke="#000000" stroke-opacity="1" stroke-width="1" stroke-linecap="square" stroke-linejoin="bevel" transform="matrix(1,0,0,1,0,0)"
font-family="Segoe UI" font-size="9" font-weight="400" font-style="normal" 
>
</g>
</g>
</svg>
