<?xml version="1.0" encoding="UTF-8" standalone="no"?>
<svg width="243.769mm" height="122.061mm"
 viewBox="0 0 691 346"
 xmlns="http://www.w3.org/2000/svg" xmlns:xlink="http://www.w3.org/1999/xlink" version="1.2" baseProfile="tiny">
<title>Exported image from Sonic Visualiser</title>
<desc>Generated with Qt</desc>
<defs>
</defs>
<g fill="none" stroke="black" stroke-width="1" fill-rule="evenodd" stroke-linecap="square" stroke-linejoin="bevel" >

<g fill="#ffffff" fill-opacity="1" stroke="#ffffff" stroke-opacity="1" stroke-width="1" stroke-linecap="square" stroke-linejoin="bevel" transform="matrix(1,0,0,1,0,0)"
font-family="Segoe UI" font-size="9" font-weight="400" font-style="normal" 
>
<rect x="0" y="0" width="684" height="346"/>
</g>

<g fill="none" stroke="#000000" stroke-opacity="1" stroke-width="1" stroke-linecap="square" stroke-linejoin="bevel" transform="matrix(1,0,0,1,0,0)"
font-family="Segoe UI" font-size="9" font-weight="400" font-style="normal" 
>
</g>

<g fill="none" stroke="#0000c0" stroke-opacity="1" stroke-width="1" stroke-linecap="square" stroke-linejoin="bevel" transform="matrix(1,0,0,1,0,0)"
font-family="Segoe UI" font-size="9" font-weight="400" font-style="normal" 
>
<polyline fill="none" vector-effect="non-scaling-stroke" points="0,173.5 684,173.5 " />
</g>

<g fill="none" stroke="#000080" stroke-opacity="1" stroke-width="1" stroke-linecap="square" stroke-linejoin="bevel" transform="matrix(1,0,0,1,0,0)"
font-family="Segoe UI" font-size="9" font-weight="400" font-style="normal" 
>
<path vector-effect="non-scaling-stroke" fill-rule="evenodd" d="M0.5,172.984 L0.5,173.021 M0.5,173.003 L1.5,173 L2.5,173 L3.5,172.997 L4.5,173 L5.5,173 L6.5,173 L7.5,173 L8.5,173 L9.5,173 L10.5,173 L11.5,173.003 L12.5,173 L13.5,172.997 L14.5,172.997 L15.5,173 L16.5,173 L17.5,173 L18.5,173 L19.5,173.003 L20.5,173 L21.5,173 L22.5,173 L23.5,173 L24.5,173 L25.5,172.997 L26.5,173 L27.5,173 L28.5,173 L29.5,173 L30.5,172.997 L31.5,173 L32.5,173.003 L33.5,173 L34.5,173 L35.5,173 L36.5,173.003 L37.5,173.005 L38.5,173.005 L39.5,172.989 L40.5,172.997 L41.5,172.997 L42.5,172.992 L43.5,172.989 L44.5,172.987 L45.5,173.008 L46.5,172.997 L47.5,173.003 L48.5,172.992 L49.5,172.945 L50.5,172.926 L51.5,173.026 L52.5,172.934 L53.5,173 L54.5,172.982 L55.5,173.04 M56.5,172.667 L56.5,173.707 M57.5,165.091 L57.5,177.456 M58.5,146.402 L58.5,194.414 M59.5,129.713 L59.5,199.873 M60.5,124.529 L60.5,184.958 M61.5,113.494 L61.5,168.787 M62.5,121.266 L62.5,175.223 M63.5,144.184 L63.5,222.517 M64.5,178.132 L64.5,239.564 M65.5,197.756 L65.5,236.048 M66.5,189.356 L66.5,248.26 M67.5,180.634 L67.5,218.156 M68.5,160.767 L68.5,199.176 M69.5,142.69 L69.5,171.622 M70.5,100.739 L70.5,149.158 M71.5,96.51 L71.5,135.209 M72.5,102.539 L72.5,127.1 M73.5,102.909 L73.5,144.11 M74.5,141.603 L74.5,170.577 M75.5,157.742 L75.5,199.134 M76.5,180.022 L76.5,223.694 M77.5,214.566 L77.5,247.352 M78.5,228.947 L78.5,255.361 M79.5,222.533 L79.5,259.738 M80.5,201.969 L80.5,235.953 M81.5,184.272 L81.5,212.597 M82.5,164.12 L82.5,191.864 M83.5,147.906 L83.5,173.38 M84.5,124.159 L84.5,153.946 M85.5,120.69 L85.5,147.025 M86.5,114.936 L86.5,134.016 M87.5,118.061 L87.5,142.315 M88.5,124.708 L88.5,143.313 M89.5,134 L89.5,157.33 M90.5,141.064 L90.5,172.129 M91.5,159.653 L91.5,188.247 M92.5,168.761 L92.5,198.014 M93.5,182.123 L93.5,206.092 M94.5,187.851 L94.5,206.731 M95.5,187.318 L95.5,209.841 M96.5,185.032 L96.5,207.301 M97.5,192.402 L97.5,205.448 M98.5,195.38 L98.5,210.025 M99.5,193.859 L99.5,209.577 M100.5,196.019 L100.5,212.047 M101.5,190.85 L101.5,209.292 M102.5,181.342 L102.5,195.322 M103.5,166.971 L103.5,188.627 M104.5,159.516 L104.5,174.753 M105.5,147.927 L105.5,160.456 M106.5,133.942 L106.5,149.4 M107.5,128.018 L107.5,139.533 M108.5,121.202 L108.5,132.759 M109.5,118.077 L109.5,132.87 M110.5,126.63 L110.5,138.73 M111.5,135.214 L111.5,154.02 M112.5,147.204 L112.5,166.342 M113.5,165.783 L113.5,185.576 M114.5,179.314 L114.5,198.173 M115.5,193.997 L115.5,205.95 M116.5,202.36 L116.5,210.474 M117.5,203.336 L117.5,212.111 M118.5,197.724 L118.5,210.39 M119.5,190.301 L119.5,203.695 M120.5,184.261 L120.5,195.892 M121.5,173.523 L121.5,188.416 M122.5,165.192 L122.5,175.814 M123.5,160.297 L123.5,170.038 M124.5,156.734 L124.5,166.369 M125.5,155.081 L125.5,161.971 M126.5,154.632 L126.5,162.061 M127.5,156.375 L127.5,164.954 M128.5,160.25 L128.5,168.211 M129.5,164.474 L129.5,171.981 M130.5,166.506 L130.5,174.589 M131.5,167.372 L131.5,175.592 M132.5,171.67 L132.5,176.965 M133.5,173.354 L133.5,177.261 M134.5,171.78 L134.5,177.224 M135.5,169.954 L135.5,176.389 M136.5,170.471 L136.5,175.418 M137.5,168.449 L137.5,175.196 M138.5,168.217 L138.5,174.969 M139.5,168.523 L139.5,172.82 M140.5,170.983 L140.5,175.323 M141.5,170.83 L141.5,174.521 M142.5,171.743 L142.5,176.569 M143.5,172.868 L143.5,177.166 M144.5,173.29 L144.5,176.548 M145.5,174.484 L145.5,177.477 M146.5,173.792 L146.5,177.356 M147.5,172.852 L147.5,176.015 M148.5,172.673 L148.5,176.426 M149.5,172.694 L149.5,175.576 M150.5,171.464 L150.5,175.159 M151.5,171.21 L151.5,175.027 M152.5,171.685 L152.5,174.177 M153.5,170.909 L153.5,174.019 M154.5,170.788 L154.5,173.628 M155.5,170.677 L155.5,172.725 M156.5,170.445 L156.5,172.794 M157.5,169.743 L157.5,172.366 M158.5,170.054 L158.5,171.902 M159.5,169.801 L159.5,172.092 M160.5,170.218 L160.5,172.535 M161.5,170.709 L161.5,172.43 M162.5,171.105 L162.5,172.868 M163.5,171.421 L163.5,173.845 M164.5,171.844 L164.5,174.098 M165.5,172.884 L165.5,174.156 M166.5,173.143 L166.5,174.811 M167.5,172.942 L167.5,174.827 M167.5,173.884 L168.5,174.043 M169.5,173.095 L169.5,174.605 M169.5,173.85 L170.5,174.053 M171.5,172.963 L171.5,174.473 M172.5,172.836 L172.5,174.156 M173.5,172.884 L173.5,174.066 M174.5,172.419 L174.5,173.702 M174.5,173.061 L175.5,172.982 L176.5,173.185 L177.5,173.174 L178.5,173.084 L179.5,172.958 L180.5,172.968 L181.5,173.124 L182.5,173.045 L183.5,173.053 L184.5,173 L185.5,172.995 L186.5,173.008 L187.5,173.092 L188.5,173.069 L189.5,172.95 L190.5,173.066 L191.5,173.003 L192.5,173.013 L193.5,172.992 L194.5,172.984 L195.5,172.995 L196.5,173.037 L197.5,173.011 L198.5,172.992 L199.5,172.974 L200.5,173 L201.5,172.982 L202.5,172.984 L203.5,172.974 L204.5,172.995 L205.5,172.952 L206.5,172.971 L207.5,172.968 L208.5,172.976 L209.5,172.987 L210.5,172.976 L211.5,172.979 L212.5,172.952 L213.5,172.984 L214.5,172.968 L215.5,172.966 L216.5,172.968 L217.5,172.968 L218.5,172.942 L219.5,172.963 L220.5,172.963 L221.5,172.96 L222.5,172.958 L223.5,172.958 L224.5,172.958 L225.5,172.96 L226.5,172.96 L227.5,172.958 L228.5,172.958 L229.5,172.958 L230.5,172.958 L231.5,172.958 L232.5,172.958 L233.5,172.963 L234.5,172.958 L235.5,172.96 L236.5,172.958 L237.5,172.96 L238.5,172.96 L239.5,172.963 L240.5,172.963 L241.5,172.963 L242.5,172.958 L243.5,172.96 L244.5,172.958 L245.5,172.963 L246.5,172.966 L247.5,172.963 L248.5,172.96 L249.5,172.963 L250.5,172.966 L251.5,172.963 L252.5,172.966 L253.5,172.963 L254.5,172.966 L255.5,172.968 L256.5,172.963 L257.5,172.966 L258.5,172.966 L259.5,172.971 L260.5,172.968 L261.5,172.974 L262.5,172.971 L263.5,172.968 L264.5,172.971 L265.5,172.968 L266.5,172.971 L267.5,172.974 L268.5,172.979 L269.5,172.971 L270.5,172.976 L271.5,172.976 L272.5,172.974 L273.5,172.979 L274.5,172.971 L275.5,172.974 L276.5,172.979 L277.5,172.984 L278.5,172.976 L279.5,172.982 L280.5,172.982 L281.5,172.982 L282.5,172.984 L283.5,172.987 L284.5,172.984 L285.5,172.984 L286.5,172.979 L287.5,172.987 L288.5,172.987 L289.5,172.987 L290.5,172.987 L291.5,172.992 L292.5,172.984 L293.5,172.989 L294.5,172.995 L295.5,172.992 L296.5,172.992 L297.5,172.995 L298.5,172.989 L299.5,172.992 L300.5,172.989 L301.5,172.992 L302.5,172.997 L303.5,172.992 L304.5,172.992 L305.5,172.997 L306.5,172.995 L307.5,172.992 L308.5,172.997 L309.5,172.995 L310.5,172.997 L311.5,173 L312.5,172.997 L313.5,172.995 L314.5,172.997 L315.5,172.997 L316.5,172.997 L317.5,172.995 L318.5,173.005 L319.5,173.003 L320.5,173 L321.5,173.003 L322.5,173.003 L323.5,173.005 L324.5,173.003 L325.5,173 L326.5,173.003 L327.5,173.008 L328.5,173.005 L329.5,173.005 L330.5,173.003 L331.5,173.008 L332.5,173.008 L333.5,173.008 L334.5,173.011 L335.5,173.008 L336.5,173.005 L337.5,173.008 L338.5,173.011 L339.5,173.008 L340.5,173.013 L341.5,173.011 L342.5,173.013 L343.5,173.016 L344.5,173.008 L345.5,173.013 L346.5,173.011 L347.5,173.013 L348.5,173.016 L349.5,173.016 L350.5,173.011 L351.5,173.011 L352.5,173.005 L353.5,173 L354.5,173 L355.5,172.997 L356.5,173 L357.5,173 L358.5,173 L359.5,173 L360.5,173 L361.5,172.997 L362.5,173 L363.5,173 L364.5,173 L365.5,173 L366.5,173 L367.5,173 L368.5,173.003 L369.5,173 L370.5,173 L371.5,173 L372.5,173 L373.5,173 L374.5,173 L375.5,173 L376.5,172.997 L377.5,173 L378.5,173.003 L379.5,173 L380.5,172.997 L381.5,172.997 L382.5,173 L383.5,173.003 L384.5,173 L385.5,173 L386.5,173 L387.5,173 L388.5,173 L389.5,173 L390.5,173.003 L391.5,172.989 L392.5,173.018 L393.5,172.992 L394.5,172.982 L395.5,172.976 L396.5,172.995 L397.5,173.034 L398.5,173 M399.5,153.487 L399.5,189.161 M400.5,129.618 L400.5,204.751 M401.5,102.18 L401.5,250.879 M402.5,117.174 L402.5,189.287 M403.5,118.99 L403.5,173.57 M404.5,111.947 L404.5,164.553 M405.5,126.155 L405.5,185.571 M406.5,149.427 L406.5,221.197 M407.5,168.866 L407.5,240.166 M408.5,195.95 L408.5,247.505 M409.5,191.035 L409.5,245.166 M410.5,169.146 L410.5,220.421 M411.5,158.603 L411.5,206.515 M412.5,119.624 L412.5,178.702 M413.5,102.217 L413.5,138.826 M414.5,93.733 L414.5,131.402 M415.5,106.874 L415.5,136.582 M416.5,114.101 L416.5,166.87 M417.5,146.829 L417.5,177.086 M418.5,164.627 L418.5,203.764 M419.5,187.614 L419.5,229.993 M420.5,208.806 L420.5,245.852 M421.5,224.945 L421.5,252.14 M422.5,218.758 L422.5,253.756 M423.5,194.234 L423.5,237.711 M424.5,183.052 L424.5,217.353 M425.5,157.864 L425.5,191.79 M426.5,143.751 L426.5,179.256 M427.5,125.21 L427.5,155.34 M428.5,121.989 L428.5,137.944 M429.5,118.309 L429.5,135.22 M430.5,118.225 L430.5,141.444 M431.5,126.741 L431.5,141.798 M432.5,135.959 L432.5,164.706 M433.5,151.676 L433.5,173.343 M434.5,166.321 L434.5,180.439 M435.5,173.882 L435.5,191.468 M436.5,179.404 L436.5,206.029 M437.5,190.95 L437.5,205.86 M438.5,187.218 L438.5,210.712 M439.5,185.217 L439.5,212.121 M440.5,192.022 L440.5,209.577 M441.5,195.639 L441.5,210.062 M442.5,194.53 L442.5,211.097 M443.5,195.897 L443.5,216.018 M444.5,186.605 L444.5,206.335 M445.5,180.08 L445.5,196.573 M446.5,164.569 L446.5,192.587 M447.5,153.92 L447.5,171.522 M448.5,140.394 L448.5,163.777 M449.5,134.75 L449.5,148.915 M450.5,122.871 L450.5,140.309 M451.5,118.705 L451.5,133.345 M452.5,121.16 L452.5,132.849 M453.5,125.97 L453.5,141.56 M454.5,136.122 L454.5,153.159 M455.5,151.143 L455.5,170.376 M456.5,164.833 L456.5,184.895 M457.5,180.333 L457.5,199.392 M458.5,194.086 L458.5,206.731 M459.5,202.418 L459.5,211.71 M460.5,202.138 L460.5,211.952 M461.5,198.03 L461.5,209.756 M462.5,188.791 L462.5,200.971 M463.5,183.966 L463.5,195.644 M464.5,173.702 L464.5,188.026 M465.5,163.835 L465.5,176.833 M466.5,157.415 L466.5,169.12 M467.5,156.728 L467.5,164.938 M468.5,154.168 L468.5,163.386 M469.5,155.409 L469.5,163.988 M470.5,156.633 L470.5,167.684 M471.5,161.195 L471.5,170.038 M472.5,164.6 L472.5,170.814 M473.5,167.324 L473.5,173.956 M474.5,168.871 L474.5,177.213 M475.5,171.527 L475.5,176.954 M476.5,171.812 L476.5,178.86 M477.5,172.007 L477.5,177.028 M478.5,170.83 L478.5,177.166 M479.5,169.547 L479.5,174.763 M480.5,167.335 L480.5,174.985 M481.5,169.368 L481.5,173.417 M482.5,169.933 L482.5,175.941 M483.5,169.69 L483.5,175.656 M484.5,169.991 L484.5,175.196 M485.5,171.918 L485.5,176.907 M486.5,172.731 L486.5,177.298 M487.5,174.008 L487.5,177.989 M488.5,174.014 L488.5,177.414 M489.5,173.111 L489.5,177.525 M490.5,172.066 L490.5,176.532 M491.5,173.132 L491.5,175.561 M492.5,172.498 L492.5,175.592 M493.5,172.176 L493.5,175.323 M494.5,171.479 L494.5,175.001 M495.5,171.284 L495.5,174.135 M496.5,170.725 L496.5,174.061 M497.5,171.168 L497.5,173.792 M498.5,170.524 L498.5,173.407 M499.5,170.038 L499.5,172.562 M500.5,169.922 L500.5,172.076 M501.5,170.08 L501.5,172.287 M502.5,169.853 L502.5,172.087 M503.5,170.165 L503.5,172.351 M504.5,170.371 L504.5,172.409 M505.5,171.231 L505.5,173.148 M506.5,171.358 L506.5,173.903 M507.5,172.308 L507.5,174.103 M508.5,172.541 L508.5,174.821 M509.5,173.164 L509.5,174.658 M510.5,173.164 L510.5,174.985 M511.5,173.438 L511.5,174.7 M512.5,173.195 L512.5,174.521 M513.5,173.422 L513.5,174.626 M514.5,173.18 L514.5,174.505 M515.5,172.762 L515.5,174.114 M516.5,172.852 L516.5,173.871 M516.5,173.362 L517.5,173.058 L518.5,173.077 L519.5,173.04 L520.5,172.96 L521.5,173.058 L522.5,173.082 L523.5,173.103 L524.5,173.077 L525.5,173.129 L526.5,172.963 L527.5,172.939 L528.5,173 L529.5,173.018 L530.5,172.992 L531.5,173.024 L532.5,173.021 L533.5,173.079 L534.5,173.011 L535.5,173.029 L536.5,173.003 L537.5,173.029 L538.5,172.987 L539.5,173.026 L540.5,172.989 L541.5,172.974 L542.5,172.952 L543.5,172.968 L544.5,172.984 L545.5,173.021 L546.5,172.974 L547.5,172.937 L548.5,172.934 L549.5,172.995 L550.5,172.947 L551.5,172.974 L552.5,172.989 L553.5,172.966 L554.5,172.96 L555.5,172.947 L556.5,172.982 L557.5,172.966 L558.5,172.947 L559.5,172.96 L560.5,172.963 L561.5,172.963 L562.5,172.963 L563.5,172.966 L564.5,172.96 L565.5,172.963 L566.5,172.96 L567.5,172.96 L568.5,172.963 L569.5,172.958 L570.5,172.958 L571.5,172.955 L572.5,172.958 L573.5,172.96 L574.5,172.955 L575.5,172.96 L576.5,172.96 L577.5,172.96 L578.5,172.963 L579.5,172.958 L580.5,172.958 L581.5,172.963 L582.5,172.963 L583.5,172.96 L584.5,172.96 L585.5,172.966 L586.5,172.96 L587.5,172.96 L588.5,172.96 L589.5,172.963 L590.5,172.963 L591.5,172.966 L592.5,172.96 L593.5,172.963 L594.5,172.963 L595.5,172.966 L596.5,172.974 L597.5,172.968 L598.5,172.963 L599.5,172.963 L600.5,172.966 L601.5,172.968 L602.5,172.971 L603.5,172.966 L604.5,172.968 L605.5,172.976 L606.5,172.968 L607.5,172.971 L608.5,172.974 L609.5,172.974 L610.5,172.971 L611.5,172.971 L612.5,172.974 L613.5,172.976 L614.5,172.976 L615.5,172.976 L616.5,172.976 L617.5,172.974 L618.5,172.974 L619.5,172.976 L620.5,172.979 L621.5,172.979 L622.5,172.979 L623.5,172.979 L624.5,172.979 L625.5,172.984 L626.5,172.982 L627.5,172.982 L628.5,172.982 L629.5,172.982 L630.5,172.982 L631.5,172.989 L632.5,172.984 L633.5,172.984 L634.5,172.984 L635.5,172.992 L636.5,172.987 L637.5,172.992 L638.5,172.992 L639.5,172.984 L640.5,172.995 L641.5,172.987 L642.5,172.995 L643.5,172.992 L644.5,172.995 L645.5,172.997 L646.5,172.995 L647.5,172.997 L648.5,172.995 L649.5,172.997 L650.5,172.995 L651.5,173 L652.5,172.995 L653.5,172.995 L654.5,173 L655.5,172.997 L656.5,173 L657.5,172.995 L658.5,172.997 L659.5,172.997 L660.5,173 L661.5,173.003 L662.5,173 L663.5,173.005 L664.5,173.005 L665.5,173.003 L666.5,173.003 L667.5,173.003 L668.5,173.003 L669.5,173.003 L670.5,173.005 L671.5,173.003 L672.5,173.011 L673.5,173.005 L674.5,173 L675.5,173.008 L676.5,173.008 L677.5,173.011 L678.5,173.013 L679.5,173.008 L680.5,173.008 L681.5,173.011 L682.5,173.011 L683.5,173.011 L684.5,173.011"/>
</g>

<g fill="none" stroke="#0000c0" stroke-opacity="1" stroke-width="1" stroke-linecap="square" stroke-linejoin="bevel" transform="matrix(1,0,0,1,0,0)"
font-family="Segoe UI" font-size="9" font-weight="400" font-style="normal" 
>
<path vector-effect="non-scaling-stroke" fill-rule="evenodd" d="M57.5,174.708 L57.5,171.292 M58.5,182.572 L58.5,163.428 M59.5,184.383 L59.5,161.617 M60.5,183.958 L60.5,141.33 M61.5,167.787 L61.5,138.968 M62.5,174.223 L62.5,150.345 M63.5,190.124 L63.5,155.876 M64.5,210.09 L64.5,179.132 M65.5,219.837 L65.5,198.756 M66.5,221.375 L66.5,190.356 M67.5,198.318 L67.5,181.634 M68.5,182.364 L68.5,163.636 M69.5,170.622 L69.5,156.253 M70.5,148.158 L70.5,125.34 M71.5,134.209 L71.5,116.617 M72.5,126.1 L72.5,114.878 M73.5,143.11 L73.5,128.634 M74.5,169.577 L74.5,156.081 M75.5,185.3 L75.5,160.7 M76.5,204.565 L76.5,181.022 M77.5,228.572 L77.5,215.566 M78.5,240.459 L78.5,229.947 M79.5,239.355 L79.5,223.533 M80.5,220.593 L80.5,202.969 M81.5,199.586 L81.5,185.272 M82.5,181.777 L82.5,165.12 M83.5,172.38 L83.5,159.415 M84.5,152.946 L84.5,142.716 M85.5,146.025 L85.5,130.039 M86.5,133.016 L86.5,124.375 M87.5,141.315 L87.5,128.886 M88.5,142.313 L88.5,132.373 M89.5,156.33 L89.5,146.665 M90.5,171.129 L90.5,157.312 M91.5,179.194 L91.5,166.806 M92.5,182.375 L92.5,169.761 M93.5,191.927 L93.5,183.123 M94.5,196.602 L94.5,188.851 M95.5,199.196 L95.5,188.318 M96.5,198.369 L96.5,186.032 M97.5,200.268 L97.5,193.402 M98.5,201.758 L98.5,196.38 M99.5,202.718 L99.5,194.859 M100.5,204.577 L100.5,197.019 M101.5,199.41 L101.5,191.85 M102.5,190.366 L102.5,182.342 M103.5,180.476 L103.5,167.971 M104.5,173.753 L104.5,165.121 M105.5,159.456 L105.5,153.865 M106.5,148.4 L106.5,141.005 M107.5,138.533 L107.5,132.28 M108.5,131.759 L108.5,126.773 M109.5,131.87 L109.5,126.201 M110.5,137.73 L110.5,132.928 M111.5,153.02 L111.5,143.815 M112.5,165.342 L112.5,157.923 M113.5,178.099 L113.5,167.901 M114.5,189.116 L114.5,180.314 M115.5,200.477 L115.5,194.997 M116.5,206.348 L116.5,203.36 M117.5,207.411 L117.5,204.336 M118.5,204.269 L118.5,198.724 M119.5,197.905 L119.5,191.301 M120.5,189.413 L120.5,185.261 M121.5,181.636 L121.5,174.523 M122.5,174.814 L122.5,170.497 M123.5,169.038 L123.5,164.423 M124.5,165.369 L124.5,160.565 M125.5,160.971 L125.5,158.215 M126.5,161.061 L126.5,158.575 M127.5,163.954 L127.5,161.171 M128.5,167.211 L128.5,163.495 M129.5,170.981 L129.5,166.884 M130.5,173.589 L130.5,169.822 M131.5,174.592 L131.5,171.011 M132.5,175.199 L132.5,172.67 M133.5,175.824 L133.5,174.354 M134.5,175.283 L134.5,172.78 M135.5,174.907 L135.5,171.093 M136.5,174.418 L136.5,171.471 M137.5,174.196 L137.5,170.976 M138.5,173.969 L138.5,170.567 M139.5,171.82 L139.5,170.774 M140.5,174.323 L140.5,171.983 M141.5,173.521 L141.5,171.83 M142.5,174.604 L142.5,172.743 M143.5,175.614 L143.5,173.868 M144.5,175.548 L144.5,174.29 M146.5,176.025 L146.5,174.792 M147.5,175.015 L147.5,173.852 M148.5,174.83 L148.5,173.673 M150.5,174.159 L150.5,172.464 M151.5,174.027 L151.5,172.21 M153.5,173.019 L153.5,171.909 M399.5,177.791 L399.5,168.209 M400.5,185.388 L400.5,160.612 M401.5,200.756 L401.5,145.244 M402.5,188.287 L402.5,157.608 M403.5,172.57 L403.5,136.17 M404.5,163.553 L404.5,140.948 M405.5,184.571 L405.5,151.399 M406.5,191.298 L406.5,154.702 M407.5,210.728 L407.5,169.866 M408.5,223.588 L408.5,196.95 M409.5,217.326 L409.5,192.035 M410.5,194.19 L410.5,170.146 M411.5,181.556 L411.5,164.444 M412.5,177.702 L412.5,153.095 M413.5,137.826 L413.5,120.46 M414.5,130.402 L414.5,113.232 M415.5,135.582 L415.5,118.108 M416.5,165.87 L416.5,132.735 M417.5,176.086 L417.5,158.074 M418.5,186.499 L418.5,165.627 M419.5,211.722 L419.5,188.614 M420.5,228.402 L420.5,209.806 M421.5,240.299 L421.5,225.945 M422.5,239.225 L422.5,219.758 M423.5,218.109 L423.5,195.234 M424.5,198.237 L424.5,184.052 M425.5,180.828 L425.5,165.172 M426.5,178.256 L426.5,157.205 M427.5,154.34 L427.5,139.701 M428.5,136.944 L428.5,128.933 M429.5,134.22 L429.5,125.815 M430.5,140.444 L430.5,128.935 M431.5,140.798 L431.5,133.138 M432.5,163.706 L432.5,148.119 M433.5,172.343 L433.5,159.599 M434.5,177.562 L434.5,168.438 M435.5,182.97 L435.5,174.882 M436.5,192.369 L436.5,180.404 M437.5,196.786 L437.5,191.95 M438.5,198.741 L438.5,188.218 M439.5,199.089 L439.5,186.217 M440.5,200.703 L440.5,193.022 M441.5,202.687 L441.5,196.639 M442.5,203.259 L442.5,195.53 M443.5,204.835 L443.5,196.897 M444.5,197.532 L444.5,187.605 M445.5,189.654 L445.5,181.08 M446.5,179.949 L446.5,166.051 M447.5,170.522 L447.5,163.701 M448.5,162.777 L448.5,152.009 M449.5,147.915 L449.5,139.841 M450.5,139.309 L450.5,131.758 M451.5,132.345 L451.5,125.991 M452.5,131.849 L452.5,126.375 M453.5,140.56 L453.5,134.177 M454.5,152.159 L454.5,145.219 M455.5,169.376 L455.5,160.084 M456.5,179.39 L456.5,166.61 M457.5,190.73 L457.5,181.333 M458.5,201.601 L458.5,195.086 M459.5,206.82 L459.5,203.418 M460.5,207.117 L460.5,203.138 M461.5,204.293 L461.5,199.03 M462.5,196.757 L462.5,189.791 M463.5,189.273 L463.5,184.966 M464.5,180.222 L464.5,174.702 M465.5,175.833 L465.5,169.42 M466.5,168.12 L466.5,163.539 M467.5,163.938 L467.5,159.854 M468.5,162.386 L468.5,157.911 M469.5,162.988 L469.5,158.638 M470.5,166.684 L470.5,161.546 M471.5,169.038 L471.5,163.797 M472.5,169.814 L472.5,167.129 M473.5,172.956 L473.5,170.304 M474.5,174.942 L474.5,171.058 M475.5,175.471 L475.5,172.527 M476.5,176.155 L476.5,172.812 M477.5,175.241 L477.5,173.007 M478.5,174.674 L478.5,171.83 M479.5,173.763 L479.5,171.635 M480.5,173.985 L480.5,170.854 M481.5,172.417 L481.5,170.976 M482.5,174.941 L482.5,170.933 M483.5,174.656 L483.5,171.07 M484.5,174.196 L484.5,171.586 M485.5,174.995 L485.5,172.918 M486.5,175.668 L486.5,173.731 M488.5,176.344 L488.5,175.014 M489.5,175.798 L489.5,174.111 M490.5,175.371 L490.5,173.066 M492.5,174.592 L492.5,173.498 M493.5,174.213 L493.5,173.176 M494.5,174.001 L494.5,172.479 M496.5,173.061 L496.5,171.732"/>
</g>

<g fill="none" stroke="#000080" stroke-opacity="1" stroke-width="1" stroke-linecap="square" stroke-linejoin="bevel" transform="matrix(1,0,0,1,0,0)"
font-family="Segoe UI" font-size="9" font-weight="400" font-style="normal" 
>
</g>

<g fill="none" stroke="#000000" stroke-opacity="1" stroke-width="1" stroke-linecap="square" stroke-linejoin="bevel" transform="matrix(1,0,0,1,0,0)"
font-family="Segoe UI" font-size="9" font-weight="400" font-style="normal" 
>
</g>

<g fill="#ffffff" fill-opacity="1" stroke="#ffffff" stroke-opacity="1" stroke-width="1" stroke-linecap="square" stroke-linejoin="bevel" transform="matrix(1,0,0,1,0,0)"
font-family="Segoe UI" font-size="9" font-weight="400" font-style="normal" 
>
<rect x="684" y="0" width="684" height="346"/>
</g>

<g fill="none" stroke="#000000" stroke-opacity="1" stroke-width="1" stroke-linecap="square" stroke-linejoin="bevel" transform="matrix(1,0,0,1,0,0)"
font-family="Segoe UI" font-size="9" font-weight="400" font-style="normal" 
>
</g>

<g fill="none" stroke="#0000c0" stroke-opacity="1" stroke-width="1" stroke-linecap="square" stroke-linejoin="bevel" transform="matrix(1,0,0,1,684,0)"
font-family="Segoe UI" font-size="9" font-weight="400" font-style="normal" 
>
<polyline fill="none" vector-effect="non-scaling-stroke" points="0,173.5 684,173.5 " />
</g>

<g fill="none" stroke="#000080" stroke-opacity="1" stroke-width="1" stroke-linecap="square" stroke-linejoin="bevel" transform="matrix(1,0,0,1,684,0)"
font-family="Segoe UI" font-size="9" font-weight="400" font-style="normal" 
>
<path vector-effect="non-scaling-stroke" fill-rule="evenodd" d="M0.5,172.979 L0.5,173.042 M0.5,173.011 L1.5,173.013 L2.5,173.013 L3.5,173.011 L4.5,173.011 L5.5,173.008 L6.5,173.011 L7.5,173.008"/>
</g>

<g fill="none" stroke="#000000" stroke-opacity="1" stroke-width="1" stroke-linecap="square" stroke-linejoin="bevel" transform="matrix(1,0,0,1,0,0)"
font-family="Segoe UI" font-size="9" font-weight="400" font-style="normal" 
>
</g>
</g>
</svg>
