<?xml version="1.0" encoding="UTF-8" standalone="no"?>
<svg width="243.769mm" height="122.061mm"
 viewBox="0 0 691 346"
 xmlns="http://www.w3.org/2000/svg" xmlns:xlink="http://www.w3.org/1999/xlink" version="1.2" baseProfile="tiny">
<title>Exported image from Sonic Visualiser</title>
<desc>Generated with Qt</desc>
<defs>
</defs>
<g fill="none" stroke="black" stroke-width="1" fill-rule="evenodd" stroke-linecap="square" stroke-linejoin="bevel" >

<g fill="#ffffff" fill-opacity="1" stroke="#ffffff" stroke-opacity="1" stroke-width="1" stroke-linecap="square" stroke-linejoin="bevel" transform="matrix(1,0,0,1,0,0)"
font-family="Segoe UI" font-size="9" font-weight="400" font-style="normal" 
>
<rect x="0" y="0" width="684" height="346"/>
</g>

<g fill="none" stroke="#000000" stroke-opacity="1" stroke-width="1" stroke-linecap="square" stroke-linejoin="bevel" transform="matrix(1,0,0,1,0,0)"
font-family="Segoe UI" font-size="9" font-weight="400" font-style="normal" 
>
</g>

<g fill="none" stroke="#0000c0" stroke-opacity="1" stroke-width="1" stroke-linecap="square" stroke-linejoin="bevel" transform="matrix(1,0,0,1,0,0)"
font-family="Segoe UI" font-size="9" font-weight="400" font-style="normal" 
>
<polyline fill="none" vector-effect="non-scaling-stroke" points="0,173.5 684,173.5 " />
</g>

<g fill="none" stroke="#000080" stroke-opacity="1" stroke-width="1" stroke-linecap="square" stroke-linejoin="bevel" transform="matrix(1,0,0,1,0,0)"
font-family="Segoe UI" font-size="9" font-weight="400" font-style="normal" 
>
<path vector-effect="non-scaling-stroke" fill-rule="evenodd" d="M0.5,172.984 L0.5,173.021 M0.5,173.003 L1.5,173 L2.5,173 L3.5,172.997 L4.5,173 L5.5,173 L6.5,173 L7.5,173 L8.5,173 L9.5,173 L10.5,173 L11.5,173.003 L12.5,173 L13.5,172.997 L14.5,172.997 L15.5,173 L16.5,173 L17.5,173 L18.5,173 L19.5,173.003 L20.5,173 L21.5,173 L22.5,173 L23.5,173 L24.5,173 L25.5,172.997 L26.5,173 L27.5,173 L28.5,173 L29.5,173 L30.5,172.997 L31.5,173 L32.5,173 L33.5,173 L34.5,172.997 L35.5,172.995 L36.5,172.997 L37.5,173.005 L38.5,173 L39.5,173.005 L40.5,173.016 L41.5,172.997 L42.5,173.018 L43.5,173.011 L44.5,172.995 L45.5,172.989 L46.5,173.013 L47.5,173.053 L48.5,172.971 L49.5,172.966 L50.5,173.005 L51.5,173.003 L52.5,173.032 L53.5,172.987 L54.5,173.016 L55.5,173 L56.5,172.77 M57.5,168.079 L57.5,177.53 M58.5,148.213 L58.5,198.236 M59.5,141.286 L59.5,184.182 M60.5,120.991 L60.5,183.158 M61.5,112.586 L61.5,171.469 M62.5,122.66 L62.5,179.589 M63.5,151.998 L63.5,222.976 M64.5,166.538 L64.5,240.61 M65.5,197.344 L65.5,249.068 M66.5,195.137 L66.5,251.264 M67.5,171.015 L67.5,222.321 M68.5,156.28 L68.5,208.051 M69.5,115.363 L69.5,178.327 M70.5,102.814 L70.5,162.129 M71.5,99.229 L71.5,136.809 M72.5,96.7951 L72.5,127.015 M73.5,109.978 L73.5,167.309 M74.5,133.989 L74.5,174.425 M75.5,153.656 L75.5,207.734 M76.5,179.351 L76.5,226.503 M77.5,208.69 L77.5,241.217 M78.5,224.882 L78.5,250.219 M79.5,219.998 L79.5,261.348 M80.5,202.581 L80.5,256.623 M81.5,187.45 L81.5,217.343 M82.5,158.254 L82.5,193.939 M83.5,141.449 L83.5,181.738 M84.5,126.487 L84.5,155.108 M85.5,122.068 L85.5,146.887 M86.5,119.402 L86.5,136.202 M87.5,118.41 L87.5,139.01 M88.5,117.079 L88.5,138.931 M89.5,131.851 L89.5,163.18 M90.5,142.21 L90.5,171.21 M91.5,159.3 L91.5,189.224 M92.5,169.621 L92.5,190.111 M93.5,181.532 L93.5,200.691 M94.5,187.387 L94.5,203.648 M95.5,190.882 L95.5,206.905 M96.5,188.4 L96.5,211.551 M97.5,195.655 L97.5,206.224 M98.5,194.731 L98.5,205.87 M99.5,198.12 L99.5,211.747 M100.5,195.575 L100.5,211.118 M101.5,192.408 L101.5,204.735 M102.5,181.643 L102.5,197.117 M103.5,165.688 L103.5,187.82 M104.5,159.743 L104.5,174.853 M105.5,142.384 L105.5,163.576 M106.5,133.968 L106.5,149.189 M107.5,122.797 L107.5,140.531 M108.5,118.985 L108.5,136.386 M109.5,121.54 L109.5,132.363 M110.5,125.685 L110.5,139.602 M111.5,136.291 L111.5,153.223 M112.5,146.935 L112.5,166.865 M113.5,166.274 L113.5,183.052 M114.5,180.988 L114.5,194.504 M115.5,192.413 L115.5,206.351 M116.5,202.206 L116.5,211.361 M117.5,201.325 L117.5,210.231 M118.5,198.574 L118.5,210.479 M119.5,189.99 L119.5,206.293 M120.5,184.61 L120.5,197.793 M121.5,175.83 L121.5,186.832 M122.5,166.691 L122.5,176.627 M123.5,160.287 L123.5,168.555 M124.5,157.505 L124.5,167.293 M125.5,155.805 L125.5,161.665 M126.5,155.636 L126.5,162.029 M127.5,156.385 L127.5,167.156 M128.5,159.537 L128.5,167.768 M129.5,162.895 L129.5,172.303 M130.5,167.52 L130.5,174.098 M131.5,167.076 L131.5,175.27 M132.5,170.619 L132.5,178.148 M133.5,172.963 L133.5,179.172 M134.5,172.53 L134.5,177.335 M135.5,169.875 L135.5,177.261 M136.5,169.373 L136.5,175.613 M137.5,168.924 L137.5,175.228 M138.5,168.491 L138.5,174.167 M139.5,168.095 L139.5,174.024 M140.5,170.133 L140.5,173.855 M141.5,170.397 L141.5,175.143 M142.5,171.976 L142.5,176.601 M143.5,172.773 L143.5,177.16 M144.5,173.354 L144.5,177.62 M145.5,173.449 L145.5,176.796 M146.5,173.148 L146.5,177.831 M147.5,172.831 L147.5,176.479 M148.5,172.826 L148.5,176.384 M149.5,173.032 L149.5,175.671 M150.5,172.134 L150.5,175.434 M151.5,171.696 L151.5,175.048 M152.5,171.268 L152.5,174.484 M153.5,171.057 L153.5,173.729 M154.5,170.534 L154.5,173.491 M155.5,170.519 L155.5,173.829 M156.5,170.307 L156.5,172.741 M157.5,170.313 L157.5,172.176 M158.5,169.964 L158.5,171.986 M159.5,169.822 L159.5,172.604 M160.5,170.107 L160.5,172.287 M161.5,170.418 L161.5,172.567 M162.5,171.295 L162.5,173.459 M163.5,171.575 L163.5,173.216 M164.5,172.393 L164.5,174.198 M165.5,172.366 L165.5,174.468 M166.5,173.422 L166.5,174.758 M167.5,172.926 L167.5,174.895 M168.5,173.512 L168.5,174.732 M169.5,173.285 L169.5,174.948 M170.5,173.333 L170.5,174.837 M171.5,172.731 L171.5,174.494 M171.5,173.612 L172.5,173.496 M173.5,172.884 L173.5,173.971 M174.5,172.414 L174.5,173.539 M174.5,172.976 L175.5,173.034 L176.5,173.077 M177.5,172.625 L177.5,173.644 M177.5,173.135 L178.5,173.1 L179.5,173.087 L180.5,173.018 L181.5,173.074 L182.5,173.055 L183.5,172.995 L184.5,173.09 L185.5,173.008 L186.5,173.066 L187.5,173.034 L188.5,173.063 L189.5,173.024 L190.5,172.992 L191.5,172.942 L192.5,173.003 L193.5,173.005 L194.5,173.005 L195.5,172.995 L196.5,172.971 L197.5,172.974 L198.5,173.032 L199.5,172.984 L200.5,172.982 L201.5,173.018 L202.5,173.021 L203.5,172.955 L204.5,172.984 L205.5,172.971 L206.5,172.989 L207.5,172.974 L208.5,173.005 L209.5,172.976 L210.5,172.971 L211.5,172.966 L212.5,172.942 L213.5,172.966 L214.5,172.984 L215.5,172.947 L216.5,172.96 L217.5,172.96 L218.5,172.966 L219.5,172.966 L220.5,172.958 L221.5,172.96 L222.5,172.958 L223.5,172.958 L224.5,172.96 L225.5,172.96 L226.5,172.958 L227.5,172.958 L228.5,172.958 L229.5,172.955 L230.5,172.963 L231.5,172.958 L232.5,172.96 L233.5,172.958 L234.5,172.955 L235.5,172.955 L236.5,172.96 L237.5,172.96 L238.5,172.96 L239.5,172.96 L240.5,172.96 L241.5,172.966 L242.5,172.96 L243.5,172.96 L244.5,172.96 L245.5,172.963 L246.5,172.963 L247.5,172.966 L248.5,172.966 L249.5,172.966 L250.5,172.966 L251.5,172.968 L252.5,172.966 L253.5,172.966 L254.5,172.966 L255.5,172.968 L256.5,172.966 L257.5,172.963 L258.5,172.968 L259.5,172.968 L260.5,172.971 L261.5,172.966 L262.5,172.971 L263.5,172.966 L264.5,172.971 L265.5,172.971 L266.5,172.974 L267.5,172.974 L268.5,172.974 L269.5,172.976 L270.5,172.971 L271.5,172.974 L272.5,172.974 L273.5,172.976 L274.5,172.976 L275.5,172.976 L276.5,172.976 L277.5,172.976 L278.5,172.979 L279.5,172.979 L280.5,172.984 L281.5,172.984 L282.5,172.984 L283.5,172.982 L284.5,172.979 L285.5,172.982 L286.5,172.982 L287.5,172.984 L288.5,172.984 L289.5,172.992 L290.5,172.987 L291.5,172.984 L292.5,172.989 L293.5,172.992 L294.5,172.992 L295.5,172.989 L296.5,172.989 L297.5,172.995 L298.5,172.989 L299.5,172.989 L300.5,172.997 L301.5,172.989 L302.5,172.995 L303.5,172.992 L304.5,172.997 L305.5,172.995 L306.5,172.995 L307.5,172.997 L308.5,172.995 L309.5,172.997 L310.5,173 L311.5,172.997 L312.5,173 L313.5,172.995 L314.5,173 L315.5,173 L316.5,173 L317.5,173 L318.5,173 L319.5,172.997 L320.5,173.003 L321.5,173.003 L322.5,173.003 L323.5,173.005 L324.5,173.005 L325.5,173.008 L326.5,173.005 L327.5,173.005 L328.5,173.008 L329.5,173.003 L330.5,173.008 L331.5,173.008 L332.5,173.008 L333.5,173.005 L334.5,173.005 L335.5,173.008 L336.5,173.008 L337.5,173.011 L338.5,173.013 L339.5,173.011 L340.5,173.013 L341.5,173.013 L342.5,173.008 L343.5,173.011 L344.5,173.008 L345.5,173.013 L346.5,173.008 L347.5,173.013 L348.5,173.013 L349.5,173.011 L350.5,173.013 L351.5,173.011 L352.5,173 L353.5,173 L354.5,172.997 L355.5,173 L356.5,173 L357.5,173 L358.5,173 L359.5,173 L360.5,173 L361.5,173 L362.5,173 L363.5,173 L364.5,173 L365.5,173 L366.5,173 L367.5,173 L368.5,173 L369.5,173.003 L370.5,173 L371.5,173 L372.5,173 L373.5,173 L374.5,172.997 L375.5,173 L376.5,173 L377.5,173 L378.5,173 L379.5,173 L380.5,173 L381.5,172.997 L382.5,173 L383.5,173 L384.5,173 L385.5,173 L386.5,173 L387.5,173 L388.5,173 L389.5,173.003 L390.5,173.005 L391.5,173.013 L392.5,173.003 L393.5,172.982 L394.5,172.984 L395.5,173.021 L396.5,173.008 L397.5,173.003 L398.5,173.016 M399.5,151.512 L399.5,185.803 M400.5,157.325 L400.5,199.234 M401.5,145.483 L401.5,198.674 M402.5,136.978 L402.5,199.477 M403.5,162.172 L403.5,208.626 M404.5,148.244 L404.5,202.66 M405.5,148.128 L405.5,199.276 M406.5,144.517 L406.5,193.77 M407.5,151.349 L407.5,193.611 M408.5,151.016 L408.5,196.71 M409.5,155.757 L409.5,197.523 M410.5,148.181 L410.5,195.148 M411.5,159.996 L411.5,193.284 M412.5,151.887 L412.5,199.171 M413.5,144.897 L413.5,182.867 M414.5,150.023 L414.5,187.244 M415.5,166.58 L415.5,190.597 M416.5,158.624 L416.5,198.3 M417.5,154.073 L417.5,192.291 M418.5,158.45 L418.5,187.455 M419.5,164.32 L419.5,186.051 M420.5,158.011 L420.5,186.6 M421.5,159.173 L421.5,186.209 M422.5,160.319 L422.5,194.699 M423.5,156.707 L423.5,187.35 M424.5,155.44 L424.5,185.18 M425.5,157.996 L425.5,189.071 M426.5,161.638 L426.5,188.406 M427.5,162.795 L427.5,188.041 M428.5,163.354 L428.5,180.956 M429.5,165.287 L429.5,183.406 M430.5,161.021 L430.5,186.584 M431.5,165.281 L431.5,179.235 M432.5,164.59 L432.5,189.208 M433.5,166.321 L433.5,182.366 M434.5,166.427 L434.5,181.442 M435.5,165.207 L435.5,179.251 M436.5,160.155 L436.5,186.183 M437.5,167.752 L437.5,180.713 M438.5,161.76 L438.5,185.206 M439.5,159.949 L439.5,186.526 M440.5,165.434 L440.5,183.258 M441.5,167.05 L441.5,180.719 M442.5,163.708 L442.5,180.333 M443.5,167.288 L443.5,185.28 M444.5,164.326 L444.5,178.105 M445.5,168.423 L445.5,178.316 M446.5,166.353 L446.5,183.612 M447.5,167.768 L447.5,177.783 M448.5,167.055 L448.5,183.073 M449.5,168.507 L449.5,178.565 M450.5,166.643 L450.5,181.194 M451.5,165.044 L451.5,180.386 M452.5,166.923 L452.5,176.363 M453.5,169.083 L453.5,179.621 M454.5,168.206 L454.5,181.379 M455.5,166.907 L455.5,178.623 M456.5,167.066 L456.5,178.095 M457.5,167.995 L457.5,179.019 M458.5,168.803 L458.5,177.298 M459.5,168.856 L459.5,178.813 M460.5,168.528 L460.5,177.947 M461.5,169.357 L461.5,178.206 M462.5,167.214 L462.5,177.826 M463.5,168.57 L463.5,179.731 M464.5,167.214 L464.5,178.089 M465.5,168.101 L465.5,176.062 M466.5,168.285 L466.5,177.762 M467.5,169.42 L467.5,176.949 M468.5,168.322 L468.5,177.625 M469.5,169.077 L469.5,177.044 M470.5,169.072 L470.5,178.343 M471.5,170.181 L471.5,177.683 M472.5,170.471 L472.5,175.64 M473.5,170.624 L473.5,176.152 M474.5,169.088 L474.5,177.171 M475.5,170.149 L475.5,175.249 M476.5,169.521 L476.5,176.685 M477.5,170.244 L477.5,175.444 M478.5,170.207 L478.5,176.4 M479.5,169.473 L479.5,174.832 M480.5,168.423 L480.5,175.967 M481.5,170.862 L481.5,174.901 M482.5,171.284 L482.5,177.292 M483.5,170.767 L483.5,176.675 M484.5,170.524 L484.5,175.613 M485.5,171.216 L485.5,175.386 M486.5,170.967 L486.5,175.312 M487.5,171.443 L487.5,175.471 M488.5,171.184 L488.5,174.626 M489.5,170.698 L489.5,175.239 M490.5,170.413 L490.5,174.79 M491.5,171.786 L491.5,174.389 M492.5,171.78 L492.5,174.489 M493.5,171.495 L493.5,174.637 M494.5,171.311 L494.5,174.827 M495.5,171.437 L495.5,174.383 M496.5,171.406 L496.5,174.325 M497.5,172.282 L497.5,174.552 M498.5,171.997 L498.5,174.536 M499.5,171.532 L499.5,174.051 M500.5,171.701 L500.5,173.829 M501.5,172.134 L501.5,174.32 M502.5,171.828 L502.5,174.077 M503.5,172.039 L503.5,174.098 M504.5,171.728 L504.5,173.76 M505.5,172.139 L505.5,174.03 M506.5,171.828 L506.5,173.966 M507.5,172.187 L507.5,173.945 M508.5,172.039 L508.5,174.172 M509.5,172.314 L509.5,173.829 M510.5,171.976 L510.5,173.829 M511.5,172.351 L511.5,173.565 M512.5,172.097 L512.5,173.454 M513.5,172.44 L513.5,173.597 M514.5,172.329 L514.5,173.507 M515.5,172.229 L515.5,173.56 M515.5,172.894 L516.5,173.018 L517.5,172.976 L518.5,173 L519.5,172.958 L520.5,172.886 L521.5,172.997 L522.5,173.016 L523.5,173.1 L524.5,173.021 L525.5,173.082 L526.5,172.916 L527.5,172.9 L528.5,172.968 L529.5,172.982 L530.5,172.966 L531.5,173 L532.5,173 L533.5,173.066 L534.5,173.003 L535.5,173.021 L536.5,173.003 L537.5,173.016 L538.5,172.992 L539.5,173.032 L540.5,172.987 L541.5,172.984 L542.5,172.952 L543.5,172.968 L544.5,173.003 L545.5,173.045 L546.5,172.997 L547.5,172.966 L548.5,172.955 L549.5,173.016 L550.5,172.974 L551.5,173 L552.5,173.016 L553.5,173.003 L554.5,172.987 L555.5,172.971 L556.5,173.018 L557.5,172.997 L558.5,172.984 L559.5,173.003 L560.5,172.992 L561.5,173 L562.5,173 L563.5,173 L564.5,173.003 L565.5,173 L566.5,172.997 L567.5,173 L568.5,173 L569.5,173.005 M570.5,172.942 L570.5,174.975 M571.5,171.611 L571.5,180.629 M572.5,112.866 L572.5,233.277 M573.5,161.126 L573.5,204.25 M574.5,126.883 L574.5,173.005 M575.5,128.372 L575.5,143.07 M576.5,135.352 L576.5,149.305 M576.5,142.329 L577.5,164.075 L577.5,151.549 L577.5,176.601 L577.5,164.075 L578.5,206.565 L578.5,181.13 L578.5,231.999 L578.5,206.565 M579.5,213.167 L579.5,223.546 M580.5,211.493 L580.5,223.462 M580.5,217.477 L581.5,203.51 L581.5,196.13 L581.5,210.891 L581.5,203.51 M582.5,173.671 L582.5,196.177 M583.5,147.875 L583.5,173.802 M584.5,124.038 L584.5,147.848 M585.5,113.721 L585.5,123.985 M586.5,112.053 L586.5,115.464 M587.5,115.464 L587.5,137.675 M588.5,137.527 L588.5,161.448 M589.5,161.417 L589.5,185.724 M590.5,185.703 L590.5,209.001 M591.5,208.779 L591.5,231.677 M592.5,231.74 L592.5,238.894 M593.5,236.275 L593.5,239.274 M593.5,237.775 L594.5,227.102 L594.5,218.51 L594.5,235.695 L594.5,227.102 L595.5,207.457 L595.5,197.571 L595.5,217.343 L595.5,207.457 L596.5,185.489 L596.5,174.8 L596.5,196.177 L596.5,185.489 L597.5,164.223 L597.5,155.05 L597.5,173.396 L597.5,164.223 L598.5,146.911 L598.5,139.844 L598.5,153.978 L598.5,146.911 L599.5,134.327 L599.5,129.439 L599.5,139.216 L599.5,134.327 M600.5,124.814 L600.5,129.116 M601.5,125.379 L601.5,128.805 M602.5,128.779 L602.5,136.518 M603.5,136.471 L603.5,148.376 M604.5,148.36 L604.5,160.973 M605.5,160.968 L605.5,173.618 M606.5,173.607 L606.5,183.622 M607.5,183.628 L607.5,192.323 M608.5,192.371 L608.5,197.27 M609.5,197.302 L609.5,198.632 M609.5,197.967 L610.5,198.537 M611.5,198.6 L611.5,199.656 M612.5,199.646 L612.5,201.937 M613.5,201.905 L613.5,203.737 M614.5,202.919 L614.5,204.001 M615.5,197.919 L615.5,202.745 M615.5,200.332 L616.5,192.949 L616.5,188.485 L616.5,197.413 L616.5,192.949 L617.5,182.271 L617.5,176.733 L617.5,187.809 L617.5,182.271 L618.5,169.898 L618.5,163.771 L618.5,176.025 L618.5,169.898 L619.5,157.204 L619.5,151.37 L619.5,163.038 L619.5,157.204 L620.5,145.441 L620.5,140.262 L620.5,150.62 L620.5,145.441 L621.5,135.418 L621.5,131.139 L621.5,139.697 L621.5,135.418 M622.5,126.287 L622.5,131.154 M623.5,125.785 L623.5,127.411 M624.5,127.422 L624.5,134.502 M625.5,134.539 L625.5,146.75 M626.5,146.692 L626.5,162.166 M627.5,162.182 L627.5,178.142 M628.5,178.185 L628.5,191.816 M629.5,191.874 L629.5,201.626 M630.5,201.62 L630.5,206.557 M630.5,204.089 L631.5,206.916 M632.5,202.893 L632.5,206.763 M633.5,196.489 L633.5,202.882 M634.5,187.978 L634.5,196.024 M635.5,179.177 L635.5,187.503 M635.5,183.34 L636.5,174.753 L636.5,170.883 L636.5,178.623 L636.5,174.753 M637.5,164.315 L637.5,170.487 M638.5,160.018 L638.5,164.014 M639.5,158.587 L639.5,159.912 M639.5,159.249 L640.5,158.919 M641.5,159.31 L641.5,161.538 M642.5,161.538 L642.5,164.621 M643.5,164.621 L643.5,168.032 M644.5,168.021 L644.5,170.946 M645.5,170.92 L645.5,173.422 M646.5,173.412 L646.5,174.816 M646.5,174.114 L647.5,175.041 L648.5,174.94 M649.5,173.634 L649.5,174.679 M650.5,172.483 L650.5,173.623 M650.5,173.053 L651.5,172.153 L652.5,171.651 L653.5,171.334 L654.5,171.757 L655.5,172.459 M656.5,172.91 L656.5,173.977 M656.5,173.443 L657.5,174.56 L658.5,175.302 L659.5,175.669 L660.5,175.521 L661.5,174.982 L662.5,174.484 L663.5,174.172 L664.5,173.855 L665.5,173.425 L666.5,173.066 L667.5,172.691 L668.5,172.237 L669.5,171.762 L670.5,171.4 L671.5,171.202 L672.5,171.068 L673.5,170.975 L674.5,171.086 L675.5,171.395 L676.5,171.86 L677.5,172.403 L678.5,172.96 L679.5,173.354 L680.5,173.681 L681.5,173.987 L682.5,174.146 L683.5,174.088 L684.5,174.024"/>
</g>

<g fill="none" stroke="#0000c0" stroke-opacity="1" stroke-width="1" stroke-linecap="square" stroke-linejoin="bevel" transform="matrix(1,0,0,1,0,0)"
font-family="Segoe UI" font-size="9" font-weight="400" font-style="normal" 
>
<path vector-effect="non-scaling-stroke" fill-rule="evenodd" d="M57.5,174.889 L57.5,171.111 M58.5,184.133 L58.5,161.867 M59.5,182.881 L59.5,163.119 M60.5,182.158 L60.5,140.523 M61.5,170.469 L61.5,138.496 M62.5,178.589 L62.5,146.84 M63.5,185.81 L63.5,160.19 M64.5,209.304 L64.5,167.538 M65.5,219.334 L65.5,198.344 M66.5,221.562 L66.5,196.137 M67.5,199.454 L67.5,172.015 M68.5,183.437 L68.5,162.563 M69.5,177.327 L69.5,154.662 M70.5,161.129 L70.5,125.054 M71.5,135.809 L71.5,117.107 M72.5,126.015 L72.5,114.936 M73.5,166.309 L73.5,131.652 M74.5,173.425 L74.5,155.337 M75.5,184.724 L75.5,161.276 M76.5,204.008 L76.5,180.351 M77.5,227.266 L77.5,209.69 M78.5,238.738 L78.5,225.882 M79.5,238.892 L79.5,220.998 M80.5,222.109 L80.5,203.581 M81.5,201.434 L81.5,188.45 M82.5,182.244 L82.5,163.756 M83.5,180.738 L83.5,158.455 M84.5,154.108 L84.5,142.486 M85.5,145.887 L85.5,130.266 M86.5,135.202 L86.5,125.222 M87.5,138.01 L87.5,126.456 M88.5,137.931 L88.5,132.021 M89.5,162.18 L89.5,146.743 M90.5,170.21 L90.5,157.418 M91.5,179.078 L91.5,166.922 M92.5,181.557 L92.5,170.621 M93.5,191.693 L93.5,182.532 M94.5,196.303 L94.5,188.387 M95.5,199.423 L95.5,191.882 M96.5,198.812 L96.5,189.4 M97.5,200.572 L97.5,196.655 M98.5,201.477 L98.5,195.731 M99.5,203.582 L99.5,199.12 M100.5,204.048 L100.5,196.575 M101.5,199.81 L101.5,193.408 M102.5,189.726 L102.5,182.643 M103.5,181.105 L103.5,166.688 M104.5,173.853 L104.5,165.47 M105.5,162.576 L105.5,153.865 M106.5,148.189 L106.5,141.579 M107.5,139.531 L107.5,132.059 M108.5,135.386 L108.5,126.969 M109.5,131.363 L109.5,125.808 M110.5,138.602 L110.5,132.811 M111.5,152.223 L111.5,143.386 M112.5,165.865 L112.5,157.265 M113.5,178.439 L113.5,167.561 M114.5,189.02 L114.5,181.988 M115.5,200.285 L115.5,193.413 M116.5,206.638 L116.5,203.206 M117.5,207.082 L117.5,202.325 M118.5,204.335 L118.5,199.574 M119.5,198.394 L119.5,190.99 M120.5,190.233 L120.5,185.61 M121.5,181.557 L121.5,176.83 M122.5,175.627 L122.5,170.08 M123.5,167.555 L123.5,164.262 M124.5,166.293 L124.5,160.592 M125.5,160.665 L125.5,158.356 M126.5,161.029 L126.5,158.737 M127.5,166.156 L127.5,160.935 M128.5,166.768 L128.5,163.098 M129.5,171.303 L129.5,166.875 M130.5,173.098 L130.5,170.113 M131.5,174.27 L131.5,171.13 M132.5,175.234 L132.5,171.619 M133.5,176.089 L133.5,173.963 M134.5,175.403 L134.5,173.53 M135.5,174.98 L135.5,171.02 M136.5,174.584 L136.5,171.416 M137.5,174.228 L137.5,170.991 M138.5,173.167 L138.5,170.647 M139.5,173.024 L139.5,170.77 M140.5,172.855 L140.5,171.165 M141.5,174.143 L141.5,171.574 M142.5,174.624 L142.5,172.976 M143.5,175.339 L143.5,173.773 M144.5,175.925 L144.5,174.354 M145.5,175.796 L145.5,174.449 M146.5,176.181 L146.5,174.148 M147.5,175.479 L147.5,173.831 M148.5,174.83 L148.5,173.826 M150.5,174.398 L150.5,173.134 M151.5,174.048 L151.5,172.696 M152.5,173.484 L152.5,172.268 M155.5,172.829 L155.5,171.519 M399.5,177.401 L399.5,168.599 M400.5,182.958 L400.5,163.042 M401.5,185.409 L401.5,160.591 M402.5,184.045 L402.5,161.955 M403.5,179.425 L403.5,166.575 M404.5,186.551 L404.5,159.449 M405.5,184.107 L405.5,161.893 M406.5,182.766 L406.5,163.234 M407.5,182.76 L407.5,163.24 M408.5,181.484 L408.5,164.516 M409.5,184.189 L409.5,161.811 M410.5,183.586 L410.5,162.414 M411.5,179.856 L411.5,166.144 M412.5,182.612 L412.5,163.388 M413.5,180.598 L413.5,165.402 M414.5,181.438 L414.5,164.562 M415.5,179.269 L415.5,167.58 M416.5,182.299 L416.5,163.701 M417.5,180.05 L417.5,165.95 M418.5,179.27 L418.5,166.73 M419.5,180.179 L419.5,165.821 M420.5,178.889 L420.5,167.111 M421.5,179.492 L421.5,166.508 M422.5,179.909 L422.5,166.091 M423.5,180.86 L423.5,165.14 M424.5,178.698 L424.5,167.302 M425.5,178.375 L425.5,167.625 M426.5,179.189 L426.5,166.811 M427.5,178.461 L427.5,167.539 M428.5,177.098 L428.5,168.902 M429.5,177.125 L429.5,168.875 M430.5,178.876 L430.5,167.124 M431.5,177.202 L431.5,168.798 M432.5,178.789 L432.5,167.211 M433.5,177.112 L433.5,168.888 M434.5,176.51 L434.5,169.49 M435.5,176.514 L435.5,169.486 M436.5,177.273 L436.5,168.727 M437.5,176.73 L437.5,169.27 M438.5,178.219 L438.5,167.781 M439.5,177.624 L439.5,168.376 M440.5,177.06 L440.5,168.94 M441.5,176.226 L441.5,169.774 M442.5,176.638 L442.5,169.362 M443.5,177.105 L443.5,168.895 M444.5,176.127 L444.5,169.873 M445.5,176.022 L445.5,169.978 M446.5,176.956 L446.5,169.044 M447.5,175.789 L447.5,170.211 M448.5,175.856 L448.5,170.144 M449.5,175.742 L449.5,170.258 M450.5,176.396 L450.5,169.604 M451.5,176.042 L451.5,169.958 M452.5,175.363 L452.5,170.616 M453.5,176.136 L453.5,170.083 M454.5,175.901 L454.5,170.099 M455.5,175.837 L455.5,170.163 M456.5,175.709 L456.5,170.291 M457.5,175.291 L457.5,170.709 M458.5,174.847 L458.5,171.153 M459.5,175.189 L459.5,170.811 M460.5,175.622 L460.5,170.378 M461.5,175.296 L461.5,170.704 M462.5,175.318 L462.5,170.682 M463.5,175.212 L463.5,170.788 M464.5,175.528 L464.5,170.472 M465.5,175.062 L465.5,170.819 M466.5,175.541 L466.5,170.459 M467.5,175.537 L467.5,170.463 M468.5,175.044 L468.5,170.956 M469.5,175.236 L469.5,170.764 M470.5,175.672 L470.5,170.328 M471.5,174.885 L471.5,171.181 M472.5,174.617 L472.5,171.471 M473.5,174.849 L473.5,171.624 M474.5,174.936 L474.5,171.064 M475.5,174.249 L475.5,171.582 M476.5,174.592 L476.5,171.408 M477.5,174.444 L477.5,171.245 M478.5,174.787 L478.5,171.213 M479.5,173.832 L479.5,171.572 M480.5,174.785 L480.5,171.215 M481.5,173.901 L481.5,171.862 M482.5,174.315 L482.5,172.284 M483.5,174.284 L483.5,171.767 M484.5,174.389 L484.5,171.611 M485.5,174.386 L485.5,172.216 M486.5,174.312 L486.5,171.967 M487.5,174.166 L487.5,172.443 M488.5,173.626 L488.5,172.184 M489.5,174.239 L489.5,171.698 M490.5,173.79 L490.5,171.778 M493.5,173.637 L493.5,172.495 M494.5,173.827 L494.5,172.311 M571.5,176.841 L571.5,172.611 M572.5,200.256 L572.5,145.744 M573.5,183.78 L573.5,162.22 M574.5,172.005 L574.5,148.419 M575.5,142.07 L575.5,135.39 M576.5,148.305 L576.5,142.139 M577.5,175.601 L577.5,163.805 M578.5,207.019 L578.5,182.13 M579.5,218.691 L579.5,214.167 M580.5,220.498 L580.5,212.493 M581.5,205.137 L581.5,197.13 M582.5,185.686 L582.5,174.671 M583.5,172.802 L583.5,160.231 M584.5,146.848 L584.5,135.17 M585.5,122.985 L585.5,116.205 M586.5,114.464 L586.5,113.053 M587.5,136.675 L587.5,125.679 M588.5,160.448 L588.5,148.586 M589.5,179.358 L589.5,166.642 M590.5,197.652 L590.5,186.703 M591.5,221.28 L591.5,209.779 M592.5,237.445 L592.5,232.74 M594.5,228.196 L594.5,219.51 M595.5,207.929 L595.5,198.571 M596.5,185.674 L596.5,175.8 M597.5,172.396 L597.5,163.466 M598.5,152.978 L598.5,146.405 M599.5,138.216 L599.5,133.271 M600.5,128.116 L600.5,125.814 M601.5,127.805 L601.5,126.379 M602.5,135.518 L602.5,131.829 M603.5,147.376 L603.5,141.549 M604.5,159.973 L604.5,154.257 M605.5,172.618 L605.5,167.146 M606.5,179.19 L606.5,174.607 M607.5,189.036 L607.5,184.628 M608.5,195.698 L608.5,193.371 M615.5,201.234 L615.5,198.919 M616.5,193.659 L616.5,189.485 M617.5,182.982 L617.5,177.733 M618.5,175.025 L618.5,168.551 M619.5,162.038 L619.5,156.71 M620.5,149.62 L620.5,144.919 M621.5,138.697 L621.5,134.853 M622.5,130.154 L622.5,127.636 M624.5,133.502 L624.5,130.148 M625.5,145.75 L625.5,139.853 M626.5,161.166 L626.5,153.812 M627.5,177.142 L627.5,168.041 M628.5,185.746 L628.5,179.185 M629.5,197.529 L629.5,192.874 M630.5,204.95 L630.5,202.62 M632.5,205.726 L632.5,203.893 M633.5,200.264 L633.5,197.489 M634.5,192.516 L634.5,188.978 M635.5,183.749 L635.5,180.177 M636.5,175.835 L636.5,171.883 M637.5,169.487 L637.5,166.764 M638.5,163.014 L638.5,161.327 M642.5,163.621 L642.5,162.565 M643.5,167.032 L643.5,165.874"/>
</g>

<g fill="none" stroke="#000080" stroke-opacity="1" stroke-width="1" stroke-linecap="square" stroke-linejoin="bevel" transform="matrix(1,0,0,1,0,0)"
font-family="Segoe UI" font-size="9" font-weight="400" font-style="normal" 
>
</g>

<g fill="none" stroke="#000000" stroke-opacity="1" stroke-width="1" stroke-linecap="square" stroke-linejoin="bevel" transform="matrix(1,0,0,1,0,0)"
font-family="Segoe UI" font-size="9" font-weight="400" font-style="normal" 
>
</g>

<g fill="#ffffff" fill-opacity="1" stroke="#ffffff" stroke-opacity="1" stroke-width="1" stroke-linecap="square" stroke-linejoin="bevel" transform="matrix(1,0,0,1,0,0)"
font-family="Segoe UI" font-size="9" font-weight="400" font-style="normal" 
>
<rect x="684" y="0" width="684" height="346"/>
</g>

<g fill="none" stroke="#000000" stroke-opacity="1" stroke-width="1" stroke-linecap="square" stroke-linejoin="bevel" transform="matrix(1,0,0,1,0,0)"
font-family="Segoe UI" font-size="9" font-weight="400" font-style="normal" 
>
</g>

<g fill="none" stroke="#0000c0" stroke-opacity="1" stroke-width="1" stroke-linecap="square" stroke-linejoin="bevel" transform="matrix(1,0,0,1,684,0)"
font-family="Segoe UI" font-size="9" font-weight="400" font-style="normal" 
>
<polyline fill="none" vector-effect="non-scaling-stroke" points="0,173.5 684,173.5 " />
</g>

<g fill="none" stroke="#000080" stroke-opacity="1" stroke-width="1" stroke-linecap="square" stroke-linejoin="bevel" transform="matrix(1,0,0,1,684,0)"
font-family="Segoe UI" font-size="9" font-weight="400" font-style="normal" 
>
<path vector-effect="non-scaling-stroke" fill-rule="evenodd" d="M0.5,173.977 L0.5,174.072 M0.5,174.024 L1.5,173.824 L2.5,173.56 L3.5,173.409 L4.5,173.169 L5.5,173.087 L6.5,173.079 L7.5,173.079"/>
</g>

<g fill="none" stroke="#000000" stroke-opacity="1" stroke-width="1" stroke-linecap="square" stroke-linejoin="bevel" transform="matrix(1,0,0,1,0,0)"
font-family="Segoe UI" font-size="9" font-weight="400" font-style="normal" 
>
</g>
</g>
</svg>
