<?xml version="1.0" encoding="UTF-8" standalone="no"?>
<svg width="243.769mm" height="122.061mm"
 viewBox="0 0 691 346"
 xmlns="http://www.w3.org/2000/svg" xmlns:xlink="http://www.w3.org/1999/xlink" version="1.2" baseProfile="tiny">
<title>Exported image from Sonic Visualiser</title>
<desc>Generated with Qt</desc>
<defs>
</defs>
<g fill="none" stroke="black" stroke-width="1" fill-rule="evenodd" stroke-linecap="square" stroke-linejoin="bevel" >

<g fill="#ffffff" fill-opacity="1" stroke="#ffffff" stroke-opacity="1" stroke-width="1" stroke-linecap="square" stroke-linejoin="bevel" transform="matrix(1,0,0,1,0,0)"
font-family="Segoe UI" font-size="9" font-weight="400" font-style="normal" 
>
<rect x="0" y="0" width="684" height="346"/>
</g>

<g fill="none" stroke="#000000" stroke-opacity="1" stroke-width="1" stroke-linecap="square" stroke-linejoin="bevel" transform="matrix(1,0,0,1,0,0)"
font-family="Segoe UI" font-size="9" font-weight="400" font-style="normal" 
>
</g>

<g fill="none" stroke="#0000c0" stroke-opacity="1" stroke-width="1" stroke-linecap="square" stroke-linejoin="bevel" transform="matrix(1,0,0,1,0,0)"
font-family="Segoe UI" font-size="9" font-weight="400" font-style="normal" 
>
<polyline fill="none" vector-effect="non-scaling-stroke" points="0,173.5 684,173.5 " />
</g>

<g fill="none" stroke="#000080" stroke-opacity="1" stroke-width="1" stroke-linecap="square" stroke-linejoin="bevel" transform="matrix(1,0,0,1,0,0)"
font-family="Segoe UI" font-size="9" font-weight="400" font-style="normal" 
>
<path vector-effect="non-scaling-stroke" fill-rule="evenodd" d="M0.5,172.984 L0.5,173.021 M0.5,173.003 L1.5,173 L2.5,173 L3.5,172.997 L4.5,173 L5.5,173 L6.5,173 L7.5,173 L8.5,173 L9.5,173 L10.5,173 L11.5,173.003 L12.5,173 L13.5,172.997 L14.5,172.997 L15.5,173 L16.5,173 L17.5,173 L18.5,173 L19.5,173.003 L20.5,173 L21.5,173 L22.5,173 L23.5,173 L24.5,173 L25.5,172.997 L26.5,173 L27.5,173 L28.5,173 L29.5,173 L30.5,172.997 L31.5,173 L32.5,173 L33.5,172.997 L34.5,172.997 L35.5,172.995 L36.5,172.997 L37.5,173 L38.5,173.026 L39.5,172.992 L40.5,172.974 L41.5,173 L42.5,173.034 L43.5,172.974 L44.5,172.974 L45.5,173.005 L46.5,173.037 L47.5,173.021 L48.5,172.995 L49.5,172.952 L50.5,173.003 L51.5,173.003 L52.5,172.976 L53.5,173.008 L54.5,172.976 L55.5,173.032 M56.5,172.483 L56.5,173.781 M57.5,172.372 L57.5,179.372 M58.5,144.739 L58.5,189.699 M59.5,124.434 L59.5,170.93 M60.5,126.44 L60.5,226.292 M61.5,144.876 L61.5,264.315 M62.5,153.73 L62.5,240.705 M63.5,153.777 L63.5,240.282 M64.5,134.565 L64.5,192.26 M65.5,114.682 L65.5,157.974 M66.5,115.77 L66.5,160.593 M67.5,109.793 L67.5,174.827 M68.5,139.031 L68.5,233.445 M69.5,196.879 L69.5,252.658 M70.5,184.816 L70.5,247.024 M71.5,157.441 L71.5,213.188 M72.5,124.639 L72.5,186.299 M73.5,114.265 L73.5,154.918 M74.5,120.643 L74.5,170.197 M75.5,160.651 L75.5,214.191 M76.5,174.499 L76.5,233.694 M77.5,191.647 L77.5,225.014 M78.5,167.483 L78.5,218.726 M79.5,132.173 L79.5,186.537 M80.5,117.549 L80.5,179.256 M81.5,126.64 L81.5,166.005 M82.5,132.311 L82.5,166.812 M83.5,153.423 L83.5,221.73 M84.5,199.509 L84.5,235.489 M85.5,171.289 L85.5,223.747 M86.5,155.155 L86.5,192.777 M87.5,130.325 L87.5,167.298 M88.5,125.373 L88.5,152.225 M89.5,127.802 L89.5,179.156 M90.5,164.109 L90.5,207.829 M91.5,168.613 L91.5,217.681 M92.5,174.711 L92.5,204.846 M93.5,170.957 L93.5,202.671 M94.5,146.138 L94.5,180.291 M95.5,137.817 L95.5,165.82 M96.5,138.799 L96.5,171.004 M97.5,144.174 L97.5,180.581 M98.5,156.665 L98.5,200.781 M99.5,177.947 L99.5,219.27 M100.5,180.93 L100.5,218.789 M101.5,158.069 L101.5,190.913 M102.5,142.574 L102.5,173.206 M103.5,141.708 L103.5,165.54 M104.5,147.231 L104.5,164.621 M105.5,154.569 L105.5,188.622 M106.5,169.362 L106.5,192.804 M107.5,171.627 L107.5,200.691 M108.5,183.464 L108.5,204.619 M109.5,163.924 L109.5,192.872 M110.5,150.419 L110.5,173.612 M111.5,138.171 L111.5,168.85 M112.5,139.533 L112.5,173.961 M113.5,154.083 L113.5,184.641 M114.5,172.789 L114.5,190.322 M115.5,168.602 L115.5,198.051 M116.5,170.598 L116.5,196.146 M117.5,167.361 L117.5,185.264 M118.5,156.042 L118.5,173.913 M119.5,148.118 L119.5,172.007 M120.5,153.608 L120.5,172.91 M121.5,159.426 L121.5,182.72 M122.5,166.416 L122.5,198.458 M123.5,176.416 L123.5,192.598 M124.5,170.482 L124.5,200.142 M125.5,165.044 L125.5,194.673 M126.5,158.233 L126.5,177.583 M127.5,151.618 L127.5,169.938 M128.5,147.352 L128.5,172.995 M129.5,163.191 L129.5,189.551 M130.5,171.284 L130.5,182.572 M131.5,164.342 L131.5,188.268 M132.5,170.73 L132.5,186.114 M133.5,170.429 L133.5,187.545 M134.5,167.034 L134.5,180.814 M135.5,155.329 L135.5,172.673 M136.5,159.479 L136.5,172.335 M137.5,159.199 L137.5,178.913 M138.5,168.37 L138.5,185.787 M139.5,169.906 L139.5,190.074 M140.5,172.446 L140.5,188.59 M141.5,169.832 L141.5,182.255 M142.5,162.657 L142.5,177.071 M143.5,160.276 L143.5,171.147 M144.5,162.383 L144.5,173.19 M145.5,162.224 L145.5,178.01 M146.5,169.304 L146.5,179.721 M147.5,171.089 L147.5,179.219 M148.5,173.185 L148.5,182.134 M149.5,173.523 L149.5,181.553 M150.5,168.713 L150.5,183.517 M151.5,165.529 L151.5,177.065 M152.5,159.453 L152.5,171.348 M153.5,161.786 L153.5,172.129 M154.5,167.203 L154.5,178.185 M155.5,172.968 L155.5,181.864 M156.5,173.359 L156.5,182.857 M157.5,169.748 L157.5,181.732 M158.5,166.749 L158.5,178.185 M159.5,166.818 L159.5,176.083 M160.5,164.421 L160.5,175.022 M161.5,165.366 L161.5,173.702 M162.5,170.482 L162.5,177.166 M163.5,171.179 L163.5,179.826 M164.5,170.777 L164.5,181.331 M165.5,173.47 L165.5,179.927 M166.5,170.334 L166.5,179.277 M167.5,168.497 L167.5,174.484 M168.5,167.103 L168.5,173.987 M169.5,165.73 L169.5,174.536 M170.5,169.151 L170.5,175.17 M171.5,170.983 L171.5,179.668 M172.5,171.11 L172.5,178.908 M173.5,171.585 L173.5,177.398 M174.5,169.125 L174.5,177.071 M175.5,168.497 L175.5,177.287 M176.5,168.808 L176.5,174.404 M177.5,166.57 L177.5,172.234 M178.5,168.697 L178.5,174.283 M179.5,170.999 L179.5,179.045 M180.5,173.945 L180.5,178.053 M181.5,172.15 L181.5,178.448 M182.5,169.716 L182.5,177.704 M183.5,168.322 L183.5,174.093 M184.5,166.987 L184.5,174.325 M185.5,169.579 L185.5,174.293 M186.5,170.994 L186.5,175.117 M187.5,170.793 L187.5,177.926 M188.5,170.888 L188.5,175.386 M189.5,171.427 L189.5,175.656 M190.5,172.124 L190.5,175.307 M191.5,172.007 L191.5,175.835 M192.5,171.965 L192.5,175.355 M193.5,170.598 L193.5,174.161 M194.5,168.718 L194.5,174.679 M195.5,169.431 L195.5,173.338 M196.5,172.182 L196.5,175.159 M197.5,173.164 L197.5,176.416 M198.5,171.67 L198.5,177.224 M199.5,170.318 L199.5,174.806 M200.5,170.941 L200.5,173.459 M201.5,169.542 L201.5,174.758 M202.5,171.39 L202.5,174.082 M203.5,171.77 L203.5,173.94 M204.5,172.409 L204.5,174.399 M205.5,172.182 L205.5,174.853 M206.5,172.182 L206.5,174.447 M207.5,172.076 L207.5,174.082 M208.5,171.78 L208.5,173.649 M209.5,172.113 L209.5,173.898 M210.5,172.356 L210.5,173.929 M211.5,171.458 L211.5,174.035 M212.5,172.097 L212.5,173.185 M213.5,172.488 L213.5,173.829 M214.5,172.836 L214.5,174.251 M214.5,173.544 L215.5,173.282 L216.5,173.095 M217.5,172.414 L217.5,173.802 M217.5,173.108 L218.5,172.826 L219.5,172.612 L220.5,172.876 L221.5,173.198 L222.5,173.261 L223.5,173.074 L224.5,173 L225.5,172.997 L226.5,172.995 M227.5,172.456 L227.5,173.486 M228.5,148.276 L228.5,194.863 M229.5,155.773 L229.5,199.239 M230.5,145.129 L230.5,202.022 M231.5,144.987 L231.5,185.159 M232.5,146.117 L232.5,208.885 M233.5,157.119 L233.5,195.354 M234.5,148.112 L234.5,204.693 M235.5,144.279 L235.5,189.488 M236.5,153.751 L236.5,185.581 M237.5,155.799 L237.5,197.55 M238.5,144.374 L238.5,198.975 M239.5,153.392 L239.5,194.108 M240.5,160.081 L240.5,192.027 M241.5,141.465 L241.5,198.711 M242.5,155.863 L242.5,190.195 M243.5,157.314 L243.5,189.836 M244.5,158.661 L244.5,195.216 M245.5,158.413 L245.5,197.423 M246.5,150.657 L246.5,188.738 M247.5,159.347 L247.5,186.262 M248.5,160.984 L248.5,184.773 M249.5,157.589 L249.5,189.499 M250.5,158.777 L250.5,183.395 M251.5,158.471 L251.5,199.894 M252.5,154.68 L252.5,184.631 M253.5,160.878 L253.5,180.962 M254.5,160.957 L254.5,189.277 M255.5,162.182 L255.5,186.722 M256.5,162.869 L256.5,184.81 M257.5,167.478 L257.5,184.003 M258.5,165.255 L258.5,183.67 M259.5,161.089 L259.5,181.949 M260.5,164.6 L260.5,183.322 M261.5,159.463 L261.5,188.87 M262.5,166.965 L262.5,181.975 M263.5,165.888 L263.5,181.178 M264.5,166.833 L264.5,177.593 M265.5,158.075 L265.5,183.279 M266.5,166.965 L266.5,180.207 M267.5,160.487 L267.5,184.699 M268.5,164.151 L268.5,184.214 M269.5,167.193 L269.5,183.828 M270.5,168.893 L270.5,179.9 M271.5,166.58 L271.5,181.511 M272.5,168.338 L272.5,183.137 M273.5,163.93 L273.5,179.689 M274.5,167.087 L274.5,181.31 M275.5,165.419 L275.5,181.041 M276.5,166.612 L276.5,177.979 M277.5,166.686 L277.5,183.77 M278.5,167.108 L278.5,179.726 M279.5,166.918 L279.5,181.278 M280.5,165.862 L280.5,177.451 M281.5,166.485 L281.5,179.742 M282.5,168.106 L282.5,178.797 M283.5,168.254 L283.5,178.66 M284.5,166.754 L284.5,179.578 M285.5,168.739 L285.5,176.321 M286.5,167.963 L286.5,177.408 M287.5,169.046 L287.5,176.923 M288.5,168.713 L288.5,177.498 M289.5,168.66 L289.5,178.084 M290.5,169.019 L290.5,178.533 M291.5,168.734 L291.5,178.031 M292.5,167.641 L292.5,179.895 M293.5,167.293 L293.5,177.979 M294.5,168.792 L294.5,177.657 M295.5,168.27 L295.5,178.623 M296.5,167.684 L296.5,176.569 M297.5,170.043 L297.5,176.257 M298.5,168.534 L298.5,176.395 M299.5,170.112 L299.5,178.507 M300.5,169.948 L300.5,177.308 M301.5,169.996 L301.5,177.255 M302.5,169.769 L302.5,176.353 M303.5,169.816 L303.5,175.487 M304.5,171.411 L304.5,176.696 M305.5,169.215 L305.5,175.466 M306.5,170.234 L306.5,176.041 M307.5,169.584 L307.5,176.78 M308.5,168.534 L308.5,176.358 M309.5,170.065 L309.5,175.883 M310.5,170.878 L310.5,175.898 M311.5,171.321 L311.5,175.825 M312.5,170.487 L312.5,175.677 M313.5,169.827 L313.5,175.508 M314.5,171.004 L314.5,175.418 M315.5,171.168 L315.5,175.877 M316.5,171.11 L316.5,174.225 M317.5,170.74 L317.5,175.165 M318.5,170.777 L318.5,174.932 M319.5,171.015 L319.5,175.228 M320.5,171.722 L320.5,174.663 M321.5,171.849 L321.5,174.341 M322.5,171.464 L322.5,174.748 M323.5,171.86 L323.5,174.858 M324.5,171.358 L324.5,174.6 M325.5,171.87 L325.5,174.526 M326.5,171.965 L326.5,174.631 M327.5,171.379 L327.5,174.146 M328.5,172.245 L328.5,173.802 M329.5,171.886 L329.5,173.929 M330.5,172.092 L330.5,174.521 M331.5,171.992 L331.5,174.251 M332.5,172.071 L332.5,173.771 M333.5,171.807 L333.5,173.813 M334.5,171.981 L334.5,174.315 M335.5,172.419 L335.5,173.882 M336.5,172.023 L336.5,173.845 M337.5,171.912 L337.5,174.13 M338.5,172.166 L338.5,173.681 M339.5,172.013 L339.5,173.723 M340.5,172.219 L340.5,173.85 M341.5,172.34 L341.5,173.808 M342.5,172.351 L342.5,173.502 M343.5,172.192 L343.5,173.575 M343.5,172.884 L344.5,173.016 L345.5,172.95 L346.5,172.982 L347.5,172.923 L348.5,172.989 L349.5,172.987 L350.5,173.018 L351.5,173.058 L352.5,173.116 L353.5,173.024 L354.5,172.995 L355.5,172.971 L356.5,172.955 L357.5,173.008 L358.5,172.937 L359.5,172.989 L360.5,173.005 L361.5,173.034 L362.5,172.966 L363.5,173.003 L364.5,172.987 L365.5,172.997 L366.5,173.024 L367.5,172.995 L368.5,172.997 L369.5,173.018 L370.5,172.992 L371.5,172.96 L372.5,173.018 L373.5,173.029 L374.5,172.976 L375.5,172.963 L376.5,172.976 L377.5,173.013 L378.5,173.021 L379.5,173.005 L380.5,173.024 L381.5,173.013 L382.5,172.997 L383.5,172.974 L384.5,172.989 L385.5,173.005 L386.5,172.971 L387.5,172.984 L388.5,173.013 L389.5,172.992 L390.5,173.005 L391.5,173 L392.5,173 L393.5,173.003 L394.5,172.997 L395.5,172.995 L396.5,173 L397.5,172.987 L398.5,173.011 M399.5,151.481 L399.5,185.866 M400.5,157.304 L400.5,199.091 M401.5,145.932 L401.5,198.812 M402.5,136.487 L402.5,200.005 M403.5,162.488 L403.5,208.257 M404.5,148.366 L404.5,203.431 M405.5,148.313 L405.5,199.82 M406.5,144.411 L406.5,193.669 M407.5,150.947 L407.5,193.442 M408.5,151.185 L408.5,196.916 M409.5,155.155 L409.5,197.291 M410.5,148.846 L410.5,195.216 M411.5,160.435 L411.5,193.258 M412.5,151.739 L412.5,198.986 M413.5,145.055 L413.5,183.517 M414.5,150.562 L414.5,188.041 M415.5,166.306 L415.5,190.644 M416.5,159.242 L416.5,198.12 M417.5,153.899 L417.5,191.922 M418.5,158.782 L418.5,187.144 M419.5,163.803 L419.5,186.014 M420.5,158.122 L420.5,186.384 M421.5,158.777 L421.5,186.78 M422.5,160.815 L422.5,194.604 M423.5,157.425 L423.5,188.184 M424.5,155.197 L424.5,185.307 M425.5,158.196 L425.5,188.865 M426.5,161.728 L426.5,188.258 M427.5,162.647 L427.5,188.353 M428.5,164.009 L428.5,180.999 M429.5,165.566 L429.5,183.258 M430.5,160.709 L430.5,186.204 M431.5,165.012 L431.5,179.43 M432.5,164.294 L432.5,189.187 M433.5,166.253 L433.5,182.345 M434.5,166.374 L434.5,181.215 M435.5,165.64 L435.5,179.114 M436.5,160.15 L436.5,186.03 M437.5,167.557 L437.5,180.956 M438.5,161.77 L438.5,185.217 M439.5,159.865 L439.5,186.484 M440.5,165.366 L440.5,183.047 M441.5,166.892 L441.5,180.629 M442.5,163.671 L442.5,180.407 M443.5,167.314 L443.5,185.138 M444.5,164.537 L444.5,178.269 M445.5,168.518 L445.5,178.311 M446.5,166.459 L446.5,183.485 M447.5,167.763 L447.5,177.794 M448.5,166.907 L448.5,182.989 M449.5,168.597 L449.5,178.591 M450.5,166.601 L450.5,181.046 M451.5,165.017 L451.5,180.349 M452.5,166.955 L452.5,176.316 M453.5,169.083 L453.5,179.747 M454.5,168.222 L454.5,181.294 M455.5,166.987 L455.5,178.734 M456.5,167.15 L456.5,178.058 M457.5,168.085 L457.5,178.955 M458.5,168.766 L458.5,177.234 M459.5,168.929 L459.5,178.749 M460.5,168.47 L460.5,177.873 M461.5,169.447 L461.5,178.074 M462.5,167.087 L462.5,177.767 M463.5,168.544 L463.5,179.716 M464.5,167.266 L464.5,178.137 M465.5,168.148 L465.5,176.168 M466.5,168.317 L466.5,177.773 M467.5,169.521 L467.5,177.071 M468.5,168.296 L468.5,177.62 M469.5,169.019 L469.5,177.097 M470.5,169.04 L470.5,178.348 M471.5,170.128 L471.5,177.662 M472.5,170.492 L472.5,175.603 M473.5,170.629 L473.5,176.089 M474.5,169.193 L474.5,177.234 M475.5,170.059 L475.5,175.318 M476.5,169.574 L476.5,176.701 M477.5,170.27 L477.5,175.434 M478.5,170.138 L478.5,176.411 M479.5,169.521 L479.5,174.737 M480.5,168.444 L480.5,175.978 M481.5,170.693 L481.5,175.022 M482.5,171.221 L482.5,177.25 M483.5,170.867 L483.5,176.669 M484.5,170.577 L484.5,175.571 M485.5,171.284 L485.5,175.344 M486.5,170.909 L486.5,175.312 M487.5,171.469 L487.5,175.524 M488.5,171.163 L488.5,174.61 M489.5,170.693 L489.5,175.254 M490.5,170.371 L490.5,174.827 M491.5,171.786 L491.5,174.404 M492.5,171.796 L492.5,174.531 M493.5,171.527 L493.5,174.663 M494.5,171.316 L494.5,174.811 M495.5,171.437 L495.5,174.373 M496.5,171.406 L496.5,174.336 M497.5,172.293 L497.5,174.547 M498.5,172.013 L498.5,174.547 M499.5,171.532 L499.5,174.061 M500.5,171.712 L500.5,173.813 M501.5,172.139 L501.5,174.315 M502.5,171.828 L502.5,174.066 M503.5,172.039 L503.5,174.098 M504.5,171.717 L504.5,173.771 M505.5,172.139 L505.5,174.04 M506.5,171.812 L506.5,173.971 M507.5,172.187 L507.5,173.961 M508.5,172.039 L508.5,174.167 M509.5,172.329 L509.5,173.855 M510.5,171.949 L510.5,173.839 M511.5,172.324 L511.5,173.57 M512.5,172.118 L512.5,173.465 M513.5,172.43 L513.5,173.612 M514.5,172.314 L514.5,173.496 M515.5,172.213 L515.5,173.554 M515.5,172.884 L516.5,173.024 L517.5,172.968 L518.5,173 L519.5,172.958 L520.5,172.876 L521.5,173.005 L522.5,173.024 L523.5,173.106 L524.5,173.011 L525.5,173.09 L526.5,172.916 L527.5,172.894 L528.5,172.963 L529.5,172.982 L530.5,172.96 L531.5,173 L532.5,173.003 L533.5,173.058 L534.5,173.003 L535.5,173.018 L536.5,172.995 L537.5,173.021 L538.5,172.989 L539.5,173.021 L540.5,173.003 L541.5,172.987 L542.5,172.955 L543.5,172.971 L544.5,172.997 L545.5,173.032 L546.5,172.997 L547.5,172.963 L548.5,172.958 L549.5,173.026 L550.5,172.979 L551.5,173.011 L552.5,173.013 L553.5,173.005 L554.5,172.982 L555.5,172.974 L556.5,173.008 L557.5,173.003 L558.5,172.982 L559.5,172.995 L560.5,172.995 L561.5,173 L562.5,173 L563.5,173.005 L564.5,172.995 L565.5,173 L566.5,172.979 L567.5,172.982 L568.5,173.008 L569.5,173.018 M570.5,167.055 L570.5,175.846 M571.5,151.565 L571.5,214.497 M572.5,169.209 L572.5,212.517 M573.5,110.253 L573.5,220.384 M574.5,107.945 L574.5,187.028 M575.5,146.138 L575.5,269.901 M576.5,160.033 L576.5,247.827 M577.5,177.356 L577.5,247.478 M578.5,151.708 L578.5,198.917 M579.5,109.049 L579.5,165.793 M580.5,120.585 L580.5,155.857 M581.5,105.696 L581.5,162.092 M582.5,135.874 L582.5,215.653 M583.5,198.521 L583.5,252.436 M584.5,196.066 L584.5,250.25 M585.5,161.506 L585.5,214.202 M586.5,129.153 L586.5,194.799 M587.5,110.976 L587.5,147.231 M588.5,117.148 L588.5,170.656 M589.5,138.699 L589.5,211.039 M590.5,179.214 L590.5,238.984 M591.5,185.212 L591.5,235.309 M592.5,165.107 L592.5,211.155 M593.5,143.635 L593.5,182.255 M594.5,115.728 L594.5,181.648 M595.5,122.855 L595.5,164.574 M596.5,133.25 L596.5,165.397 M597.5,142.5 L597.5,199.614 M598.5,194.567 L598.5,233.54 M599.5,174.964 L599.5,230.162 M600.5,164.02 L600.5,197.312 M601.5,122.528 L601.5,173.333 M602.5,124.56 L602.5,166.802 M603.5,126.535 L603.5,167.657 M604.5,162.763 L604.5,195.66 M605.5,174.716 L605.5,207.845 M606.5,171.4 L606.5,205.818 M607.5,173.575 L607.5,212.396 M608.5,152.299 L608.5,202.724 M609.5,134.686 L609.5,165.989 M610.5,134.433 L610.5,163.972 M611.5,142.901 L611.5,176.03 M612.5,148.323 L612.5,197.212 M613.5,177.725 L613.5,217.148 M614.5,189.287 L614.5,217.232 M615.5,164.664 L615.5,191.774 M616.5,155.546 L616.5,179.499 M617.5,141.518 L617.5,173.639 M618.5,145.541 L618.5,166.448 M619.5,151.628 L619.5,183.802 M620.5,168.111 L620.5,192.413 M621.5,170.239 L621.5,198.263 M622.5,180.333 L622.5,204.952 M623.5,170.466 L623.5,207.755 M624.5,154.648 L624.5,179.325 M625.5,139.338 L625.5,171.976 M626.5,146 L626.5,172.377 M627.5,154.226 L627.5,181.194 M628.5,164.817 L628.5,188.385 M629.5,168.296 L629.5,198.801 M630.5,173.565 L630.5,195.94 M631.5,169.209 L631.5,193.078 M632.5,160.197 L632.5,178.654 M633.5,152.922 L633.5,171.538 M634.5,148.059 L634.5,171.194 M635.5,159.437 L635.5,177.387 M636.5,165.519 L636.5,190.591 M637.5,165.128 L637.5,190.972 M638.5,178.253 L638.5,200.153 M639.5,168.829 L639.5,193.823 M640.5,156.554 L640.5,178.554 M641.5,152.832 L641.5,171.654 M642.5,155.62 L642.5,173.375 M643.5,160.414 L643.5,182.345 M644.5,164.02 L644.5,186.04 M645.5,170.476 L645.5,188.728 M646.5,166.596 L646.5,188.121 M647.5,172.747 L647.5,185.608 M648.5,168.729 L648.5,180.872 M649.5,159.194 L649.5,177.477 M650.5,160.678 L650.5,169.653 M651.5,157.647 L651.5,174.642 M652.5,156.311 L652.5,181.453 M653.5,172.747 L653.5,191.241 M654.5,172.863 L654.5,189.367 M655.5,171.411 L655.5,182.445 M656.5,164.447 L656.5,179.24 M657.5,158.888 L657.5,176.104 M658.5,159.822 L658.5,169.869 M659.5,162.678 L659.5,177.62 M660.5,170.587 L660.5,180.603 M661.5,170.329 L661.5,181.569 M662.5,169.669 L662.5,178.369 M663.5,173.544 L663.5,183.411 M664.5,169.838 L664.5,185.106 M665.5,167.309 L665.5,179.805 M666.5,159.331 L666.5,172.414 M667.5,161.543 L667.5,174.784 M668.5,164.928 L668.5,177.408 M669.5,172.071 L669.5,181.643 M670.5,175.217 L670.5,183.205 M671.5,169.658 L671.5,181.4 M672.5,167.467 L672.5,181.442 M673.5,165.846 L673.5,175.08 M674.5,164.59 L674.5,174.774 M675.5,164.188 L675.5,173.75 M676.5,168.011 L676.5,176.812 M677.5,172.504 L677.5,180.888 M678.5,170.513 L678.5,180.006 M679.5,171.168 L679.5,181.13 M680.5,170.587 L680.5,179.441 M681.5,168.475 L681.5,177.873 M682.5,167.282 L682.5,174.299 M683.5,165.545 L683.5,173.707 M684.5,168.84 L684.5,174.953 M684.5,171.897"/>
</g>

<g fill="none" stroke="#0000c0" stroke-opacity="1" stroke-width="1" stroke-linecap="square" stroke-linejoin="bevel" transform="matrix(1,0,0,1,0,0)"
font-family="Segoe UI" font-size="9" font-weight="400" font-style="normal" 
>
<path vector-effect="non-scaling-stroke" fill-rule="evenodd" d="M57.5,175.914 L57.5,173.372 M58.5,180.86 L58.5,165.14 M59.5,169.93 L59.5,150.982 M60.5,193.393 L60.5,152.607 M61.5,199.536 L61.5,146.464 M62.5,207.183 L62.5,154.73 M63.5,205.237 L63.5,154.777 M64.5,187.75 L64.5,158.25 M65.5,156.974 L65.5,136.531 M66.5,159.593 L66.5,136.837 M67.5,173.827 L67.5,140.387 M68.5,197.802 L68.5,148.198 M69.5,228.978 L69.5,197.879 M70.5,213.13 L70.5,185.816 M71.5,191.347 L71.5,158.441 M72.5,185.299 L72.5,142.497 M73.5,153.918 L73.5,128.167 M74.5,169.197 L74.5,148.631 M75.5,187.375 L75.5,161.651 M76.5,203.503 L76.5,175.499 M77.5,209.742 L77.5,192.647 M78.5,186.646 L78.5,168.483 M79.5,185.537 L79.5,154.513 M80.5,178.256 L80.5,143.91 M81.5,165.005 L81.5,146.92 M82.5,165.812 L82.5,145.775 M83.5,193.057 L83.5,154.423 M84.5,217.937 L84.5,200.509 M85.5,196.889 L85.5,172.289 M86.5,180.85 L86.5,165.15 M87.5,166.298 L87.5,144.486 M88.5,151.225 L88.5,136.094 M89.5,178.156 L89.5,158.605 M90.5,185.558 L90.5,165.109 M91.5,194.154 L91.5,169.613 M92.5,195.461 L92.5,175.711 M93.5,190.583 L93.5,171.957 M94.5,179.291 L94.5,160.763 M95.5,164.82 L95.5,149.347 M96.5,170.004 L96.5,152.37 M97.5,179.581 L97.5,156.316 M98.5,185.631 L98.5,160.369 M99.5,201.776 L99.5,178.947 M100.5,196.513 L100.5,181.93 M101.5,181.019 L101.5,164.981 M102.5,172.206 L102.5,161.127 M103.5,164.54 L103.5,154.629 M104.5,163.621 L104.5,155.254 M105.5,180.375 L105.5,165.625 M106.5,182.384 L106.5,170.362 M107.5,186.299 L107.5,172.627 M108.5,193.035 L108.5,184.464 M109.5,181.042 L109.5,164.958 M110.5,172.612 L110.5,161.865 M111.5,167.85 L111.5,154.181 M112.5,172.961 L112.5,157.195 M113.5,180.328 L113.5,165.672 M114.5,181.695 L114.5,173.789 M115.5,186.95 L115.5,169.602 M116.5,185.47 L116.5,171.598 M117.5,178.822 L117.5,168.361 M118.5,172.913 L118.5,166.512 M119.5,171.007 L119.5,159.822 M120.5,171.91 L120.5,162.525 M121.5,179.631 L121.5,166.369 M122.5,179.333 L122.5,167.416 M123.5,183.891 L123.5,177.416 M124.5,187.02 L124.5,171.482 M125.5,180.187 L125.5,166.044 M126.5,176.583 L126.5,165.655 M127.5,168.938 L127.5,159.867 M128.5,171.995 L128.5,164.077 M129.5,178.172 L129.5,167.828 M130.5,177.752 L130.5,172.284 M131.5,179.402 L131.5,166.598 M132.5,180.386 L132.5,171.73 M133.5,179.483 L133.5,171.429 M134.5,176.539 L134.5,169.461 M135.5,171.673 L135.5,165.274 M136.5,171.335 L136.5,163.679 M137.5,177.913 L137.5,166.374 M138.5,176.856 L138.5,169.37 M139.5,182.824 L139.5,170.906 M140.5,181.466 L140.5,173.446 M141.5,177.693 L141.5,170.832 M142.5,176.071 L142.5,169.528 M143.5,170.147 L143.5,165.387 M144.5,172.19 L144.5,166.013 M145.5,176.501 L145.5,169.499 M146.5,176.446 L146.5,170.304 M147.5,176.515 L147.5,172.089 M148.5,176.679 L148.5,174.185 M149.5,177.629 L149.5,174.523 M150.5,176.726 L150.5,169.713 M151.5,176.065 L151.5,169.341 M152.5,170.348 L152.5,165.722 M153.5,171.129 L153.5,167.594 M154.5,175.49 L154.5,170.51 M155.5,177.714 L155.5,173.968 M156.5,178.827 L156.5,174.359 M157.5,177.293 L157.5,170.748 M158.5,175.216 L158.5,170.784 M159.5,175.083 L159.5,169.833 M160.5,174.022 L160.5,168.509 M161.5,172.702 L161.5,169.101 M162.5,174.851 L162.5,171.482 M163.5,176.078 L163.5,172.179 M164.5,176.845 L164.5,171.777 M165.5,176.227 L165.5,174.47 M166.5,175.587 L166.5,171.334 M167.5,173.484 L167.5,170.782 M168.5,172.987 L168.5,169.656 M169.5,173.536 L169.5,170.112 M170.5,174.17 L170.5,171.064 M171.5,175.266 L171.5,171.983 M172.5,175.761 L172.5,172.11 M173.5,175.625 L173.5,172.585 M174.5,174.988 L174.5,171.012 M175.5,175.187 L175.5,170.813 M176.5,173.404 L176.5,171.006 M177.5,171.234 L177.5,169.139 M178.5,173.283 L178.5,170.66 M179.5,175.019 L179.5,171.999 M180.5,176.305 L180.5,174.945 M181.5,175.802 L181.5,173.15 M182.5,175.198 L182.5,170.802 M183.5,173.093 L183.5,170.403 M184.5,173.325 L184.5,170.644 M185.5,173.293 L185.5,171.646 M186.5,174.117 L186.5,171.994 M187.5,174.691 L187.5,171.793 M188.5,174.386 L188.5,171.888 M189.5,174.387 L189.5,172.427 M190.5,174.307 L190.5,173.124 M191.5,174.514 L191.5,173.007 M192.5,174.183 L192.5,172.965 M193.5,173.161 L193.5,171.598 M194.5,173.679 L194.5,170.817 M195.5,172.338 L195.5,171.259 M197.5,175.229 L197.5,174.164 M198.5,174.949 L198.5,172.67 M199.5,173.806 L199.5,171.644 M201.5,173.758 L201.5,171.683 M228.5,180.079 L228.5,165.921 M229.5,184.274 L229.5,161.726 M230.5,185.33 L230.5,160.67 M231.5,181.874 L231.5,164.126 M232.5,183.065 L232.5,162.935 M233.5,183.151 L233.5,162.849 M234.5,184.488 L234.5,161.512 M235.5,184.842 L235.5,161.158 M236.5,180.745 L236.5,165.255 M237.5,183.168 L237.5,162.832 M238.5,182.847 L238.5,163.153 M239.5,182.712 L239.5,163.288 M240.5,180.708 L240.5,165.292 M241.5,183.843 L241.5,162.157 M242.5,180.494 L242.5,165.506 M243.5,180.616 L243.5,165.384 M244.5,179.632 L244.5,166.368 M245.5,181.821 L245.5,164.179 M246.5,180.758 L246.5,165.242 M247.5,180.125 L247.5,165.875 M248.5,177.84 L248.5,168.16 M249.5,180.357 L249.5,165.643 M250.5,177.824 L250.5,168.176 M251.5,181.114 L251.5,164.886 M252.5,180.537 L252.5,165.463 M253.5,178.528 L253.5,167.472 M254.5,179.895 L254.5,166.105 M255.5,178.323 L255.5,167.677 M256.5,178.314 L256.5,167.686 M257.5,176.932 L257.5,169.068 M258.5,177.001 L258.5,168.999 M259.5,178.27 L259.5,167.73 M260.5,178.067 L260.5,167.933 M261.5,178.837 L261.5,167.163 M262.5,177.157 L262.5,168.843 M263.5,176.929 L263.5,169.071 M264.5,175.858 L264.5,170.142 M265.5,178.63 L265.5,167.37 M266.5,176.165 L266.5,169.835 M267.5,178.024 L267.5,167.976 M268.5,176.942 L268.5,169.058 M269.5,176.677 L269.5,169.323 M270.5,175.405 L270.5,170.595 M271.5,176.698 L271.5,169.302 M272.5,176.636 L272.5,169.364 M273.5,176.485 L273.5,169.515 M274.5,176.139 L274.5,169.861 M275.5,176.334 L275.5,169.666 M276.5,175.246 L276.5,170.754 M277.5,176.421 L277.5,169.579 M278.5,176.047 L278.5,169.953 M279.5,176.457 L279.5,169.543 M280.5,175.207 L280.5,170.793 M281.5,176.177 L281.5,169.823 M282.5,175.976 L282.5,170.024 M283.5,175.617 L283.5,170.383 M284.5,175.912 L284.5,170.088 M285.5,174.924 L285.5,171.076 M286.5,175.337 L286.5,170.663 M287.5,175.039 L287.5,170.961 M288.5,175.262 L288.5,170.738 M289.5,175.556 L289.5,170.444 M290.5,174.936 L290.5,171.064 M291.5,175.695 L291.5,170.305 M292.5,175.304 L292.5,170.696 M293.5,175.432 L293.5,170.568 M294.5,175.343 L294.5,170.657 M295.5,175.779 L295.5,170.221 M296.5,175.218 L296.5,170.782 M297.5,174.941 L297.5,171.059 M298.5,175.291 L298.5,170.709 M299.5,174.974 L299.5,171.112 M300.5,175.197 L300.5,170.948 M301.5,174.931 L301.5,171.069 M302.5,174.913 L302.5,171.087 M303.5,174.487 L303.5,171.139 M304.5,174.438 L304.5,172.411 M305.5,174.466 L305.5,171.396 M306.5,174.616 L306.5,171.384 M307.5,174.838 L307.5,171.162 M308.5,174.639 L308.5,171.361 M309.5,174.756 L309.5,171.244 M310.5,174.231 L310.5,171.878 M311.5,174.109 L311.5,172.321 M312.5,174.535 L312.5,171.487 M313.5,174.434 L313.5,171.566 M314.5,174.376 L314.5,172.004 M315.5,174.424 L315.5,172.168 M316.5,173.225 L316.5,172.11 M317.5,174.165 L317.5,171.791 M318.5,173.932 L318.5,171.777 M319.5,174.145 L319.5,172.015 M322.5,173.748 L322.5,172.464 M324.5,173.6 L324.5,172.358 M399.5,177.387 L399.5,168.613 M400.5,182.963 L400.5,163.037 M401.5,185.396 L401.5,160.604 M402.5,184.159 L402.5,161.841 M403.5,179.32 L403.5,166.68 M404.5,186.578 L404.5,159.422 M405.5,184.067 L405.5,161.933 M406.5,182.671 L406.5,163.329 M407.5,182.793 L407.5,163.207 M408.5,181.576 L408.5,164.424 M409.5,184.206 L409.5,161.794 M410.5,183.51 L410.5,162.49 M411.5,179.863 L411.5,166.137 M412.5,182.535 L412.5,163.465 M413.5,180.607 L413.5,165.393 M414.5,181.43 L414.5,164.57 M415.5,179.225 L415.5,167.306 M416.5,182.212 L416.5,163.788 M417.5,180.003 L417.5,165.997 M418.5,179.381 L418.5,166.619 M419.5,180.212 L419.5,165.788 M420.5,178.846 L420.5,167.154 M421.5,179.54 L421.5,166.46 M422.5,179.759 L422.5,166.241 M423.5,180.903 L423.5,165.097 M424.5,178.847 L424.5,167.153 M425.5,178.363 L425.5,167.637 M426.5,179.111 L426.5,166.889 M427.5,178.479 L427.5,167.521 M428.5,177.057 L428.5,168.943 M429.5,177.207 L429.5,168.793 M430.5,178.902 L430.5,167.098 M431.5,177.172 L431.5,168.828 M432.5,178.87 L432.5,167.13 M433.5,177.145 L433.5,168.855 M434.5,176.518 L434.5,169.482 M435.5,176.484 L435.5,169.516 M436.5,177.266 L436.5,168.734 M437.5,176.784 L437.5,169.216 M438.5,178.214 L438.5,167.786 M439.5,177.646 L439.5,168.354 M440.5,177.064 L440.5,168.936 M441.5,176.207 L441.5,169.793 M442.5,176.648 L442.5,169.352 M443.5,177.111 L443.5,168.889 M444.5,176.125 L444.5,169.875 M445.5,176.013 L445.5,169.987 M446.5,176.937 L446.5,169.063 M447.5,175.792 L447.5,170.208 M448.5,175.855 L448.5,170.145 M449.5,175.73 L449.5,170.27 M450.5,176.391 L450.5,169.609 M451.5,176.056 L451.5,169.944 M452.5,175.316 L452.5,170.676 M453.5,176.131 L453.5,170.083 M454.5,175.888 L454.5,170.112 M455.5,175.855 L455.5,170.145 M456.5,175.701 L456.5,170.299 M457.5,175.271 L457.5,170.729 M458.5,174.851 L458.5,171.149 M459.5,175.19 L459.5,170.81 M460.5,175.621 L460.5,170.379 M461.5,175.28 L461.5,170.72 M462.5,175.315 L462.5,170.685 M463.5,175.194 L463.5,170.806 M464.5,175.529 L464.5,170.471 M465.5,175.168 L465.5,170.802 M466.5,175.54 L466.5,170.46 M467.5,175.541 L467.5,170.521 M468.5,175.054 L468.5,170.946 M469.5,175.245 L469.5,170.755 M470.5,175.677 L470.5,170.323 M471.5,174.882 L471.5,171.128 M472.5,174.603 L472.5,171.492 M473.5,174.825 L473.5,171.629 M474.5,174.915 L474.5,171.085 M475.5,174.318 L475.5,171.577 M476.5,174.601 L476.5,171.399 M477.5,174.434 L477.5,171.27 M478.5,174.788 L478.5,171.212 M479.5,173.737 L479.5,171.575 M480.5,174.788 L480.5,171.212 M481.5,174.022 L481.5,171.753 M482.5,174.323 L482.5,172.221 M483.5,174.278 L483.5,171.867 M484.5,174.37 L484.5,171.63 M485.5,174.344 L485.5,172.284 M486.5,174.312 L486.5,171.909 M487.5,174.163 L487.5,172.469 M488.5,173.61 L488.5,172.163 M489.5,174.254 L489.5,171.693 M490.5,173.827 L490.5,171.767 M493.5,173.663 L493.5,172.527 M494.5,173.811 L494.5,172.316 M570.5,174.045 L570.5,171.955 M571.5,187.869 L571.5,158.131 M572.5,187.098 L572.5,170.209 M573.5,204.117 L573.5,141.883 M574.5,186.028 L574.5,149.361 M575.5,203.117 L575.5,147.138 M576.5,203.83 L576.5,161.033 M577.5,214.719 L577.5,178.356 M578.5,184.568 L578.5,161.432 M579.5,164.793 L579.5,136.83 M580.5,154.857 L580.5,136.303 M581.5,161.092 L581.5,136.548 M582.5,193.382 L582.5,152.618 M583.5,226.247 L583.5,199.521 M584.5,222.101 L584.5,197.066 M585.5,194.836 L585.5,162.506 M586.5,192.921 L586.5,153.079 M587.5,146.231 L587.5,128.971 M588.5,169.656 L588.5,140.222 M589.5,187.826 L589.5,158.174 M590.5,202.078 L590.5,180.214 M591.5,208.376 L591.5,186.212 M592.5,193.165 L592.5,166.107 M593.5,181.255 L593.5,162.451 M594.5,180.648 L594.5,144.076 M595.5,163.574 L595.5,145.419 M596.5,164.397 L596.5,143.215 M597.5,186.25 L597.5,159.75 M598.5,216.695 L598.5,195.567 M599.5,204.573 L599.5,175.964 M600.5,182.852 L600.5,165.02 M601.5,172.333 L601.5,151.224 M602.5,165.802 L602.5,137.956 M603.5,166.657 L603.5,149.781 M604.5,180.613 L604.5,165.387 M605.5,192.749 L605.5,175.716 M606.5,195.193 L606.5,172.4 M607.5,194.013 L607.5,174.575 M608.5,184.072 L608.5,161.928 M609.5,164.989 L609.5,151.955 M610.5,162.972 L610.5,149.328 M611.5,175.03 L611.5,154.053 M612.5,184.368 L612.5,161.632 M613.5,197.948 L613.5,178.725 M614.5,201.144 L614.5,190.287 M615.5,182.03 L615.5,165.664 M616.5,178.499 L616.5,164.26 M617.5,172.639 L617.5,156.635 M618.5,165.448 L618.5,153.803 M619.5,182.556 L619.5,163.444 M620.5,180.913 L620.5,169.111 M621.5,184.653 L621.5,171.239 M622.5,193.059 L622.5,181.333 M623.5,185.704 L623.5,171.466 M624.5,178.325 L624.5,164.227 M625.5,170.976 L625.5,156.529 M626.5,171.377 L626.5,155.756 M627.5,180.194 L627.5,165.368 M628.5,180.692 L628.5,165.817 M629.5,186.915 L629.5,169.296 M630.5,186.222 L630.5,174.565 M631.5,180.562 L631.5,170.209 M632.5,177.654 L632.5,168.086 M633.5,170.538 L633.5,162.059 M634.5,170.194 L634.5,160.81 M635.5,176.387 L635.5,165.718 M636.5,177.996 L636.5,168.004 M637.5,182.558 L637.5,166.128 M638.5,186.919 L638.5,179.253 M639.5,181.847 L639.5,169.829 M640.5,177.554 L640.5,166.025 M641.5,170.654 L641.5,161.362 M642.5,172.375 L642.5,163.117 M643.5,178.631 L643.5,167.369 M644.5,177.158 L644.5,168.842 M645.5,179.559 L645.5,171.476 M646.5,180.713 L646.5,167.596 M647.5,180.49 L647.5,173.747 M648.5,176.335 L648.5,169.729 M649.5,176.477 L649.5,167.34 M650.5,168.653 L650.5,163.72 M651.5,173.642 L651.5,165.254 M652.5,177.462 L652.5,168.538 M653.5,181.245 L653.5,173.747 M654.5,182.398 L654.5,173.863 M655.5,178.275 L655.5,172.411 M656.5,176.242 L656.5,169.758 M657.5,175.104 L657.5,166.357 M658.5,168.869 L658.5,165.703 M659.5,176.62 L659.5,168.405 M660.5,176.176 L660.5,171.587 M661.5,176.703 L661.5,171.329 M662.5,176.275 L662.5,170.669 M663.5,178.213 L663.5,174.544 M664.5,177.43 L664.5,170.838 M665.5,176.066 L665.5,169.934 M666.5,171.414 L666.5,167.262 M667.5,173.784 L667.5,167.194 M668.5,176.408 L668.5,169.257 M669.5,176.461 L669.5,173.071 M670.5,178.979 L670.5,176.217 M671.5,177.849 L671.5,170.658 M672.5,175.854 L672.5,170.146 M673.5,174.08 L673.5,170.473 M674.5,173.774 L674.5,168.762 M675.5,172.75 L675.5,168.772 M676.5,175.128 L676.5,170.872 M677.5,176.12 L677.5,173.504 M678.5,176.532 L678.5,171.513 M679.5,176.171 L679.5,172.168 M680.5,175.665 L680.5,171.587 M681.5,175.231 L681.5,170.769 M682.5,173.299 L682.5,170.209 M683.5,172.707 L683.5,170.248 M684.5,173.953 L684.5,171.031"/>
</g>

<g fill="none" stroke="#000080" stroke-opacity="1" stroke-width="1" stroke-linecap="square" stroke-linejoin="bevel" transform="matrix(1,0,0,1,0,0)"
font-family="Segoe UI" font-size="9" font-weight="400" font-style="normal" 
>
</g>

<g fill="none" stroke="#000000" stroke-opacity="1" stroke-width="1" stroke-linecap="square" stroke-linejoin="bevel" transform="matrix(1,0,0,1,0,0)"
font-family="Segoe UI" font-size="9" font-weight="400" font-style="normal" 
>
</g>

<g fill="#ffffff" fill-opacity="1" stroke="#ffffff" stroke-opacity="1" stroke-width="1" stroke-linecap="square" stroke-linejoin="bevel" transform="matrix(1,0,0,1,0,0)"
font-family="Segoe UI" font-size="9" font-weight="400" font-style="normal" 
>
<rect x="684" y="0" width="684" height="346"/>
</g>

<g fill="none" stroke="#000000" stroke-opacity="1" stroke-width="1" stroke-linecap="square" stroke-linejoin="bevel" transform="matrix(1,0,0,1,0,0)"
font-family="Segoe UI" font-size="9" font-weight="400" font-style="normal" 
>
</g>

<g fill="none" stroke="#0000c0" stroke-opacity="1" stroke-width="1" stroke-linecap="square" stroke-linejoin="bevel" transform="matrix(1,0,0,1,684,0)"
font-family="Segoe UI" font-size="9" font-weight="400" font-style="normal" 
>
<polyline fill="none" vector-effect="non-scaling-stroke" points="0,173.5 684,173.5 " />
</g>

<g fill="none" stroke="#000080" stroke-opacity="1" stroke-width="1" stroke-linecap="square" stroke-linejoin="bevel" transform="matrix(1,0,0,1,684,0)"
font-family="Segoe UI" font-size="9" font-weight="400" font-style="normal" 
>
<path vector-effect="non-scaling-stroke" fill-rule="evenodd" d="M0.5,168.84 L0.5,174.953 M1.5,170.218 L1.5,176.743 M2.5,170.165 L2.5,178.639 M3.5,172.139 L3.5,178.702 M4.5,171.722 L4.5,176.574 M5.5,169.69 L5.5,178.258 M6.5,169.547 L6.5,176.279 M7.5,168.993 L7.5,172.055 M7.5,170.524"/>
</g>

<g fill="none" stroke="#0000c0" stroke-opacity="1" stroke-width="1" stroke-linecap="square" stroke-linejoin="bevel" transform="matrix(1,0,0,1,684,0)"
font-family="Segoe UI" font-size="9" font-weight="400" font-style="normal" 
>
<path vector-effect="non-scaling-stroke" fill-rule="evenodd" d="M0.5,173.953 L0.5,171.031 M1.5,175.071 L1.5,171.218 M2.5,175.521 L2.5,171.165 M3.5,176.216 L3.5,173.139 M4.5,174.93 L4.5,172.722 M5.5,175.167 L5.5,170.833 M6.5,174.85 L6.5,171.15"/>
</g>

<g fill="none" stroke="#000080" stroke-opacity="1" stroke-width="1" stroke-linecap="square" stroke-linejoin="bevel" transform="matrix(1,0,0,1,684,0)"
font-family="Segoe UI" font-size="9" font-weight="400" font-style="normal" 
>
</g>

<g fill="none" stroke="#000000" stroke-opacity="1" stroke-width="1" stroke-linecap="square" stroke-linejoin="bevel" transform="matrix(1,0,0,1,0,0)"
font-family="Segoe UI" font-size="9" font-weight="400" font-style="normal" 
>
</g>
</g>
</svg>
