<?xml version="1.0" encoding="UTF-8" standalone="no"?>
<svg width="243.769mm" height="122.061mm"
 viewBox="0 0 691 346"
 xmlns="http://www.w3.org/2000/svg" xmlns:xlink="http://www.w3.org/1999/xlink" version="1.2" baseProfile="tiny">
<title>Exported image from Sonic Visualiser</title>
<desc>Generated with Qt</desc>
<defs>
</defs>
<g fill="none" stroke="black" stroke-width="1" fill-rule="evenodd" stroke-linecap="square" stroke-linejoin="bevel" >

<g fill="#ffffff" fill-opacity="1" stroke="#ffffff" stroke-opacity="1" stroke-width="1" stroke-linecap="square" stroke-linejoin="bevel" transform="matrix(1,0,0,1,0,0)"
font-family="Segoe UI" font-size="9" font-weight="400" font-style="normal" 
>
<rect x="0" y="0" width="684" height="346"/>
</g>

<g fill="none" stroke="#000000" stroke-opacity="1" stroke-width="1" stroke-linecap="square" stroke-linejoin="bevel" transform="matrix(1,0,0,1,0,0)"
font-family="Segoe UI" font-size="9" font-weight="400" font-style="normal" 
>
</g>

<g fill="none" stroke="#0000c0" stroke-opacity="1" stroke-width="1" stroke-linecap="square" stroke-linejoin="bevel" transform="matrix(1,0,0,1,0,0)"
font-family="Segoe UI" font-size="9" font-weight="400" font-style="normal" 
>
<polyline fill="none" vector-effect="non-scaling-stroke" points="0,173.5 684,173.5 " />
</g>

<g fill="none" stroke="#000080" stroke-opacity="1" stroke-width="1" stroke-linecap="square" stroke-linejoin="bevel" transform="matrix(1,0,0,1,0,0)"
font-family="Segoe UI" font-size="9" font-weight="400" font-style="normal" 
>
<path vector-effect="non-scaling-stroke" fill-rule="evenodd" d="M0.5,172.984 L0.5,173.021 M0.5,173.003 L1.5,173 L2.5,173 L3.5,172.997 L4.5,173 L5.5,173 L6.5,173 L7.5,173 L8.5,173 L9.5,173 L10.5,173 L11.5,173.003 L12.5,173 L13.5,172.997 L14.5,172.997 L15.5,173 L16.5,173 L17.5,173 L18.5,173 L19.5,173.003 L20.5,173 L21.5,173 L22.5,173 L23.5,173 L24.5,173 L25.5,172.997 L26.5,173 L27.5,173 L28.5,173 L29.5,173 L30.5,172.997 L31.5,173 L32.5,173 L33.5,173 L34.5,173 L35.5,173.003 L36.5,173.003 L37.5,173.005 L38.5,172.995 L39.5,172.997 L40.5,172.992 L41.5,172.992 L42.5,173.003 L43.5,173.005 L44.5,172.997 L45.5,173.003 L46.5,172.995 L47.5,173.011 L48.5,173 L49.5,172.995 L50.5,173.005 L51.5,173 L52.5,172.995 L53.5,173 L54.5,173.011 L55.5,173.032 L56.5,173.069 M57.5,172.224 L57.5,174.742 M58.5,162.531 L58.5,175.413 M59.5,143.873 L59.5,209.439 M60.5,120.036 L60.5,235.362 M61.5,108.88 L61.5,222.406 M62.5,134.264 L62.5,209.508 M63.5,123.219 L63.5,236.312 M64.5,157.974 L64.5,198.136 M65.5,131.661 L65.5,190.159 M66.5,137.046 L66.5,198.637 M67.5,166.068 L67.5,224.396 M68.5,139.19 L68.5,206.293 M69.5,140.124 L69.5,196.325 M70.5,154.712 L70.5,188.173 M71.5,157.779 L71.5,198.009 M72.5,148.366 L72.5,192.888 M73.5,155.646 L73.5,211.747 M74.5,155.525 L74.5,176.933 M75.5,145.219 L75.5,185.745 M76.5,157.489 L76.5,192.703 M77.5,162.589 L77.5,202.338 M78.5,147.801 L78.5,199.118 M79.5,142.748 L79.5,194.472 M80.5,155.356 L80.5,195.005 M81.5,158.798 L81.5,195.776 M82.5,153.175 L82.5,195 M83.5,156.454 L83.5,189.52 M84.5,152.996 L84.5,190.818 M85.5,155.556 L85.5,184.742 M86.5,159.569 L86.5,191.309 M87.5,163.645 L87.5,187.619 M88.5,163.581 L88.5,180.08 M89.5,164.954 L89.5,183.818 M90.5,160.033 L90.5,181.236 M91.5,165.852 L91.5,186.531 M92.5,167.377 L92.5,180.771 M93.5,168.238 L93.5,180.692 M94.5,166.395 L94.5,175.149 M95.5,167.187 L95.5,178.844 M96.5,165.482 L96.5,183.121 M97.5,169.558 L97.5,177.746 M98.5,167.156 L98.5,175.08 M99.5,169.273 L99.5,176.712 M100.5,169.927 L100.5,182.403 M101.5,167.657 L101.5,179.335 M102.5,167.039 L102.5,179.832 M103.5,170.007 L103.5,174.373 M104.5,170.487 L104.5,177.815 M105.5,170.74 L105.5,176.057 M106.5,170.519 L106.5,175.112 M107.5,170.012 L107.5,175.455 M108.5,171.923 L108.5,174.352 M109.5,171.511 L109.5,175.524 M110.5,170.418 L110.5,175.149 M111.5,171.268 L111.5,175.634 M112.5,171.258 L112.5,176.062 M113.5,170.387 L113.5,173.85 M114.5,170.814 L114.5,175.001 M115.5,171.073 L115.5,175.582 M116.5,171.284 L116.5,174.626 M117.5,170.402 L117.5,174.858 M118.5,171.099 L118.5,174.573 M119.5,171.923 L119.5,174.441 M120.5,171.353 L120.5,174.177 M121.5,172.261 L121.5,173.671 M122.5,172.324 L122.5,173.75 M123.5,172.361 L123.5,173.855 M124.5,171.743 L124.5,174.299 M125.5,172.076 L125.5,173.729 M126.5,171.374 L126.5,174.03 M127.5,172.113 L127.5,173.781 M128.5,172.05 L128.5,173.697 M129.5,171.833 L129.5,173.766 M130.5,172.044 L130.5,174.04 M131.5,171.918 L131.5,173.665 M132.5,172.403 L132.5,173.818 M133.5,171.97 L133.5,173.676 M134.5,172.192 L134.5,173.554 M134.5,172.873 L135.5,172.984 M136.5,171.928 L136.5,174.024 M136.5,172.976 L137.5,172.715 M138.5,172.287 L138.5,173.792 M139.5,172.182 L139.5,173.581 M140.5,172.287 L140.5,173.723 M141.5,172.139 L141.5,173.56 M142.5,172.261 L142.5,173.417 M142.5,172.839 L143.5,172.992 M144.5,172.345 L144.5,173.459 M145.5,172.298 L145.5,173.433 M146.5,172.245 L146.5,173.333 M147.5,172.282 L147.5,173.723 M147.5,173.003 L148.5,172.979 L149.5,172.836 L150.5,172.9 L151.5,172.989 L152.5,173.013 L153.5,172.834 L154.5,172.836 L155.5,173.011 L156.5,173.021 L157.5,172.974 L158.5,172.942 L159.5,172.85 L160.5,172.868 L161.5,173.008 L162.5,172.997 L163.5,172.918 L164.5,172.976 L165.5,172.989 L166.5,172.997 L167.5,173 L168.5,173 L169.5,173 L170.5,173 L171.5,173 L172.5,173 L173.5,172.997 L174.5,173.003 L175.5,173 L176.5,172.997 L177.5,173 L178.5,173 L179.5,173 L180.5,173 L181.5,173.003 L182.5,173.003 L183.5,173 L184.5,173 L185.5,173 L186.5,173 L187.5,173 L188.5,173 L189.5,173 L190.5,173 L191.5,173 L192.5,173 L193.5,173 L194.5,172.997 L195.5,172.997 L196.5,173 L197.5,173 L198.5,172.997 L199.5,173.003 L200.5,173 L201.5,173 L202.5,173 L203.5,173 L204.5,173 L205.5,172.997 L206.5,173 L207.5,173 L208.5,173 L209.5,173 L210.5,173 L211.5,173 L212.5,173 L213.5,173.003 L214.5,173 L215.5,173 L216.5,173.003 L217.5,173 L218.5,173 L219.5,172.997 L220.5,173 L221.5,173 L222.5,173 L223.5,173 L224.5,173 L225.5,173 L226.5,173 L227.5,173 L228.5,173 L229.5,172.997 L230.5,173 L231.5,173 L232.5,173.003 L233.5,173 L234.5,173 L235.5,172.997 L236.5,173 L237.5,173 L238.5,173 L239.5,173 L240.5,173 L241.5,173 L242.5,173.003 L243.5,173.003 L244.5,173 L245.5,173 L246.5,173 L247.5,173 L248.5,173 L249.5,173 L250.5,173 L251.5,173 L252.5,173.003 L253.5,173 L254.5,173 L255.5,173 L256.5,173 L257.5,173 L258.5,173 L259.5,173 L260.5,173 L261.5,173 L262.5,173 L263.5,173 L264.5,173 L265.5,173 L266.5,173 L267.5,173 L268.5,173 L269.5,173.003 L270.5,173 L271.5,173 L272.5,173 L273.5,173.003 L274.5,173 L275.5,173 L276.5,173 L277.5,173 L278.5,173 L279.5,173 L280.5,172.997 L281.5,173 L282.5,173 L283.5,173 L284.5,173 L285.5,172.997 L286.5,173.003 L287.5,173 L288.5,173 L289.5,173 L290.5,173 L291.5,173.003 L292.5,173 L293.5,172.997 L294.5,173.003 L295.5,172.997 L296.5,173 L297.5,173 L298.5,173 L299.5,173 L300.5,173 L301.5,172.997 L302.5,173 L303.5,173 L304.5,173 L305.5,173 L306.5,173 L307.5,173 L308.5,172.997 L309.5,173 L310.5,173 L311.5,173 L312.5,173 L313.5,173 L314.5,173 L315.5,173 L316.5,173 L317.5,172.997 L318.5,173.003 L319.5,173 L320.5,173 L321.5,173 L322.5,173 L323.5,173 L324.5,173 L325.5,173 L326.5,173 L327.5,173 L328.5,173 L329.5,173 L330.5,173 L331.5,173 L332.5,173.003 L333.5,173.003 L334.5,173 L335.5,173 L336.5,173 L337.5,173 L338.5,173 L339.5,173 L340.5,173.003 L341.5,173 L342.5,173 L343.5,173 L344.5,173 L345.5,173 L346.5,172.997 L347.5,173 L348.5,173.003 L349.5,173 L350.5,173 L351.5,173 L352.5,173 L353.5,173 L354.5,173 L355.5,173 L356.5,173 L357.5,173 L358.5,173.003 L359.5,173 L360.5,173.003 L361.5,173 L362.5,173 L363.5,173 L364.5,172.997 L365.5,173 L366.5,173 L367.5,173 L368.5,173 L369.5,173 L370.5,173 L371.5,173 L372.5,173 L373.5,173 L374.5,172.997 L375.5,173 L376.5,173 L377.5,173 L378.5,173 L379.5,173 L380.5,173 L381.5,173 L382.5,173 L383.5,172.997 L384.5,173 L385.5,173 L386.5,173 L387.5,173 L388.5,173 L389.5,172.997 L390.5,173 L391.5,173 L392.5,173 L393.5,172.995 L394.5,172.992 L395.5,173.011 L396.5,172.992 L397.5,172.982 L398.5,172.989 M399.5,172.34 L399.5,176.521 M400.5,168.359 L400.5,180.212 M401.5,151.956 L401.5,186.125 M402.5,117.697 L402.5,233.002 M403.5,114.666 L403.5,223.816 M404.5,120.257 L404.5,219.608 M405.5,137.822 L405.5,207.993 M406.5,121.466 L406.5,233.456 M407.5,131.645 L407.5,202.127 M408.5,131.302 L408.5,192.761 M409.5,136.534 L409.5,201.224 M410.5,166.005 L410.5,225.553 M411.5,139.897 L411.5,205.263 M412.5,139.248 L412.5,192.719 M413.5,155.382 L413.5,188.147 M414.5,169.774 L414.5,196.119 M415.5,151.159 L415.5,192.772 M416.5,153.17 L416.5,213.816 M417.5,149.796 L417.5,177.852 M418.5,154.617 L418.5,190.206 M419.5,157.33 L419.5,193.464 M420.5,155.762 L420.5,200.554 M421.5,141.18 L421.5,200.934 M422.5,146.259 L422.5,195.723 M423.5,153.909 L423.5,195.628 M424.5,154.722 L424.5,194.002 M425.5,158.339 L425.5,196.13 M426.5,157.937 L426.5,190.75 M427.5,155.303 L427.5,190.449 M428.5,155.857 L428.5,184.689 M429.5,158.434 L429.5,190.766 M430.5,166.422 L430.5,189.198 M431.5,163.956 L431.5,183.496 M432.5,164.827 L432.5,184.325 M433.5,160.34 L433.5,179.689 M434.5,166.01 L434.5,186.183 M435.5,169.257 L435.5,179.705 M436.5,167.889 L436.5,181.041 M437.5,167.689 L437.5,178.881 M438.5,167.076 L438.5,179.726 M439.5,164.912 L439.5,184.404 M440.5,169.779 L440.5,178.348 M441.5,167.81 L441.5,175.434 M442.5,169.368 L442.5,178.148 M443.5,169.241 L443.5,182.477 M444.5,167.779 L444.5,179.024 M445.5,167.309 L445.5,179.14 M446.5,170.096 L446.5,174.916 M447.5,169.996 L447.5,177.688 M448.5,171.062 L448.5,175.999 M449.5,170.915 L449.5,175.439 M450.5,169.927 L450.5,174.668 M451.5,171.707 L451.5,174.367 M452.5,171.4 L452.5,175.883 M453.5,170.471 L453.5,174.869 M454.5,171.421 L454.5,175.798 M455.5,171.39 L455.5,175.682 M456.5,170.154 L456.5,174.679 M457.5,170.497 L457.5,175.07 M458.5,172.298 L458.5,175.645 M459.5,171.252 L459.5,175.117 M460.5,169.88 L460.5,174.716 M461.5,171.453 L461.5,174.246 M462.5,171.437 L462.5,174.072 M463.5,171.216 L463.5,174.33 M464.5,172.282 L464.5,173.575 M465.5,172.498 L465.5,173.634 M466.5,171.86 L466.5,173.655 M467.5,172.118 L467.5,174.33 M468.5,172.435 L468.5,174.146 M469.5,171.474 L469.5,174.209 M470.5,172.097 L470.5,173.808 M471.5,171.97 L471.5,173.465 M472.5,172.05 L472.5,173.792 M473.5,172.219 L473.5,174.056 M474.5,171.86 L474.5,173.57 M475.5,172.256 L475.5,173.839 M476.5,172.081 L476.5,173.612 M477.5,172.213 L477.5,173.539 M478.5,172.451 L478.5,173.618 M479.5,171.939 L479.5,174.146 M480.5,172.314 L480.5,173.845 M481.5,172.356 L481.5,173.407 M482.5,172.145 L482.5,173.544 M483.5,172.155 L483.5,173.76 M484.5,172.293 L484.5,173.681 M485.5,172.356 L485.5,173.465 M486.5,172.261 L486.5,173.385 M487.5,172.372 L487.5,173.459 M488.5,172.393 L488.5,173.417 M489.5,172.271 L489.5,173.549 M490.5,172.261 L490.5,173.575 M490.5,172.918 L491.5,172.942 L492.5,172.86 L493.5,172.945 L494.5,173.013 L495.5,172.926 L496.5,172.937 L497.5,172.85 L498.5,173.008 L499.5,173.079 L500.5,172.963 L501.5,173.008 L502.5,172.937 L503.5,172.942 L504.5,173.003 L505.5,172.997 L506.5,172.889 L507.5,173 L508.5,173.011 L509.5,173.005 L510.5,173 L511.5,173 L512.5,173 L513.5,173 L514.5,173 L515.5,173.003 L516.5,173 L517.5,173 L518.5,173 L519.5,173 L520.5,173 L521.5,173.003 L522.5,173 L523.5,173 L524.5,173 L525.5,173 L526.5,173 L527.5,173 L528.5,172.997 L529.5,173 L530.5,173 L531.5,173 L532.5,173 L533.5,173.003 L534.5,173.003 L535.5,172.997 L536.5,172.997 L537.5,173.003 L538.5,172.997 L539.5,173 L540.5,173 L541.5,173 L542.5,173 L543.5,173.003 L544.5,173 L545.5,173 L546.5,173 L547.5,172.997 L548.5,173 L549.5,173 L550.5,173 L551.5,173 L552.5,172.997 L553.5,173 L554.5,173 L555.5,173 L556.5,173.003 L557.5,172.997 L558.5,172.997 L559.5,173 L560.5,173 L561.5,172.997 L562.5,173 L563.5,173 L564.5,173 L565.5,173 L566.5,173 L567.5,173 L568.5,173 L569.5,173 L570.5,173 L571.5,173 L572.5,173 L573.5,172.997 L574.5,173 L575.5,173 L576.5,173 L577.5,173 L578.5,173 L579.5,173 L580.5,172.997 L581.5,173 L582.5,173 L583.5,173 L584.5,173 L585.5,173.003 L586.5,173 L587.5,173.003 L588.5,172.997 L589.5,173 L590.5,173 L591.5,173 L592.5,173 L593.5,173 L594.5,173 L595.5,173.003 L596.5,173 L597.5,173 L598.5,173 L599.5,172.997 L600.5,172.997 L601.5,173 L602.5,173 L603.5,172.997 L604.5,173 L605.5,173 L606.5,173 L607.5,173 L608.5,173 L609.5,173 L610.5,173 L611.5,173 L612.5,173 L613.5,173 L614.5,173 L615.5,173 L616.5,173 L617.5,173 L618.5,173 L619.5,173 L620.5,173 L621.5,173 L622.5,172.997 L623.5,173 L624.5,173 L625.5,173 L626.5,172.997 L627.5,173.005 L628.5,172.997 L629.5,173 L630.5,173 L631.5,173 L632.5,173 L633.5,173 L634.5,173.003 L635.5,173 L636.5,173 L637.5,173.003 L638.5,173 L639.5,172.997 L640.5,173 L641.5,173 L642.5,173 L643.5,173 L644.5,173 L645.5,173 L646.5,173 L647.5,173 L648.5,173 L649.5,173 L650.5,173 L651.5,173 L652.5,173 L653.5,173 L654.5,173 L655.5,173 L656.5,173.005 L657.5,173 L658.5,173 L659.5,173 L660.5,173 L661.5,172.997 L662.5,173.003 L663.5,173 L664.5,172.997 L665.5,173 L666.5,173 L667.5,173 L668.5,173 L669.5,173 L670.5,173 L671.5,173 L672.5,173.003 L673.5,173.003 L674.5,172.997 L675.5,173 L676.5,173 L677.5,173 L678.5,173 L679.5,173 L680.5,173 L681.5,173 L682.5,173 L683.5,173 L684.5,173"/>
</g>

<g fill="none" stroke="#0000c0" stroke-opacity="1" stroke-width="1" stroke-linecap="square" stroke-linejoin="bevel" transform="matrix(1,0,0,1,0,0)"
font-family="Segoe UI" font-size="9" font-weight="400" font-style="normal" 
>
<path vector-effect="non-scaling-stroke" fill-rule="evenodd" d="M58.5,174.413 L58.5,169.578 M59.5,185.34 L59.5,160.66 M60.5,195.684 L60.5,150.316 M61.5,197.095 L61.5,148.905 M62.5,195.9 L62.5,150.1 M63.5,201.3 L63.5,144.7 M64.5,183.557 L64.5,162.443 M65.5,189.159 L65.5,152.443 M66.5,191.874 L66.5,154.126 M67.5,191.608 L67.5,167.068 M68.5,192.037 L68.5,153.963 M69.5,186.999 L69.5,159.001 M70.5,182.335 L70.5,163.665 M71.5,182.892 L71.5,163.108 M72.5,186.126 L72.5,159.874 M73.5,188.11 L73.5,157.89 M74.5,175.933 L74.5,169.355 M75.5,183.075 L75.5,162.925 M76.5,182.313 L76.5,163.687 M77.5,183.851 L77.5,163.589 M78.5,186.143 L78.5,159.857 M79.5,187.84 L79.5,158.16 M80.5,185.497 L80.5,160.503 M81.5,183.232 L81.5,162.768 M82.5,184.519 L82.5,161.481 M83.5,182.609 L83.5,163.391 M84.5,183.144 L84.5,162.856 M85.5,183.382 L85.5,162.618 M86.5,182.474 L86.5,163.526 M87.5,178.892 L87.5,167.108 M88.5,178.707 L88.5,167.293 M89.5,179.741 L89.5,166.259 M90.5,179.256 L90.5,166.744 M91.5,179.606 L91.5,166.852 M92.5,176.233 L92.5,169.767 M93.5,176.887 L93.5,169.238 M94.5,174.149 L94.5,170.625 M95.5,176.942 L95.5,169.058 M96.5,177.849 L96.5,168.151 M97.5,175.559 L97.5,170.558 M98.5,174.08 L98.5,170.185 M99.5,175.712 L99.5,170.273 M100.5,177.428 L100.5,170.927 M101.5,176.114 L101.5,169.886 M102.5,176.75 L102.5,169.25 M103.5,173.373 L103.5,171.481 M104.5,175.496 L104.5,171.487 M105.5,174.89 L105.5,171.74 M106.5,174.112 L106.5,171.519 M107.5,174.455 L107.5,171.453 M109.5,174.233 L109.5,172.511 M110.5,174.149 L110.5,171.497 M111.5,174.357 L111.5,172.268 M112.5,174.674 L112.5,172.258 M113.5,172.85 L113.5,171.492 M114.5,174.001 L114.5,171.814 M115.5,174.409 L115.5,172.073 M116.5,173.626 L116.5,172.284 M117.5,173.858 L117.5,171.531 M118.5,173.573 L118.5,172.099 M399.5,174.874 L399.5,173.34 M400.5,177.249 L400.5,169.359 M401.5,180.429 L401.5,165.571 M402.5,195.094 L402.5,150.906 M403.5,196.052 L403.5,149.948 M404.5,193.883 L404.5,152.117 M405.5,197.014 L405.5,148.986 M406.5,201.592 L406.5,144.408 M407.5,185.844 L407.5,160.156 M408.5,191.761 L408.5,152.66 M409.5,191.35 L409.5,154.65 M410.5,190.915 L410.5,167.005 M411.5,192.756 L411.5,153.244 M412.5,187.057 L412.5,158.943 M413.5,182.609 L413.5,163.391 M414.5,181.944 L414.5,170.774 M415.5,186.216 L415.5,159.784 M416.5,185.876 L416.5,160.124 M417.5,176.852 L417.5,167.603 M418.5,181.84 L418.5,164.16 M419.5,181.386 L419.5,164.614 M420.5,185.12 L420.5,160.88 M421.5,187.384 L421.5,158.616 M422.5,186.029 L422.5,159.971 M423.5,187.09 L423.5,158.91 M424.5,182.831 L424.5,163.169 M425.5,183.712 L425.5,162.288 M426.5,181.945 L426.5,164.055 M427.5,183.879 L427.5,162.121 M428.5,182.719 L428.5,163.281 M429.5,182.356 L429.5,163.644 M430.5,178.251 L430.5,167.749 M431.5,179.183 L431.5,166.817 M432.5,179.726 L432.5,166.274 M433.5,178.689 L433.5,166.966 M434.5,178.84 L434.5,167.16 M435.5,176.323 L435.5,170.257 M436.5,176.945 L436.5,169.055 M437.5,175.648 L437.5,170.352 M438.5,177.367 L438.5,168.633 M439.5,177.391 L439.5,168.609 M440.5,175.612 L440.5,170.779 M441.5,174.434 L441.5,170.235 M442.5,175.947 L442.5,170.368 M443.5,177.186 L443.5,170.241 M444.5,176.02 L444.5,169.98 M445.5,176.265 L445.5,169.735 M446.5,173.916 L446.5,171.413 M447.5,175.54 L447.5,170.996 M448.5,174.847 L448.5,172.062 M449.5,174.439 L449.5,171.915 M450.5,173.668 L450.5,171.499 M452.5,174.382 L452.5,172.4 M453.5,173.869 L453.5,171.543 M454.5,174.382 L454.5,172.421 M455.5,174.54 L455.5,172.39 M456.5,173.679 L456.5,171.447 M457.5,174.07 L457.5,171.497 M459.5,174.117 L459.5,172.252 M460.5,173.716 L460.5,171.499 M463.5,173.33 L463.5,172.216"/>
</g>

<g fill="none" stroke="#000080" stroke-opacity="1" stroke-width="1" stroke-linecap="square" stroke-linejoin="bevel" transform="matrix(1,0,0,1,0,0)"
font-family="Segoe UI" font-size="9" font-weight="400" font-style="normal" 
>
</g>

<g fill="none" stroke="#000000" stroke-opacity="1" stroke-width="1" stroke-linecap="square" stroke-linejoin="bevel" transform="matrix(1,0,0,1,0,0)"
font-family="Segoe UI" font-size="9" font-weight="400" font-style="normal" 
>
</g>

<g fill="#ffffff" fill-opacity="1" stroke="#ffffff" stroke-opacity="1" stroke-width="1" stroke-linecap="square" stroke-linejoin="bevel" transform="matrix(1,0,0,1,0,0)"
font-family="Segoe UI" font-size="9" font-weight="400" font-style="normal" 
>
<rect x="684" y="0" width="684" height="346"/>
</g>

<g fill="none" stroke="#000000" stroke-opacity="1" stroke-width="1" stroke-linecap="square" stroke-linejoin="bevel" transform="matrix(1,0,0,1,0,0)"
font-family="Segoe UI" font-size="9" font-weight="400" font-style="normal" 
>
</g>

<g fill="none" stroke="#0000c0" stroke-opacity="1" stroke-width="1" stroke-linecap="square" stroke-linejoin="bevel" transform="matrix(1,0,0,1,684,0)"
font-family="Segoe UI" font-size="9" font-weight="400" font-style="normal" 
>
<polyline fill="none" vector-effect="non-scaling-stroke" points="0,173.5 684,173.5 " />
</g>

<g fill="none" stroke="#000080" stroke-opacity="1" stroke-width="1" stroke-linecap="square" stroke-linejoin="bevel" transform="matrix(1,0,0,1,684,0)"
font-family="Segoe UI" font-size="9" font-weight="400" font-style="normal" 
>
<path vector-effect="non-scaling-stroke" fill-rule="evenodd" d="M0.5,172.968 L0.5,173.032 M0.5,173 L1.5,173 L2.5,173 L3.5,173 L4.5,173.003 L5.5,173 L6.5,173.003 L7.5,173"/>
</g>

<g fill="none" stroke="#000000" stroke-opacity="1" stroke-width="1" stroke-linecap="square" stroke-linejoin="bevel" transform="matrix(1,0,0,1,0,0)"
font-family="Segoe UI" font-size="9" font-weight="400" font-style="normal" 
>
</g>
</g>
</svg>
