<?xml version="1.0" encoding="UTF-8" standalone="no"?>
<svg width="243.769mm" height="122.061mm"
 viewBox="0 0 691 346"
 xmlns="http://www.w3.org/2000/svg" xmlns:xlink="http://www.w3.org/1999/xlink" version="1.2" baseProfile="tiny">
<title>Exported image from Sonic Visualiser</title>
<desc>Generated with Qt</desc>
<defs>
</defs>
<g fill="none" stroke="black" stroke-width="1" fill-rule="evenodd" stroke-linecap="square" stroke-linejoin="bevel" >

<g fill="#ffffff" fill-opacity="1" stroke="#ffffff" stroke-opacity="1" stroke-width="1" stroke-linecap="square" stroke-linejoin="bevel" transform="matrix(1,0,0,1,0,0)"
font-family="Segoe UI" font-size="9" font-weight="400" font-style="normal" 
>
<rect x="0" y="0" width="684" height="346"/>
</g>

<g fill="none" stroke="#000000" stroke-opacity="1" stroke-width="1" stroke-linecap="square" stroke-linejoin="bevel" transform="matrix(1,0,0,1,0,0)"
font-family="Segoe UI" font-size="9" font-weight="400" font-style="normal" 
>
</g>

<g fill="none" stroke="#0000c0" stroke-opacity="1" stroke-width="1" stroke-linecap="square" stroke-linejoin="bevel" transform="matrix(1,0,0,1,0,0)"
font-family="Segoe UI" font-size="9" font-weight="400" font-style="normal" 
>
<polyline fill="none" vector-effect="non-scaling-stroke" points="0,173.5 684,173.5 " />
</g>

<g fill="none" stroke="#000080" stroke-opacity="1" stroke-width="1" stroke-linecap="square" stroke-linejoin="bevel" transform="matrix(1,0,0,1,0,0)"
font-family="Segoe UI" font-size="9" font-weight="400" font-style="normal" 
>
<path vector-effect="non-scaling-stroke" fill-rule="evenodd" d="M0.5,172.984 L0.5,173.021 M0.5,173.003 L1.5,173 L2.5,173 L3.5,172.997 L4.5,173 L5.5,173 L6.5,173 L7.5,173 L8.5,173 L9.5,173 L10.5,173 L11.5,173.003 L12.5,173 L13.5,172.997 L14.5,172.997 L15.5,173 L16.5,173 L17.5,173 L18.5,173 L19.5,173.003 L20.5,173 L21.5,173 L22.5,173 L23.5,173 L24.5,173 L25.5,172.997 L26.5,173 L27.5,173 L28.5,173 L29.5,173 L30.5,172.997 L31.5,173 L32.5,173 L33.5,173 L34.5,173 L35.5,172.997 L36.5,172.995 L37.5,172.997 L38.5,173.008 L39.5,172.976 L40.5,173.003 L41.5,172.992 L42.5,173 L43.5,173.029 L44.5,172.989 L45.5,172.989 L46.5,172.992 L47.5,172.992 L48.5,173.024 L49.5,172.995 L50.5,172.997 L51.5,173.011 L52.5,173.011 L53.5,172.995 L54.5,173.063 L55.5,172.952 M56.5,172.377 L56.5,173.539 M57.5,164.959 L57.5,177.572 M58.5,147.495 L58.5,193.305 M59.5,132.912 L59.5,200.021 M60.5,126.086 L60.5,180.254 M61.5,118.388 L61.5,163.053 M62.5,122.966 L62.5,174.552 M63.5,147.315 L63.5,219.771 M64.5,179.958 L64.5,238.065 M65.5,198.748 L65.5,234.992 M66.5,190.29 L66.5,246.201 M67.5,181.521 L67.5,216.371 M68.5,161.77 L68.5,195.977 M69.5,142.479 L69.5,170.967 M70.5,101.351 L70.5,148.482 M71.5,96.6842 L71.5,132.506 M72.5,103.025 L72.5,129.486 M73.5,104.345 L73.5,145.52 M74.5,140.177 L74.5,171.358 M75.5,155.498 L75.5,194.984 M76.5,180.133 L76.5,224.967 M77.5,212.924 L77.5,247.167 M78.5,228.409 L78.5,256.1 M79.5,221.392 L79.5,257.795 M80.5,199.852 L80.5,236.365 M81.5,182.651 L81.5,215.083 M82.5,163.523 L82.5,192.144 M83.5,147.093 L83.5,174.193 M84.5,121.815 L84.5,155.018 M85.5,119.582 L85.5,145.557 M86.5,110.68 L86.5,135.953 M87.5,117.348 L87.5,144.147 M88.5,123.193 L88.5,145.203 M89.5,131.366 L89.5,161.686 M90.5,137.104 L90.5,171.596 M91.5,157.404 L91.5,189.668 M92.5,165.63 L92.5,200.501 M93.5,179.119 L93.5,208.378 M94.5,184.594 L94.5,208.89 M95.5,181.379 L95.5,214.856 M96.5,178.364 L96.5,212.306 M97.5,188.448 L97.5,208.146 M98.5,191.13 L98.5,212.438 M99.5,188.179 L99.5,212.348 M100.5,191.626 L100.5,218.404 M101.5,186.03 L101.5,215.168 M102.5,179.552 L102.5,198.785 M103.5,161.596 L103.5,195.164 M104.5,153.888 L104.5,176.622 M105.5,145.599 L105.5,164.178 M106.5,129.275 L106.5,151.829 M107.5,124.291 L107.5,142.912 M108.5,114.973 L108.5,136.714 M109.5,110.87 L109.5,137.347 M110.5,121.693 L110.5,143.076 M111.5,131.809 L111.5,157.415 M112.5,141.951 L112.5,169.405 M113.5,164.642 L113.5,189.995 M114.5,173.829 L114.5,204.144 M115.5,191.637 L115.5,208.605 M116.5,196.726 L116.5,214.064 M117.5,198.3 L117.5,219.038 M118.5,189.905 L118.5,217.052 M119.5,182.878 L119.5,208.595 M120.5,176.88 L120.5,201.383 M121.5,166.559 L121.5,194.72 M122.5,153.92 L122.5,183.026 M123.5,154.178 L123.5,180.217 M124.5,151.718 L124.5,175.312 M125.5,147.637 L125.5,170.033 M126.5,145.599 L126.5,168.639 M127.5,146.338 L127.5,174.246 M128.5,154.506 L128.5,177.123 M129.5,159.131 L129.5,180.771 M130.5,159.495 L130.5,182.371 M131.5,154.046 L131.5,182.64 M132.5,163.243 L132.5,184.15 M133.5,167.272 L133.5,182.656 M134.5,161.327 L134.5,185.491 M135.5,156.554 L135.5,185.069 M136.5,162.356 L136.5,183.084 M137.5,156.111 L137.5,184.985 M138.5,157.869 L138.5,187.587 M139.5,158.318 L139.5,178.897 M140.5,166.712 L140.5,190.544 M141.5,160.857 L141.5,183.707 M142.5,160.757 L142.5,187.424 M143.5,162.705 L143.5,187.128 M144.5,161.976 L144.5,182.984 M145.5,167.805 L145.5,186.79 M146.5,164.917 L146.5,188.099 M147.5,160.107 L147.5,182.123 M148.5,160.044 L148.5,187.091 M149.5,163.016 L149.5,187.535 M150.5,158.001 L150.5,184.626 M151.5,156.016 L151.5,185.972 M152.5,160.287 L152.5,181.664 M153.5,159.886 L153.5,184.847 M154.5,159.532 L154.5,187.334 M155.5,161.227 L155.5,179.731 M156.5,161.258 L156.5,182.815 M157.5,155.673 L157.5,182.952 M158.5,161.438 L158.5,182.772 M159.5,157.325 L159.5,183.649 M160.5,160.572 L160.5,183.971 M161.5,161.987 L161.5,181.854 M162.5,159.189 L162.5,180.059 M163.5,157.473 L163.5,186.975 M164.5,158.502 L164.5,183.195 M165.5,164.811 L165.5,185.576 M166.5,164.093 L166.5,190 M167.5,157.684 L167.5,186.806 M168.5,163.544 L168.5,181.59 M169.5,156.639 L169.5,183.607 M170.5,164.352 L170.5,184.705 M171.5,163.027 L171.5,183.818 M172.5,159.669 L172.5,186.949 M173.5,166.232 L173.5,187.234 M174.5,158.418 L174.5,189.013 M175.5,161.058 L175.5,181.051 M176.5,163.523 L176.5,189.641 M177.5,165.255 L177.5,188.548 M178.5,162.008 L178.5,186.653 M179.5,158.824 L179.5,181.526 M180.5,163.191 L180.5,184.245 M181.5,164.215 L181.5,187.725 M182.5,158.075 L182.5,189.372 M183.5,163.814 L183.5,183.126 M184.5,159.996 L184.5,184.193 M185.5,156.823 L185.5,187.635 M186.5,160.324 L186.5,185.608 M187.5,161.322 L187.5,193.923 M188.5,163.882 L188.5,186.753 M189.5,158.529 L189.5,183.802 M190.5,162.33 L190.5,189.842 M191.5,162.858 L191.5,183.121 M192.5,164.827 L192.5,184.224 M193.5,165.915 L193.5,179.167 M194.5,162.372 L194.5,182.936 M195.5,164.722 L195.5,181.167 M196.5,163.898 L196.5,189.541 M197.5,160.588 L197.5,189.24 M198.5,167.826 L198.5,178.348 M199.5,164.838 L199.5,179.362 M200.5,164.384 L200.5,184.789 M201.5,164.31 L201.5,180.777 M202.5,166.886 L202.5,179.436 M203.5,162.003 L203.5,182.683 M204.5,163.154 L204.5,182.318 M205.5,162.135 L205.5,178.596 M206.5,160.92 L206.5,185.877 M207.5,164.056 L207.5,180.808 M208.5,165.788 L208.5,180.56 M209.5,165.413 L209.5,183.237 M210.5,165.097 L210.5,183.929 M211.5,162.151 L211.5,185.37 M212.5,159.146 L212.5,181.838 M213.5,162.9 L213.5,183.971 M214.5,164.056 L214.5,187.265 M215.5,164.669 L215.5,183.052 M216.5,163.608 L216.5,182.054 M217.5,162.816 L217.5,180.65 M218.5,157.093 L218.5,182.556 M219.5,164.252 L219.5,186.838 M220.5,161.992 L220.5,184.895 M221.5,165.651 L221.5,182.239 M222.5,162.668 L222.5,182.165 M223.5,164.98 L223.5,179.541 M224.5,164.669 L224.5,183.417 M225.5,162.504 L225.5,182.244 M226.5,165.772 L226.5,182.118 M227.5,156.464 L227.5,182.746 M228.5,162.23 L228.5,181.891 M229.5,165.593 L229.5,182.567 M230.5,167.34 L230.5,183.29 M231.5,167.578 L231.5,178.491 M232.5,160.641 L232.5,183.29 M233.5,160.572 L233.5,180.381 M234.5,162.562 L234.5,186.458 M235.5,155.461 L235.5,182.197 M236.5,160.952 L236.5,180.671 M237.5,165.593 L237.5,182.741 M238.5,162.715 L238.5,183.089 M239.5,167.588 L239.5,180.46 M240.5,161.77 L240.5,184.847 M241.5,165.799 L241.5,184.847 M242.5,167.493 L242.5,181.31 M243.5,165.075 L243.5,181.226 M244.5,162.726 L244.5,182.662 M245.5,164.315 L245.5,182.419 M246.5,165.334 L246.5,183.248 M247.5,159.289 L247.5,179.003 M248.5,160.224 L248.5,183.015 M249.5,164.595 L249.5,179.378 M250.5,165.941 L250.5,179.605 M251.5,164.088 L251.5,181.358 M252.5,160.382 L252.5,182.514 M253.5,161.406 L253.5,184.008 M254.5,167.208 L254.5,179.906 M255.5,162.547 L255.5,179.916 M256.5,163.639 L256.5,186.568 M257.5,163.275 L257.5,178.427 M258.5,165.514 L258.5,182.471 M259.5,162.166 L259.5,181.674 M260.5,164.6 L260.5,178.301 M261.5,161.797 L261.5,181.136 M262.5,165.334 L262.5,180.064 M263.5,167.615 L263.5,181.743 M264.5,165.139 L264.5,187.281 M265.5,164.247 L265.5,186.225 M266.5,164.299 L266.5,182.445 M267.5,163.064 L267.5,182.662 M268.5,165.894 L268.5,181.468 M269.5,165.783 L269.5,188.073 M270.5,165.456 L270.5,180.634 M271.5,165.197 L271.5,184.224 M272.5,164.178 L272.5,185.645 M273.5,160.002 L273.5,182.144 M274.5,161.512 L274.5,177.931 M275.5,165.091 L275.5,183.253 M276.5,165.17 L276.5,182.361 M277.5,166.707 L277.5,183.306 M278.5,162.541 L278.5,178.565 M279.5,167.557 L279.5,181.326 M280.5,163.391 L280.5,180.676 M281.5,167.103 L281.5,179.193 M282.5,164.379 L282.5,180.629 M283.5,163.423 L283.5,178.28 M284.5,166.934 L284.5,182.735 M285.5,157.008 L285.5,180.117 M286.5,163.555 L286.5,183.934 M287.5,166.955 L287.5,181.363 M288.5,165.244 L288.5,186.933 M289.5,168.317 L289.5,177.519 M290.5,168.127 L290.5,178.005 M291.5,167.678 L291.5,185.138 M292.5,164.811 L292.5,178.681 M293.5,161.153 L293.5,181.463 M294.5,164.838 L294.5,180.93 M295.5,162.378 L295.5,180.027 M296.5,163.766 L296.5,182.783 M297.5,167.256 L297.5,180.798 M298.5,164.188 L298.5,178.939 M299.5,167.974 L299.5,177.672 M300.5,165.081 L300.5,187.218 M301.5,168.84 L301.5,178.591 M302.5,166.401 L302.5,181.125 M303.5,165.888 L303.5,184.594 M304.5,165.936 L304.5,184.773 M305.5,168.602 L305.5,182.039 M306.5,166.147 L306.5,178.063 M307.5,165.698 L307.5,185.148 M308.5,165.983 L308.5,178.982 M309.5,166.232 L309.5,186.838 M310.5,166.269 L310.5,181.458 M311.5,163.814 L311.5,181.178 M312.5,166.295 L312.5,177.672 M313.5,168.116 L313.5,180.999 M314.5,165.06 L314.5,179.679 M315.5,168.629 L315.5,178.385 M316.5,163.286 L316.5,179.943 M317.5,164.917 L317.5,180.735 M318.5,164.706 L318.5,185.856 M319.5,165.165 L319.5,187.397 M320.5,162.261 L320.5,180.265 M321.5,166.052 L321.5,178.311 M322.5,166.089 L322.5,177.282 M323.5,166.929 L323.5,178.338 M324.5,165.867 L324.5,179.33 M325.5,165.815 L325.5,183.163 M326.5,167.177 L326.5,180.112 M327.5,167.266 L327.5,179.13 M328.5,162.995 L328.5,181.912 M329.5,166.121 L329.5,184.267 M330.5,165.957 L330.5,183.929 M331.5,166.712 L331.5,180.127 M332.5,162.589 L332.5,181.167 M333.5,166.955 L333.5,177.862 M334.5,169.41 L334.5,178.781 M335.5,168.312 L335.5,181.115 M336.5,165.836 L336.5,178.454 M337.5,167.573 L337.5,177.973 M338.5,166.395 L338.5,181.336 M339.5,168.174 L339.5,180.956 M340.5,167.536 L340.5,179.33 M341.5,166.527 L341.5,178.105 M342.5,167.726 L342.5,178.29 M343.5,167.673 L343.5,178.359 M344.5,169.156 L344.5,177.461 M345.5,167.441 L345.5,179.737 M346.5,165.894 L346.5,179.172 M347.5,170.302 L347.5,180.122 M348.5,164.98 L348.5,180.217 M349.5,165.519 L349.5,178.322 M350.5,168.116 L350.5,178.401 M351.5,162.203 L351.5,179.399 M352.5,167.061 L352.5,178.544 M353.5,167.045 L353.5,178.332 M354.5,165.017 L354.5,180.191 M355.5,167.087 L355.5,180.919 M356.5,164.98 L356.5,182.023 M357.5,165.825 L357.5,178.734 M358.5,167.272 L358.5,179.705 M359.5,164.933 L359.5,179.008 M360.5,166.226 L360.5,179.483 M361.5,166.311 L361.5,179.636 M362.5,166.617 L362.5,178.116 M363.5,166.686 L363.5,175.724 M364.5,167.441 L364.5,180.835 M365.5,164.996 L365.5,181.653 M366.5,168.006 L366.5,178.311 M367.5,166.686 L367.5,177.414 M368.5,165.883 L368.5,179.795 M369.5,166.348 L369.5,177.551 M370.5,165.693 L370.5,180.634 M371.5,162.188 L371.5,178.924 M372.5,166.168 L372.5,178.538 M373.5,169.959 L373.5,175.719 M374.5,168.893 L374.5,177.324 M375.5,167.647 L375.5,178.29 M376.5,167.43 L376.5,178.068 M377.5,167.097 L377.5,179.647 M378.5,169.172 L378.5,178.385 M379.5,167.198 L379.5,178.195 M380.5,167.372 L380.5,178.274 M381.5,166.358 L381.5,178.274 M382.5,168.211 L382.5,176.616 M383.5,167.641 L383.5,177.35 M384.5,167.552 L384.5,176.242 M385.5,165.097 L385.5,180.038 M386.5,165.63 L386.5,177.292 M387.5,167.499 L387.5,177.118 M388.5,166.089 L388.5,176.833 M389.5,159.938 L389.5,178.67 M390.5,168.94 L390.5,177.62 M391.5,166.596 L391.5,178.28 M392.5,167.742 L392.5,180.983 M393.5,167.441 L393.5,176.58 M394.5,169.114 L394.5,177.303 M395.5,167.462 L395.5,176.215 M396.5,169.141 L396.5,178.617 M397.5,167.367 L397.5,180.122 M398.5,165.952 L398.5,179.378 M399.5,164.405 L399.5,181.183 M400.5,137.479 L400.5,199.873 M401.5,115.817 L401.5,245.05 M402.5,131.994 L402.5,193.332 M403.5,110.031 L403.5,175.782 M404.5,117.75 L404.5,143.245 M405.5,131.519 L405.5,179.626 M406.5,158.55 L406.5,233.197 M407.5,177.092 L407.5,253.455 M408.5,202.238 L408.5,247.621 M409.5,192.883 L409.5,227.802 M410.5,164.627 L410.5,226.783 M411.5,153.65 L411.5,201.8 M412.5,133.129 L412.5,176.4 M413.5,107.513 L413.5,145.356 M414.5,92.4395 L414.5,138.804 M415.5,95.1426 L415.5,136.159 M416.5,114.73 L416.5,161.628 M417.5,135.837 L417.5,191.352 M418.5,161.374 L418.5,201.499 M419.5,187.899 L419.5,224.169 M420.5,215.965 L420.5,249.237 M421.5,221.772 L421.5,254.342 M422.5,221.735 L422.5,251.222 M423.5,199.519 L423.5,240.953 M424.5,177.187 L424.5,228.393 M425.5,157.098 L425.5,199.905 M426.5,138.049 L426.5,172.15 M427.5,125.775 L427.5,161.501 M428.5,118.615 L428.5,144.401 M429.5,115.416 L429.5,135.373 M430.5,113.346 L430.5,142.189 M431.5,124.534 L431.5,152.251 M432.5,130.927 L432.5,158.624 M433.5,146.745 L433.5,184.599 M434.5,161.221 L434.5,184.969 M435.5,171.184 L435.5,195.005 M436.5,183.343 L436.5,206.187 M437.5,180.339 L437.5,220.162 M438.5,184.752 L438.5,212.523 M439.5,183.997 L439.5,209.856 M440.5,180.935 L440.5,212.66 M441.5,190.723 L441.5,215.479 M442.5,195.38 L442.5,214.128 M443.5,187.767 L443.5,213.209 M444.5,184.335 L444.5,217.48 M445.5,173.697 L445.5,199.736 M446.5,168.613 L446.5,184.895 M447.5,147.975 L447.5,182.45 M448.5,140.193 L448.5,164.695 M449.5,127.538 L449.5,153.476 M450.5,120.68 L450.5,152.531 M451.5,116.857 L451.5,135.193 M452.5,118.526 L452.5,141.904 M453.5,119.835 L453.5,143.704 M454.5,132.759 L454.5,164.679 M455.5,149.564 L455.5,177.203 M456.5,163.143 L456.5,190.47 M457.5,179.816 L457.5,201.847 M458.5,189.562 L458.5,214.265 M459.5,198.59 L459.5,217.433 M460.5,196.04 L460.5,218.193 M461.5,191.996 L461.5,214.128 M462.5,185.724 L462.5,208.843 M463.5,169.938 L463.5,203.637 M464.5,167.689 L464.5,195.2 M465.5,160.994 L465.5,186.099 M466.5,150.451 L466.5,172.578 M467.5,147.495 L467.5,174.88 M468.5,145.509 L468.5,172.958 M469.5,145.937 L469.5,174.415 M470.5,147.426 L470.5,172.826 M471.5,152.431 L471.5,178.596 M472.5,158.476 L472.5,181.695 M473.5,159.722 L473.5,176.558 M474.5,162.647 L474.5,188.179 M475.5,160.303 L475.5,187.762 M476.5,166.274 L476.5,182.904 M477.5,163.064 L477.5,184.277 M478.5,159.168 L478.5,184.963 M479.5,160.567 L479.5,186.146 M480.5,164.959 L480.5,180.983 M481.5,154.263 L481.5,183.052 M482.5,158.017 L482.5,180.439 M483.5,163.692 L483.5,183.469 M484.5,162.209 L484.5,193.896 M485.5,161.929 L485.5,186.685 M486.5,162.7 L486.5,185.75 M487.5,165.186 L487.5,189.182 M488.5,165.302 L488.5,188.548 M489.5,163.296 L489.5,183.67 M490.5,162.309 L490.5,188.517 M491.5,160.097 L491.5,186.289 M492.5,156.48 L492.5,181.917 M493.5,165.714 L493.5,186.479 M494.5,155.588 L494.5,192.55 M495.5,157.98 L495.5,187.899 M496.5,159.078 L496.5,187.545 M497.5,157.6 L497.5,185.333 M498.5,160.936 L498.5,184.177 M499.5,161.934 L499.5,179.43 M500.5,159.748 L500.5,181.759 M501.5,153.191 L501.5,183.754 M502.5,162.995 L502.5,184.166 M503.5,158.138 L503.5,187.213 M504.5,159.949 L504.5,186.109 M505.5,160.561 L505.5,182.097 M506.5,162.04 L506.5,190.681 M507.5,157.832 L507.5,182.804 M508.5,160.593 L508.5,189.768 M509.5,159.21 L509.5,191.61 M510.5,164.722 L510.5,181.738 M511.5,159.627 L511.5,189.002 M512.5,164.431 L512.5,184.826 M513.5,158.629 L513.5,184.842 M514.5,163.924 L514.5,182.213 M515.5,161.565 L515.5,181.701 M516.5,159.352 L516.5,184.425 M517.5,163.792 L517.5,183.406 M518.5,159.542 L518.5,182.619 M519.5,166.269 L519.5,180.724 M520.5,162.251 L520.5,181.822 M521.5,164.553 L521.5,185.581 M522.5,162.114 L522.5,185.444 M523.5,162.378 L523.5,183.575 M524.5,163.55 L524.5,182.535 M525.5,163.328 L525.5,190.254 M526.5,162.626 L526.5,188.696 M527.5,161.227 L527.5,181.162 M528.5,159.088 L528.5,181.453 M529.5,163.418 L529.5,188.876 M530.5,160.181 L530.5,186.004 M531.5,159.907 L531.5,184.14 M532.5,163.576 L532.5,185.544 M533.5,154.691 L533.5,180.587 M534.5,163.228 L534.5,191.404 M535.5,163.386 L535.5,182.656 M536.5,165.878 L536.5,181.812 M537.5,164.452 L537.5,180.988 M538.5,162.895 L538.5,183.987 M539.5,164.357 L539.5,180.761 M540.5,162.816 L540.5,192.207 M541.5,161.887 L541.5,191.621 M542.5,165.102 L542.5,183.364 M543.5,163.428 L543.5,179.066 M544.5,160.683 L544.5,177.973 M545.5,164.405 L545.5,182.567 M546.5,164.516 L546.5,182.73 M547.5,163.159 L547.5,181.347 M548.5,160.984 L548.5,183.142 M549.5,161.327 L549.5,179.14 M550.5,164.827 L550.5,184.81 M551.5,164.621 L551.5,178.998 M552.5,159.996 L552.5,181.896 M553.5,165.756 L553.5,184.156 M554.5,169.146 L554.5,184.831 M555.5,161.385 L555.5,187.508 M556.5,160.73 L556.5,184.599 M557.5,165.714 L557.5,184.509 M558.5,166.554 L558.5,180.793 M559.5,163.719 L559.5,181.558 M560.5,163.096 L560.5,184.008 M561.5,162.647 L561.5,183.147 M562.5,156.892 L562.5,186.03 M563.5,164.87 L563.5,184.129 M564.5,159.648 L564.5,185.967 M565.5,157.589 L565.5,183.601 M566.5,163.006 L566.5,181.674 M567.5,166.427 L567.5,178.464 M568.5,168.238 L568.5,184.314 M569.5,164.004 L569.5,185.681 M570.5,159.205 L570.5,181.162 M571.5,164.32 L571.5,185.016 M572.5,166.39 L572.5,185.381 M573.5,163.433 L573.5,183.322 M574.5,160.635 L574.5,183.49 M575.5,162.816 L575.5,179.578 M576.5,159.564 L576.5,185.803 M577.5,158.175 L577.5,182.313 M578.5,163.428 L578.5,187.587 M579.5,162.335 L579.5,180.038 M580.5,165.218 L580.5,181.072 M581.5,165.408 L581.5,182.783 M582.5,167.969 L582.5,181.31 M583.5,164.653 L583.5,183.67 M584.5,158.154 L584.5,181.759 M585.5,163.539 L585.5,184.071 M586.5,162.89 L586.5,181.516 M587.5,164.584 L587.5,181.785 M588.5,163.803 L588.5,182.867 M589.5,163.159 L589.5,183.221 M590.5,158.539 L590.5,180.867 M591.5,160.625 L591.5,181.31 M592.5,159.104 L592.5,181.548 M593.5,162.034 L593.5,178.913 M594.5,166.474 L594.5,179.114 M595.5,163.111 L595.5,182.757 M596.5,164.363 L596.5,182.709 M597.5,161.301 L597.5,184.509 M598.5,167.414 L598.5,180.265 M599.5,164.363 L599.5,180.228 M600.5,161.57 L600.5,185.882 M601.5,164.241 L601.5,179.272 M602.5,166.158 L602.5,179.658 M603.5,166.849 L603.5,182.002 M604.5,166.332 L604.5,181.558 M605.5,161.628 L605.5,188.928 M606.5,164.051 L606.5,183.971 M607.5,165.704 L607.5,178.586 M608.5,162.62 L608.5,184.525 M609.5,164.088 L609.5,183.865 M610.5,162.969 L610.5,180.919 M611.5,163.317 L611.5,182.535 M612.5,165.213 L612.5,179.7 M613.5,167.673 L613.5,181.632 M614.5,167.029 L614.5,177.472 M615.5,165.297 L615.5,185.159 M616.5,167.018 L616.5,186.912 M617.5,162.288 L617.5,182.999 M618.5,162.964 L618.5,177.335 M619.5,164.379 L619.5,182.461 M620.5,162.953 L620.5,178.612 M621.5,162.678 L621.5,183.543 M622.5,164.347 L622.5,180.94 M623.5,164.415 L623.5,181.437 M624.5,162.367 L624.5,182.878 M625.5,165.466 L625.5,181.072 M626.5,164.996 L626.5,180.634 M627.5,163.36 L627.5,180.244 M628.5,166.87 L628.5,182.229 M629.5,164.706 L629.5,180.492 M630.5,165.376 L630.5,180.502 M631.5,164.421 L631.5,182.994 M632.5,164.299 L632.5,185.027 M633.5,165.609 L633.5,188.802 M634.5,166.786 L634.5,179.573 M635.5,166.163 L635.5,182.751 M636.5,167.451 L636.5,178.459 M637.5,165.075 L637.5,181.569 M638.5,167.874 L638.5,180.56 M639.5,167.868 L639.5,182.208 M640.5,166.152 L640.5,177.804 M641.5,166.353 L641.5,183.084 M642.5,166.86 L642.5,180.127 M643.5,165.635 L643.5,177.345 M644.5,165.677 L644.5,184.509 M645.5,169.104 L645.5,178.644 M646.5,165.102 L646.5,179.504 M647.5,167.884 L647.5,182.002 M648.5,168.201 L648.5,180.55 M649.5,165.207 L649.5,183.717 M650.5,166.923 L650.5,178.67 M651.5,167.462 L651.5,184.377 M652.5,165.788 L652.5,179.795 M653.5,165.983 L653.5,184.05 M654.5,166.036 L654.5,178.876 M655.5,167.119 L655.5,182.329 M656.5,168.354 L656.5,177.831 M657.5,168.776 L657.5,182.292 M658.5,167.076 L658.5,180.513 M659.5,165.044 L659.5,178.211 M660.5,161.116 L660.5,184.515 M661.5,167.652 L661.5,180.481 M662.5,166.042 L662.5,186.653 M663.5,163.28 L663.5,181.426 M664.5,162.267 L664.5,181.083 M665.5,169.336 L665.5,178.063 M666.5,166.152 L666.5,178.829 M667.5,166.886 L667.5,177.947 M668.5,165.223 L668.5,180.064 M669.5,166.628 L669.5,180.629 M670.5,167.504 L670.5,178.607 M671.5,167.303 L671.5,181.109 M672.5,163.666 L672.5,181.917 M673.5,167.398 L673.5,180.613 M674.5,165.925 L674.5,186.31 M675.5,164.009 L675.5,180.191 M676.5,164.817 L676.5,177.831 M677.5,166.485 L677.5,180.291 M678.5,167.483 L678.5,177.113 M679.5,169.489 L679.5,178.575 M680.5,166.205 L680.5,177.984 M681.5,166.765 L681.5,177.345 M682.5,164.553 L682.5,181.352 M683.5,169.452 L683.5,181.542 M684.5,166.084 L684.5,179.943 M684.5,173.013"/>
</g>

<g fill="none" stroke="#0000c0" stroke-opacity="1" stroke-width="1" stroke-linecap="square" stroke-linejoin="bevel" transform="matrix(1,0,0,1,0,0)"
font-family="Segoe UI" font-size="9" font-weight="400" font-style="normal" 
>
<path vector-effect="non-scaling-stroke" fill-rule="evenodd" d="M57.5,174.714 L57.5,171.286 M58.5,182.603 L58.5,163.397 M59.5,183.434 L59.5,162.566 M60.5,179.254 L60.5,142.129 M61.5,162.053 L61.5,138.556 M62.5,173.552 L62.5,150.142 M63.5,189.807 L63.5,156.193 M64.5,210.065 L64.5,180.958 M65.5,219.719 L65.5,199.748 M66.5,220.773 L66.5,191.29 M67.5,198.452 L67.5,182.521 M68.5,181.697 L68.5,164.303 M69.5,169.967 L69.5,156.057 M70.5,147.482 L70.5,125.229 M71.5,131.506 L71.5,116.281 M72.5,128.486 L72.5,114.952 M73.5,144.52 L73.5,128.737 M74.5,170.358 L74.5,156.055 M75.5,185.331 L75.5,160.669 M76.5,204.749 L76.5,181.133 M77.5,228.596 L77.5,213.924 M78.5,240.707 L78.5,229.409 M79.5,239.463 L79.5,222.392 M80.5,220.462 L80.5,200.852 M81.5,199.386 L81.5,183.651 M82.5,182.167 L82.5,164.523 M83.5,173.193 L83.5,159.74 M84.5,154.018 L84.5,142.97 M85.5,144.557 L85.5,129.635 M86.5,134.953 L86.5,124.493 M87.5,143.147 L87.5,129.27 M88.5,144.203 L88.5,131.982 M89.5,160.686 L89.5,146.929 M90.5,170.596 L90.5,156.959 M91.5,180.333 L91.5,165.667 M92.5,182.749 L92.5,166.63 M93.5,191.995 L93.5,180.119 M94.5,196.541 L94.5,185.594 M95.5,199.375 L95.5,182.379 M96.5,197.902 L96.5,179.364 M97.5,200.639 L97.5,189.448 M98.5,201.762 L98.5,192.13 M99.5,202.015 L99.5,189.179 M100.5,205.179 L100.5,192.626 M101.5,199.158 L101.5,187.03 M102.5,190.379 L102.5,180.552 M103.5,181.641 L103.5,164.359 M104.5,175.622 L104.5,164.404 M105.5,163.178 L105.5,154.341 M106.5,150.829 L106.5,140.264 M107.5,141.912 L107.5,132.374 M108.5,135.714 L108.5,126.978 M109.5,136.347 L109.5,125.857 M110.5,142.076 L110.5,133.378 M111.5,156.415 L111.5,143.942 M112.5,168.405 L112.5,157.44 M113.5,179.649 L113.5,166.351 M114.5,188.202 L114.5,174.829 M115.5,200.733 L115.5,192.637 M116.5,206.503 L116.5,197.726 M117.5,207.476 L117.5,199.3 M118.5,203.945 L118.5,190.905 M119.5,197.596 L119.5,183.878 M120.5,188.643 L120.5,177.88 M121.5,183.251 L121.5,167.559 M122.5,177.715 L122.5,168.285 M123.5,179.217 L123.5,162.945 M124.5,174.312 L124.5,161.2 M125.5,169.033 L125.5,157.983 M126.5,167.639 L126.5,158.314 M127.5,173.246 L127.5,162.383 M128.5,176.123 L128.5,162.963 M129.5,179.771 L129.5,165.828 M130.5,178.69 L130.5,167.31 M131.5,179.325 L131.5,166.675 M132.5,177.456 L132.5,168.544 M133.5,177.679 L133.5,168.321 M134.5,179.792 L134.5,166.208 M135.5,179.044 L135.5,166.956 M136.5,177.885 L136.5,168.115 M137.5,179.594 L137.5,166.406 M138.5,179.418 L138.5,166.582 M139.5,177.517 L139.5,168.483 M140.5,177.851 L140.5,168.149 M141.5,178.096 L141.5,167.904 M142.5,179.175 L142.5,166.825 M143.5,180.196 L143.5,165.804 M144.5,177.779 L144.5,168.221 M145.5,178.044 L145.5,168.805 M146.5,178.92 L146.5,167.08 M147.5,177.955 L147.5,168.045 M148.5,178.464 L148.5,167.536 M149.5,177.714 L149.5,168.286 M150.5,177.86 L150.5,168.14 M151.5,179.153 L151.5,166.847 M152.5,178.455 L152.5,167.545 M153.5,178.531 L153.5,167.469 M154.5,178.262 L154.5,167.738 M155.5,177.786 L155.5,168.214 M156.5,176.783 L156.5,169.217 M157.5,178.085 L157.5,167.915 M158.5,178.02 L158.5,167.98 M159.5,178.802 L159.5,167.198 M160.5,178.308 L160.5,167.692 M161.5,178.655 L161.5,167.345 M162.5,177.77 L162.5,168.23 M163.5,178.041 L163.5,167.959 M164.5,178.487 L164.5,167.513 M165.5,177.082 L165.5,168.918 M166.5,178.063 L166.5,167.937 M167.5,178.828 L167.5,167.172 M168.5,177.483 L168.5,168.517 M169.5,178.874 L169.5,167.126 M170.5,177.484 L170.5,168.516 M171.5,177.65 L171.5,168.35 M172.5,177.935 L172.5,168.065 M173.5,177.992 L173.5,168.008 M174.5,178.86 L174.5,167.14 M175.5,177.469 L175.5,168.531 M176.5,178.713 L176.5,167.287 M177.5,177.631 L177.5,168.369 M178.5,179.006 L178.5,166.994 M179.5,177.485 L179.5,168.515 M180.5,177.849 L180.5,168.151 M181.5,177.22 L181.5,168.78 M182.5,179.491 L182.5,166.509 M183.5,176.914 L183.5,169.086 M184.5,177.959 L184.5,168.041 M185.5,179.187 L185.5,166.813 M186.5,178.833 L186.5,167.167 M187.5,178.18 L187.5,167.82 M188.5,176.431 L188.5,169.569 M189.5,178.43 L189.5,167.57 M190.5,178.85 L190.5,167.15 M191.5,176.815 L191.5,169.185 M192.5,178.008 L192.5,167.992 M193.5,176.753 L193.5,169.247 M194.5,177.852 L194.5,168.148 M195.5,176.735 L195.5,169.265 M196.5,179.659 L196.5,166.341 M197.5,179.544 L197.5,166.456 M198.5,176.068 L198.5,169.932 M199.5,176.426 L199.5,169.574 M200.5,176.833 L200.5,169.167 M201.5,177.62 L201.5,168.38 M202.5,176.289 L202.5,169.711 M203.5,177.713 L203.5,168.287 M204.5,177.1 L204.5,168.9 M205.5,177.596 L205.5,168.35 M206.5,178.251 L206.5,167.749 M207.5,176.076 L207.5,169.924 M208.5,176.582 L208.5,169.418 M209.5,177.444 L209.5,168.556 M210.5,176.671 L210.5,169.329 M211.5,176.886 L211.5,169.114 M212.5,177.998 L212.5,168.002 M213.5,176.971 L213.5,169.029 M214.5,177.288 L214.5,168.712 M215.5,177.049 L215.5,168.951 M216.5,177.588 L216.5,168.412 M217.5,177.228 L217.5,168.772 M218.5,177.425 L218.5,168.575 M219.5,177.098 L219.5,168.902 M220.5,177.764 L220.5,168.236 M221.5,176.33 L221.5,169.67 M222.5,178.136 L222.5,167.864 M223.5,176.155 L223.5,169.845 M224.5,176.913 L224.5,169.087 M225.5,177.093 L225.5,168.907 M226.5,177.183 L226.5,168.817 M227.5,177.207 L227.5,168.793 M228.5,176.947 L228.5,169.053 M229.5,176.692 L229.5,169.308 M230.5,177.069 L230.5,168.931 M231.5,176.126 L231.5,169.874 M232.5,179.01 L232.5,166.99 M233.5,177.993 L233.5,168.007 M234.5,178.772 L234.5,167.228 M235.5,178.184 L235.5,167.816 M236.5,177.08 L236.5,168.92 M237.5,176.948 L237.5,169.052 M238.5,177.163 L238.5,168.837 M239.5,176.288 L239.5,169.712 M240.5,177.532 L240.5,168.468 M241.5,176.743 L241.5,169.257 M242.5,176.656 L242.5,169.344 M243.5,177.545 L243.5,168.455 M244.5,177.762 L244.5,168.238 M245.5,176.301 L245.5,169.699 M246.5,177.261 L246.5,168.739 M247.5,177.188 L247.5,168.812 M248.5,177.773 L248.5,168.227 M249.5,177.009 L249.5,168.991 M250.5,176.92 L250.5,169.08 M251.5,177.229 L251.5,168.771 M252.5,177.124 L252.5,168.876 M253.5,177.619 L253.5,168.381 M254.5,176.486 L254.5,169.514 M255.5,176.779 L255.5,169.221 M256.5,178.288 L256.5,167.712 M257.5,177.118 L257.5,168.882 M258.5,177.219 L258.5,168.781 M259.5,176.501 L259.5,169.499 M260.5,176.646 L260.5,169.354 M261.5,178.34 L261.5,167.66 M262.5,176.379 L262.5,169.621 M263.5,176.365 L263.5,169.635 M264.5,177.357 L264.5,168.643 M265.5,177.304 L265.5,168.696 M266.5,177.416 L266.5,168.584 M267.5,176.961 L267.5,169.039 M268.5,176.936 L268.5,169.064 M269.5,176.665 L269.5,169.335 M270.5,176.215 L270.5,169.785 M271.5,176.115 L271.5,169.885 M272.5,176.455 L272.5,169.545 M273.5,177.28 L273.5,168.72 M274.5,176.018 L274.5,169.982 M275.5,176.998 L275.5,169.002 M276.5,177.007 L276.5,168.993 M277.5,176.464 L277.5,169.536 M278.5,176.407 L278.5,169.593 M279.5,176.222 L279.5,169.778 M280.5,176.189 L280.5,169.811 M281.5,176.034 L281.5,169.966 M282.5,177.14 L282.5,168.86 M283.5,176.386 L283.5,169.614 M284.5,176.529 L284.5,169.471 M285.5,177.329 L285.5,168.671 M286.5,177.495 L286.5,168.505 M287.5,177.437 L287.5,168.563 M288.5,177.427 L288.5,168.573 M289.5,175.168 L289.5,170.832 M290.5,175.787 L290.5,170.213 M291.5,176.176 L291.5,169.824 M292.5,175.767 L292.5,170.233 M293.5,176.43 L293.5,169.57 M294.5,176.486 L294.5,169.514 M295.5,175.894 L295.5,170.106 M296.5,176.184 L296.5,169.816 M297.5,175.802 L297.5,170.198 M298.5,176.492 L298.5,169.508 M299.5,175.556 L299.5,170.444 M300.5,177.43 L300.5,168.57 M301.5,175.677 L301.5,170.323 M302.5,176.868 L302.5,169.132 M303.5,176.775 L303.5,169.225 M304.5,177.163 L304.5,168.837 M305.5,176.019 L305.5,169.981 M306.5,175.803 L306.5,170.197 M307.5,177.429 L307.5,168.571 M308.5,176.502 L308.5,169.498 M309.5,176.611 L309.5,169.389 M310.5,175.904 L310.5,170.096 M311.5,176.768 L311.5,169.232 M312.5,175.516 L312.5,170.484 M313.5,176.328 L313.5,169.672 M314.5,176.259 L314.5,169.741 M315.5,175.497 L315.5,170.503 M316.5,176.356 L316.5,169.644 M317.5,176.067 L317.5,169.933 M318.5,177.632 L318.5,168.368 M319.5,177.031 L319.5,168.969 M320.5,176.804 L320.5,169.196 M321.5,176.003 L321.5,169.997 M322.5,175.86 L322.5,170.14 M323.5,176.152 L323.5,169.848 M324.5,175.815 L324.5,170.185 M325.5,176.469 L325.5,169.531 M326.5,175.796 L326.5,170.204 M327.5,176.233 L327.5,169.767 M328.5,176.927 L328.5,169.073 M329.5,176.977 L329.5,169.023 M330.5,176.701 L330.5,169.299 M331.5,176.138 L331.5,169.862 M332.5,177.053 L332.5,168.947 M333.5,175.718 L333.5,170.282 M334.5,175.266 L334.5,170.734 M335.5,176.017 L335.5,169.983 M336.5,175.854 L336.5,170.146 M337.5,175.565 L337.5,170.435 M338.5,176.282 L338.5,169.718 M339.5,174.945 L339.5,171.055 M340.5,176.502 L340.5,169.498 M341.5,175.675 L341.5,170.325 M342.5,175.329 L342.5,170.671 M343.5,175.048 L343.5,170.952 M344.5,175.181 L344.5,170.819 M345.5,175.781 L345.5,170.219 M346.5,176.161 L346.5,169.839 M347.5,175.315 L347.5,171.302 M348.5,176.181 L348.5,169.819 M349.5,175.547 L349.5,170.453 M350.5,175.179 L350.5,170.821 M351.5,175.72 L351.5,170.28 M352.5,175.826 L352.5,170.174 M353.5,175.851 L353.5,170.149 M354.5,176.494 L354.5,169.506 M355.5,176.08 L355.5,169.92 M356.5,176.296 L356.5,169.704 M357.5,176.206 L357.5,169.794 M358.5,175.927 L358.5,170.073 M359.5,176.565 L359.5,169.435 M360.5,175.9 L360.5,170.1 M361.5,175.596 L361.5,170.404 M362.5,175.906 L362.5,170.094 M363.5,174.724 L363.5,171.065 M364.5,175.812 L364.5,170.188 M365.5,175.871 L365.5,170.129 M366.5,175.334 L366.5,170.666 M367.5,175.893 L367.5,170.107 M368.5,176.301 L368.5,169.699 M369.5,175.191 L369.5,170.809 M370.5,176.242 L370.5,169.758 M371.5,175.908 L371.5,170.092 M372.5,176.659 L372.5,169.341 M373.5,174.535 L373.5,171.465 M374.5,175.564 L374.5,170.436 M375.5,175.493 L375.5,170.507 M376.5,175.231 L376.5,170.769 M377.5,175.512 L377.5,170.488 M378.5,175.152 L378.5,170.848 M379.5,175.8 L379.5,170.2 M380.5,175.771 L380.5,170.229 M381.5,176.251 L381.5,169.749 M382.5,175.036 L382.5,170.964 M383.5,175.557 L383.5,170.443 M384.5,175.242 L384.5,170.727 M385.5,176.203 L385.5,169.797 M386.5,176.003 L386.5,169.997 M387.5,176.118 L387.5,169.867 M388.5,175.509 L388.5,170.491 M389.5,176.174 L389.5,169.826 M390.5,175.383 L390.5,170.617 M391.5,175.982 L391.5,170.018 M392.5,175.418 L392.5,170.582 M393.5,174.739 L393.5,171.261 M394.5,175.069 L394.5,170.931 M395.5,175.028 L395.5,170.972 M396.5,175.197 L396.5,170.803 M397.5,175.741 L397.5,170.259 M398.5,175.618 L398.5,170.382 M399.5,176.478 L399.5,169.522 M400.5,181.687 L400.5,164.313 M401.5,201.508 L401.5,144.492 M402.5,186.841 L402.5,159.159 M403.5,174.782 L403.5,137.622 M404.5,142.245 L404.5,133.367 M405.5,178.626 L405.5,152.463 M406.5,191.418 L406.5,159.55 M407.5,210.396 L407.5,178.092 M408.5,221.123 L408.5,203.238 M409.5,212.079 L409.5,193.883 M410.5,200.171 L410.5,165.627 M411.5,183.75 L411.5,162.25 M412.5,175.4 L412.5,148.468 M413.5,144.356 L413.5,127.233 M414.5,137.804 L414.5,111.085 M415.5,135.159 L415.5,115.309 M416.5,160.628 L416.5,138.805 M417.5,189.939 L417.5,156.061 M418.5,184.638 L418.5,162.374 M419.5,208.531 L419.5,188.899 M420.5,231.15 L420.5,216.965 M421.5,239.977 L421.5,222.772 M422.5,236.432 L422.5,222.735 M423.5,221.882 L423.5,200.519 M424.5,197.256 L424.5,178.187 M425.5,181.747 L425.5,164.253 M426.5,171.15 L426.5,155.008 M427.5,160.501 L427.5,142.77 M428.5,143.401 L428.5,130.798 M429.5,134.373 L429.5,122.799 M430.5,141.189 L430.5,129.751 M431.5,151.251 L431.5,135.375 M432.5,157.624 L432.5,144.891 M433.5,183.599 L433.5,160.516 M434.5,179.479 L434.5,166.521 M435.5,183.44 L435.5,172.184 M436.5,191.447 L436.5,184.343 M437.5,198.809 L437.5,181.339 M438.5,197.761 L438.5,185.752 M439.5,198.122 L439.5,184.997 M440.5,199.132 L440.5,181.935 M441.5,202.552 L441.5,191.723 M442.5,205.058 L442.5,196.38 M443.5,202.782 L443.5,188.767 M444.5,199.361 L444.5,185.335 M445.5,189.719 L445.5,174.697 M446.5,178.406 L446.5,169.613 M447.5,181.45 L447.5,162.899 M448.5,163.695 L448.5,150.961 M449.5,152.476 L449.5,141.424 M450.5,151.531 L450.5,131.239 M451.5,134.193 L451.5,125.605 M452.5,140.904 L452.5,127.829 M453.5,142.704 L453.5,133.052 M454.5,163.679 L454.5,146.253 M455.5,176.203 L455.5,160.855 M456.5,179.274 L456.5,166.726 M457.5,191.633 L457.5,180.816 M458.5,200.373 L458.5,190.562 M459.5,207.382 L459.5,199.59 M460.5,208.211 L460.5,197.04 M461.5,202.611 L461.5,192.996 M462.5,196.402 L462.5,186.724 M463.5,189.617 L463.5,170.938 M464.5,180.725 L464.5,168.689 M465.5,179.664 L465.5,166.336 M466.5,171.578 L466.5,163.453 M467.5,173.88 L467.5,158.187 M468.5,171.958 L468.5,158.411 M469.5,173.415 L469.5,158.47 M470.5,171.826 L470.5,159.942 M471.5,177.596 L471.5,164.684 M472.5,180.558 L472.5,165.442 M473.5,175.558 L473.5,168.345 M474.5,178.354 L474.5,167.646 M475.5,178.88 L475.5,167.12 M476.5,177.159 L476.5,168.841 M477.5,178.54 L477.5,167.46 M478.5,180.051 L478.5,165.949 M479.5,179.925 L479.5,166.075 M480.5,176.683 L480.5,169.317 M481.5,178.872 L481.5,167.128 M482.5,177.966 L482.5,168.034 M483.5,176.78 L483.5,169.22 M484.5,178.906 L484.5,167.094 M485.5,177.653 L485.5,168.347 M486.5,178.645 L486.5,167.355 M487.5,179.358 L487.5,166.642 M488.5,178.072 L488.5,167.928 M489.5,177.748 L489.5,168.252 M490.5,179.607 L490.5,166.393 M491.5,178.565 L491.5,167.435 M492.5,177.996 L492.5,168.004 M493.5,177.999 L493.5,168.001 M494.5,179.645 L494.5,166.355 M495.5,179.93 L495.5,166.07 M496.5,178.967 L496.5,167.033 M497.5,178.171 L497.5,167.829 M498.5,178.595 L498.5,167.405 M499.5,177.547 L499.5,168.453 M500.5,177.343 L500.5,168.657 M501.5,178.023 L501.5,167.977 M502.5,178.256 L502.5,167.744 M503.5,178.282 L503.5,167.718 M504.5,178.285 L504.5,167.715 M505.5,178.973 L505.5,167.027 M506.5,178.273 L506.5,167.727 M507.5,178.559 L507.5,167.441 M508.5,179.501 L508.5,166.499 M509.5,178.55 L509.5,167.45 M510.5,177.074 L510.5,168.926 M511.5,178.523 L511.5,167.477 M512.5,177.423 L512.5,168.577 M513.5,179.344 L513.5,166.656 M514.5,177.381 L514.5,168.619 M515.5,177.707 L515.5,168.293 M516.5,177.409 L516.5,168.591 M517.5,178.284 L517.5,167.716 M518.5,177.62 L518.5,168.38 M519.5,176.331 L519.5,169.669 M520.5,177.365 L520.5,168.635 M521.5,177.265 L521.5,168.735 M522.5,178.624 L522.5,167.376 M523.5,177.975 L523.5,168.025 M524.5,177.299 L524.5,168.701 M525.5,177.988 L525.5,168.012 M526.5,178.29 L526.5,167.71 M527.5,176.965 L527.5,169.035 M528.5,176.969 L528.5,169.031 M529.5,177.407 L529.5,168.593 M530.5,179.55 L530.5,166.45 M531.5,178.648 L531.5,167.352 M532.5,177.397 L532.5,168.603 M533.5,178.592 L533.5,167.408 M534.5,179.286 L534.5,166.714 M535.5,177.225 L535.5,168.775 M536.5,177.285 L536.5,168.715 M537.5,177.123 L537.5,168.877 M538.5,178.571 L538.5,167.429 M539.5,176.925 L539.5,169.075 M540.5,179.273 L540.5,166.727 M541.5,178.636 L541.5,167.364 M542.5,176.382 L542.5,169.618 M543.5,177.082 L543.5,168.918 M544.5,176.093 L544.5,169.907 M545.5,177.064 L545.5,168.936 M546.5,177.055 L546.5,168.945 M547.5,177.409 L547.5,168.591 M548.5,177.26 L548.5,168.74 M549.5,176.967 L549.5,169.033 M550.5,178.042 L550.5,167.958 M551.5,176.437 L551.5,169.563 M552.5,177.482 L552.5,168.518 M553.5,176.8 L553.5,169.2 M554.5,176.318 L554.5,170.146 M555.5,177.128 L555.5,168.872 M556.5,178.46 L556.5,167.54 M557.5,176.682 L557.5,169.318 M558.5,176.356 L558.5,169.644 M559.5,177.174 L559.5,168.826 M560.5,177.135 L560.5,168.865 M561.5,177.334 L561.5,168.666 M562.5,177.624 L562.5,168.376 M563.5,176.46 L563.5,169.54 M564.5,179.021 L564.5,166.979 M565.5,177.939 L565.5,168.061 M566.5,177.68 L566.5,168.32 M567.5,176.719 L567.5,169.281 M568.5,177.23 L568.5,169.238 M569.5,177.565 L569.5,168.435 M570.5,177.928 L570.5,168.072 M571.5,177.47 L571.5,168.53 M572.5,176.885 L572.5,169.115 M573.5,177.326 L573.5,168.674 M574.5,177.21 L574.5,168.79 M575.5,176.396 L575.5,169.604 M576.5,177.424 L576.5,168.576 M577.5,178.321 L577.5,167.679 M578.5,178.63 L578.5,167.37 M579.5,176.695 L579.5,169.305 M580.5,176.603 L580.5,169.397 M581.5,176.79 L581.5,169.21 M582.5,176.137 L582.5,169.863 M583.5,177.157 L583.5,168.843 M584.5,177.435 L584.5,168.565 M585.5,177.516 L585.5,168.484 M586.5,176.64 L586.5,169.36 M587.5,177.257 L587.5,168.743 M588.5,177.041 L588.5,168.959 M589.5,177.579 L589.5,168.421 M590.5,176.62 L590.5,169.38 M591.5,177.141 L591.5,168.859 M592.5,177.625 L592.5,168.375 M593.5,177.285 L593.5,168.715 M594.5,176.189 L594.5,169.811 M595.5,177.452 L595.5,168.548 M596.5,178.187 L596.5,167.813 M597.5,178.153 L597.5,167.847 M598.5,176.302 L598.5,169.698 M599.5,176.369 L599.5,169.631 M600.5,178.273 L600.5,167.727 M601.5,176.295 L601.5,169.705 M602.5,177.042 L602.5,168.958 M603.5,176.186 L603.5,169.814 M604.5,176.715 L604.5,169.285 M605.5,178.208 L605.5,167.792 M606.5,176.821 L606.5,169.179 M607.5,176.326 L607.5,169.674 M608.5,177.325 L608.5,168.675 M609.5,177.441 L609.5,168.559 M610.5,177.016 L610.5,168.984 M611.5,176.973 L611.5,169.027 M612.5,176.927 L612.5,169.073 M613.5,176.816 L613.5,169.184 M614.5,175.767 L614.5,170.233 M615.5,176.965 L615.5,169.035 M616.5,175.952 L616.5,170.048 M617.5,177.321 L617.5,168.679 M618.5,176.335 L618.5,169.632 M619.5,177.076 L619.5,168.924 M620.5,176.562 L620.5,169.438 M621.5,177.867 L621.5,168.133 M622.5,176.748 L622.5,169.252 M623.5,177.254 L623.5,168.746 M624.5,176.901 L624.5,169.099 M625.5,176.135 L625.5,169.865 M626.5,176.476 L626.5,169.524 M627.5,176.436 L627.5,169.564 M628.5,175.993 L628.5,170.007 M629.5,176.767 L629.5,169.233 M630.5,176.919 L630.5,169.081 M631.5,177.598 L631.5,168.402 M632.5,177.52 L632.5,168.48 M633.5,176.104 L633.5,169.896 M634.5,175.46 L634.5,170.54 M635.5,176.101 L635.5,169.899 M636.5,176.038 L636.5,169.962 M637.5,176.051 L637.5,169.949 M638.5,175.757 L638.5,170.243 M639.5,175.784 L639.5,170.216 M640.5,175.828 L640.5,170.172 M641.5,175.974 L641.5,170.026 M642.5,176.05 L642.5,169.95 M643.5,175.723 L643.5,170.277 M644.5,177.783 L644.5,168.217 M645.5,175.479 L645.5,170.521 M646.5,176.551 L646.5,169.449 M647.5,176.254 L647.5,169.746 M648.5,176.235 L648.5,169.765 M649.5,176.767 L649.5,169.233 M650.5,175.967 L650.5,170.033 M651.5,176.432 L651.5,169.568 M652.5,176.611 L652.5,169.389 M653.5,176.749 L653.5,169.251 M654.5,175.709 L654.5,170.291 M655.5,176.433 L655.5,169.567 M656.5,175.791 L656.5,170.209 M657.5,175.97 L657.5,170.03 M658.5,176.317 L658.5,169.683 M659.5,175.832 L659.5,170.168 M660.5,176.637 L660.5,169.363 M661.5,175.865 L661.5,170.135 M662.5,177.54 L662.5,168.46 M663.5,176.343 L663.5,169.657 M664.5,176.845 L664.5,169.155 M665.5,175.465 L665.5,170.535 M666.5,176.067 L666.5,169.933 M667.5,175.682 L667.5,170.318 M668.5,176.062 L668.5,169.938 M669.5,176.341 L669.5,169.659 M670.5,175.959 L670.5,170.041 M671.5,176.154 L671.5,169.846 M672.5,176.594 L672.5,169.406 M673.5,176.804 L673.5,169.196 M674.5,177.025 L674.5,168.975 M675.5,176.519 L675.5,169.481 M676.5,176.752 L676.5,169.248 M677.5,176.289 L677.5,169.711 M678.5,175.212 L678.5,170.788 M679.5,175.491 L679.5,170.509 M680.5,175.95 L680.5,170.05 M681.5,175.43 L681.5,170.57 M682.5,176.57 L682.5,169.43 M683.5,175.754 L683.5,170.452 M684.5,175.633 L684.5,170.367"/>
</g>

<g fill="none" stroke="#000080" stroke-opacity="1" stroke-width="1" stroke-linecap="square" stroke-linejoin="bevel" transform="matrix(1,0,0,1,0,0)"
font-family="Segoe UI" font-size="9" font-weight="400" font-style="normal" 
>
</g>

<g fill="none" stroke="#000000" stroke-opacity="1" stroke-width="1" stroke-linecap="square" stroke-linejoin="bevel" transform="matrix(1,0,0,1,0,0)"
font-family="Segoe UI" font-size="9" font-weight="400" font-style="normal" 
>
</g>

<g fill="#ffffff" fill-opacity="1" stroke="#ffffff" stroke-opacity="1" stroke-width="1" stroke-linecap="square" stroke-linejoin="bevel" transform="matrix(1,0,0,1,0,0)"
font-family="Segoe UI" font-size="9" font-weight="400" font-style="normal" 
>
<rect x="684" y="0" width="684" height="346"/>
</g>

<g fill="none" stroke="#000000" stroke-opacity="1" stroke-width="1" stroke-linecap="square" stroke-linejoin="bevel" transform="matrix(1,0,0,1,0,0)"
font-family="Segoe UI" font-size="9" font-weight="400" font-style="normal" 
>
</g>

<g fill="none" stroke="#0000c0" stroke-opacity="1" stroke-width="1" stroke-linecap="square" stroke-linejoin="bevel" transform="matrix(1,0,0,1,684,0)"
font-family="Segoe UI" font-size="9" font-weight="400" font-style="normal" 
>
<polyline fill="none" vector-effect="non-scaling-stroke" points="0,173.5 684,173.5 " />
</g>

<g fill="none" stroke="#000080" stroke-opacity="1" stroke-width="1" stroke-linecap="square" stroke-linejoin="bevel" transform="matrix(1,0,0,1,684,0)"
font-family="Segoe UI" font-size="9" font-weight="400" font-style="normal" 
>
<path vector-effect="non-scaling-stroke" fill-rule="evenodd" d="M0.5,166.084 L0.5,179.943 M1.5,167.747 L1.5,176.627 M2.5,169.162 L2.5,179.357 M3.5,167.208 L3.5,177.345 M4.5,170.07 L4.5,178.1 M5.5,168.148 L5.5,179.805 M6.5,167.879 L6.5,178.285 M7.5,169.959 L7.5,176.02 M7.5,172.989"/>
</g>

<g fill="none" stroke="#0000c0" stroke-opacity="1" stroke-width="1" stroke-linecap="square" stroke-linejoin="bevel" transform="matrix(1,0,0,1,684,0)"
font-family="Segoe UI" font-size="9" font-weight="400" font-style="normal" 
>
<path vector-effect="non-scaling-stroke" fill-rule="evenodd" d="M0.5,175.633 L0.5,170.367 M1.5,175.554 L1.5,170.446 M2.5,175.367 L2.5,170.633 M3.5,175.068 L3.5,170.932 M4.5,175.148 L4.5,171.07 M5.5,175.727 L5.5,170.273 M6.5,176.121 L6.5,169.879 M7.5,175.02 L7.5,170.959"/>
</g>

<g fill="none" stroke="#000080" stroke-opacity="1" stroke-width="1" stroke-linecap="square" stroke-linejoin="bevel" transform="matrix(1,0,0,1,684,0)"
font-family="Segoe UI" font-size="9" font-weight="400" font-style="normal" 
>
</g>

<g fill="none" stroke="#000000" stroke-opacity="1" stroke-width="1" stroke-linecap="square" stroke-linejoin="bevel" transform="matrix(1,0,0,1,0,0)"
font-family="Segoe UI" font-size="9" font-weight="400" font-style="normal" 
>
</g>
</g>
</svg>
