<?xml version="1.0" encoding="UTF-8" standalone="no"?>
<svg width="243.769mm" height="122.061mm"
 viewBox="0 0 691 346"
 xmlns="http://www.w3.org/2000/svg" xmlns:xlink="http://www.w3.org/1999/xlink" version="1.2" baseProfile="tiny">
<title>Exported image from Sonic Visualiser</title>
<desc>Generated with Qt</desc>
<defs>
</defs>
<g fill="none" stroke="black" stroke-width="1" fill-rule="evenodd" stroke-linecap="square" stroke-linejoin="bevel" >

<g fill="#ffffff" fill-opacity="1" stroke="#ffffff" stroke-opacity="1" stroke-width="1" stroke-linecap="square" stroke-linejoin="bevel" transform="matrix(1,0,0,1,0,0)"
font-family="Segoe UI" font-size="9" font-weight="400" font-style="normal" 
>
<rect x="0" y="0" width="684" height="346"/>
</g>

<g fill="none" stroke="#000000" stroke-opacity="1" stroke-width="1" stroke-linecap="square" stroke-linejoin="bevel" transform="matrix(1,0,0,1,0,0)"
font-family="Segoe UI" font-size="9" font-weight="400" font-style="normal" 
>
</g>

<g fill="none" stroke="#0000c0" stroke-opacity="1" stroke-width="1" stroke-linecap="square" stroke-linejoin="bevel" transform="matrix(1,0,0,1,0,0)"
font-family="Segoe UI" font-size="9" font-weight="400" font-style="normal" 
>
<polyline fill="none" vector-effect="non-scaling-stroke" points="0,173.5 684,173.5 " />
</g>

<g fill="none" stroke="#000080" stroke-opacity="1" stroke-width="1" stroke-linecap="square" stroke-linejoin="bevel" transform="matrix(1,0,0,1,0,0)"
font-family="Segoe UI" font-size="9" font-weight="400" font-style="normal" 
>
<path vector-effect="non-scaling-stroke" fill-rule="evenodd" d="M0.5,172.984 L0.5,173.021 M0.5,173.003 L1.5,173 L2.5,173 L3.5,172.997 L4.5,173 L5.5,173 L6.5,173 L7.5,173 L8.5,173 L9.5,173 L10.5,173 L11.5,173.003 L12.5,173 L13.5,172.997 L14.5,172.997 L15.5,173 L16.5,173 L17.5,173 L18.5,173 L19.5,173.003 L20.5,173 L21.5,173 L22.5,173 L23.5,173 L24.5,173 L25.5,172.997 L26.5,173 L27.5,173 L28.5,173 L29.5,173 L30.5,172.997 L31.5,173 L32.5,173 L33.5,173 L34.5,172.997 L35.5,173 L36.5,173 L37.5,172.997 L38.5,173.005 L39.5,172.982 L40.5,172.997 L41.5,172.997 L42.5,172.989 L43.5,172.992 L44.5,172.979 L45.5,172.997 L46.5,173 L47.5,172.997 L48.5,172.995 L49.5,172.997 L50.5,173 L51.5,173.003 L52.5,172.995 L53.5,172.992 L54.5,172.987 L55.5,173.011 M56.5,172.652 L56.5,173.671 M57.5,169.88 L57.5,179.262 M58.5,165.973 L58.5,178.876 M59.5,145.641 L59.5,189.055 M60.5,160.213 L60.5,186.758 M61.5,150.203 L61.5,206.314 M62.5,152.177 L62.5,199.978 M63.5,146.676 L63.5,188.29 M64.5,150.583 L64.5,203.642 M65.5,156.243 L65.5,185.813 M66.5,152.848 L66.5,199.355 M67.5,154.807 L67.5,192.846 M68.5,155.076 L68.5,192.534 M69.5,160.646 L69.5,191.114 M70.5,157.716 L70.5,189.134 M71.5,153.091 L71.5,192.772 M72.5,162.642 L72.5,187.566 M73.5,151.032 L73.5,180.698 M74.5,160.778 L74.5,188.385 M75.5,151.296 L75.5,187.513 M76.5,153.297 L76.5,185.291 M77.5,160.202 L77.5,189.409 M78.5,162.805 L78.5,191.051 M79.5,157.246 L79.5,196.299 M80.5,156.127 L80.5,186.157 M81.5,162.747 L81.5,180.919 M82.5,160.63 L82.5,183.3 M83.5,160.635 L83.5,183.38 M84.5,161.026 L84.5,181.167 M85.5,165.081 L85.5,188.717 M86.5,162.161 L86.5,181.299 M87.5,164.986 L87.5,186.669 M88.5,164.996 L88.5,178.464 M89.5,163.792 L89.5,185.043 M90.5,160.503 L90.5,188.21 M91.5,160.715 L91.5,188.406 M92.5,164.98 L92.5,185.998 M93.5,165.915 L93.5,188.506 M94.5,163.872 L94.5,182.53 M95.5,161.85 L95.5,184.673 M96.5,159.447 L96.5,181.685 M97.5,166.031 L97.5,179.615 M98.5,166.591 L98.5,181.347 M99.5,163.159 L99.5,178.797 M100.5,165.213 L100.5,181.21 M101.5,166.205 L101.5,182.947 M102.5,167.779 L102.5,177.725 M103.5,165.572 L103.5,179.557 M104.5,166.929 L104.5,178.1 M105.5,168.481 L105.5,178.401 M106.5,167.742 L106.5,177.276 M107.5,167.52 L107.5,177.709 M108.5,168.312 L108.5,179.605 M109.5,165.207 L109.5,178.448 M110.5,168.027 L110.5,178.01 M111.5,168.592 L111.5,178.607 M112.5,166.775 L112.5,176.875 M113.5,168.856 L113.5,178.802 M114.5,166.527 L114.5,177.968 M115.5,170.703 L115.5,177.113 M116.5,168.497 L116.5,176.616 M117.5,169.199 L117.5,178.137 M118.5,167.409 L118.5,177.694 M119.5,168.248 L119.5,176.643 M120.5,167.631 L120.5,176.5 M121.5,168.534 L121.5,177.836 M122.5,167.52 L122.5,178.544 M123.5,169.362 L123.5,177.963 M124.5,169.869 L124.5,178.454 M125.5,169.405 L125.5,175.809 M126.5,168.776 L126.5,175.766 M127.5,168.296 L127.5,177.535 M128.5,170.244 L128.5,177.292 M129.5,170.239 L129.5,176.712 M130.5,170.059 L130.5,175.803 M131.5,168.016 L131.5,175.798 M132.5,170.371 L132.5,175.07 M133.5,171.173 L133.5,175.022 M134.5,170.054 L134.5,175.582 M135.5,169.167 L135.5,175.466 M136.5,170.582 L136.5,175.318 M137.5,169.547 L137.5,176.284 M138.5,169.674 L138.5,176.416 M139.5,170.244 L139.5,174.711 M140.5,171.902 L140.5,176.342 M141.5,170.703 L141.5,174.953 M142.5,170.556 L142.5,175.513 M143.5,171.004 L143.5,175.043 M144.5,170.841 L144.5,174.04 M145.5,171.701 L145.5,174.658 M146.5,171.406 L146.5,175.017 M147.5,170.656 L147.5,174.114 M148.5,171.047 L148.5,174.748 M149.5,171.527 L149.5,174.536 M150.5,170.804 L150.5,174.473 M151.5,171.031 L151.5,174.631 M152.5,171.516 L152.5,174.019 M153.5,171.611 L153.5,174.283 M154.5,171.543 L154.5,174.663 M155.5,171.796 L155.5,173.898 M156.5,171.923 L156.5,174.278 M157.5,171.511 L157.5,174.146 M158.5,172.145 L158.5,173.977 M159.5,171.802 L159.5,174.098 M160.5,172.092 L160.5,174.082 M161.5,172.229 L161.5,173.776 M162.5,171.934 L162.5,173.623 M163.5,171.891 L163.5,173.903 M164.5,171.907 L164.5,173.676 M165.5,172.419 L165.5,173.575 M166.5,172.308 L166.5,173.993 M167.5,171.934 L167.5,173.692 M167.5,172.813 L168.5,172.939 M169.5,172.013 L169.5,173.523 M170.5,172.514 L170.5,173.549 M171.5,172.356 L171.5,173.491 M172.5,172.303 L172.5,173.628 M172.5,172.966 L173.5,173.127 M174.5,172.298 L174.5,173.612 M174.5,172.955 L175.5,172.905 L176.5,173.106 L177.5,173.103 L178.5,173.021 L179.5,172.9 L180.5,172.96 L181.5,173.066 L182.5,173.003 L183.5,173.005 L184.5,172.958 L185.5,172.96 L186.5,172.984 L187.5,173.077 L188.5,173.04 L189.5,172.934 L190.5,173.034 L191.5,172.989 L192.5,173.013 L193.5,172.987 L194.5,172.987 L195.5,173.003 L196.5,173.04 L197.5,173.018 L198.5,173.008 L199.5,172.982 L200.5,173.013 L201.5,172.992 L202.5,173.005 L203.5,172.989 L204.5,173.008 L205.5,172.976 L206.5,173 L207.5,172.995 L208.5,172.997 L209.5,173.013 L210.5,173.011 L211.5,173.005 L212.5,172.982 L213.5,173.008 L214.5,173.008 L215.5,173.003 L216.5,173.003 L217.5,173.003 L218.5,172.997 L219.5,173 L220.5,173 L221.5,173 L222.5,173 L223.5,173 L224.5,173.003 L225.5,173 L226.5,173.008 M227.5,172.24 L227.5,173.285 M228.5,171.184 L228.5,172.24 M229.5,171.728 L229.5,212.797 M230.5,151.766 L230.5,210.041 M231.5,124.46 L231.5,195.887 M232.5,131.207 L232.5,222.38 M233.5,139.443 L233.5,221.361 M234.5,132.284 L234.5,218.341 M235.5,157.864 L235.5,216.862 M236.5,134.576 L236.5,182.677 M237.5,133.678 L237.5,208.156 M238.5,128.742 L238.5,195.079 M239.5,126.023 L239.5,205.49 M240.5,160.171 L240.5,207.871 M241.5,159.183 L241.5,217.375 M242.5,196.895 L242.5,221.767 M243.5,126.186 L243.5,209.471 M244.5,127.364 L244.5,163.592 M245.5,158.687 L245.5,174.874 M246.5,135.969 L246.5,167.134 M247.5,161.211 L247.5,202.729 M248.5,182.239 L248.5,200.184 M249.5,188.374 L249.5,221.857 M250.5,151.57 L250.5,219.122 M250.5,185.346 L251.5,141.455 L251.5,134.433 L251.5,148.477 L251.5,141.455 M252.5,139.353 L252.5,158.967 M253.5,144.654 L253.5,161.295 M254.5,154.02 L254.5,197.286 M255.5,190.739 L255.5,203.627 M256.5,176.125 L256.5,194.007 M257.5,180.729 L257.5,211.931 M258.5,156.744 L258.5,206.821 M259.5,141.117 L259.5,162.705 M260.5,135.082 L260.5,152.167 M261.5,149.268 L261.5,182.561 M262.5,179.584 L262.5,205.717 M263.5,185.93 L263.5,209.36 M264.5,178.734 L264.5,193.764 M265.5,179.077 L265.5,185.697 M266.5,145.974 L266.5,182.952 M267.5,139.734 L267.5,152.193 M268.5,141.624 L268.5,155.219 M269.5,154.786 L269.5,182.82 M270.5,181.907 L270.5,199.387 M271.5,173.248 L271.5,196.172 M271.5,184.71 L272.5,171.894 L272.5,171.089 L272.5,172.699 L272.5,171.894 M273.5,171.348 L273.5,211.662 M274.5,154.479 L274.5,214.286 M275.5,126.371 L275.5,183.628 M276.5,131.804 L276.5,224.396 M277.5,137.976 L277.5,220.014 M278.5,143.82 L278.5,220.558 M279.5,160.466 L279.5,217.633 M280.5,133.15 L280.5,188.828 M281.5,140.753 L281.5,206.198 M282.5,132.01 L282.5,201.24 M283.5,125.917 L283.5,190.496 M284.5,162.594 L284.5,211.092 M285.5,163.645 L285.5,215.801 M286.5,200.987 L286.5,224.08 M287.5,136.36 L287.5,210.215 M288.5,124.286 L288.5,163.993 M289.5,157.742 L289.5,176.305 M290.5,136.777 L290.5,166.987 M291.5,161.1 L291.5,200.322 M292.5,181.558 L292.5,202.196 M293.5,186.98 L293.5,222.042 M294.5,165.44 L294.5,219.471 M295.5,134.444 L295.5,166.981 M296.5,138.493 L296.5,158.45 M297.5,143.392 L297.5,161.528 M298.5,154.326 L298.5,198.115 M299.5,191.294 L299.5,204.086 M300.5,176.31 L300.5,197.787 M301.5,178.697 L301.5,211.303 M302.5,157.621 L302.5,210.754 M303.5,140.668 L303.5,162.869 M304.5,134.787 L304.5,153.381 M305.5,148.888 L305.5,182.545 M306.5,178.654 L306.5,205.723 M307.5,186.616 L307.5,210.041 M308.5,180.075 L308.5,193.949 M309.5,179.357 L309.5,184.684 M310.5,147.41 L310.5,182.044 M311.5,140.599 L311.5,152.13 M312.5,139.982 L312.5,154.764 M313.5,154.701 L313.5,183.406 M314.5,182.128 L314.5,201.552 M315.5,197.159 L315.5,202.09 M316.5,182.186 L316.5,197.159 M317.5,163.676 L317.5,182.867 M317.5,173.272 L318.5,159.45 L318.5,155.736 L318.5,163.164 L318.5,159.45 M319.5,143.963 L319.5,157.679 M320.5,144.939 L320.5,161.966 M321.5,158.175 L321.5,180.038 M322.5,178.237 L322.5,203.975 M323.5,195.037 L323.5,203.088 M324.5,183.258 L324.5,205.538 M324.5,194.398 L325.5,170.917 L325.5,160.746 L325.5,181.088 L325.5,170.917 M326.5,152.236 L326.5,161.047 M327.5,150.05 L327.5,154.052 M328.5,151.496 L328.5,164.6 M329.5,164.542 L329.5,181.722 M330.5,179.621 L330.5,190.428 M331.5,189.43 L331.5,201.826 M332.5,185.845 L332.5,196.003 M333.5,159.31 L333.5,186.431 M334.5,147.531 L334.5,159.352 M335.5,152.827 L335.5,159.648 M336.5,150.683 L336.5,160.936 M336.5,155.81 L337.5,171.134 L337.5,163.354 L337.5,178.913 L337.5,171.134 L338.5,186.59 L338.5,180.476 L338.5,192.703 L338.5,186.59 M339.5,192.334 L339.5,195.211 M340.5,183.58 L340.5,193.749 M341.5,165.846 L341.5,183.327 M341.5,174.587 L342.5,159.577 L342.5,154.733 L342.5,164.421 L342.5,159.577 M343.5,155.482 L343.5,159.469 M344.5,153.054 L344.5,156.834 M345.5,156.781 L345.5,175.524 M346.5,175.26 L346.5,191.119 M347.5,190.729 L347.5,192.967 M348.5,188.68 L348.5,192.207 M349.5,170.851 L349.5,189.963 M350.5,160.524 L350.5,170.904 M351.5,156.818 L351.5,160.53 M352.5,154.273 L352.5,157.615 M353.5,154.78 L353.5,168.254 M354.5,168.275 L354.5,186.711 M355.5,186.78 L355.5,189.921 M356.5,188.622 L356.5,192.091 M357.5,180.222 L357.5,188.437 M357.5,184.33 L358.5,172.44 L358.5,166.068 L358.5,178.813 L358.5,172.44 L359.5,159.796 L359.5,154.231 L359.5,165.361 L359.5,159.796 M360.5,152.843 L360.5,156.517 M361.5,156.718 L361.5,163.956 M361.5,160.337 L362.5,171.086 L362.5,165.318 L362.5,176.854 L362.5,171.086 L363.5,181.088 L363.5,177.826 L363.5,184.351 L363.5,181.088 M364.5,184.583 L364.5,191.595 M365.5,183.923 L365.5,191.494 M366.5,174.209 L366.5,184.003 M367.5,160.588 L367.5,174.235 M368.5,155.044 L368.5,160.693 M369.5,151.438 L369.5,156.269 M370.5,156.306 L370.5,173.781 M371.5,173.581 L371.5,183.681 M372.5,183.786 L372.5,186.088 M373.5,184.113 L373.5,186.526 M374.5,182.186 L374.5,185.454 M375.5,171.152 L375.5,182.218 M376.5,159.03 L376.5,171.142 M377.5,155.688 L377.5,158.677 M378.5,155.398 L378.5,159.701 M378.5,157.549 L379.5,166.147 L379.5,160.514 L379.5,171.78 L379.5,166.147 L380.5,180.064 L380.5,172.546 L380.5,187.582 L380.5,180.064 M381.5,186.257 L381.5,190.349 M382.5,182.26 L382.5,186.616 M383.5,177.694 L383.5,183.126 M383.5,180.41 L384.5,172.776 L384.5,168.57 L384.5,176.981 L384.5,172.776 M385.5,159.791 L385.5,168.576 M386.5,159.738 L386.5,160.741 M387.5,160.588 L387.5,163.993 M388.5,163.983 L388.5,170.825 M389.5,170.751 L389.5,184.863 M390.5,184.905 L390.5,189.261 M391.5,182.725 L391.5,186.996 M392.5,176.379 L392.5,182.672 M393.5,166.469 L393.5,176.374 M394.5,161.242 L394.5,166.585 M395.5,161.675 L395.5,163.228 M396.5,162.62 L396.5,163.782 M397.5,163.935 L397.5,171.099 M398.5,171.252 L398.5,182.429 M399.5,165.244 L399.5,200.512 M400.5,171.126 L400.5,211.562 M401.5,152.774 L401.5,206.208 M402.5,130.621 L402.5,201.488 M403.5,152.632 L403.5,197.391 M404.5,137.284 L404.5,191.837 M405.5,141.386 L405.5,192.503 M406.5,141.296 L406.5,190.359 M407.5,152.811 L407.5,192.772 M408.5,157.362 L408.5,210.495 M409.5,169.246 L409.5,211.155 M410.5,158.228 L410.5,205.58 M411.5,160.978 L411.5,197.439 M412.5,142.748 L412.5,191.162 M413.5,133.736 L413.5,171.221 M414.5,138.91 L414.5,177.91 M415.5,160.371 L415.5,187.682 M416.5,160.952 L416.5,202.391 M417.5,163.043 L417.5,198.379 M418.5,170.466 L418.5,199.134 M419.5,173.66 L419.5,196.816 M420.5,159.416 L420.5,187.83 M421.5,151.998 L421.5,181.384 M422.5,148.825 L422.5,183.501 M423.5,145.436 L423.5,176.474 M424.5,147.083 L424.5,177.609 M425.5,158.687 L425.5,190.069 M426.5,169.304 L426.5,196.14 M427.5,174.003 L427.5,198.479 M428.5,173.607 L428.5,190.19 M429.5,166.411 L429.5,189.124 M430.5,154.041 L430.5,186.89 M431.5,153.846 L431.5,169.964 M432.5,153.376 L432.5,177.583 M433.5,157.225 L433.5,173.275 M434.5,164.854 L434.5,179.526 M435.5,173.713 L435.5,189.467 M436.5,171.495 L436.5,197.56 M437.5,177.298 L437.5,191.352 M438.5,164.474 L438.5,188.548 M439.5,161.105 L439.5,184.699 M440.5,157.563 L440.5,175.508 M441.5,157.024 L441.5,169.479 M442.5,153.914 L442.5,170.27 M443.5,161.337 L443.5,179.615 M444.5,169.727 L444.5,183.723 M445.5,177.884 L445.5,190.048 M446.5,175.46 L446.5,194.773 M447.5,172.567 L447.5,184.794 M448.5,163.518 L448.5,183.021 M449.5,161.095 L449.5,172.567 M450.5,156.401 L450.5,170.841 M451.5,155.261 L451.5,171.664 M452.5,160.324 L452.5,173.734 M453.5,166.849 L453.5,181.247 M454.5,175.455 L454.5,190.259 M455.5,177.847 L455.5,189.525 M456.5,176.342 L456.5,188.337 M457.5,169.193 L457.5,180.28 M458.5,166.601 L458.5,175.439 M459.5,159.669 L459.5,170.524 M460.5,158.08 L460.5,167.499 M461.5,160.007 L461.5,173.85 M462.5,166.358 L462.5,179.694 M463.5,172.868 L463.5,184.71 M464.5,175.059 L464.5,187.804 M465.5,177.884 L465.5,185.993 M466.5,171.986 L466.5,184.045 M467.5,167.24 L467.5,179.098 M468.5,161.469 L468.5,171.633 M469.5,158.476 L469.5,166.749 M470.5,159.215 L470.5,170.313 M471.5,163.914 L471.5,174.932 M472.5,171.369 L472.5,180.56 M473.5,177.73 L473.5,185.344 M474.5,178.575 L474.5,186.769 M475.5,177.081 L475.5,183.506 M476.5,171.759 L476.5,181.785 M477.5,166.791 L477.5,173.586 M478.5,161.554 L478.5,168.808 M479.5,159.585 L479.5,164.653 M480.5,160.25 L480.5,167.673 M481.5,167.483 L481.5,176.289 M482.5,175.777 L482.5,185.819 M483.5,180.291 L483.5,186.896 M484.5,180.761 L484.5,185.687 M485.5,175.365 L485.5,182.223 M486.5,168.095 L486.5,177.255 M487.5,163.275 L487.5,169.869 M488.5,162.684 L488.5,166.105 M489.5,161.918 L489.5,167.61 M490.5,164.579 L490.5,171.11 M491.5,170.994 L491.5,178.771 M492.5,179.045 L492.5,184.261 M493.5,181.347 L493.5,184.837 M494.5,177.683 L494.5,183.607 M495.5,171.332 L495.5,178.739 M496.5,164.727 L496.5,172.081 M497.5,163.101 L497.5,167.293 M498.5,163.423 L498.5,165.492 M499.5,165.144 L499.5,168.306 M500.5,168.776 L500.5,173.18 M500.5,170.978 L501.5,176.983 L501.5,173.987 L501.5,179.98 L501.5,176.983 M502.5,179.568 L502.5,184.182 M503.5,181.849 L503.5,184.647 M504.5,176.125 L504.5,182.709 M505.5,168.174 L505.5,176.199 M506.5,163.571 L506.5,168.755 M507.5,162.467 L507.5,164.854 M508.5,163.28 L508.5,166.791 M509.5,166.533 L509.5,172.757 M510.5,171.791 L510.5,177.34 M511.5,177.06 L511.5,180.83 M512.5,179.869 L512.5,181.627 M513.5,179.589 L513.5,181.838 M514.5,174.309 L514.5,179.958 M515.5,167.879 L515.5,173.908 M516.5,164.701 L516.5,168.016 M517.5,163.782 L517.5,164.906 M518.5,164.547 L518.5,167.921 M519.5,167.578 L519.5,173.871 M520.5,173.554 L520.5,179.378 M521.5,179.404 L521.5,181.727 M522.5,180.112 L522.5,181.68 M523.5,176.68 L523.5,180.196 M524.5,171.316 L524.5,176.87 M525.5,167.847 L525.5,171.622 M526.5,165.276 L526.5,167.921 M527.5,164.6 L527.5,165.651 M528.5,165.556 L528.5,169.384 M529.5,169.368 L529.5,175.196 M530.5,175.244 L530.5,179.969 M531.5,179.921 L531.5,181.574 M532.5,179.04 L532.5,181.621 M533.5,174.051 L533.5,179.056 M534.5,170.471 L534.5,174.056 M535.5,167.647 L535.5,170.117 M536.5,166.147 L536.5,167.515 M536.5,166.831 L537.5,166.477 M538.5,166.87 L538.5,169.531 M539.5,169.785 L539.5,175.835 M540.5,176.083 L540.5,180.956 M540.5,178.52 L541.5,181.434 M542.5,177.884 L542.5,181.099 M543.5,173.348 L543.5,177.957 M544.5,168.634 L544.5,173.396 M545.5,166.427 L545.5,168.692 M545.5,167.559 L546.5,166.43 M547.5,166.849 L547.5,168.592 M548.5,168.576 L548.5,171.844 M549.5,171.817 L549.5,177.002 M550.5,177.018 L550.5,179.805 M550.5,178.412 L551.5,179.932 M552.5,177.229 L552.5,180.011 M553.5,173.016 L553.5,177.229 M554.5,169.172 L554.5,173.058 M555.5,166.152 L555.5,169.009 M555.5,167.581 L556.5,166.129 M557.5,166.554 L557.5,168.982 M558.5,169.257 L558.5,173.322 M559.5,173.644 L559.5,177.773 M560.5,177.905 L560.5,179.589 M560.5,178.747 L561.5,179.399 M562.5,176.474 L562.5,179.019 M563.5,172.15 L563.5,176.5 M564.5,168.375 L564.5,172.166 M565.5,166.459 L565.5,168.391 M565.5,167.425 L566.5,166.604 M567.5,166.876 L567.5,169.663 M568.5,169.637 L568.5,174.605 M569.5,174.626 L569.5,178.301 M570.5,178.353 L570.5,179.921 M571.5,176.226 L571.5,210.902 M572.5,148.624 L572.5,213.029 M573.5,103.859 L573.5,228.25 M574.5,128.715 L574.5,184.673 M575.5,138.736 L575.5,229.998 M576.5,158.967 L576.5,222.86 M577.5,196.056 L577.5,224.718 M577.5,210.387 L578.5,173 L578.5,157.79 L578.5,188.21 L578.5,173 M579.5,132.934 L579.5,161.137 M580.5,137.358 L580.5,143.809 M581.5,139.559 L581.5,152.109 M582.5,151.211 L582.5,210.77 M583.5,204.862 L583.5,238.208 M584.5,207.94 L584.5,226.461 M585.5,159.131 L585.5,212.502 M586.5,129.565 L586.5,178.195 M587.5,122.792 L587.5,129.739 M588.5,127.026 L588.5,165.704 M589.5,150.177 L589.5,206.214 M590.5,190.412 L590.5,234.253 M591.5,189.124 L591.5,227.606 M592.5,168.064 L592.5,215.949 M593.5,144.459 L593.5,186.204 M594.5,124.65 L594.5,160.245 M595.5,127.966 L595.5,155.884 M596.5,129.296 L596.5,157.71 M597.5,141.544 L597.5,188.115 M597.5,164.83 L598.5,212.993 L598.5,199.176 L598.5,226.809 L598.5,212.993 M599.5,180.999 L599.5,224.227 M600.5,170.26 L600.5,199.683 M601.5,130.283 L601.5,176.057 M602.5,132.094 L602.5,158.946 M603.5,132.168 L603.5,171.4 M604.5,158.128 L604.5,191.214 M605.5,172.535 L605.5,199.033 M606.5,173.982 L606.5,202.977 M607.5,177.371 L607.5,200.522 M608.5,155.525 L608.5,186.88 M609.5,144.802 L609.5,168.924 M610.5,145.488 L610.5,166.364 M611.5,147.109 L611.5,171.886 M612.5,154.527 L612.5,199.435 M613.5,175.545 L613.5,217.311 M614.5,184.298 L614.5,209.218 M615.5,158.017 L615.5,186.801 M616.5,152.563 L616.5,173.95 M617.5,142.5 L617.5,162.605 M618.5,147.019 L618.5,164.928 M619.5,157.52 L619.5,185.866 M620.5,173.871 L620.5,194.514 M621.5,179.13 L621.5,198.817 M622.5,184.969 L622.5,203.384 M623.5,168.201 L623.5,202.006 M624.5,146.275 L624.5,175.291 M625.5,139.111 L625.5,163.048 M626.5,143.609 L626.5,163.074 M627.5,152.716 L627.5,177.752 M628.5,165.683 L628.5,190.681 M629.5,173.47 L629.5,203.468 M630.5,181.278 L630.5,199.519 M631.5,173.977 L631.5,196.235 M632.5,162.43 L632.5,177.915 M633.5,151.449 L633.5,174.584 M634.5,150.145 L634.5,164.537 M635.5,154.11 L635.5,168.291 M636.5,162.23 L636.5,185.148 M637.5,163.365 L637.5,188.369 M638.5,180.529 L638.5,197.523 M639.5,173.253 L639.5,195.591 M640.5,162.626 L640.5,185.713 M641.5,158.069 L641.5,172.477 M642.5,157.394 L642.5,172.916 M643.5,159.178 L643.5,182.493 M644.5,163.344 L644.5,181.975 M645.5,166.638 L645.5,180.877 M646.5,163.877 L646.5,184.641 M647.5,171.601 L647.5,184.219 M648.5,168.46 L648.5,181.194 M649.5,165.588 L649.5,180.808 M650.5,164.912 L650.5,174.579 M651.5,162.995 L651.5,175.983 M652.5,162.779 L652.5,183.068 M653.5,171.728 L653.5,189.33 M654.5,170.001 L654.5,185.94 M655.5,168.048 L655.5,177.139 M656.5,161.005 L656.5,175.223 M657.5,158.682 L657.5,171.052 M658.5,160.994 L658.5,171.807 M659.5,167.499 L659.5,182.107 M660.5,174.441 L660.5,186.774 M661.5,174.241 L661.5,184.193 M662.5,173.243 L662.5,181.722 M663.5,171.87 L663.5,179.885 M664.5,167.863 L664.5,179.789 M665.5,163.761 L665.5,175.877 M666.5,156.269 L666.5,169.098 M667.5,160.239 L667.5,171.865 M668.5,164.21 L668.5,179.436 M669.5,175.217 L669.5,185.956 M670.5,178.501 L670.5,187.392 M671.5,174.188 L671.5,185.138 M672.5,170.329 L672.5,182.862 M673.5,164.336 L673.5,175.819 M674.5,161.179 L674.5,171.369 M675.5,159.474 L675.5,169.991 M676.5,163.745 L676.5,172.224 M677.5,168.898 L677.5,178.39 M678.5,171.205 L678.5,182.788 M679.5,174.262 L679.5,182.915 M680.5,175.128 L680.5,184.129 M681.5,172.139 L681.5,182.223 M682.5,168.745 L682.5,175.703 M683.5,163.946 L683.5,173.401 M684.5,165.551 L684.5,172.029 M684.5,168.79"/>
</g>

<g fill="none" stroke="#0000c0" stroke-opacity="1" stroke-width="1" stroke-linecap="square" stroke-linejoin="bevel" transform="matrix(1,0,0,1,0,0)"
font-family="Segoe UI" font-size="9" font-weight="400" font-style="normal" 
>
<path vector-effect="non-scaling-stroke" fill-rule="evenodd" d="M57.5,174.719 L57.5,171.281 M58.5,176.79 L58.5,169.21 M59.5,180.755 L59.5,165.245 M60.5,178.889 L60.5,167.111 M61.5,185.137 L61.5,160.863 M62.5,184.451 L62.5,161.549 M63.5,181.565 L63.5,164.435 M64.5,181.381 L64.5,164.619 M65.5,182.189 L65.5,163.811 M66.5,184.371 L66.5,161.629 M67.5,179.464 L67.5,166.536 M68.5,182.702 L68.5,163.298 M69.5,179.389 L69.5,166.611 M70.5,180.069 L70.5,165.931 M71.5,181.238 L71.5,164.762 M72.5,179.058 L72.5,166.942 M73.5,179.698 L73.5,166.154 M74.5,178.807 L74.5,167.193 M75.5,180.277 L75.5,165.723 M76.5,180.797 L76.5,165.203 M77.5,179.591 L77.5,166.409 M78.5,179.688 L78.5,166.312 M79.5,180.712 L79.5,165.288 M80.5,178.787 L80.5,167.213 M81.5,178.624 L81.5,167.376 M82.5,177.86 L82.5,168.14 M83.5,178.567 L83.5,167.433 M84.5,177.638 L84.5,168.362 M85.5,178.965 L85.5,167.035 M86.5,177.563 L86.5,168.437 M87.5,177.657 L87.5,168.343 M88.5,176.875 L88.5,169.125 M89.5,177.62 L89.5,168.38 M90.5,177.96 L90.5,168.04 M91.5,178.006 L91.5,167.994 M92.5,176.664 L92.5,169.336 M93.5,177.648 L93.5,168.352 M94.5,177.421 L94.5,168.579 M95.5,177.635 L95.5,168.365 M96.5,177.36 L96.5,168.64 M97.5,176.314 L97.5,169.686 M98.5,176.822 L98.5,169.178 M99.5,176.1 L99.5,169.9 M100.5,176.417 L100.5,169.583 M101.5,176.908 L101.5,169.092 M102.5,175.801 L102.5,170.199 M103.5,176.304 L103.5,169.696 M104.5,175.61 L104.5,170.39 M105.5,175.426 L105.5,170.574 M106.5,175.916 L106.5,170.084 M107.5,175.484 L107.5,170.516 M108.5,175.649 L108.5,170.351 M109.5,175.815 L109.5,170.185 M110.5,175.485 L110.5,170.515 M111.5,175.691 L111.5,170.309 M112.5,175.192 L112.5,170.808 M113.5,175.398 L113.5,170.602 M114.5,175.689 L114.5,170.311 M115.5,174.705 L115.5,171.703 M116.5,175.191 L116.5,170.809 M117.5,175.707 L117.5,170.293 M118.5,175.526 L118.5,170.474 M119.5,175.566 L119.5,170.434 M120.5,175.037 L120.5,170.963 M121.5,175.553 L121.5,170.447 M122.5,175.247 L122.5,170.753 M123.5,175.334 L123.5,170.666 M124.5,175.497 L124.5,170.869 M125.5,174.748 L125.5,171.252 M126.5,174.766 L126.5,171.177 M127.5,175.26 L127.5,170.74 M128.5,175.015 L128.5,171.244 M129.5,174.784 L129.5,171.239 M130.5,174.803 L130.5,171.18 M131.5,174.798 L131.5,170.942 M132.5,174.07 L132.5,171.616 M133.5,174.022 L133.5,172.173 M134.5,174.582 L134.5,171.054 M135.5,174.466 L135.5,171.265 M136.5,174.318 L136.5,171.582 M137.5,174.861 L137.5,171.139 M138.5,174.71 L138.5,171.29 M139.5,173.711 L139.5,171.71 M140.5,174.234 L140.5,172.902 M141.5,173.953 L141.5,171.703 M142.5,174.487 L142.5,171.556 M143.5,174.043 L143.5,172.004 M144.5,173.04 L144.5,171.9 M146.5,174.017 L146.5,172.406 M147.5,173.114 L147.5,171.924 M148.5,173.748 L148.5,172.047 M149.5,173.536 L149.5,172.527 M150.5,173.473 L150.5,171.918 M151.5,173.631 L151.5,172.031 M154.5,173.663 L154.5,172.543 M229.5,180.825 L229.5,172.728 M230.5,190.066 L230.5,155.934 M231.5,194.887 L231.5,143.003 M232.5,199.33 L232.5,146.67 M233.5,192.166 L233.5,153.834 M234.5,201.815 L234.5,144.185 M235.5,192.65 L235.5,158.864 M236.5,181.677 L236.5,155.375 M237.5,190.579 L237.5,155.421 M238.5,194.079 L238.5,144.088 M239.5,199.938 L239.5,146.062 M240.5,184.684 L240.5,161.316 M241.5,199.866 L241.5,160.183 M242.5,212.902 L242.5,197.895 M243.5,201.423 L243.5,144.577 M244.5,162.592 L244.5,143.658 M245.5,173.874 L245.5,163.616 M246.5,166.134 L246.5,149.976 M247.5,181.972 L247.5,164.028 M248.5,190.232 L248.5,183.239 M249.5,202.16 L249.5,189.374 M250.5,199.067 L250.5,152.57 M251.5,147.477 L251.5,141.159 M252.5,157.967 L252.5,148.884 M253.5,160.295 L253.5,154.134 M254.5,184.512 L254.5,161.488 M255.5,198.116 L255.5,191.739 M256.5,184.278 L256.5,177.125 M257.5,194.227 L257.5,181.729 M258.5,187.355 L258.5,158.645 M259.5,161.705 L259.5,147.039 M260.5,151.167 L260.5,143.299 M261.5,181.561 L261.5,159.172 M262.5,191.644 L262.5,180.584 M263.5,198.902 L263.5,186.93 M264.5,187.074 L264.5,179.734 M265.5,182.376 L265.5,180.077 M266.5,181.952 L266.5,162.883 M267.5,151.193 L267.5,147.838 M268.5,154.219 L268.5,146.615 M269.5,181.82 L269.5,162.312 M270.5,193.311 L270.5,182.907 M271.5,183.915 L271.5,174.248 M273.5,178.524 L273.5,172.348 M274.5,191.034 L274.5,155.479 M275.5,182.628 L275.5,144.303 M276.5,199.64 L276.5,146.36 M277.5,192.32 L277.5,153.68 M278.5,199.726 L278.5,146.274 M279.5,193.768 L279.5,161.466 M280.5,187.828 L280.5,154.825 M281.5,189.947 L281.5,156.053 M282.5,200.24 L282.5,144.916 M283.5,189.496 L283.5,144.494 M284.5,185.418 L284.5,163.594 M285.5,197.981 L285.5,164.645 M286.5,213.631 L286.5,201.987 M287.5,201.862 L287.5,144.138 M288.5,162.993 L288.5,142.34 M289.5,175.305 L289.5,163.76 M290.5,165.987 L290.5,149.918 M291.5,181.123 L291.5,164.877 M292.5,190.865 L292.5,182.558 M293.5,200.809 L293.5,187.98 M294.5,199.917 L294.5,166.44 M295.5,165.981 L295.5,142.481 M296.5,157.45 L296.5,148.326 M297.5,160.528 L297.5,153.666 M298.5,184.685 L298.5,161.315 M299.5,198.042 L299.5,192.294 M300.5,184.99 L300.5,177.31 M301.5,192.714 L301.5,179.697 M302.5,188.729 L302.5,158.621 M303.5,161.869 L303.5,147.563 M304.5,152.381 L304.5,143.191 M305.5,181.545 L305.5,158.218 M306.5,190.46 L306.5,179.654 M307.5,199.77 L307.5,187.616 M308.5,187.29 L308.5,181.075 M309.5,182.448 L309.5,180.357 M310.5,181.044 L310.5,163.763 M311.5,151.13 L311.5,148.063 M312.5,153.764 L312.5,145.949 M313.5,182.406 L313.5,161.771 M314.5,192.926 L314.5,183.128 M315.5,200.289 L315.5,198.159 M316.5,189.698 L316.5,183.186 M317.5,177.149 L317.5,168.851 M318.5,162.164 L318.5,157.955 M319.5,156.679 L319.5,151.289 M320.5,160.966 L320.5,155.611 M321.5,179.038 L321.5,165.797 M322.5,188.476 L322.5,179.237 M323.5,199.411 L323.5,196.037 M324.5,195.917 L324.5,184.258 M325.5,180.088 L325.5,164.128 M326.5,160.047 L326.5,155.688 M327.5,153.052 L327.5,151.05 M328.5,163.6 L328.5,158.972 M329.5,178.985 L329.5,167.015 M330.5,186.299 L330.5,180.621 M331.5,195.433 L331.5,190.43 M332.5,193.667 L332.5,186.845 M333.5,180.027 L333.5,165.973 M334.5,158.352 L334.5,153.37 M335.5,158.648 L335.5,155.268 M336.5,159.936 L336.5,155.317 M337.5,177.913 L337.5,167.235 M338.5,188.428 L338.5,181.476 M340.5,189.036 L340.5,184.58 M341.5,177.971 L341.5,168.029 M342.5,163.421 L342.5,157.903 M343.5,158.469 L343.5,156.922 M344.5,155.834 L344.5,154.328 M345.5,174.524 L345.5,165.128 M346.5,184.053 L346.5,176.26 M348.5,190.707 L348.5,189.68 M349.5,180.575 L349.5,171.851 M350.5,169.904 L350.5,163.256 M351.5,159.53 L351.5,157.818 M352.5,156.615 L352.5,155.369 M353.5,167.254 L353.5,159.891 M354.5,179.567 L354.5,169.275 M355.5,188.921 L355.5,187.78 M356.5,191.091 L356.5,189.622 M357.5,186.277 L357.5,181.222 M358.5,177.221 L358.5,168.779 M359.5,164.361 L359.5,159.433 M360.5,155.517 L360.5,153.843 M361.5,162.956 L361.5,159.359 M362.5,175.854 L362.5,169.215 M363.5,183.217 L363.5,178.826 M364.5,188.847 L364.5,185.583 M365.5,189.427 L365.5,184.923 M366.5,180.113 L366.5,175.209 M367.5,173.235 L367.5,166.989 M368.5,159.693 L368.5,156.539 M369.5,155.269 L369.5,153.252 M370.5,172.781 L370.5,163.669 M371.5,180.085 L371.5,174.581 M374.5,184.454 L374.5,183.186 M375.5,178.023 L375.5,172.152 M376.5,170.142 L376.5,163.57 M378.5,158.701 L378.5,156.398 M379.5,170.78 L379.5,165.95 M380.5,181.2 L380.5,173.546 M381.5,189.238 L381.5,187.257 M382.5,184.583 L382.5,183.26 M383.5,182.084 L383.5,178.694 M384.5,175.523 L384.5,170.477 M385.5,167.576 L385.5,162.092 M387.5,162.993 L387.5,161.589 M388.5,169.825 L388.5,166.124 M389.5,179.823 L389.5,171.751 M390.5,188.261 L390.5,185.905 M391.5,185.566 L391.5,183.725 M392.5,180.439 L392.5,177.379 M393.5,175.374 L393.5,169.798 M394.5,165.585 L394.5,162.242 M397.5,170.099 L397.5,166.748 M398.5,177.843 L398.5,172.252 M399.5,185.462 L399.5,166.244 M400.5,191.967 L400.5,172.126 M401.5,186.352 L401.5,159.648 M402.5,185.851 L402.5,160.149 M403.5,186.038 L403.5,159.962 M404.5,185.193 L404.5,160.807 M405.5,184.776 L405.5,161.224 M406.5,183.69 L406.5,162.31 M407.5,182.244 L407.5,163.756 M408.5,186.914 L408.5,159.086 M409.5,190.472 L409.5,170.246 M410.5,184.231 L410.5,161.769 M411.5,180.05 L411.5,165.95 M412.5,182.533 L412.5,163.467 M413.5,170.221 L413.5,156.687 M414.5,176.91 L414.5,160.444 M415.5,179.667 L415.5,166.333 M416.5,181.168 L416.5,164.832 M417.5,182.157 L417.5,164.043 M418.5,185.9 L418.5,171.466 M419.5,187.475 L419.5,174.66 M420.5,179.393 L420.5,166.607 M421.5,180.384 L421.5,165.252 M422.5,182.501 L422.5,162.697 M423.5,175.474 L423.5,159.415 M424.5,176.609 L424.5,164.036 M425.5,178.547 L425.5,167.453 M426.5,184.684 L426.5,170.304 M427.5,183.725 L427.5,175.003 M428.5,182.72 L428.5,174.607 M429.5,179.599 L429.5,167.411 M430.5,178.865 L430.5,167.135 M431.5,168.964 L431.5,159.896 M432.5,176.583 L432.5,161.657 M433.5,172.275 L433.5,163.298 M434.5,177.645 L434.5,168.355 M435.5,181.685 L435.5,174.713 M436.5,184.945 L436.5,172.495 M437.5,182.569 L437.5,178.298 M438.5,179.79 L438.5,166.21 M439.5,178.369 L439.5,167.631 M440.5,174.508 L440.5,165.47 M441.5,168.479 L441.5,162.72 M442.5,169.27 L442.5,161.362 M443.5,178.239 L443.5,167.761 M444.5,177.957 L444.5,170.727 M445.5,184.846 L445.5,178.884 M446.5,184.657 L446.5,176.46 M447.5,179.979 L447.5,173.567 M448.5,176.998 L448.5,169.002 M449.5,171.567 L449.5,165.108 M450.5,169.841 L450.5,162.8 M451.5,170.664 L451.5,163.087 M452.5,172.734 L452.5,165.826 M453.5,176.986 L453.5,169.014 M454.5,181.928 L454.5,176.455 M455.5,183.717 L455.5,178.847 M456.5,182.536 L456.5,177.342 M457.5,176.581 L457.5,170.193 M458.5,174.439 L458.5,169.497 M459.5,169.524 L459.5,164.107 M460.5,166.499 L460.5,162.009 M461.5,172.85 L461.5,165.081 M462.5,176.116 L462.5,169.884 M463.5,179.271 L463.5,173.868 M464.5,182.661 L464.5,176.059 M465.5,183.128 L465.5,178.884 M466.5,179.732 L466.5,172.986 M467.5,175.764 L467.5,170.236 M468.5,170.633 L468.5,164.968 M469.5,165.749 L469.5,162.002 M470.5,169.313 L470.5,163.931 M471.5,173.932 L471.5,167.956 M472.5,177.029 L472.5,172.369 M473.5,182.469 L473.5,178.73 M474.5,182.817 L474.5,179.575 M475.5,180.522 L475.5,178.081 M476.5,176.412 L476.5,172.759 M477.5,172.586 L477.5,169.317 M478.5,167.808 L478.5,164.075 M479.5,163.653 L479.5,162.547 M480.5,166.673 L480.5,164.627 M481.5,175.289 L481.5,170.223 M482.5,179.999 L482.5,176.777 M483.5,183.524 L483.5,181.291 M484.5,182.932 L484.5,181.761 M485.5,178.964 L485.5,176.365 M486.5,175.825 L486.5,170.175 M487.5,168.869 L487.5,165.753 M488.5,165.105 L488.5,164.038 M489.5,166.61 L489.5,164.176 M490.5,170.11 L490.5,167.268 M491.5,175.856 L491.5,171.994 M492.5,181.953 L492.5,180.045 M493.5,183.676 L493.5,182.347 M494.5,181.386 L494.5,178.683 M495.5,176.12 L495.5,172.332 M496.5,171.081 L496.5,167.883 M497.5,166.293 L497.5,164.107 M500.5,172.18 L500.5,170.281 M501.5,177.064 L501.5,174.987 M502.5,182.483 L502.5,180.568 M504.5,179.93 L504.5,177.125 M505.5,175.199 L505.5,170.499 M506.5,167.755 L506.5,165.689 M508.5,165.791 L508.5,164.641 M509.5,171.757 L509.5,169.194 M510.5,175.396 L510.5,172.791 M511.5,179.356 L511.5,178.06 M514.5,177.48 L514.5,175.309 M515.5,172.908 L515.5,170.074 M516.5,167.016 L516.5,165.701 M518.5,166.921 L518.5,165.573 M519.5,172.871 L519.5,170.017 M520.5,177.183 L520.5,174.554 M523.5,178.999 L523.5,177.68 M524.5,174.979 L524.5,172.316 M525.5,170.622 L525.5,168.982 M528.5,168.384 L528.5,166.609 M529.5,174.196 L529.5,170.845 M530.5,178.503 L530.5,176.244 M533.5,177.126 L533.5,175.051 M534.5,173.056 L534.5,171.471 M539.5,174.835 L539.5,170.841 M540.5,179.351 L540.5,177.083 M542.5,180.099 L542.5,178.884 M543.5,176.238 L543.5,174.348 M544.5,172.396 L544.5,170.436 M548.5,170.844 L548.5,169.576 M549.5,175.198 L549.5,172.817 M553.5,175.663 L553.5,174.016 M554.5,172.058 L554.5,170.361 M558.5,172.322 L558.5,170.588 M559.5,176.266 L559.5,174.644 M563.5,174.992 L563.5,173.15 M564.5,171.166 L564.5,169.694 M568.5,173.605 L568.5,171.091 M569.5,177.253 L569.5,175.626 M571.5,186.701 L571.5,177.226 M572.5,191.587 L572.5,154.413 M573.5,208.383 L573.5,137.617 M574.5,183.673 L574.5,151.856 M575.5,194.948 L575.5,151.052 M576.5,195.379 L576.5,159.967 M577.5,210.058 L577.5,197.056 M578.5,182.026 L578.5,163.974 M579.5,160.137 L579.5,145.619 M580.5,142.809 L580.5,138.825 M581.5,151.109 L581.5,142.698 M582.5,189.081 L582.5,156.919 M583.5,223.477 L583.5,205.862 M584.5,219.231 L584.5,208.94 M585.5,191.71 L585.5,160.131 M586.5,177.195 L586.5,149.898 M587.5,128.739 L587.5,125.098 M588.5,164.704 L588.5,139.165 M589.5,185.444 L589.5,160.556 M590.5,206.712 L590.5,191.412 M591.5,212.799 L591.5,190.124 M592.5,194.764 L592.5,169.064 M593.5,185.204 L593.5,159.99 M594.5,159.245 L594.5,141.801 M595.5,154.884 L595.5,141.172 M596.5,156.71 L596.5,139.137 M597.5,184.957 L597.5,161.043 M598.5,215.79 L598.5,200.176 M599.5,209.133 L599.5,181.999 M600.5,184.835 L600.5,171.26 M601.5,175.057 L601.5,155.537 M602.5,157.946 L602.5,141.334 M603.5,170.4 L603.5,148.194 M604.5,180.765 L604.5,165.235 M605.5,187.791 L605.5,173.535 M606.5,191.097 L606.5,174.982 M607.5,190.723 L607.5,178.371 M608.5,180.943 L608.5,165.057 M609.5,167.924 L609.5,155.095 M610.5,165.364 L610.5,155.43 M611.5,170.886 L611.5,158.458 M612.5,182.866 L612.5,163.134 M613.5,197.949 L613.5,176.545 M614.5,197.613 L614.5,185.298 M615.5,180.505 L615.5,165.495 M616.5,172.95 L616.5,160.673 M617.5,161.605 L617.5,152.789 M618.5,163.928 L618.5,155.02 M619.5,181.443 L619.5,164.557 M620.5,184.984 L620.5,174.871 M621.5,188.861 L621.5,180.13 M622.5,195.325 L622.5,185.969 M623.5,185.599 L623.5,169.201 M624.5,174.291 L624.5,161.793 M625.5,162.048 L625.5,151.151 M626.5,162.074 L626.5,151.677 M627.5,176.752 L627.5,164.145 M628.5,181.437 L628.5,166.683 M629.5,190.943 L629.5,174.47 M630.5,190.901 L630.5,182.278 M631.5,183.773 L631.5,174.977 M632.5,176.915 L632.5,168.702 M633.5,173.584 L633.5,161.081 M634.5,163.537 L634.5,158.014 M635.5,167.291 L635.5,161.212 M636.5,178.496 L636.5,167.504 M637.5,180.475 L637.5,165.525 M638.5,187.855 L638.5,181.529 M639.5,185.113 L639.5,174.253 M640.5,178.291 L640.5,167.709 M641.5,171.477 L641.5,165.199 M642.5,171.916 L642.5,164.855 M643.5,178.919 L643.5,167.081 M644.5,175.699 L644.5,170.301 M645.5,176.032 L645.5,169.968 M646.5,178.428 L646.5,167.572 M647.5,178.216 L647.5,172.601 M648.5,176.813 L648.5,169.46 M649.5,176.788 L649.5,169.212 M650.5,173.579 L650.5,168.822 M651.5,174.983 L651.5,169.043 M652.5,176.346 L652.5,169.654 M653.5,180.158 L653.5,172.728 M654.5,179.004 L654.5,171.001 M655.5,176.139 L655.5,169.83 M656.5,174.223 L656.5,167.739 M657.5,170.052 L657.5,164.256 M658.5,170.807 L658.5,166.625 M659.5,177.586 L659.5,168.499 M660.5,179.761 L660.5,175.441 M661.5,180.183 L661.5,175.241 M662.5,178.411 L662.5,174.243 M663.5,177.201 L663.5,172.87 M664.5,176.589 L664.5,169.411 M665.5,174.877 L665.5,167.047 M666.5,168.098 L666.5,163.129 M667.5,170.865 L667.5,165.437 M668.5,176.246 L668.5,169.754 M669.5,179.605 L669.5,176.217 M670.5,183.278 L670.5,179.501 M671.5,181.243 L671.5,175.188 M672.5,176.79 L672.5,171.329 M673.5,174.819 L673.5,169.839 M674.5,170.369 L674.5,165.908 M675.5,168.991 L675.5,164.852 M676.5,171.224 L676.5,167.347 M677.5,175.543 L677.5,170.457 M678.5,176.921 L678.5,172.205 M679.5,179.542 L679.5,175.262 M680.5,179.679 L680.5,176.128 M681.5,176.469 L681.5,173.139 M682.5,174.703 L682.5,171.223 M683.5,172.401 L683.5,169.302 M684.5,171.029 L684.5,168.826"/>
</g>

<g fill="none" stroke="#000080" stroke-opacity="1" stroke-width="1" stroke-linecap="square" stroke-linejoin="bevel" transform="matrix(1,0,0,1,0,0)"
font-family="Segoe UI" font-size="9" font-weight="400" font-style="normal" 
>
</g>

<g fill="none" stroke="#000000" stroke-opacity="1" stroke-width="1" stroke-linecap="square" stroke-linejoin="bevel" transform="matrix(1,0,0,1,0,0)"
font-family="Segoe UI" font-size="9" font-weight="400" font-style="normal" 
>
</g>

<g fill="#ffffff" fill-opacity="1" stroke="#ffffff" stroke-opacity="1" stroke-width="1" stroke-linecap="square" stroke-linejoin="bevel" transform="matrix(1,0,0,1,0,0)"
font-family="Segoe UI" font-size="9" font-weight="400" font-style="normal" 
>
<rect x="684" y="0" width="684" height="346"/>
</g>

<g fill="none" stroke="#000000" stroke-opacity="1" stroke-width="1" stroke-linecap="square" stroke-linejoin="bevel" transform="matrix(1,0,0,1,0,0)"
font-family="Segoe UI" font-size="9" font-weight="400" font-style="normal" 
>
</g>

<g fill="none" stroke="#0000c0" stroke-opacity="1" stroke-width="1" stroke-linecap="square" stroke-linejoin="bevel" transform="matrix(1,0,0,1,684,0)"
font-family="Segoe UI" font-size="9" font-weight="400" font-style="normal" 
>
<polyline fill="none" vector-effect="non-scaling-stroke" points="0,173.5 684,173.5 " />
</g>

<g fill="none" stroke="#000080" stroke-opacity="1" stroke-width="1" stroke-linecap="square" stroke-linejoin="bevel" transform="matrix(1,0,0,1,684,0)"
font-family="Segoe UI" font-size="9" font-weight="400" font-style="normal" 
>
<path vector-effect="non-scaling-stroke" fill-rule="evenodd" d="M0.5,165.551 L0.5,172.029 M1.5,166.702 L1.5,172.414 M2.5,165.947 L2.5,174.89 M3.5,169.959 L3.5,175.941 M4.5,171.501 L4.5,177.049 M5.5,172.799 L5.5,181.875 M6.5,174.225 L6.5,180.434 M7.5,173.739 L7.5,176.316 M7.5,175.027"/>
</g>

<g fill="none" stroke="#0000c0" stroke-opacity="1" stroke-width="1" stroke-linecap="square" stroke-linejoin="bevel" transform="matrix(1,0,0,1,684,0)"
font-family="Segoe UI" font-size="9" font-weight="400" font-style="normal" 
>
<path vector-effect="non-scaling-stroke" fill-rule="evenodd" d="M0.5,171.029 L0.5,168.826 M1.5,171.414 L1.5,168.926 M2.5,173.89 L2.5,169.937 M3.5,174.874 L3.5,171.126 M4.5,175.143 L4.5,172.501 M5.5,177.304 L5.5,173.799 M6.5,177.762 L6.5,175.225"/>
</g>

<g fill="none" stroke="#000080" stroke-opacity="1" stroke-width="1" stroke-linecap="square" stroke-linejoin="bevel" transform="matrix(1,0,0,1,684,0)"
font-family="Segoe UI" font-size="9" font-weight="400" font-style="normal" 
>
</g>

<g fill="none" stroke="#000000" stroke-opacity="1" stroke-width="1" stroke-linecap="square" stroke-linejoin="bevel" transform="matrix(1,0,0,1,0,0)"
font-family="Segoe UI" font-size="9" font-weight="400" font-style="normal" 
>
</g>
</g>
</svg>
