<?xml version="1.0" encoding="UTF-8" standalone="no"?>
<svg width="243.769mm" height="122.061mm"
 viewBox="0 0 691 346"
 xmlns="http://www.w3.org/2000/svg" xmlns:xlink="http://www.w3.org/1999/xlink" version="1.2" baseProfile="tiny">
<title>Exported image from Sonic Visualiser</title>
<desc>Generated with Qt</desc>
<defs>
</defs>
<g fill="none" stroke="black" stroke-width="1" fill-rule="evenodd" stroke-linecap="square" stroke-linejoin="bevel" >

<g fill="#ffffff" fill-opacity="1" stroke="#ffffff" stroke-opacity="1" stroke-width="1" stroke-linecap="square" stroke-linejoin="bevel" transform="matrix(1,0,0,1,0,0)"
font-family="Segoe UI" font-size="9" font-weight="400" font-style="normal" 
>
<rect x="0" y="0" width="684" height="346"/>
</g>

<g fill="none" stroke="#000000" stroke-opacity="1" stroke-width="1" stroke-linecap="square" stroke-linejoin="bevel" transform="matrix(1,0,0,1,0,0)"
font-family="Segoe UI" font-size="9" font-weight="400" font-style="normal" 
>
</g>

<g fill="none" stroke="#0000c0" stroke-opacity="1" stroke-width="1" stroke-linecap="square" stroke-linejoin="bevel" transform="matrix(1,0,0,1,0,0)"
font-family="Segoe UI" font-size="9" font-weight="400" font-style="normal" 
>
<polyline fill="none" vector-effect="non-scaling-stroke" points="0,173.5 684,173.5 " />
</g>

<g fill="none" stroke="#000080" stroke-opacity="1" stroke-width="1" stroke-linecap="square" stroke-linejoin="bevel" transform="matrix(1,0,0,1,0,0)"
font-family="Segoe UI" font-size="9" font-weight="400" font-style="normal" 
>
<path vector-effect="non-scaling-stroke" fill-rule="evenodd" d="M0.5,172.984 L0.5,173.021 M0.5,173.003 L1.5,173 L2.5,173 L3.5,172.997 L4.5,173 L5.5,173 L6.5,173 L7.5,173 L8.5,173 L9.5,173 L10.5,173 L11.5,173.003 L12.5,173 L13.5,172.997 L14.5,172.997 L15.5,173 L16.5,173 L17.5,173 L18.5,173 L19.5,173.003 L20.5,173 L21.5,173 L22.5,173 L23.5,173 L24.5,173 L25.5,172.997 L26.5,173 L27.5,173 L28.5,173 L29.5,173 L30.5,172.997 L31.5,173 L32.5,173.003 L33.5,173 L34.5,173 L35.5,173 L36.5,173 L37.5,172.995 L38.5,172.992 L39.5,173.005 L40.5,173.005 L41.5,173.003 L42.5,173 L43.5,173.013 L44.5,173.008 L45.5,173.008 L46.5,172.989 L47.5,172.995 L48.5,173.008 L49.5,173.021 L50.5,172.982 L51.5,173.018 L52.5,172.989 L53.5,173.005 L54.5,173.005 L55.5,172.976 M56.5,172.461 L56.5,173.744 M57.5,172.377 L57.5,179.325 M58.5,144.712 L58.5,189.689 M59.5,124.47 L59.5,170.915 M60.5,126.429 L60.5,226.313 M61.5,144.834 L61.5,264.257 M62.5,153.672 L62.5,240.615 M63.5,153.698 L63.5,240.209 M64.5,134.491 L64.5,192.186 M65.5,114.624 L65.5,157.906 M66.5,115.743 L66.5,160.583 M67.5,109.825 L67.5,174.848 M68.5,139.09 L68.5,233.482 M69.5,196.858 L69.5,252.668 M70.5,184.752 L70.5,247.072 M71.5,157.457 L71.5,213.177 M72.5,124.602 L72.5,186.299 M73.5,114.26 L73.5,154.912 M74.5,120.611 L74.5,170.181 M75.5,160.604 L75.5,214.159 M76.5,174.462 L76.5,233.662 M77.5,191.621 L77.5,224.982 M78.5,167.404 L78.5,218.716 M79.5,132.126 L79.5,186.505 M80.5,117.428 L80.5,179.124 M81.5,126.593 L81.5,165.989 M82.5,132.332 L82.5,166.855 M83.5,153.429 L83.5,221.577 M84.5,199.319 L84.5,235.6 M85.5,171.453 L85.5,223.752 M86.5,155.044 L86.5,192.619 M87.5,130.167 L87.5,167.245 M88.5,125.257 L88.5,152.23 M89.5,127.707 L89.5,179.135 M90.5,163.354 L90.5,207.708 M91.5,168.607 L91.5,217.881 M92.5,174.8 L92.5,204.756 M93.5,170.952 L93.5,202.782 M94.5,146.111 L94.5,180.117 M95.5,137.69 L95.5,165.82 M96.5,138.804 L96.5,171.131 M97.5,144.079 L97.5,180.36 M98.5,156.586 L98.5,200.712 M99.5,177.862 L99.5,219.122 M100.5,181.025 L100.5,218.684 M101.5,158.117 L101.5,190.845 M102.5,142.558 L102.5,173.306 M103.5,141.629 L103.5,165.408 M104.5,147.194 L104.5,164.6 M105.5,154.479 L105.5,188.612 M106.5,169.331 L106.5,192.767 M107.5,171.564 L107.5,200.66 M108.5,183.422 L108.5,204.529 M109.5,163.824 L109.5,192.867 M110.5,150.351 L110.5,173.496 M111.5,138.155 L111.5,168.808 M112.5,139.591 L112.5,173.876 M113.5,154.126 L113.5,184.552 M114.5,172.757 L114.5,190.201 M115.5,168.365 L115.5,198.073 M116.5,170.497 L116.5,196.014 M117.5,167.314 L117.5,185.275 M118.5,156.179 L118.5,174.03 M119.5,148.012 L119.5,171.992 M120.5,153.746 L120.5,172.873 M121.5,159.252 L121.5,182.783 M122.5,166.517 L122.5,198.241 M123.5,176.469 L123.5,192.687 M124.5,170.577 L124.5,200.105 M125.5,164.991 L125.5,194.53 M126.5,158.133 L126.5,177.503 M127.5,151.628 L127.5,170.022 M128.5,147.389 L128.5,172.926 M129.5,163.354 L129.5,189.673 M130.5,171.247 L130.5,182.45 M131.5,164.368 L131.5,188.29 M132.5,170.761 L132.5,186.114 M133.5,170.413 L133.5,187.524 M134.5,166.997 L134.5,180.735 M135.5,155.324 L135.5,172.636 M136.5,159.469 L136.5,172.356 M137.5,159.194 L137.5,178.913 M138.5,168.391 L138.5,185.776 M139.5,169.88 L139.5,190.063 M140.5,172.44 L140.5,188.585 M141.5,169.816 L141.5,182.223 M142.5,162.62 L142.5,177.071 M143.5,160.266 L143.5,171.179 M144.5,162.383 L144.5,173.201 M145.5,162.224 L145.5,178.016 M146.5,169.294 L146.5,179.737 M147.5,171.073 L147.5,179.235 M148.5,173.174 L148.5,182.144 M149.5,173.512 L149.5,181.569 M150.5,168.708 L150.5,183.517 M151.5,165.54 L151.5,177.071 M152.5,159.447 L152.5,171.348 M153.5,161.797 L153.5,172.129 M154.5,167.171 L154.5,178.221 M155.5,172.989 L155.5,181.854 M156.5,173.375 L156.5,182.873 M157.5,169.753 L157.5,181.732 M158.5,166.775 L158.5,178.169 M159.5,166.823 L159.5,176.099 M160.5,164.421 L160.5,175.027 M161.5,165.355 L161.5,173.729 M162.5,170.497 L162.5,177.171 M163.5,171.189 L163.5,179.826 M164.5,170.788 L164.5,181.342 M165.5,173.491 L165.5,179.953 M166.5,170.334 L166.5,179.283 M167.5,168.475 L167.5,174.489 M168.5,167.129 L168.5,174.019 M169.5,165.725 L169.5,174.536 M170.5,169.156 L170.5,175.165 M171.5,170.999 L171.5,179.673 M172.5,171.12 L172.5,178.903 M173.5,171.596 L173.5,177.414 M174.5,169.114 L174.5,177.092 M175.5,168.518 L175.5,177.271 M176.5,168.845 L176.5,174.404 M177.5,166.554 L177.5,172.245 M178.5,168.681 L178.5,174.309 M179.5,171.02 L179.5,179.045 M180.5,173.961 L180.5,178.079 M181.5,172.155 L181.5,178.422 M182.5,169.716 L182.5,177.683 M183.5,168.317 L183.5,174.072 M184.5,166.981 L184.5,174.352 M185.5,169.605 L185.5,174.288 M186.5,171.01 L186.5,175.149 M187.5,170.83 L187.5,177.931 M188.5,170.878 L188.5,175.402 M189.5,171.427 L189.5,175.656 M190.5,172.134 L190.5,175.307 M191.5,172.029 L191.5,175.84 M192.5,171.965 L192.5,175.349 M193.5,170.608 L193.5,174.156 M194.5,168.718 L194.5,174.668 M195.5,169.431 L195.5,173.338 M196.5,172.192 L196.5,175.165 M197.5,173.164 L197.5,176.411 M198.5,171.659 L198.5,177.218 M199.5,170.329 L199.5,174.769 M200.5,170.936 L200.5,173.454 M201.5,169.547 L201.5,174.779 M202.5,171.39 L202.5,174.082 M203.5,171.78 L203.5,173.95 M204.5,172.403 L204.5,174.394 M205.5,172.192 L205.5,174.837 M206.5,172.176 L206.5,174.452 M207.5,172.071 L207.5,174.082 M208.5,171.78 L208.5,173.649 M209.5,172.097 L209.5,173.898 M210.5,172.345 L210.5,173.929 M211.5,171.458 L211.5,174.045 M212.5,172.087 L212.5,173.185 M213.5,172.488 L213.5,173.824 M214.5,172.836 L214.5,174.262 M214.5,173.549 L215.5,173.269 L216.5,173.1 M217.5,172.425 L217.5,173.824 M217.5,173.124 L218.5,172.834 L219.5,172.607 L220.5,172.879 L221.5,173.193 L222.5,173.264 L223.5,173.084 L224.5,172.976 L225.5,172.987 L226.5,172.989 L227.5,172.963 L228.5,173.013 M229.5,169.985 L229.5,211.715 M230.5,171.115 L230.5,205.87 M231.5,126.213 L231.5,219.603 M232.5,109.471 L232.5,195.86 M233.5,141.766 L233.5,236.845 M234.5,158.091 L234.5,233.261 M235.5,196.489 L235.5,229.924 M236.5,164.722 L236.5,226.434 M237.5,132.712 L237.5,173.681 M238.5,127.744 L238.5,152.199 M239.5,130.985 L239.5,139.876 M240.5,135.167 L240.5,183.232 M241.5,180.893 L241.5,239.385 M242.5,212.422 L242.5,234.269 M243.5,181.849 L243.5,226.498 M244.5,138.445 L244.5,195.823 M245.5,127.733 L245.5,140.214 M246.5,128.441 L246.5,147.257 M247.5,140.494 L247.5,191.658 M248.5,175.054 L248.5,217.707 M249.5,183.01 L249.5,225.743 M250.5,181.368 L250.5,216.424 M251.5,155.942 L251.5,194.145 M252.5,131.202 L252.5,164.352 M253.5,129.576 L253.5,164.115 M254.5,133.72 L254.5,150.789 M255.5,136.239 L255.5,180.724 M255.5,158.481 L256.5,204.178 L256.5,181.347 L256.5,227.01 L256.5,204.178 M257.5,188.754 L257.5,227.87 M258.5,170.777 L258.5,210.226 M259.5,142.532 L259.5,177.514 M260.5,128.689 L260.5,154.912 M261.5,130.415 L261.5,171.337 M262.5,143.524 L262.5,192.719 M263.5,172.277 L263.5,206.346 M264.5,179.631 L264.5,208.515 M265.5,182.334 L265.5,203.885 M266.5,160.81 L266.5,197.106 M267.5,141.154 L267.5,172.066 M268.5,141.761 L268.5,159.374 M269.5,144.485 L269.5,162.531 M270.5,145.14 L270.5,180.946 M271.5,164.22 L271.5,211.857 M272.5,186.579 L272.5,218.726 M273.5,167.266 L273.5,200.934 M274.5,157.8 L274.5,194.757 M275.5,151.238 L275.5,167.557 M276.5,143.878 L276.5,162.304 M277.5,148.281 L277.5,172.287 M278.5,159.247 L278.5,186.827 M279.5,170.714 L279.5,194.16 M280.5,175.233 L280.5,199.905 M281.5,170.492 L281.5,202.418 M282.5,153.318 L282.5,182.091 M283.5,152.082 L283.5,166.089 M284.5,143.889 L284.5,167.145 M285.5,153.561 L285.5,181.22 M286.5,164.326 L286.5,183.58 M287.5,168.903 L287.5,199.514 M288.5,176.527 L288.5,193.722 M289.5,171.839 L289.5,195 M290.5,166.807 L290.5,183.554 M291.5,156.364 L291.5,176.643 M292.5,153.804 L292.5,166.67 M293.5,155.398 L293.5,171.384 M294.5,160.693 L294.5,180.27 M295.5,167.214 L295.5,189.678 M296.5,180.925 L296.5,194.108 M297.5,168.528 L297.5,195.332 M298.5,155.641 L298.5,183.417 M299.5,152.241 L299.5,168.972 M300.5,154.237 L300.5,168.37 M301.5,154.522 L301.5,181.674 M302.5,162.33 L302.5,185.85 M303.5,172.187 L303.5,184.673 M304.5,165.461 L304.5,186.875 M305.5,172.921 L305.5,186.832 M306.5,169.848 L306.5,183.77 M307.5,161.469 L307.5,178.691 M308.5,160.065 L308.5,174.151 M309.5,158.777 L309.5,170.487 M310.5,160.725 L310.5,178.269 M311.5,170.344 L311.5,188.854 M312.5,173.861 L312.5,188.348 M313.5,173.306 L313.5,188.21 M314.5,168.518 L314.5,182.846 M315.5,162.916 L315.5,174.225 M316.5,160.081 L316.5,170.096 M317.5,164.658 L317.5,175.766 M318.5,167.182 L318.5,177.62 M319.5,169.626 L319.5,181.104 M320.5,171.284 L320.5,179.858 M321.5,173.517 L321.5,180.724 M322.5,172.293 L322.5,183.654 M323.5,168.544 L323.5,180.133 M324.5,165.007 L324.5,177.419 M325.5,160.16 L325.5,172.958 M326.5,162.114 L326.5,173.792 M327.5,168.56 L327.5,178.744 M328.5,173.021 L328.5,182.857 M329.5,171.263 L329.5,181.701 M330.5,168.797 L330.5,180.011 M331.5,167.066 L331.5,175.55 M332.5,166.221 L332.5,174.378 M333.5,163.201 L333.5,174.373 M334.5,168.074 L334.5,174.594 M335.5,172.24 L335.5,180.017 M336.5,171.358 L336.5,179.436 M337.5,170.086 L337.5,181.447 M338.5,170.35 L338.5,179.758 M339.5,169.278 L339.5,179.167 M340.5,168.734 L340.5,173.116 M341.5,164.162 L341.5,173.808 M342.5,167.351 L342.5,174.647 M343.5,169.97 L343.5,176.696 M344.5,170.387 L344.5,178.86 M345.5,171.585 L345.5,178.776 M346.5,171.474 L346.5,177.203 M347.5,171.495 L347.5,176.3 M348.5,169.384 L348.5,177.424 M349.5,168.945 L349.5,174.257 M350.5,166.453 L350.5,172.937 M351.5,168.349 L351.5,174.948 M352.5,171.4 L352.5,178.285 M353.5,172.414 L353.5,178.554 M354.5,171.258 L354.5,177.514 M355.5,168.914 L355.5,175.407 M356.5,168.618 L356.5,172.615 M357.5,167.916 L357.5,174.663 M358.5,171.258 L358.5,175.275 M359.5,170.508 L359.5,178.427 M360.5,171.062 L360.5,176.896 M361.5,170.788 L361.5,175.096 M362.5,171.374 L362.5,175.809 M363.5,171.559 L363.5,175.048 M364.5,172.298 L364.5,176.083 M365.5,170.703 L365.5,174.542 M366.5,168.982 L366.5,173.639 M367.5,169.273 L367.5,173.153 M368.5,170.83 L368.5,174.858 M369.5,172.604 L369.5,176.305 M370.5,172.931 L370.5,176.78 M371.5,171.448 L371.5,175.497 M372.5,170.244 L372.5,174.642 M373.5,171.3 L373.5,174.024 M374.5,170.529 L374.5,174.584 M375.5,171.363 L375.5,174.547 M376.5,171.844 L376.5,174.278 M377.5,172.351 L377.5,174.42 M378.5,172.139 L378.5,174.352 M379.5,172.134 L379.5,174.911 M379.5,173.523 L380.5,173.137 M381.5,171.865 L381.5,173.929 M382.5,171.59 L382.5,173.839 M383.5,172.161 L383.5,173.824 M384.5,171.479 L384.5,174.362 M385.5,171.997 L385.5,173.824 M386.5,172.741 L386.5,174.114 M387.5,172.403 L387.5,173.913 M387.5,173.158 L388.5,173.267 L389.5,172.982 M390.5,172.425 L390.5,173.623 M390.5,173.024 L391.5,172.704 L392.5,172.678 L393.5,173.061 L394.5,173.235 L395.5,173.095 L396.5,173.084 L397.5,172.989 L398.5,172.976 M399.5,172.836 L399.5,177.377 M400.5,137.199 L400.5,189.942 M401.5,119.592 L401.5,232.057 M402.5,152.7 L402.5,186.22 M403.5,127.411 L403.5,153.318 M404.5,127.844 L404.5,140.969 M405.5,140.541 L405.5,160.614 M406.5,160.736 L406.5,218.372 M407.5,187.777 L407.5,232.427 M408.5,214.624 L408.5,223.515 M409.5,206.995 L409.5,222.311 M410.5,187.397 L410.5,207.132 M411.5,162.605 L411.5,187.498 M412.5,139.116 L412.5,163.001 M413.5,115.442 L413.5,139.369 M414.5,112.148 L414.5,116.715 M415.5,112.317 L415.5,121.445 M415.5,116.881 L416.5,134.396 L416.5,122.686 L416.5,146.106 L416.5,134.396 L417.5,159.186 L417.5,147.468 L417.5,170.904 L417.5,159.186 L418.5,183.034 L418.5,172.277 L418.5,193.791 L418.5,183.034 L419.5,206.66 L419.5,195.412 L419.5,217.908 L419.5,206.66 L420.5,227.707 L420.5,218.753 L420.5,236.661 L420.5,227.707 L421.5,238.274 L421.5,237.321 L421.5,239.227 L421.5,238.274 M422.5,230.742 L422.5,239.258 M422.5,235 L423.5,219.782 L423.5,209.883 L423.5,229.681 L423.5,219.782 M424.5,187.608 L424.5,209.841 M425.5,166.084 L425.5,187.608 M426.5,148.461 L426.5,166.147 M427.5,134.475 L427.5,148.492 M428.5,126.091 L428.5,134.454 M429.5,124.787 L429.5,126.049 M430.5,125.912 L430.5,131.286 M431.5,131.265 L431.5,140.351 M432.5,140.362 L432.5,153.455 M433.5,153.471 L433.5,166.675 M434.5,166.67 L434.5,178.148 M435.5,178.148 L435.5,187.572 M435.5,182.86 L436.5,191.412 L436.5,188.158 L436.5,194.667 L436.5,191.412 M437.5,194.942 L437.5,198.173 M437.5,196.557 L438.5,198.389 L439.5,198.571 M440.5,198.78 L440.5,200.322 M441.5,200.427 L441.5,202.634 M442.5,202.771 L442.5,203.975 M443.5,201.578 L443.5,203.97 M444.5,194.335 L444.5,201.557 M445.5,183.908 L445.5,194.34 M446.5,171.226 L446.5,183.923 M447.5,158.481 L447.5,171.226 M448.5,146.623 L448.5,158.46 M449.5,136.075 L449.5,146.576 M450.5,128.288 L450.5,136.054 M451.5,125.769 L451.5,128.303 M452.5,125.949 L452.5,129.787 M453.5,129.787 L453.5,139.158 M454.5,139.1 L454.5,153.001 M455.5,152.985 L455.5,168.027 M455.5,160.506 L456.5,176.165 L456.5,168.977 L456.5,183.353 L456.5,176.165 L457.5,190.082 L457.5,184.187 L457.5,195.977 L457.5,190.082 L458.5,200.242 L458.5,196.563 L458.5,203.922 L458.5,200.242 M459.5,204.281 L459.5,207.185 M460.5,205.791 L460.5,207.254 M461.5,200.628 L461.5,205.643 M462.5,192.994 L462.5,200.242 M463.5,184.282 L463.5,192.545 M464.5,175.487 L464.5,184.282 M465.5,167.826 L465.5,175.503 M466.5,162.129 L466.5,167.831 M467.5,159.157 L467.5,162.145 M467.5,160.651 L468.5,158.856 M469.5,158.671 L469.5,160.092 M470.5,160.113 L470.5,162.774 M471.5,162.768 L471.5,166.073 M472.5,166.063 L472.5,169.32 M473.5,169.299 L473.5,172.05 M474.5,172.013 L474.5,174.209 M474.5,173.111 L475.5,174.708 L476.5,175.202 L477.5,174.703 L478.5,173.76 L479.5,172.791 L480.5,171.891 L481.5,171.371 L482.5,171.421 L483.5,171.968 M484.5,172.271 L484.5,173.412 M485.5,173.407 L485.5,174.436 M485.5,173.921 L486.5,174.885 L487.5,175.547 L488.5,175.803 L489.5,175.468 L490.5,174.927 L491.5,174.41 L492.5,173.932 L493.5,173.652 L494.5,173.385 L495.5,172.958 L496.5,172.498 L497.5,172.058 L498.5,171.688 L499.5,171.363 L500.5,171.102 L501.5,170.92 L502.5,171.02 L503.5,171.292 L504.5,171.691 L505.5,172.171 L506.5,172.712 L507.5,173.203 L508.5,173.626 L509.5,173.847 L510.5,174.056 L511.5,174.122 L512.5,174.061 L513.5,174.016 L514.5,173.766 L515.5,173.541 L516.5,173.317 L517.5,173.09 L518.5,173.087 L519.5,173.077 L520.5,173.069 L521.5,173.069 L522.5,173.063 L523.5,172.979 L524.5,173.055 L525.5,173.048 L526.5,173.045 L527.5,173.037 L528.5,173.032 L529.5,173.032 L530.5,173.026 L531.5,173.026 L532.5,173.018 L533.5,173.018 L534.5,173.008 L535.5,173.008 L536.5,173.005 L537.5,173.003 L538.5,173.003 L539.5,173 L540.5,172.995 L541.5,172.995 L542.5,172.992 L543.5,172.989 L544.5,172.987 L545.5,172.987 L546.5,172.984 L547.5,172.982 L548.5,172.974 L549.5,172.976 L550.5,172.976 L551.5,172.974 L552.5,172.968 L553.5,172.968 L554.5,172.974 L555.5,172.974 L556.5,172.968 L557.5,172.968 L558.5,172.96 L559.5,172.96 L560.5,172.963 L561.5,172.963 L562.5,172.963 L563.5,172.955 L564.5,172.963 L565.5,172.96 L566.5,172.974 L567.5,172.955 L568.5,172.958 L569.5,172.942 M570.5,172.018 L570.5,199.091 M571.5,145.071 L571.5,202.185 M572.5,125.6 L572.5,180.001 M573.5,128.552 L573.5,199.883 M574.5,161.96 L574.5,217.665 M575.5,141.698 L575.5,213.388 M576.5,144.411 L576.5,209.624 M577.5,131.096 L577.5,181.875 M578.5,131.418 L578.5,198.991 M579.5,155.192 L579.5,215.601 M580.5,203.458 L580.5,222.036 M581.5,131.519 L581.5,205.253 M582.5,129.475 L582.5,173.158 M583.5,142.796 L583.5,170.661 M584.5,160.514 L584.5,198.273 M585.5,185.132 L585.5,201.293 M586.5,183.76 L586.5,223.61 M587.5,137.485 L587.5,185.761 M588.5,144.015 L588.5,159.104 M589.5,152.061 L589.5,189.773 M590.5,189.435 L590.5,204.894 M591.5,180.307 L591.5,192.186 M592.5,167.251 L592.5,209.497 M593.5,142.072 L593.5,167.361 M594.5,141.339 L594.5,157.478 M595.5,156.554 L595.5,190.903 M596.5,190.639 L596.5,204.619 M597.5,182.398 L597.5,193.062 M598.5,169.357 L598.5,183.475 M598.5,176.416 L599.5,155.673 L599.5,144.543 L599.5,166.802 L599.5,155.673 M600.5,142.067 L600.5,153.862 M600.5,147.964 L601.5,172.894 L601.5,154.374 L601.5,191.415 L601.5,172.894 M602.5,189.235 L602.5,203.547 M603.5,180.94 L603.5,202.043 M604.5,157.689 L604.5,181.426 M605.5,150.419 L605.5,159.791 M606.5,141.888 L606.5,161.596 M607.5,156.908 L607.5,183.036 M608.5,183.142 L608.5,202.101 M609.5,188.464 L609.5,204.382 M610.5,158.793 L610.5,189.066 M611.5,151.027 L611.5,158.724 M612.5,149.453 L612.5,163.402 M613.5,163.402 L613.5,179.14 M614.5,172.266 L614.5,189.72 M615.5,150.055 L615.5,201.536 M616.5,123.504 L616.5,182.218 M617.5,134.649 L617.5,198.358 M618.5,167.562 L618.5,219.645 M619.5,142.294 L619.5,214.518 M620.5,142.453 L620.5,211.356 M621.5,131.387 L621.5,183.506 M622.5,131.223 L622.5,207.681 M623.5,161.301 L623.5,216.794 M624.5,199.831 L624.5,223.446 M625.5,127.269 L625.5,212.892 M626.5,127.205 L626.5,171.791 M627.5,144.116 L627.5,167.61 M628.5,158.576 L628.5,198.68 M629.5,185.924 L629.5,201.758 M630.5,185.534 L630.5,223.008 M631.5,137.31 L631.5,185.697 M632.5,143.741 L632.5,159.769 M633.5,152.452 L633.5,186.326 M634.5,179.124 L634.5,205.11 M635.5,179.869 L635.5,194.694 M636.5,176.939 L636.5,209.387 M636.5,193.163 L637.5,155.918 L637.5,141.339 L637.5,170.497 L637.5,155.918 M638.5,141.803 L638.5,155.651 M638.5,148.727 L639.5,174.151 L639.5,156.95 L639.5,191.352 L639.5,174.151 M640.5,190.797 L640.5,205.147 M641.5,183.818 L641.5,193.875 M642.5,169.684 L642.5,184.399 M643.5,143.846 L643.5,169.901 M644.5,141.766 L644.5,153.302 M645.5,152.711 L645.5,191.368 M646.5,189.229 L646.5,204.144 M647.5,181.991 L647.5,201.541 M648.5,159.574 L648.5,181.732 M649.5,150.53 L649.5,159.907 M650.5,141.972 L650.5,161.459 M651.5,156.158 L651.5,181.949 M652.5,181.875 L652.5,202.064 M653.5,190.475 L653.5,205.274 M654.5,160.973 L654.5,190.169 M654.5,175.571 L655.5,155.548 L655.5,151.153 L655.5,159.944 L655.5,155.548 M656.5,149.21 L656.5,161.306 M656.5,155.258 L657.5,171.609 L657.5,162.494 L657.5,180.724 L657.5,171.609 M658.5,179.008 L658.5,190.465 M658.5,184.736 L659.5,197.521 L659.5,192.698 L659.5,202.344 L659.5,197.521 M660.5,161.279 L660.5,193.506 M661.5,148.55 L661.5,161.601 M662.5,150.615 L662.5,158.059 M663.5,155.013 L663.5,175.629 M664.5,175.619 L664.5,192.582 M665.5,188.928 L665.5,196.098 M666.5,172.44 L666.5,189.06 M667.5,155.329 L667.5,172.409 M668.5,153.323 L668.5,158.851 M669.5,152.415 L669.5,168.491 M670.5,168.343 L670.5,191.135 M671.5,190.982 L671.5,193.062 M672.5,180.106 L672.5,191.6 M672.5,185.853 L673.5,170.392 L673.5,161.617 L673.5,179.167 L673.5,170.392 M674.5,155.789 L674.5,161.29 M675.5,154.009 L675.5,159.833 M676.5,159.738 L676.5,181.057 M676.5,170.397 L677.5,186.98 L677.5,183.406 L677.5,190.554 L677.5,186.98 M678.5,187.825 L678.5,192.381 M678.5,190.103 L679.5,177.794 L679.5,168.486 L679.5,187.102 L679.5,177.794 L680.5,160.638 L680.5,153.614 L680.5,167.662 L680.5,160.638 M681.5,152.299 L681.5,157.584 M682.5,157.552 L682.5,170.941 M683.5,170.899 L683.5,183.966 M684.5,183.992 L684.5,192.186 M684.5,188.089"/>
</g>

<g fill="none" stroke="#0000c0" stroke-opacity="1" stroke-width="1" stroke-linecap="square" stroke-linejoin="bevel" transform="matrix(1,0,0,1,0,0)"
font-family="Segoe UI" font-size="9" font-weight="400" font-style="normal" 
>
<path vector-effect="non-scaling-stroke" fill-rule="evenodd" d="M57.5,175.922 L57.5,173.377 M58.5,180.858 L58.5,165.142 M59.5,169.915 L59.5,150.993 M60.5,193.396 L60.5,152.604 M61.5,199.511 L61.5,146.489 M62.5,207.132 L62.5,154.672 M63.5,205.176 L63.5,154.698 M64.5,187.817 L64.5,158.183 M65.5,156.906 L65.5,136.458 M66.5,159.583 L66.5,136.81 M67.5,173.848 L67.5,140.374 M68.5,197.804 L68.5,148.196 M69.5,228.976 L69.5,197.858 M70.5,213.13 L70.5,185.752 M71.5,191.333 L71.5,158.457 M72.5,185.299 L72.5,142.482 M73.5,153.912 L73.5,128.148 M74.5,169.181 L74.5,148.607 M75.5,187.366 L75.5,161.604 M76.5,203.471 L76.5,175.462 M77.5,209.706 L77.5,192.621 M78.5,186.615 L78.5,168.404 M79.5,185.505 L79.5,154.481 M80.5,178.124 L80.5,143.87 M81.5,164.989 L81.5,146.889 M82.5,165.855 L82.5,145.762 M83.5,193.036 L83.5,154.429 M84.5,217.878 L84.5,200.319 M85.5,196.887 L85.5,172.453 M86.5,180.883 L86.5,165.117 M87.5,166.245 L87.5,144.452 M88.5,151.23 L88.5,136.074 M89.5,178.135 L89.5,158.606 M90.5,185.567 L90.5,164.354 M91.5,194.144 L91.5,169.607 M92.5,195.408 L92.5,175.8 M93.5,190.558 L93.5,171.952 M94.5,179.117 L94.5,160.764 M95.5,164.82 L95.5,149.303 M96.5,170.131 L96.5,152.385 M97.5,179.36 L97.5,156.339 M98.5,185.626 L98.5,160.374 M99.5,201.727 L99.5,178.862 M100.5,196.483 L100.5,182.025 M101.5,181.028 L101.5,164.972 M102.5,172.306 L102.5,161.086 M103.5,164.408 L103.5,154.59 M104.5,163.6 L104.5,155.216 M105.5,180.386 L105.5,165.614 M106.5,182.358 L106.5,170.331 M107.5,186.26 L107.5,172.564 M108.5,192.989 L108.5,184.422 M109.5,181.025 L109.5,164.975 M110.5,172.496 L110.5,161.844 M111.5,167.808 L111.5,154.158 M112.5,172.876 L112.5,157.184 M113.5,180.317 L113.5,165.683 M114.5,181.632 L114.5,173.757 M115.5,186.918 L115.5,169.365 M116.5,185.446 L116.5,171.497 M117.5,178.826 L117.5,168.314 M118.5,173.03 L118.5,166.513 M119.5,170.992 L119.5,159.829 M120.5,171.873 L120.5,162.523 M121.5,179.643 L121.5,166.357 M122.5,179.295 L122.5,167.517 M123.5,183.878 L123.5,177.469 M124.5,186.99 L124.5,171.577 M125.5,180.153 L125.5,165.991 M126.5,176.503 L126.5,165.645 M127.5,169.022 L127.5,159.902 M128.5,171.926 L128.5,164.094 M129.5,178.155 L129.5,167.845 M130.5,177.734 L130.5,172.247 M131.5,179.376 L131.5,166.624 M132.5,180.375 L132.5,171.761 M133.5,179.473 L133.5,171.413 M134.5,176.539 L134.5,169.461 M135.5,171.636 L135.5,165.263 M136.5,171.356 L136.5,163.668 M137.5,177.913 L137.5,166.358 M138.5,176.851 L138.5,169.391 M139.5,182.817 L139.5,170.88 M140.5,181.457 L140.5,173.44 M141.5,177.681 L141.5,170.816 M142.5,176.071 L142.5,169.517 M143.5,170.179 L143.5,165.381 M144.5,172.201 L144.5,166.01 M145.5,176.506 L145.5,169.494 M146.5,176.449 L146.5,170.294 M147.5,176.514 L147.5,172.073 M148.5,176.684 L148.5,174.174 M149.5,177.635 L149.5,174.512 M150.5,176.729 L150.5,169.708 M151.5,176.071 L151.5,169.344 M152.5,170.348 L152.5,165.729 M153.5,171.129 L153.5,167.6 M154.5,175.495 L154.5,170.505 M155.5,177.717 L155.5,173.989 M156.5,178.836 L156.5,174.375 M157.5,177.295 L157.5,170.753 M158.5,175.207 L158.5,170.793 M159.5,175.099 L159.5,169.832 M160.5,174.027 L160.5,168.519 M161.5,172.729 L161.5,169.104 M162.5,174.857 L162.5,171.497 M163.5,176.081 L163.5,172.189 M164.5,176.847 L164.5,171.788 M165.5,176.233 L165.5,174.491 M166.5,175.588 L166.5,171.334 M167.5,173.489 L167.5,170.778 M168.5,173.019 L168.5,169.661 M169.5,173.536 L169.5,170.113 M170.5,174.165 L170.5,171.065 M171.5,175.271 L171.5,171.999 M172.5,175.766 L172.5,172.12 M173.5,175.635 L173.5,172.596 M174.5,174.991 L174.5,171.009 M175.5,175.189 L175.5,170.811 M176.5,173.404 L176.5,171.012 M177.5,171.245 L177.5,169.147 M178.5,173.309 L178.5,170.669 M179.5,175.027 L179.5,172.02 M180.5,176.317 L180.5,174.961 M181.5,175.8 L181.5,173.155 M182.5,175.195 L182.5,170.805 M183.5,173.072 L183.5,170.41 M184.5,173.352 L184.5,170.643 M185.5,173.288 L185.5,171.653 M186.5,174.149 L186.5,172.01 M187.5,174.693 L187.5,171.83 M188.5,174.393 L188.5,171.878 M189.5,174.388 L189.5,172.427 M190.5,174.307 L190.5,173.134 M191.5,174.514 L191.5,173.029 M192.5,174.183 L192.5,172.965 M193.5,173.156 L193.5,171.608 M194.5,173.668 L194.5,170.819 M195.5,172.338 L195.5,171.263 M197.5,175.226 L197.5,174.164 M198.5,174.949 L198.5,172.659 M199.5,173.769 L199.5,171.644 M201.5,173.779 L201.5,171.684 M229.5,175.95 L229.5,170.985 M230.5,187.773 L230.5,172.115 M231.5,200.493 L231.5,145.507 M232.5,194.86 L232.5,145.187 M233.5,192.451 L233.5,153.549 M234.5,193.168 L234.5,159.091 M235.5,215.992 L235.5,197.489 M236.5,190.807 L236.5,165.722 M237.5,172.681 L237.5,150.374 M238.5,151.199 L238.5,133.418 M239.5,138.876 L239.5,133.455 M240.5,182.232 L240.5,152.078 M241.5,211.406 L241.5,181.893 M242.5,227.51 L242.5,213.422 M243.5,206.753 L243.5,182.849 M244.5,184.924 L244.5,161.076 M245.5,139.214 L245.5,131.126 M246.5,146.257 L246.5,131.21 M247.5,185.849 L247.5,160.151 M248.5,195.41 L248.5,176.054 M249.5,206.781 L249.5,184.01 M250.5,201.274 L250.5,182.368 M251.5,181.309 L251.5,164.691 M252.5,163.352 L252.5,147.526 M253.5,163.115 L253.5,146.783 M254.5,149.789 L254.5,142.643 M255.5,179.724 L255.5,157.051 M256.5,203.36 L256.5,182.347 M257.5,214.667 L257.5,189.754 M258.5,187.09 L258.5,171.777 M259.5,176.514 L259.5,161.478 M260.5,153.912 L260.5,139.187 M261.5,170.337 L261.5,142.549 M262.5,183.116 L262.5,162.884 M263.5,189.686 L263.5,173.277 M264.5,193.857 L264.5,180.631 M265.5,196.149 L265.5,183.334 M266.5,184.141 L266.5,161.859 M267.5,171.066 L267.5,155.272 M268.5,158.374 L268.5,149.914 M269.5,161.531 L269.5,152.614 M270.5,179.946 L270.5,160.829 M271.5,191.896 L271.5,165.22 M272.5,204.567 L272.5,187.579 M273.5,188.311 L273.5,168.266 M274.5,180.175 L274.5,165.825 M275.5,166.557 L275.5,158.844 M276.5,161.304 L276.5,153.135 M277.5,171.287 L277.5,159.043 M278.5,179.684 L278.5,166.316 M279.5,183.879 L279.5,171.714 M280.5,190.289 L280.5,176.233 M281.5,191.141 L281.5,171.492 M282.5,179.894 L282.5,166.106 M283.5,165.089 L283.5,158.334 M284.5,166.145 L284.5,155.099 M285.5,180.22 L285.5,162.432 M286.5,178.643 L286.5,167.357 M287.5,185.632 L287.5,169.903 M288.5,186.906 L288.5,177.527 M289.5,181.936 L289.5,172.839 M290.5,176.611 L290.5,169.389 M291.5,175.643 L291.5,164.728 M292.5,165.67 L292.5,159.792 M293.5,170.384 L293.5,163.945 M294.5,176.863 L294.5,169.137 M295.5,180.608 L295.5,168.214 M296.5,186.758 L296.5,181.925 M297.5,183.928 L297.5,169.528 M298.5,178.255 L298.5,167.745 M299.5,167.972 L299.5,162.139 M300.5,167.37 L300.5,161.167 M301.5,179.466 L301.5,166.534 M302.5,177.141 L302.5,168.859 M303.5,178.526 L303.5,173.187 M304.5,179.959 L304.5,166.461 M305.5,180.913 L305.5,173.921 M306.5,177.832 L306.5,170.848 M307.5,177.563 L307.5,168.437 M308.5,173.151 L308.5,164.404 M309.5,169.487 L309.5,164.536 M310.5,177.269 L310.5,167.627 M311.5,178.077 L311.5,171.344 M312.5,183.225 L312.5,174.861 M313.5,179.703 L313.5,174.306 M314.5,176.502 L314.5,169.518 M315.5,173.225 L315.5,167.729 M316.5,169.096 L316.5,165.12 M317.5,174.766 L317.5,167.447 M318.5,175.597 L318.5,170.403 M319.5,176.869 L319.5,170.626 M320.5,176.619 L320.5,172.284 M321.5,177.023 L321.5,174.517 M322.5,177.947 L322.5,173.293 M323.5,175.572 L323.5,170.428 M324.5,176.419 L324.5,168.267 M325.5,171.958 L325.5,166.908 M326.5,172.792 L326.5,168.652 M327.5,175.674 L327.5,170.326 M328.5,178.256 L328.5,174.021 M329.5,178.336 L329.5,172.263 M330.5,176.354 L330.5,169.797 M331.5,174.55 L331.5,171.068 M332.5,173.378 L332.5,169.181 M333.5,173.373 L333.5,168.193 M334.5,173.594 L334.5,169.89 M335.5,175.284 L335.5,173.24 M336.5,176.216 L336.5,172.358 M337.5,176.22 L337.5,171.086 M338.5,176.153 L338.5,171.35 M339.5,175.599 L339.5,170.401 M340.5,172.116 L340.5,170.553 M341.5,172.808 L341.5,169.713 M342.5,173.647 L342.5,170.84 M343.5,175.012 L343.5,170.988 M344.5,175.548 L344.5,171.387 M345.5,175.914 L345.5,172.585 M346.5,175.255 L346.5,172.474 M347.5,174.807 L347.5,172.495 M348.5,175.314 L348.5,170.686 M349.5,173.257 L349.5,170.421 M350.5,171.937 L350.5,169.467 M351.5,173.948 L351.5,171.066 M352.5,175.634 L352.5,172.4 M353.5,176.653 L353.5,173.414 M354.5,175.573 L354.5,172.258 M355.5,174.407 L355.5,171.083 M356.5,171.615 L356.5,170.292 M357.5,173.663 L357.5,171.005 M358.5,174.275 L358.5,172.258 M359.5,174.672 L359.5,171.508 M360.5,174.372 L360.5,172.062 M361.5,174.096 L361.5,171.788 M362.5,174.339 L362.5,172.374 M363.5,174.048 L363.5,172.559 M364.5,174.497 L364.5,173.298 M365.5,173.542 L365.5,171.856 M366.5,172.639 L366.5,171.209 M367.5,172.153 L367.5,170.841 M368.5,173.858 L368.5,171.83 M369.5,174.859 L369.5,173.604 M370.5,175.321 L370.5,173.931 M371.5,174.474 L371.5,172.448 M372.5,173.642 L372.5,171.472 M374.5,173.584 L374.5,171.793 M375.5,173.547 L375.5,172.363 M399.5,174.962 L399.5,173.836 M400.5,181.655 L400.5,164.345 M401.5,199.871 L401.5,146.129 M402.5,182.131 L402.5,163.869 M403.5,152.318 L403.5,137.357 M404.5,139.969 L404.5,136.365 M405.5,159.614 L405.5,149.263 M406.5,187.516 L406.5,161.736 M407.5,212.166 L407.5,188.777 M408.5,221.83 L408.5,215.624 M409.5,215.114 L409.5,207.995 M410.5,198.027 L410.5,188.397 M411.5,179.903 L411.5,166.097 M412.5,162.001 L412.5,149.983 M413.5,138.369 L413.5,125.388 M414.5,115.715 L414.5,113.985 M415.5,120.445 L415.5,114.951 M416.5,145.106 L416.5,134.906 M417.5,169.904 L417.5,158.415 M418.5,183.736 L418.5,173.277 M419.5,207.475 L419.5,196.412 M420.5,229.494 L420.5,219.753 M422.5,236.625 L422.5,231.742 M423.5,220.182 L423.5,210.883 M424.5,199.295 L424.5,188.608 M425.5,179.442 L425.5,167.084 M426.5,165.147 L426.5,156.03 M427.5,147.492 L427.5,140.598 M428.5,133.454 L428.5,129.537 M430.5,130.286 L430.5,127.758 M431.5,139.351 L431.5,135.114 M432.5,152.455 L432.5,146.458 M433.5,165.675 L433.5,159.368 M434.5,176.337 L434.5,169.663 M435.5,183.241 L435.5,179.148 M436.5,192.087 L436.5,189.158 M437.5,197.173 L437.5,195.942 M444.5,198.72 L444.5,195.335 M445.5,189.663 L445.5,184.908 M446.5,178.314 L446.5,172.226 M447.5,170.226 L447.5,164.302 M448.5,157.46 L448.5,151.879 M449.5,145.576 L449.5,140.665 M450.5,135.054 L450.5,131.405 M452.5,128.787 L452.5,126.949 M453.5,138.158 L453.5,133.39 M454.5,152.001 L454.5,145.143 M455.5,167.027 L455.5,160.121 M456.5,178.136 L456.5,169.977 M457.5,190.931 L457.5,185.187 M458.5,201.084 L458.5,197.563 M461.5,203.908 L461.5,201.628 M462.5,197.329 L462.5,193.994 M463.5,189.054 L463.5,185.282 M464.5,180.257 L464.5,176.487 M465.5,174.503 L465.5,170.273 M466.5,166.831 L466.5,164.287 M471.5,165.073 L471.5,163.848 M472.5,168.32 L472.5,167.179 M570.5,176.631 L570.5,173.018 M571.5,188.611 L571.5,157.389 M572.5,179.001 L572.5,146.762 M573.5,190.988 L573.5,155.012 M574.5,194.879 L574.5,162.96 M575.5,191.741 L575.5,154.259 M576.5,187.132 L576.5,158.868 M577.5,180.875 L577.5,149.559 M578.5,194.428 L578.5,151.572 M579.5,190.363 L579.5,156.192 M580.5,214.484 L580.5,204.458 M581.5,199.102 L581.5,146.898 M582.5,172.158 L582.5,155.392 M583.5,169.661 L583.5,154.376 M584.5,183.637 L584.5,162.363 M585.5,191.627 L585.5,186.132 M586.5,206.597 L586.5,184.76 M587.5,184.761 L587.5,145.592 M588.5,158.104 L588.5,151.492 M589.5,185.773 L589.5,160.227 M590.5,196.769 L590.5,190.435 M591.5,186.511 L591.5,181.307 M592.5,192.807 L592.5,168.251 M593.5,166.361 L593.5,150.921 M594.5,156.478 L594.5,146.195 M595.5,183.816 L595.5,162.184 M596.5,199.641 L596.5,191.639 M597.5,187.899 L597.5,183.398 M598.5,180.5 L598.5,170.357 M599.5,165.802 L599.5,152.725 M600.5,152.862 L600.5,146.947 M601.5,185.305 L601.5,160.695 M602.5,198.262 L602.5,190.235 M603.5,192.376 L603.5,181.94 M604.5,179.21 L604.5,166.79 M605.5,158.791 L605.5,154.988 M606.5,160.596 L606.5,152.582 M607.5,180.749 L607.5,165.251 M608.5,194.235 L608.5,184.142 M609.5,199.182 L609.5,189.464 M610.5,182.834 L610.5,163.166 M611.5,157.724 L611.5,153.502 M612.5,162.402 L612.5,154.621 M613.5,178.14 L613.5,166.619 M614.5,178.77 L614.5,173.266 M615.5,189.379 L615.5,156.621 M616.5,181.218 L616.5,146.409 M617.5,191.089 L617.5,154.911 M618.5,195.289 L618.5,168.562 M619.5,191.433 L619.5,154.567 M620.5,187.724 L620.5,158.276 M621.5,182.506 L621.5,151.598 M622.5,195.869 L622.5,150.131 M623.5,188.326 L623.5,162.301 M624.5,214.515 L624.5,200.831 M625.5,199.717 L625.5,146.283 M626.5,170.791 L626.5,154.25 M627.5,166.61 L627.5,153.888 M628.5,183.378 L628.5,162.622 M629.5,191.507 L629.5,186.924 M630.5,207.319 L630.5,186.534 M631.5,184.697 L631.5,146.36 M632.5,158.769 L632.5,150.949 M633.5,185.326 L633.5,159.882 M634.5,196.47 L634.5,180.124 M635.5,186.675 L635.5,180.869 M636.5,193.667 L636.5,177.939 M637.5,169.497 L637.5,152.102 M638.5,154.651 L638.5,145.69 M639.5,183.903 L639.5,162.097 M640.5,199.36 L640.5,191.797 M641.5,188.381 L641.5,184.818 M642.5,180.899 L642.5,170.684 M643.5,168.901 L643.5,153.645 M644.5,152.302 L644.5,146.82 M645.5,185.364 L645.5,160.636 M646.5,197.685 L646.5,190.229 M647.5,193.313 L647.5,182.991 M648.5,178.858 L648.5,167.142 M649.5,158.907 L649.5,155.342 M650.5,160.459 L650.5,152.561 M651.5,180.949 L651.5,164.907 M652.5,193.518 L652.5,182.875 M653.5,199.74 L653.5,191.475 M654.5,182.875 L654.5,163.125 M655.5,158.944 L655.5,153.926 M656.5,160.306 L656.5,154.025 M657.5,179.724 L657.5,166.042 M658.5,187.232 L658.5,180.008 M659.5,197.026 L659.5,193.698 M660.5,182.637 L660.5,163.363 M661.5,160.601 L661.5,154.419 M662.5,157.059 L662.5,153.572 M663.5,174.629 L663.5,163.424 M664.5,187.098 L664.5,176.619 M665.5,193.634 L665.5,189.928 M666.5,182.463 L666.5,173.44 M667.5,171.409 L667.5,159.939 M668.5,157.851 L668.5,155.871 M669.5,167.491 L669.5,157.869 M670.5,181.75 L670.5,169.343 M672.5,187.767 L672.5,181.106 M673.5,178.167 L673.5,165.809 M674.5,160.29 L674.5,157.331 M675.5,158.833 L675.5,155.402 M676.5,180.057 L676.5,165.856 M677.5,188.671 L677.5,184.406 M678.5,190.828 L678.5,188.825 M679.5,180.213 L679.5,169.486 M680.5,166.662 L680.5,160.863 M681.5,156.584 L681.5,153.924 M682.5,169.941 L682.5,163.68 M683.5,180.815 L683.5,171.899 M684.5,189.494 L684.5,184.992"/>
</g>

<g fill="none" stroke="#000080" stroke-opacity="1" stroke-width="1" stroke-linecap="square" stroke-linejoin="bevel" transform="matrix(1,0,0,1,0,0)"
font-family="Segoe UI" font-size="9" font-weight="400" font-style="normal" 
>
</g>

<g fill="none" stroke="#000000" stroke-opacity="1" stroke-width="1" stroke-linecap="square" stroke-linejoin="bevel" transform="matrix(1,0,0,1,0,0)"
font-family="Segoe UI" font-size="9" font-weight="400" font-style="normal" 
>
</g>

<g fill="#ffffff" fill-opacity="1" stroke="#ffffff" stroke-opacity="1" stroke-width="1" stroke-linecap="square" stroke-linejoin="bevel" transform="matrix(1,0,0,1,0,0)"
font-family="Segoe UI" font-size="9" font-weight="400" font-style="normal" 
>
<rect x="684" y="0" width="684" height="346"/>
</g>

<g fill="none" stroke="#000000" stroke-opacity="1" stroke-width="1" stroke-linecap="square" stroke-linejoin="bevel" transform="matrix(1,0,0,1,0,0)"
font-family="Segoe UI" font-size="9" font-weight="400" font-style="normal" 
>
</g>

<g fill="none" stroke="#0000c0" stroke-opacity="1" stroke-width="1" stroke-linecap="square" stroke-linejoin="bevel" transform="matrix(1,0,0,1,684,0)"
font-family="Segoe UI" font-size="9" font-weight="400" font-style="normal" 
>
<polyline fill="none" vector-effect="non-scaling-stroke" points="0,173.5 684,173.5 " />
</g>

<g fill="none" stroke="#000080" stroke-opacity="1" stroke-width="1" stroke-linecap="square" stroke-linejoin="bevel" transform="matrix(1,0,0,1,684,0)"
font-family="Segoe UI" font-size="9" font-weight="400" font-style="normal" 
>
<path vector-effect="non-scaling-stroke" fill-rule="evenodd" d="M0.5,183.992 L0.5,192.186 M1.5,180.222 L1.5,191.536 M2.5,163.66 L2.5,180.212 M3.5,154.559 L3.5,163.502 M4.5,150.71 L4.5,162.805 M5.5,162.784 L5.5,181.79 M6.5,181.727 L6.5,186.093 M6.5,183.91 L7.5,185.544"/>
</g>

<g fill="none" stroke="#0000c0" stroke-opacity="1" stroke-width="1" stroke-linecap="square" stroke-linejoin="bevel" transform="matrix(1,0,0,1,684,0)"
font-family="Segoe UI" font-size="9" font-weight="400" font-style="normal" 
>
<path vector-effect="non-scaling-stroke" fill-rule="evenodd" d="M0.5,189.494 L0.5,184.992 M1.5,186.836 L1.5,181.222 M2.5,177.9 L2.5,168.1 M3.5,162.502 L3.5,156.664 M4.5,161.805 L4.5,154.306 M5.5,178.878 L5.5,167.122 M6.5,185.093 L6.5,182.727"/>
</g>

<g fill="none" stroke="#000080" stroke-opacity="1" stroke-width="1" stroke-linecap="square" stroke-linejoin="bevel" transform="matrix(1,0,0,1,684,0)"
font-family="Segoe UI" font-size="9" font-weight="400" font-style="normal" 
>
</g>

<g fill="none" stroke="#000000" stroke-opacity="1" stroke-width="1" stroke-linecap="square" stroke-linejoin="bevel" transform="matrix(1,0,0,1,0,0)"
font-family="Segoe UI" font-size="9" font-weight="400" font-style="normal" 
>
</g>
</g>
</svg>
