<?xml version="1.0" encoding="UTF-8" standalone="no"?>
<svg width="243.769mm" height="122.061mm"
 viewBox="0 0 691 346"
 xmlns="http://www.w3.org/2000/svg" xmlns:xlink="http://www.w3.org/1999/xlink" version="1.2" baseProfile="tiny">
<title>Exported image from Sonic Visualiser</title>
<desc>Generated with Qt</desc>
<defs>
</defs>
<g fill="none" stroke="black" stroke-width="1" fill-rule="evenodd" stroke-linecap="square" stroke-linejoin="bevel" >

<g fill="#ffffff" fill-opacity="1" stroke="#ffffff" stroke-opacity="1" stroke-width="1" stroke-linecap="square" stroke-linejoin="bevel" transform="matrix(1,0,0,1,0,0)"
font-family="Segoe UI" font-size="9" font-weight="400" font-style="normal" 
>
<rect x="0" y="0" width="684" height="346"/>
</g>

<g fill="none" stroke="#000000" stroke-opacity="1" stroke-width="1" stroke-linecap="square" stroke-linejoin="bevel" transform="matrix(1,0,0,1,0,0)"
font-family="Segoe UI" font-size="9" font-weight="400" font-style="normal" 
>
</g>

<g fill="none" stroke="#0000c0" stroke-opacity="1" stroke-width="1" stroke-linecap="square" stroke-linejoin="bevel" transform="matrix(1,0,0,1,0,0)"
font-family="Segoe UI" font-size="9" font-weight="400" font-style="normal" 
>
<polyline fill="none" vector-effect="non-scaling-stroke" points="0,173.5 684,173.5 " />
</g>

<g fill="none" stroke="#000080" stroke-opacity="1" stroke-width="1" stroke-linecap="square" stroke-linejoin="bevel" transform="matrix(1,0,0,1,0,0)"
font-family="Segoe UI" font-size="9" font-weight="400" font-style="normal" 
>
<path vector-effect="non-scaling-stroke" fill-rule="evenodd" d="M0.5,172.984 L0.5,173.021 M0.5,173.003 L1.5,173 L2.5,173 L3.5,172.997 L4.5,173 L5.5,173 L6.5,173 L7.5,173 L8.5,173 L9.5,173 L10.5,173 L11.5,173.003 L12.5,173 L13.5,172.997 L14.5,172.997 L15.5,173 L16.5,173 L17.5,173 L18.5,173 L19.5,173.003 L20.5,173 L21.5,173 L22.5,173 L23.5,173 L24.5,173 L25.5,172.997 L26.5,173 L27.5,173 L28.5,173 L29.5,173 L30.5,172.997 L31.5,173 L32.5,173 L33.5,172.997 L34.5,173 L35.5,173.003 L36.5,173.003 L37.5,172.995 L38.5,172.992 L39.5,172.995 L40.5,173.013 L41.5,172.995 L42.5,172.982 L43.5,173.013 L44.5,173.024 L45.5,172.997 L46.5,173.011 L47.5,172.997 L48.5,173.003 L49.5,173.021 L50.5,172.982 L51.5,173 L52.5,173.011 L53.5,173.024 L54.5,173.021 L55.5,173.05 M56.5,172.652 L56.5,174.352 M57.5,168.069 L57.5,175.661 M58.5,140.013 L58.5,189.25 M59.5,141.154 L59.5,190.855 M60.5,106.304 L60.5,183.168 M61.5,82.9891 L61.5,171.527 M62.5,120.495 L62.5,198.938 M63.5,148.022 L63.5,255.968 M64.5,171.585 L64.5,243.667 M65.5,183.073 L65.5,219.191 M66.5,189.583 L66.5,262.652 M67.5,150.161 L67.5,212.554 M68.5,137.722 L68.5,164.051 M69.5,133.425 L69.5,182.915 M70.5,108.785 L70.5,170.883 M71.5,131.112 L71.5,162.198 M72.5,141.085 L72.5,162.161 M73.5,109.112 L73.5,163.375 M74.5,106.895 L74.5,138.556 M75.5,125.078 L75.5,193.918 M76.5,182.149 L76.5,204.551 M77.5,185.724 L77.5,229.127 M78.5,229.528 L78.5,254.674 M79.5,239.237 L79.5,271.363 M80.5,227.643 L80.5,244.812 M81.5,218.367 L81.5,245.789 M82.5,171.707 L82.5,229.544 M83.5,116.34 L83.5,172.351 M84.5,105.855 L84.5,123.409 M85.5,105.617 L85.5,121.107 M86.5,100.253 L86.5,116.715 M87.5,111.256 L87.5,148.978 M88.5,145.847 L88.5,170.714 M89.5,156.829 L89.5,171.553 M90.5,162.335 L90.5,183.622 M91.5,182.957 L91.5,210.77 M92.5,174.784 L92.5,210.004 M93.5,163.529 L93.5,181.658 M94.5,160.984 L94.5,180.397 M95.5,168.903 L95.5,187.028 M96.5,176.796 L96.5,209.202 M97.5,204.83 L97.5,222.242 M98.5,219.613 L98.5,234.66 M99.5,213.367 L99.5,229.222 M100.5,209.165 L100.5,222.395 M101.5,202.386 L101.5,213.357 M102.5,174.705 L102.5,202.951 M103.5,149.897 L103.5,174.32 M104.5,133.351 L104.5,152.294 M105.5,125.986 L105.5,135.214 M106.5,130.885 L106.5,148.846 M107.5,143.952 L107.5,151.956 M108.5,148.044 L108.5,156.185 M109.5,144.939 L109.5,153.571 M110.5,142.437 L110.5,147.447 M111.5,140.093 L111.5,147.384 M112.5,142.6 L112.5,154.326 M113.5,153.165 L113.5,168.887 M114.5,161.739 L114.5,177.535 M115.5,177.218 L115.5,192.26 M116.5,192.302 L116.5,211.424 M117.5,211.641 L117.5,221.551 M118.5,221.234 L118.5,233.593 M119.5,217.089 L119.5,225.278 M120.5,191.79 L120.5,220.938 M120.5,206.364 L121.5,178.148 L121.5,166.892 L121.5,189.404 L121.5,178.148 L122.5,158.473 L122.5,151.206 L122.5,165.741 L122.5,158.473 M123.5,144.158 L123.5,152.346 M124.5,140.093 L124.5,146.977 M125.5,143.883 L125.5,151.892 M126.5,151.264 L126.5,166.174 M126.5,158.719 L127.5,172.644 L127.5,166.828 L127.5,178.459 L127.5,172.644 M128.5,177.456 L128.5,183.316 M129.5,183.374 L129.5,193.057 M130.5,183.179 L130.5,190.18 M131.5,166.802 L131.5,183.279 M132.5,152.711 L132.5,166.844 M133.5,152.072 L133.5,164.299 M134.5,156.491 L134.5,160.841 M135.5,155.24 L135.5,163.676 M136.5,163.84 L136.5,174.568 M137.5,174.33 L137.5,187.191 M138.5,187.144 L138.5,190.317 M139.5,188.664 L139.5,192.154 M139.5,190.409 L140.5,185.003 L140.5,181.859 L140.5,188.147 L140.5,185.003 L141.5,177.226 L141.5,173.174 L141.5,181.278 L141.5,177.226 L142.5,166.863 L142.5,161.506 L142.5,172.219 L142.5,166.863 M143.5,158.117 L143.5,161.918 M144.5,160.377 L144.5,163.497 M145.5,158.149 L145.5,161.142 M146.5,161.195 L146.5,172.493 M147.5,172.678 L147.5,183.596 M148.5,183.57 L148.5,191.531 M149.5,189.557 L149.5,191.732 M150.5,187.139 L150.5,190.412 M151.5,176.78 L151.5,188.812 M152.5,162.663 L152.5,176.854 M153.5,158.455 L153.5,162.758 M154.5,157.425 L154.5,158.803 M155.5,154.912 L155.5,158.629 M156.5,155.472 L156.5,161.089 M157.5,161.037 L157.5,176.448 M158.5,176.437 L158.5,185.476 M159.5,184.203 L159.5,186.426 M160.5,185.597 L160.5,188.474 M161.5,182.392 L161.5,186.347 M162.5,171.305 L162.5,182.693 M163.5,164.072 L163.5,170.967 M164.5,156.237 L164.5,163.967 M165.5,155.345 L165.5,157.937 M165.5,156.641 L166.5,160.862 L166.5,158.592 L166.5,163.133 L166.5,160.862 M167.5,163.085 L167.5,171.902 M168.5,171.881 L168.5,180.534 M169.5,180.597 L169.5,184.636 M170.5,183.311 L170.5,189.646 M171.5,188.311 L171.5,190.929 M172.5,180.861 L172.5,188.327 M173.5,172.229 L173.5,180.777 M174.5,162.742 L174.5,172.382 M175.5,157.272 L175.5,162.942 M176.5,154.11 L176.5,157.452 M177.5,153.756 L177.5,162.494 M178.5,162.483 L178.5,174.843 M178.5,168.663 L179.5,178.588 L179.5,175.376 L179.5,181.801 L179.5,178.588 M180.5,182.07 L180.5,184.668 M181.5,183.686 L181.5,184.974 M182.5,182.45 L182.5,185.259 M183.5,180.428 L183.5,184.245 M183.5,182.337 L184.5,176.664 L184.5,173.612 L184.5,179.716 L184.5,176.664 L185.5,167.552 L185.5,162.198 L185.5,172.905 L185.5,167.552 M186.5,159.553 L186.5,162.114 M187.5,157.457 L187.5,160.139 M188.5,157.251 L188.5,162.309 M189.5,162.277 L189.5,171.084 M190.5,170.952 L190.5,181.738 M191.5,181.611 L191.5,188.68 M192.5,184.546 L192.5,188.268 M193.5,181.109 L193.5,184.789 M194.5,178.66 L194.5,181.78 M195.5,172.145 L195.5,178.639 M196.5,163.808 L196.5,172.155 M197.5,161.052 L197.5,163.851 M197.5,162.451 L198.5,161.601 M199.5,161.997 L199.5,164.173 M200.5,164.547 L200.5,167.34 M201.5,167.715 L201.5,177.461 M201.5,172.588 L202.5,181.862 L202.5,178.359 L202.5,185.365 L202.5,181.862 M203.5,185.666 L203.5,187.661 M204.5,183.327 L204.5,185.476 M205.5,178.929 L205.5,183.121 M206.5,172.81 L206.5,179.32 M207.5,165.44 L207.5,172.794 M208.5,162.288 L208.5,165.424 M209.5,162.378 L209.5,164.32 M209.5,163.349 L210.5,164.344 M211.5,163.803 L211.5,166.548 M212.5,166.517 L212.5,172.171 M213.5,172.187 L213.5,180.893 M214.5,180.893 L214.5,185.338 M215.5,185.249 L215.5,186.51 M216.5,180.888 L216.5,186.04 M217.5,174.278 L217.5,180.903 M218.5,166.812 L218.5,174.272 M219.5,163.249 L219.5,166.606 M220.5,162.974 L220.5,164.305 M220.5,163.639 L221.5,163.734 M222.5,164.236 L222.5,167.815 M223.5,168.095 L223.5,170.777 M224.5,171.041 L224.5,174.816 M225.5,175.191 L225.5,180.618 M226.5,180.766 L226.5,185.185 M227.5,183.522 L227.5,206.435 M228.5,190.032 L228.5,225.436 M229.5,164.785 L229.5,203.748 M230.5,121.788 L230.5,181.695 M231.5,123.378 L231.5,193.559 M232.5,133.451 L232.5,210.279 M233.5,116.525 L233.5,203.5 M234.5,141.777 L234.5,204.952 M235.5,158.582 L235.5,216.419 M236.5,157.805 L236.5,220.215 M237.5,139.971 L237.5,200.997 M238.5,148.292 L238.5,178.507 M239.5,149.068 L239.5,223.916 M240.5,121.889 L240.5,204.815 M241.5,126.524 L241.5,186.632 M242.5,130.954 L242.5,181.336 M243.5,138.546 L243.5,184.098 M244.5,156.327 L244.5,206.208 M245.5,154.358 L245.5,212.502 M246.5,197.809 L246.5,216.477 M247.5,198.516 L247.5,219.682 M248.5,146.66 L248.5,202.676 M249.5,136.951 L249.5,161.374 M250.5,138.361 L250.5,183.475 M251.5,158.434 L251.5,185.618 M252.5,146.037 L252.5,168.75 M253.5,140.541 L253.5,169.674 M254.5,163.544 L254.5,183.094 M255.5,168.819 L255.5,194.746 M256.5,171.807 L256.5,189.462 M257.5,178.369 L257.5,216.181 M258.5,194.768 L258.5,215.4 M259.5,153.587 L259.5,205.459 M260.5,148.017 L260.5,158.824 M261.5,148.931 L261.5,162.42 M262.5,157.911 L262.5,171.97 M263.5,153.381 L263.5,168.46 M264.5,159.59 L264.5,181.996 M265.5,170.841 L265.5,194.097 M266.5,186.067 L266.5,197.972 M267.5,170.519 L267.5,188.881 M268.5,166.195 L268.5,182.767 M269.5,182.091 L269.5,197.423 M270.5,177.097 L270.5,203.273 M271.5,160.424 L271.5,179.124 M271.5,169.774 L272.5,156.026 L272.5,152.267 L272.5,159.785 L272.5,156.026 M273.5,145.282 L273.5,166.585 M274.5,150.979 L274.5,169.516 M275.5,158.048 L275.5,182.646 M276.5,180.639 L276.5,192.434 M277.5,187.508 L277.5,199.303 M278.5,180.085 L278.5,198.305 M279.5,174.267 L279.5,183.469 M280.5,171.295 L280.5,180.999 M281.5,171.3 L281.5,179.188 M282.5,167.916 L282.5,180.914 M283.5,153.73 L283.5,167.815 M284.5,155.826 L284.5,163.734 M285.5,153.482 L285.5,161.153 M286.5,153.117 L286.5,165.862 M287.5,163.692 L287.5,186.246 M288.5,183.448 L288.5,190.855 M289.5,189.509 L289.5,197.175 M290.5,187.545 L290.5,191.172 M291.5,175.592 L291.5,189.266 M292.5,168.687 L292.5,176.215 M293.5,163.143 L293.5,170.27 M294.5,158.941 L294.5,163.159 M295.5,158.238 L295.5,164.78 M296.5,153.714 L296.5,166.696 M297.5,152.779 L297.5,171.395 M298.5,166.379 L298.5,173.317 M299.5,170.524 L299.5,181.099 M300.5,178.945 L300.5,183.417 M301.5,183.084 L301.5,195.971 M302.5,184.942 L302.5,191.236 M303.5,182.767 L303.5,193.247 M303.5,188.007 L304.5,172.316 L304.5,163.286 L304.5,181.347 L304.5,172.316 L305.5,159.991 L305.5,157.446 L305.5,162.536 L305.5,159.991 M306.5,159.02 L306.5,161.501 M307.5,159.801 L307.5,163.587 M308.5,160.308 L308.5,164.706 M309.5,161.396 L309.5,169.933 M310.5,169.769 L310.5,172.889 M311.5,173.137 L311.5,182.112 M312.5,179.462 L312.5,186.975 M313.5,182.044 L313.5,185.639 M314.5,181.965 L314.5,191.579 M315.5,181.944 L315.5,184.958 M316.5,165.989 L316.5,183.512 M317.5,159.046 L317.5,165.857 M318.5,153.666 L318.5,159.548 M319.5,154.537 L319.5,169.135 M320.5,162.953 L320.5,167.889 M321.5,163.09 L321.5,166.876 M322.5,167.14 L322.5,171.532 M323.5,170.867 L323.5,179.52 M323.5,175.194 L324.5,182.799 L324.5,180.043 L324.5,185.555 L324.5,182.799 M325.5,184.113 L325.5,186.051 M326.5,183.337 L326.5,186.774 M327.5,178.549 L327.5,184.721 M328.5,170.756 L328.5,178.903 M329.5,164.162 L329.5,170.82 M330.5,160.762 L330.5,164.088 M331.5,160.26 L331.5,167.008 M332.5,166.601 L332.5,169.621 M333.5,163.46 L333.5,167.414 M334.5,163.792 L334.5,169.436 M335.5,169.352 L335.5,176.638 M336.5,176.421 L336.5,181.057 M336.5,178.739 L337.5,182.894 L337.5,182.028 L337.5,183.76 L337.5,182.894 M338.5,182.012 L338.5,183.079 M339.5,180.418 L339.5,182.371 M340.5,175.397 L340.5,183.274 M340.5,179.335 L341.5,172.06 L341.5,169.257 L341.5,174.864 L341.5,172.06 L342.5,165.706 L342.5,162.805 L342.5,168.607 L342.5,165.706 M343.5,164.785 L343.5,166.511 M344.5,165.466 L344.5,167.588 M345.5,165.73 L345.5,168.528 M346.5,164.188 L346.5,166.633 M347.5,166.031 L347.5,169.832 M348.5,169.801 L348.5,176.616 M349.5,176.062 L349.5,181.004 M350.5,178.042 L350.5,181.009 M351.5,178.728 L351.5,182.73 M352.5,180.75 L352.5,181.991 M353.5,177.556 L353.5,182.746 M354.5,171.443 L354.5,177.546 M355.5,168.475 L355.5,171.379 M356.5,162.393 L356.5,168.491 M357.5,161.623 L357.5,163.101 M358.5,162.478 L358.5,165.677 M359.5,165.508 L359.5,167.208 M359.5,166.358 L360.5,168.988 L360.5,167.757 L360.5,170.218 L360.5,168.988 M361.5,169.779 L361.5,177.609 M362.5,174.695 L362.5,177.831 M363.5,175.883 L363.5,180.914 M364.5,181.373 L364.5,183.728 M365.5,180.196 L365.5,183.971 M366.5,179.33 L366.5,181.03 M367.5,174.647 L367.5,179.362 M368.5,168.359 L368.5,174.668 M369.5,163.597 L369.5,168.365 M370.5,160.583 L370.5,163.65 M371.5,157.008 L371.5,160.535 M372.5,160.208 L372.5,166.131 M373.5,166.015 L373.5,174.969 M374.5,174.927 L374.5,176.822 M375.5,176.785 L375.5,178.105 M376.5,177.055 L376.5,178.269 M377.5,178.565 L377.5,180.518 M378.5,179.932 L378.5,184.699 M379.5,183.221 L379.5,184.726 M380.5,177.926 L380.5,183.005 M381.5,168.903 L381.5,177.451 M382.5,164.959 L382.5,168.718 M383.5,158.962 L383.5,164.738 M384.5,157.436 L384.5,158.941 M385.5,158.106 L385.5,162.942 M386.5,162.906 L386.5,168.085 M387.5,168.085 L387.5,176.31 M388.5,176.31 L388.5,183.306 M389.5,180.444 L389.5,183.237 M390.5,180.117 L390.5,181.658 M391.5,180.328 L391.5,185.259 M392.5,182.873 L392.5,185.919 M393.5,178.074 L393.5,182.899 M394.5,169.463 L394.5,178.058 M395.5,163.951 L395.5,169.479 M396.5,161.037 L396.5,164.078 M397.5,159.263 L397.5,160.831 M398.5,159.183 L398.5,160.334 M399.5,159.944 L399.5,163.212 M400.5,162.198 L400.5,202.101 M401.5,138.092 L401.5,223.171 M402.5,121.91 L402.5,207.079 M403.5,153.883 L403.5,248.846 M404.5,174.521 L404.5,247.125 M405.5,177.852 L405.5,241.117 M406.5,172.504 L406.5,236.634 M407.5,133.435 L407.5,182.171 M408.5,122.031 L408.5,144.622 M409.5,121.086 L409.5,128.995 M410.5,122.554 L410.5,152.584 M411.5,152.436 L411.5,207.57 M412.5,205.168 L412.5,223.367 M413.5,188.971 L413.5,216.741 M414.5,161.871 L414.5,195.544 M415.5,137.738 L415.5,175.043 M416.5,141.001 L416.5,150.678 M417.5,151.095 L417.5,199.06 M418.5,182.64 L418.5,228.166 M419.5,191.505 L419.5,236.281 M420.5,189.066 L420.5,225.135 M421.5,155.372 L421.5,197.075 M422.5,117.042 L422.5,161.565 M423.5,115.596 L423.5,144.712 M424.5,119.439 L424.5,146.866 M425.5,123.246 L425.5,157.235 M426.5,156.633 L426.5,212.026 M427.5,199.139 L427.5,225.294 M428.5,178.718 L428.5,221.598 M429.5,162.082 L429.5,204.234 M430.5,146.122 L430.5,176.875 M431.5,147.357 L431.5,171.099 M432.5,155.942 L432.5,187.007 M433.5,177.203 L433.5,207.412 M434.5,175.27 L434.5,205.163 M435.5,171.279 L435.5,198.537 M436.5,157.446 L436.5,191.457 M437.5,134.554 L437.5,162.451 M438.5,126.487 L438.5,145.831 M439.5,135.536 L439.5,153.027 M440.5,142.922 L440.5,183.485 M441.5,167.33 L441.5,206.266 M442.5,194.551 L442.5,222.659 M442.5,208.605 L443.5,189.124 L443.5,185.518 L443.5,192.73 L443.5,189.124 M444.5,184.267 L444.5,221.545 M445.5,139.074 L445.5,245.636 M446.5,132.025 L446.5,189.652 M447.5,133.013 L447.5,208.869 M448.5,151.671 L448.5,234.882 M449.5,149.849 L449.5,218.747 M450.5,152.267 L450.5,210.221 M451.5,125.5 L451.5,170.497 M452.5,121.451 L452.5,139.443 M453.5,123.124 L453.5,138.229 M454.5,131.139 L454.5,166.115 M455.5,165.693 L455.5,231.83 M456.5,218.848 L456.5,245.573 M457.5,211.187 L457.5,239.337 M458.5,169.711 L458.5,224.502 M459.5,133.857 L459.5,184.393 M460.5,129.729 L460.5,134.391 M461.5,130.563 L461.5,170.207 M462.5,159.748 L462.5,194.477 M463.5,171.263 L463.5,215.02 M464.5,182.735 L464.5,217.169 M465.5,154.316 L465.5,197.999 M466.5,122.586 L466.5,159.769 M467.5,127.717 L467.5,155.915 M468.5,140.467 L468.5,160.551 M469.5,141.777 L469.5,175.92 M470.5,173.591 L470.5,228.361 M471.5,207.227 L471.5,238.841 M472.5,180.328 L472.5,229.264 M473.5,148.957 L473.5,200.211 M474.5,127.976 L474.5,165.207 M475.5,129.94 L475.5,152.204 M476.5,139.295 L476.5,172.044 M477.5,164.632 L477.5,197.64 M478.5,173.539 L478.5,199.662 M479.5,174.695 L479.5,198.405 M480.5,167.097 L480.5,198.6 M481.5,147.04 L481.5,175.107 M482.5,142.711 L482.5,163.507 M483.5,149.459 L483.5,171.575 M484.5,150.108 L484.5,180.112 M485.5,161.433 L485.5,206.562 M486.5,191.404 L486.5,222.791 M487.5,175.766 L487.5,217.565 M488.5,156.512 L488.5,187.202 M489.5,146.111 L489.5,170.244 M490.5,140.225 L490.5,158.323 M491.5,142.669 L491.5,164.611 M492.5,153.033 L492.5,180.038 M493.5,167.916 L493.5,192.086 M494.5,171.216 L494.5,191.658 M495.5,176.537 L495.5,200.939 M496.5,155.266 L496.5,193.305 M497.5,156.919 L497.5,174.14 M498.5,148.123 L498.5,174.309 M499.5,142.257 L499.5,176.284 M500.5,161.369 L500.5,186.695 M501.5,177.894 L501.5,200.448 M502.5,170.777 L502.5,200.348 M503.5,172.852 L503.5,200.828 M504.5,166.443 L504.5,186.6 M505.5,154.157 L505.5,175.186 M506.5,145.14 L506.5,162.409 M507.5,151.116 L507.5,164.5 M508.5,153.988 L508.5,172.303 M509.5,162.087 L509.5,184.874 M510.5,169.795 L510.5,190.312 M511.5,175.798 L511.5,197.487 M512.5,171.796 L512.5,186.616 M513.5,157.684 L513.5,181.822 M514.5,153.946 L514.5,175.265 M515.5,156.797 L515.5,181.648 M516.5,171.49 L516.5,194.768 M517.5,177.313 L517.5,189.124 M518.5,168.581 L518.5,190.496 M519.5,170.318 L519.5,184.652 M520.5,161.264 L520.5,179.874 M521.5,155.963 L521.5,173.602 M522.5,149.437 L522.5,162.161 M523.5,151.122 L523.5,162.927 M524.5,154.411 L524.5,169.072 M525.5,163.914 L525.5,182.841 M526.5,170.028 L526.5,196.082 M527.5,178.19 L527.5,197.212 M528.5,175.925 L528.5,189.784 M529.5,172.968 L529.5,188.29 M530.5,168.481 L530.5,178.992 M531.5,168.222 L531.5,181.511 M532.5,169.13 L532.5,179.985 M533.5,167.134 L533.5,178.179 M534.5,162.267 L534.5,177.577 M535.5,163.059 L535.5,169.236 M536.5,160.53 L536.5,171.041 M537.5,160.852 L537.5,171.353 M538.5,158.978 L538.5,167.736 M539.5,158.671 L539.5,171.411 M540.5,164.701 L540.5,177.488 M541.5,176.3 L541.5,189.652 M542.5,182.281 L542.5,195.127 M543.5,182.308 L543.5,193.949 M544.5,177.847 L544.5,190.327 M545.5,172.636 L545.5,185.106 M546.5,164.12 L546.5,176.659 M547.5,158.988 L547.5,169.521 M548.5,157.732 L548.5,164.695 M549.5,159.764 L549.5,165.646 M550.5,161.242 L550.5,170.239 M551.5,161.295 L551.5,173.771 M552.5,166.807 L552.5,176.469 M553.5,167.314 L553.5,177.614 M554.5,174.183 L554.5,180.497 M555.5,177.403 L555.5,185.37 M556.5,176.854 L556.5,187.202 M557.5,180.951 L557.5,186.922 M558.5,178.195 L558.5,187.081 M559.5,173.311 L559.5,183.121 M560.5,169.267 L560.5,177.63 M561.5,162.325 L561.5,170.366 M562.5,158.925 L562.5,168.861 M563.5,158.418 L563.5,162.942 M564.5,156.94 L564.5,163.47 M565.5,159.838 L565.5,169.457 M566.5,166.702 L566.5,176.975 M567.5,173.422 L567.5,180.713 M568.5,176.997 L568.5,182.968 M569.5,178.401 L569.5,184.879 M570.5,178.343 L570.5,184.488 M571.5,178.153 L571.5,190.855 M572.5,120.078 L572.5,240.562 M573.5,161.19 L573.5,210.194 M574.5,124.94 L574.5,171.506 M575.5,122.38 L575.5,140.874 M576.5,127.195 L576.5,143.123 M577.5,141.618 L577.5,167.557 M577.5,154.588 L578.5,197.954 L578.5,171.147 L578.5,224.761 L578.5,197.954 M579.5,207.713 L579.5,221.086 M580.5,211.261 L580.5,221.376 M580.5,216.319 L581.5,203.434 L581.5,196.642 L581.5,210.226 L581.5,203.434 M582.5,178.839 L582.5,198.632 M583.5,154.321 L583.5,179.182 M584.5,130.637 L584.5,154.812 M585.5,117.787 L585.5,130.748 M586.5,114.529 L586.5,119.233 M587.5,118.267 L587.5,139.153 M588.5,138.672 L588.5,160.419 M589.5,160.572 L589.5,180.576 M590.5,180.539 L590.5,203.489 M591.5,203.146 L591.5,226.07 M592.5,226.133 L592.5,235.177 M593.5,231.851 L593.5,235.895 M594.5,216.62 L594.5,232.295 M594.5,224.457 L595.5,207.013 L595.5,198.009 L595.5,216.018 L595.5,207.013 L596.5,186.238 L596.5,176.379 L596.5,196.098 L596.5,186.238 M597.5,158.56 L597.5,176.205 M597.5,167.383 L598.5,150.902 L598.5,143.989 L598.5,157.816 L598.5,150.902 M599.5,133.799 L599.5,143.493 M600.5,127.944 L600.5,133.894 M601.5,128.166 L601.5,131.075 M602.5,131.075 L602.5,137.648 M603.5,137.595 L603.5,148.144 M604.5,148.022 L604.5,158.993 M605.5,158.935 L605.5,170.946 M606.5,170.751 L606.5,179.768 M607.5,179.832 L607.5,188.369 M608.5,188.432 L608.5,193.405 M609.5,193.379 L609.5,195.412 M610.5,195.222 L610.5,197.069 M611.5,197.048 L611.5,200.77 M612.5,200.744 L612.5,205.163 M613.5,205.142 L613.5,207.988 M613.5,206.565 L614.5,208.125 M615.5,202.27 L615.5,207.475 M615.5,204.873 L616.5,196.637 L616.5,191.6 L616.5,201.673 L616.5,196.637 L617.5,184.755 L617.5,178.718 L617.5,190.792 L617.5,184.755 L618.5,171.126 L618.5,164.331 L618.5,177.921 L618.5,171.126 L619.5,156.818 L619.5,150.129 L619.5,163.507 L619.5,156.818 L620.5,143.35 L620.5,137.411 L620.5,149.29 L620.5,143.35 L621.5,131.756 L621.5,126.751 L621.5,136.761 L621.5,131.756 M622.5,120.69 L622.5,126.788 M623.5,120.02 L623.5,121.535 M624.5,121.561 L624.5,129.465 M625.5,129.507 L625.5,144.153 M626.5,144.1 L626.5,163.433 M627.5,163.444 L627.5,182.72 M628.5,182.772 L628.5,198.564 M629.5,198.637 L629.5,208.742 M630.5,208.758 L630.5,212.871 M631.5,211.065 L631.5,213.035 M632.5,204.519 L632.5,211.092 M633.5,195.058 L633.5,204.487 M633.5,199.773 L634.5,189.076 L634.5,183.797 L634.5,194.356 L634.5,189.076 L635.5,178.1 L635.5,173.011 L635.5,183.19 L635.5,178.1 L636.5,168.378 L636.5,164.41 L636.5,172.345 L636.5,168.378 M637.5,158.175 L637.5,163.983 M638.5,154.638 L638.5,157.901 M638.5,156.269 L639.5,154.704 M640.5,155.398 L640.5,159.305 M641.5,159.516 L641.5,165.197 M642.5,165.192 L642.5,171.105 M643.5,171.099 L643.5,175.983 M644.5,175.972 L644.5,178.707 M644.5,177.34 L645.5,179.071 M646.5,177.514 L646.5,179.33 M647.5,174.494 L647.5,177.535 M648.5,170.82 L648.5,174.489 M649.5,167.298 L649.5,170.862 M650.5,164.6 L650.5,167.282 M650.5,165.941 L651.5,164.349 M652.5,164.173 L652.5,165.44 M653.5,165.54 L653.5,167.995 M654.5,168.206 L654.5,171.886 M655.5,172.192 L655.5,176.653 M656.5,176.865 L656.5,180.344 M657.5,180.555 L657.5,182.582 M657.5,181.569 L658.5,182.907 M659.5,181.442 L659.5,182.783 M660.5,178.364 L660.5,181.31 M661.5,174.637 L661.5,178.359 M662.5,170.978 L662.5,174.663 M663.5,168.544 L663.5,170.999 M664.5,166.939 L664.5,168.565 M664.5,167.752 L665.5,166.657 L666.5,166.841 M667.5,167.171 L667.5,169.077 M668.5,169.046 L668.5,171.501 M669.5,171.49 L669.5,174.473 M670.5,174.473 L670.5,176.638 M671.5,176.622 L671.5,177.778 M671.5,177.2 L672.5,177.519 M673.5,175.898 L673.5,177.134 M674.5,173.919 L674.5,175.788 M675.5,171.923 L675.5,173.792 M676.5,170.355 L676.5,171.791 M677.5,168.993 L677.5,170.26 M677.5,169.626 L678.5,168.621 L679.5,168.391 M680.5,168.291 L680.5,169.415 M681.5,169.373 L681.5,171.099 M682.5,171.084 L682.5,172.625 M683.5,172.625 L683.5,174.526 M684.5,174.531 L684.5,176.601 M684.5,175.566"/>
</g>

<g fill="none" stroke="#0000c0" stroke-opacity="1" stroke-width="1" stroke-linecap="square" stroke-linejoin="bevel" transform="matrix(1,0,0,1,0,0)"
font-family="Segoe UI" font-size="9" font-weight="400" font-style="normal" 
>
<path vector-effect="non-scaling-stroke" fill-rule="evenodd" d="M57.5,174.661 L57.5,170.884 M58.5,184.607 L58.5,161.393 M59.5,189.855 L59.5,153.581 M60.5,182.168 L60.5,147.449 M61.5,170.527 L61.5,130.941 M62.5,187.937 L62.5,158.063 M63.5,206.41 L63.5,149.022 M64.5,202.013 L64.5,172.585 M65.5,201.214 L65.5,184.073 M66.5,227.341 L66.5,190.583 M67.5,182.968 L67.5,163.032 M68.5,163.051 L68.5,150.166 M69.5,181.915 L69.5,151.842 M70.5,169.883 L70.5,135.928 M71.5,161.198 L71.5,147.777 M72.5,161.161 L72.5,152.715 M73.5,162.375 L73.5,132.693 M74.5,137.556 L74.5,120.023 M75.5,187.264 L75.5,158.736 M76.5,194.139 L76.5,183.149 M77.5,205.665 L77.5,186.724 M78.5,240.446 L78.5,230.528 M79.5,254.862 L79.5,240.237 M80.5,238.299 L80.5,228.643 M81.5,231.095 L81.5,219.367 M82.5,205.107 L82.5,172.707 M83.5,171.351 L83.5,135.129 M84.5,122.409 L84.5,114.449 M85.5,120.107 L85.5,113.604 M86.5,115.715 L86.5,108.383 M87.5,147.978 L87.5,126.381 M88.5,169.714 L88.5,155.616 M89.5,170.553 L89.5,164.51 M90.5,180.353 L90.5,165.647 M91.5,193.324 L91.5,183.957 M92.5,191.406 L92.5,175.784 M93.5,178.252 L93.5,167.748 M94.5,177.972 L94.5,168.028 M95.5,176.591 L95.5,169.903 M96.5,189.88 L96.5,177.796 M97.5,213.488 L97.5,205.83 M98.5,229.794 L98.5,220.613 M99.5,219.832 L99.5,214.367 M100.5,215.337 L100.5,210.165 M101.5,207.447 L101.5,203.386 M102.5,188.995 L102.5,175.705 M103.5,173.32 L103.5,156.452 M104.5,151.294 L104.5,143.014 M105.5,134.214 L105.5,131.18 M106.5,147.846 L106.5,137.749 M107.5,150.956 L107.5,148.471 M108.5,155.185 L108.5,150.628 M109.5,152.571 L109.5,149.145 M110.5,146.447 L110.5,143.92 M111.5,146.384 L111.5,143.801 M112.5,153.326 L112.5,145.923 M113.5,167.887 L113.5,157.482 M114.5,176.535 L114.5,167.348 M115.5,188.133 L115.5,178.218 M116.5,202.059 L116.5,193.302 M117.5,216.86 L117.5,212.641 M118.5,226.523 L118.5,222.234 M119.5,223.212 L119.5,218.089 M120.5,207.179 L120.5,192.79 M121.5,179.795 L121.5,167.892 M122.5,164.741 L122.5,157.667 M123.5,151.346 L123.5,146.825 M124.5,145.977 L124.5,141.663 M125.5,150.892 L125.5,147.908 M126.5,165.174 L126.5,157.068 M127.5,177.459 L127.5,168.52 M128.5,180.166 L128.5,178.456 M129.5,189.284 L129.5,184.374 M130.5,188.523 L130.5,184.179 M131.5,177.754 L131.5,168.246 M132.5,165.844 L132.5,159.488 M133.5,163.299 L133.5,158.177 M134.5,159.841 L134.5,158.039 M135.5,162.676 L135.5,158.447 M136.5,173.568 L136.5,167.477 M137.5,181.467 L137.5,175.33 M138.5,189.317 L138.5,188.144 M140.5,185.547 L140.5,182.859 M141.5,177.336 L141.5,174.174 M142.5,171.219 L142.5,164.551 M143.5,160.918 L143.5,159.137 M144.5,162.497 L144.5,161.411 M146.5,171.493 L146.5,166.258 M147.5,178.952 L147.5,173.678 M148.5,189.568 L148.5,184.57 M151.5,182.936 L151.5,177.78 M152.5,175.854 L152.5,168.034 M155.5,157.629 L155.5,156.179 M156.5,160.089 L156.5,157.73 M157.5,175.448 L157.5,166.839 M158.5,181.291 L158.5,177.437 M161.5,185.026 L161.5,183.392 M162.5,178.076 L162.5,172.305 M163.5,169.967 L163.5,166.863 M164.5,162.967 L164.5,159.754 M166.5,162.133 L166.5,159.913 M167.5,170.902 L167.5,166.513 M168.5,176.29 L168.5,172.881 M169.5,183.636 L169.5,181.597 M170.5,187.38 L170.5,184.311 M172.5,184.626 L172.5,181.861 M173.5,177.286 L173.5,173.229 M174.5,171.382 L174.5,167.013 M175.5,161.942 L175.5,158.842 M177.5,161.494 L177.5,156.846 M178.5,173.843 L178.5,167.783 M179.5,180.034 L179.5,176.376 M183.5,183.245 L183.5,181.428 M184.5,177.491 L184.5,174.612 M185.5,171.905 L185.5,167.004 M188.5,161.309 L188.5,158.675 M189.5,170.084 L189.5,166.401 M190.5,177.751 L190.5,171.952 M191.5,186.545 L191.5,182.611 M194.5,180.78 L194.5,179.66 M195.5,175.684 L195.5,173.145 M196.5,171.155 L196.5,167.824 M201.5,176.409 L201.5,169.591 M202.5,182.244 L202.5,179.359 M205.5,181.139 L205.5,179.929 M206.5,176.952 L206.5,173.81 M207.5,171.794 L207.5,168.972 M208.5,164.424 L208.5,163.288 M212.5,171.171 L212.5,168.909 M213.5,177.235 L213.5,173.187 M214.5,183.931 L214.5,181.893 M216.5,184.322 L216.5,181.888 M217.5,178.292 L217.5,175.278 M218.5,173.272 L218.5,169.715 M219.5,165.606 L219.5,164.324 M222.5,166.815 L222.5,165.256 M224.5,173.816 L224.5,172.041 M225.5,178.552 L225.5,176.191 M226.5,184.089 L226.5,181.766 M227.5,186.745 L227.5,184.522 M228.5,205.087 L228.5,191.032 M229.5,184.036 L229.5,165.785 M230.5,180.695 L230.5,136.182 M231.5,192.559 L231.5,140.89 M232.5,191.583 L232.5,154.417 M233.5,197.794 L233.5,148.206 M234.5,188.348 L234.5,157.652 M235.5,200.331 L235.5,159.582 M236.5,200.45 L236.5,158.805 M237.5,185.456 L237.5,160.544 M238.5,177.507 L238.5,162.864 M239.5,194.911 L239.5,151.089 M240.5,199.437 L240.5,146.563 M241.5,185.632 L241.5,141.562 M242.5,180.336 L242.5,147.215 M243.5,183.098 L243.5,162.201 M244.5,189.387 L244.5,157.327 M245.5,195.121 L245.5,155.358 M246.5,208.683 L246.5,198.809 M247.5,207.089 L247.5,199.516 M248.5,191.06 L248.5,154.94 M249.5,160.374 L249.5,144.177 M250.5,181.188 L250.5,164.812 M251.5,178.583 L251.5,167.417 M252.5,167.75 L252.5,159.188 M253.5,168.674 L253.5,155.418 M254.5,176.95 L254.5,169.05 M255.5,183.732 L255.5,169.819 M256.5,180.348 L256.5,172.807 M257.5,192.975 L257.5,179.369 M258.5,203.808 L258.5,195.768 M259.5,186.981 L259.5,159.019 M260.5,157.824 L260.5,152.404 M261.5,161.42 L261.5,155.565 M262.5,170.97 L262.5,165.035 M263.5,167.46 L263.5,161.153 M264.5,180.487 L264.5,165.513 M265.5,185.182 L265.5,171.841 M266.5,191.251 L266.5,187.067 M267.5,179.324 L267.5,171.519 M268.5,177.237 L268.5,168.763 M269.5,185.675 L269.5,183.091 M270.5,190.43 L270.5,178.097 M271.5,178.124 L271.5,165.655 M272.5,158.785 L272.5,155.21 M273.5,165.585 L273.5,156.105 M274.5,168.516 L274.5,156.873 M275.5,181.225 L275.5,164.775 M276.5,185.302 L276.5,181.639 M277.5,193.712 L277.5,188.508 M278.5,189.263 L278.5,181.085 M279.5,179.233 L279.5,175.267 M280.5,175.744 L280.5,172.295 M281.5,176.396 L281.5,172.3 M282.5,177.86 L282.5,168.916 M283.5,166.815 L283.5,159.829 M284.5,162.734 L284.5,159.841 M285.5,160.153 L285.5,157.191 M286.5,164.862 L286.5,160.198 M287.5,180.532 L287.5,165.468 M288.5,187.766 L288.5,184.448 M289.5,193.701 L289.5,190.509 M290.5,189.757 L290.5,188.545 M291.5,182.438 L291.5,176.592 M292.5,175.215 L292.5,170.631 M293.5,169.27 L293.5,167.502 M294.5,162.159 L294.5,161.052 M295.5,163.78 L295.5,161.122 M296.5,165.696 L296.5,161.451 M297.5,170.395 L297.5,162.906 M298.5,172.317 L298.5,168.97 M299.5,177.009 L299.5,171.524 M300.5,181.864 L300.5,179.945 M301.5,189.68 L301.5,184.084 M302.5,189.158 L302.5,185.942 M303.5,188.394 L303.5,183.767 M304.5,178.912 L304.5,167.088 M305.5,161.536 L305.5,159.372 M307.5,162.587 L307.5,160.801 M308.5,163.706 L308.5,161.485 M309.5,168.933 L309.5,166.354 M310.5,171.889 L310.5,170.853 M311.5,178.565 L311.5,174.137 M312.5,183.027 L312.5,180.462 M313.5,184.606 L313.5,183.044 M314.5,187.392 L314.5,182.965 M315.5,183.958 L315.5,182.944 M316.5,179.058 L316.5,166.989 M317.5,164.857 L317.5,162.668 M318.5,158.548 L318.5,157.189 M319.5,168.135 L319.5,162.354 M320.5,166.889 L320.5,164.834 M321.5,165.876 L321.5,164.683 M322.5,170.532 L322.5,168.96 M323.5,176.759 L323.5,171.867 M324.5,182.96 L324.5,181.043 M327.5,181.188 L327.5,179.549 M328.5,176.616 L328.5,171.756 M329.5,169.82 L329.5,168.224 M330.5,163.088 L330.5,161.762 M331.5,166.008 L331.5,162.847 M332.5,168.621 L332.5,167.601 M333.5,166.414 L333.5,164.783 M334.5,168.436 L334.5,165.37 M335.5,174.7 L335.5,171.3 M336.5,178.433 L336.5,177.421 M340.5,181.201 L340.5,176.397 M341.5,173.864 L341.5,170.989 M342.5,167.607 L342.5,165.07 M347.5,168.832 L347.5,167.031 M348.5,175.517 L348.5,170.801 M349.5,179.568 L349.5,177.062 M351.5,181.73 L351.5,179.728 M353.5,181.471 L353.5,178.556 M354.5,175.04 L354.5,172.443 M356.5,167.491 L356.5,165.003 M361.5,175.351 L361.5,170.779 M362.5,176.831 L362.5,175.695 M363.5,178.91 L363.5,176.883 M365.5,182.971 L365.5,181.196 M367.5,178.191 L367.5,175.647 M368.5,173.668 L368.5,171.371 M369.5,167.365 L369.5,165.347 M371.5,159.535 L371.5,158.008 M372.5,165.131 L372.5,162.557 M373.5,173.969 L373.5,169.62 M378.5,182.802 L378.5,180.932 M380.5,181.443 L380.5,178.926 M381.5,176.025 L381.5,169.975 M382.5,167.718 L382.5,165.959 M383.5,163.738 L383.5,161.781 M385.5,161.942 L385.5,159.531 M386.5,167.085 L386.5,164.684 M387.5,175.31 L387.5,170.026 M388.5,181.25 L388.5,177.31 M391.5,183.089 L391.5,181.328 M392.5,184.919 L392.5,183.873 M393.5,181.367 L393.5,179.074 M394.5,176.087 L394.5,170.463 M395.5,168.479 L395.5,165.509 M399.5,162.212 L399.5,160.944 M400.5,184.262 L400.5,163.198 M401.5,193.707 L401.5,152.293 M402.5,196.957 L402.5,149.043 M403.5,192.483 L403.5,154.883 M404.5,210.423 L404.5,175.521 M405.5,219.35 L405.5,178.852 M406.5,206.684 L406.5,173.504 M407.5,181.171 L407.5,157.486 M408.5,143.622 L408.5,128.157 M409.5,127.995 L409.5,122.262 M410.5,151.584 L410.5,133.196 M411.5,191.267 L411.5,154.733 M412.5,215.63 L412.5,206.168 M413.5,205.33 L413.5,189.971 M414.5,182.826 L414.5,163.174 M415.5,174.043 L415.5,144.649 M416.5,149.678 L416.5,144.068 M417.5,185.01 L417.5,160.99 M418.5,204.383 L418.5,183.64 M419.5,214.088 L419.5,192.505 M420.5,207.928 L420.5,190.066 M421.5,182.943 L421.5,163.057 M422.5,160.565 L422.5,140.302 M423.5,143.712 L423.5,131.434 M424.5,145.866 L424.5,130.192 M425.5,156.235 L425.5,139.117 M426.5,189.778 L426.5,157.633 M427.5,216.527 L427.5,200.139 M428.5,196.973 L428.5,179.718 M429.5,183.703 L429.5,163.082 M430.5,175.875 L430.5,159.287 M431.5,170.099 L431.5,155.32 M432.5,180.759 L432.5,165.241 M433.5,191.157 L433.5,178.203 M434.5,189.682 L434.5,176.27 M435.5,186.924 L435.5,172.279 M436.5,181.087 L436.5,164.913 M437.5,161.451 L437.5,144.06 M438.5,144.831 L438.5,135.169 M439.5,152.027 L439.5,144.184 M440.5,182.485 L440.5,155.77 M441.5,190.06 L441.5,168.33 M442.5,206.932 L442.5,195.551 M443.5,188.329 L443.5,186.518 M444.5,200.476 L444.5,185.267 M445.5,198.59 L445.5,147.41 M446.5,188.652 L446.5,146.503 M447.5,190.566 L447.5,155.434 M448.5,192.64 L448.5,153.36 M449.5,199.519 L449.5,150.849 M450.5,190.429 L450.5,155.571 M451.5,169.497 L451.5,146.199 M452.5,138.443 L452.5,125.615 M453.5,137.229 L453.5,128.023 M454.5,165.115 L454.5,145.71 M455.5,204.439 L455.5,166.693 M456.5,239.329 L456.5,219.848 M457.5,227.281 L457.5,212.187 M458.5,192.002 L458.5,170.711 M459.5,183.393 L459.5,144.632 M460.5,133.391 L460.5,132.018 M461.5,169.207 L461.5,149.734 M462.5,182.47 L462.5,163.53 M463.5,195.853 L463.5,172.263 M464.5,196.328 L464.5,183.735 M465.5,180.836 L465.5,165.164 M466.5,158.769 L466.5,144.147 M467.5,154.915 L467.5,143.053 M468.5,159.551 L468.5,148.053 M469.5,174.92 L469.5,157.836 M470.5,201.934 L470.5,174.591 M471.5,227.272 L471.5,208.227 M472.5,202.07 L472.5,181.328 M473.5,183.139 L473.5,162.861 M474.5,164.207 L474.5,144.383 M475.5,151.204 L475.5,135.331 M476.5,171.044 L476.5,154.647 M477.5,181.565 L477.5,165.632 M478.5,183.957 L478.5,174.539 M479.5,190.441 L479.5,175.695 M480.5,183.432 L480.5,168.097 M481.5,174.107 L481.5,157.878 M482.5,162.507 L482.5,150.73 M483.5,170.575 L483.5,157.94 M484.5,179.112 L484.5,163.947 M485.5,189.832 L485.5,162.433 M486.5,207.104 L486.5,192.404 M487.5,196.286 L487.5,176.766 M488.5,181.065 L488.5,164.935 M489.5,169.244 L489.5,160.418 M490.5,157.323 L490.5,149.136 M491.5,163.611 L491.5,151.351 M492.5,179.038 L492.5,164.407 M493.5,178.914 L493.5,168.916 M494.5,184.125 L494.5,172.216 M495.5,187.976 L495.5,177.537 M496.5,180.304 L496.5,165.696 M497.5,173.14 L497.5,162.981 M498.5,173.309 L498.5,158.666 M499.5,175.284 L499.5,163.09 M500.5,180.635 L500.5,165.365 M501.5,186.605 L501.5,178.894 M502.5,188.552 L502.5,171.777 M503.5,186.757 L503.5,173.852 M504.5,178.159 L504.5,167.841 M505.5,174.186 L505.5,163.991 M506.5,161.409 L506.5,154.884 M507.5,163.5 L507.5,157.03 M508.5,171.303 L508.5,161.751 M509.5,178.605 L509.5,167.395 M510.5,182.292 L510.5,170.795 M511.5,187.21 L511.5,176.798 M512.5,179.33 L512.5,172.796 M513.5,178.882 L513.5,167.118 M514.5,174.265 L514.5,166.033 M515.5,177.486 L515.5,168.514 M516.5,182.454 L516.5,172.49 M517.5,183.387 L517.5,178.313 M518.5,181.276 L518.5,169.581 M519.5,177.644 L519.5,171.318 M520.5,177.253 L520.5,168.747 M521.5,172.602 L521.5,163.324 M522.5,161.161 L522.5,155.067 M523.5,161.927 L523.5,155.974 M524.5,168.072 L524.5,161.465 M525.5,177.845 L525.5,168.155 M526.5,186.859 L526.5,171.028 M527.5,188.658 L527.5,179.19 M528.5,185.396 L528.5,176.925 M529.5,180.128 L529.5,173.968 M530.5,176.267 L530.5,169.733 M531.5,176.064 L531.5,169.936 M532.5,176.413 L532.5,170.13 M533.5,175.901 L533.5,170.099 M534.5,176.577 L534.5,167.76 M535.5,168.236 L535.5,165.074 M536.5,170.041 L536.5,165.105 M537.5,170.353 L537.5,163.68 M538.5,166.736 L538.5,163.132 M539.5,170.411 L539.5,165.013 M540.5,176.488 L540.5,169.464 M541.5,182.737 L541.5,177.3 M542.5,189.715 L542.5,183.281 M543.5,190.726 L543.5,183.308 M544.5,185.664 L544.5,178.847 M545.5,178.631 L545.5,173.636 M546.5,175.659 L546.5,169.122 M547.5,168.521 L547.5,163.307 M548.5,163.695 L548.5,159.767 M549.5,164.646 L549.5,162.008 M550.5,169.239 L550.5,164.628 M551.5,172.771 L551.5,165.959 M552.5,175.469 L552.5,168.756 M553.5,175.466 L553.5,170.534 M554.5,177.875 L554.5,175.183 M555.5,181.121 L555.5,178.403 M556.5,183.821 L556.5,177.854 M557.5,183.993 L557.5,181.951 M558.5,182.665 L558.5,179.195 M559.5,179.204 L559.5,174.311 M560.5,175.687 L560.5,170.313 M561.5,169.366 L561.5,166.801 M562.5,167.861 L562.5,163.592 M563.5,161.942 L563.5,160.226 M564.5,162.47 L564.5,159.736 M565.5,168.457 L565.5,164.255 M566.5,175.975 L566.5,169.954 M567.5,177.511 L567.5,174.422 M568.5,180.947 L568.5,177.997 M569.5,181.941 L569.5,179.401 M570.5,181.942 L570.5,179.343 M571.5,184.92 L571.5,179.153 M572.5,201.143 L572.5,144.857 M573.5,184.918 L573.5,162.19 M574.5,170.506 L574.5,147.424 M575.5,139.874 L575.5,129.883 M576.5,142.123 L576.5,133.786 M577.5,166.557 L577.5,155.529 M578.5,199.665 L578.5,172.147 M579.5,213.878 L579.5,208.713 M580.5,218.415 L580.5,212.261 M581.5,205.665 L581.5,197.642 M582.5,189.553 L582.5,179.839 M583.5,178.182 L583.5,164.964 M584.5,153.812 L584.5,143.109 M585.5,129.748 L585.5,122.396 M586.5,118.233 L586.5,116.597 M587.5,138.153 L587.5,127.707 M588.5,159.419 L588.5,148.995 M589.5,178.715 L589.5,167.285 M590.5,192.484 L590.5,181.539 M591.5,215.984 L591.5,204.146 M592.5,232.203 L592.5,227.133 M593.5,234.895 L593.5,232.851 M594.5,225.6 L594.5,217.62 M595.5,207.025 L595.5,199.009 M596.5,186.891 L596.5,177.379 M597.5,175.205 L597.5,166.074 M598.5,156.816 L598.5,150.438 M599.5,142.493 L599.5,137.574 M600.5,132.894 L600.5,129.567 M602.5,136.648 L602.5,133.606 M603.5,147.144 L603.5,141.808 M604.5,157.993 L604.5,152.998 M605.5,169.946 L605.5,164.835 M606.5,176.342 L606.5,171.751 M607.5,185.097 L607.5,180.832 M608.5,191.652 L608.5,189.432 M611.5,199.095 L611.5,198.048 M612.5,203.401 L612.5,201.744 M615.5,205.832 L615.5,203.27 M616.5,197.388 L616.5,192.6 M617.5,185.419 L617.5,179.718 M618.5,176.921 L618.5,168.696 M619.5,162.507 L619.5,156.336 M620.5,148.29 L620.5,142.803 M621.5,135.761 L621.5,131.268 M622.5,125.788 L622.5,122.562 M624.5,128.465 L624.5,124.599 M625.5,143.153 L625.5,135.847 M626.5,162.433 L626.5,153.166 M627.5,178.364 L627.5,167.636 M628.5,191.54 L628.5,183.772 M629.5,204.527 L629.5,199.637 M630.5,211.8 L630.5,209.758 M632.5,208.747 L632.5,205.519 M633.5,200.364 L633.5,196.058 M634.5,189.499 L634.5,184.797 M635.5,178.497 L635.5,174.011 M636.5,171.345 L636.5,167.587 M637.5,162.983 L637.5,160.414 M638.5,156.901 L638.5,155.638 M640.5,158.305 L640.5,156.686 M641.5,164.197 L641.5,161.746 M642.5,170.105 L642.5,167.781 M643.5,174.82 L643.5,172.099 M647.5,176.535 L647.5,175.494 M648.5,173.489 L648.5,171.82 M649.5,169.862 L649.5,168.637 M654.5,170.886 L654.5,169.479 M655.5,175.062 L655.5,173.192 M656.5,179.274 L656.5,177.865 M661.5,177.101 L661.5,175.637 M662.5,173.663 L662.5,171.978"/>
</g>

<g fill="none" stroke="#000080" stroke-opacity="1" stroke-width="1" stroke-linecap="square" stroke-linejoin="bevel" transform="matrix(1,0,0,1,0,0)"
font-family="Segoe UI" font-size="9" font-weight="400" font-style="normal" 
>
</g>

<g fill="none" stroke="#000000" stroke-opacity="1" stroke-width="1" stroke-linecap="square" stroke-linejoin="bevel" transform="matrix(1,0,0,1,0,0)"
font-family="Segoe UI" font-size="9" font-weight="400" font-style="normal" 
>
</g>

<g fill="#ffffff" fill-opacity="1" stroke="#ffffff" stroke-opacity="1" stroke-width="1" stroke-linecap="square" stroke-linejoin="bevel" transform="matrix(1,0,0,1,0,0)"
font-family="Segoe UI" font-size="9" font-weight="400" font-style="normal" 
>
<rect x="684" y="0" width="684" height="346"/>
</g>

<g fill="none" stroke="#000000" stroke-opacity="1" stroke-width="1" stroke-linecap="square" stroke-linejoin="bevel" transform="matrix(1,0,0,1,0,0)"
font-family="Segoe UI" font-size="9" font-weight="400" font-style="normal" 
>
</g>

<g fill="none" stroke="#0000c0" stroke-opacity="1" stroke-width="1" stroke-linecap="square" stroke-linejoin="bevel" transform="matrix(1,0,0,1,684,0)"
font-family="Segoe UI" font-size="9" font-weight="400" font-style="normal" 
>
<polyline fill="none" vector-effect="non-scaling-stroke" points="0,173.5 684,173.5 " />
</g>

<g fill="none" stroke="#000080" stroke-opacity="1" stroke-width="1" stroke-linecap="square" stroke-linejoin="bevel" transform="matrix(1,0,0,1,684,0)"
font-family="Segoe UI" font-size="9" font-weight="400" font-style="normal" 
>
<path vector-effect="non-scaling-stroke" fill-rule="evenodd" d="M0.5,174.531 L0.5,176.601 M1.5,176.659 L1.5,178.047 M1.5,177.353 L2.5,178.269 L3.5,178.15 M4.5,176.184 L4.5,177.789 M5.5,174.257 L5.5,176.173 M6.5,172.483 L6.5,174.251 M6.5,173.367 L7.5,172.353"/>
</g>

<g fill="none" stroke="#000000" stroke-opacity="1" stroke-width="1" stroke-linecap="square" stroke-linejoin="bevel" transform="matrix(1,0,0,1,0,0)"
font-family="Segoe UI" font-size="9" font-weight="400" font-style="normal" 
>
</g>
</g>
</svg>
